<?xml version="1.0" standalone="no"?>
<!DOCTYPE svg PUBLIC "-//W3C//DTD SVG 1.1//EN" "http://www.w3.org/Graphics/SVG/1.1/DTD/svg11.dtd" >
<svg>
<metadata>
Created by FontForge 20120731 at Tue Sep 10 18:44:32 2019
 By www-data
Designed for Typetype in 2016 by Ivan Gladkikh. TT Supermolot Condensed is one of series of fontfamilies which were designed for use in web and mobile applications, print and multimedia environments.
</metadata>
<defs>
<font id="TTSupermolotCondensed-Bold" horiz-adv-x="495" >
  <font-face 
    font-family="TT Supermolot Condensed"
    font-weight="700"
    font-stretch="normal"
    units-per-em="1000"
    panose-1="2 0 8 6 4 0 0 2 0 3"
    ascent="800"
    descent="-200"
    x-height="510"
    cap-height="700"
    bbox="-35 -260 1130 935"
    underline-thickness="50"
    underline-position="-50"
    stemh="110"
    stemv="130"
    unicode-range="U+000D-F6D4"
  />
<missing-glyph horiz-adv-x="0" 
 />
    <glyph glyph-name=".notdef" horiz-adv-x="0" 
 />
    <glyph glyph-name="F" unicode="F" 
d="M485 700v-75l-35 -35h-250v-215h200v-110h-200v-265h-130v700h415z" />
    <glyph glyph-name="G" unicode="G" horiz-adv-x="555" 
d="M440 590h-210c-30 0 -50 -20 -50 -45v-390c0 -25 20 -45 50 -45h135v275h130v-385h-300c-90 0 -145 55 -145 135v430c0 80 55 135 145 135h280v-75z" />
    <glyph glyph-name="H" unicode="H" horiz-adv-x="595" 
d="M200 0h-130v700h130v-290h195v290h130v-700h-130v300h-195v-300z" />
    <glyph glyph-name="I" unicode="I" horiz-adv-x="270" 
d="M200 0h-130v700h130v-700z" />
    <glyph glyph-name="J" unicode="J" horiz-adv-x="430" 
d="M10 -10v110h170c30 0 50 20 50 45v555h130v-575c0 -80 -55 -135 -145 -135h-205z" />
    <glyph glyph-name="L" unicode="L" horiz-adv-x="485" 
d="M200 110h275v-110h-405v700h130v-590z" />
    <glyph glyph-name="M" unicode="M" horiz-adv-x="780" 
d="M450 95h-120l-115 365h-10l-35 -460h-135v55l70 645h155l125 -390h10l125 390h155l70 -645v-55h-135l-35 460h-10z" />
    <glyph glyph-name="N" unicode="N" horiz-adv-x="595" 
d="M525 0h-135l-195 440h-10l15 -180v-260h-130v700h135l195 -440h10l-15 180v260h130v-700z" />
    <glyph glyph-name="O" unicode="O" horiz-adv-x="580" 
d="M230 100h120c30 0 50 20 50 45v410c0 25 -20 45 -50 45h-120c-30 0 -50 -20 -50 -45v-410c0 -25 20 -45 50 -45zM385 -10h-190c-90 0 -145 55 -145 135v450c0 80 55 135 145 135h190c90 0 145 -55 145 -135v-450c0 -80 -55 -135 -145 -135z" />
    <glyph glyph-name="P" unicode="P" horiz-adv-x="560" 
d="M200 0h-130v700h305c90 0 145 -55 145 -135v-210c0 -80 -55 -135 -145 -135h-175v-220zM340 590h-140v-260h140c30 0 50 20 50 45v170c0 25 -20 45 -50 45z" />
    <glyph glyph-name="R" unicode="R" horiz-adv-x="565" 
d="M200 0h-130v700h305c90 0 145 -55 145 -135v-170c0 -105 -90 -125 -90 -125l105 -215v-55h-130l-105 260h-100v-260zM340 590h-140v-220h140c30 0 50 20 50 45v130c0 25 -20 45 -50 45z" />
    <glyph glyph-name="Q" unicode="Q" horiz-adv-x="580" 
d="M385 -10h-35l60 -105v-45h-125l-55 150h-35c-90 0 -145 55 -145 135v450c0 80 55 135 145 135h190c90 0 145 -55 145 -135v-450c0 -80 -55 -135 -145 -135zM230 100h120c30 0 50 20 50 45v410c0 25 -20 45 -50 45h-120c-30 0 -50 -20 -50 -45v-410c0 -25 20 -45 50 -45z
" />
    <glyph glyph-name="S" unicode="S" horiz-adv-x="510" 
d="M40 460v105c0 80 55 135 145 135h270v-75l-35 -35h-200c-30 0 -50 -20 -50 -45v-75c0 -20 15 -33 40 -40l150 -40c70 -19 115 -65 115 -140v-115c0 -80 -55 -135 -145 -135h-295v110h260c30 0 50 20 50 45v85c0 20 -15 33 -40 40l-150 40c-70 19 -115 65 -115 140z" />
    <glyph glyph-name="U" unicode="U" horiz-adv-x="600" 
d="M70 700h130v-555c0 -25 20 -45 50 -45h100c30 0 50 20 50 45v555h130v-575c0 -80 -55 -135 -145 -135h-170c-90 0 -145 55 -145 135v575z" />
    <glyph glyph-name="V" unicode="V" horiz-adv-x="530" 
d="M355 0h-180l-160 645v55h130l115 -525h10l115 525h130v-55z" />
    <glyph glyph-name="W" unicode="W" horiz-adv-x="810" 
d="M470 590l95 -360h10l70 470h145v-55l-125 -645h-155l-100 370h-10l-100 -370h-155l-125 645v55h145l70 -470h10l95 360h130z" />
    <glyph glyph-name="X" unicode="X" horiz-adv-x="540" 
d="M275 270h-10l-120 -270h-130v55l150 300l-135 290v55h130l105 -260h10l105 260h130v-55l-135 -290l150 -300v-55h-130z" />
    <glyph glyph-name="Y" unicode="Y" horiz-adv-x="510" 
d="M10 700h130l110 -325h10l110 325h130v-55l-180 -435v-210h-130v210l-180 435v55z" />
    <glyph glyph-name="Z" unicode="Z" horiz-adv-x="470" 
d="M165 110h290v-110h-440v110l290 470v10h-245l-35 35v75h430v-110l-290 -470v-10z" />
    <glyph glyph-name="afii10018" unicode="&#x411;" horiz-adv-x="550" 
d="M480 700v-75l-35 -35h-245v-160h170c90 0 145 -55 145 -135v-160c0 -80 -55 -135 -145 -135h-300v700h410zM335 320h-135v-210h135c30 0 50 20 50 45v120c0 25 -20 45 -50 45z" />
    <glyph glyph-name="afii10020" unicode="&#x413;" horiz-adv-x="470" 
d="M460 700v-75l-35 -35h-225v-590h-130v700h390z" />
    <glyph glyph-name="afii10021" unicode="&#x414;" horiz-adv-x="595" 
d="M130 0l-15 -130h-115v240h20s53 25 60 90l50 500h380v-590h65v-240h-115l-15 130h-315zM250 590l-40 -390c-7 -65 -55 -80 -55 -80v-10h225v480h-130z" />
    <glyph glyph-name="afii10024" unicode="&#x416;" horiz-adv-x="830" 
d="M480 0h-130v300h-85l-115 -300h-130v55l135 300l-125 290v55h130l105 -290h85v290h130v-290h85l105 290h130v-55l-125 -290l135 -300v-55h-130l-115 300h-85v-300z" />
    <glyph glyph-name="afii10025" unicode="&#x417;" horiz-adv-x="485" 
d="M20 700h275c90 0 145 -55 145 -135v-105c0 -75 -90 -90 -90 -90v-10s95 -5 95 -120v-105c0 -80 -55 -135 -145 -135h-280v110h245c30 0 50 20 50 45v105c0 25 -20 45 -50 45h-140v110h135c30 0 50 20 50 45v85c0 25 -20 45 -50 45h-205l-35 35v75z" />
    <glyph glyph-name="afii10026" unicode="&#x418;" horiz-adv-x="595" 
d="M390 700h135v-700h-130v265l15 180h-10l-195 -445h-135v700h130v-265l-15 -180h10z" />
    <glyph glyph-name="afii10027" unicode="&#x419;" horiz-adv-x="595" 
d="M390 700h135v-700h-130v265l15 180h-10l-195 -445h-135v700h130v-265l-15 -180h10zM345 780h-95c-65 0 -100 35 -100 100v55h100v-50c0 -15 10 -25 30 -25h35c20 0 30 10 30 25v50h100v-55c0 -65 -35 -100 -100 -100z" />
    <glyph glyph-name="afii10029" unicode="&#x41b;" horiz-adv-x="595" 
d="M85 150l55 550h385v-700h-130v590h-135l-45 -440c-11 -110 -60 -160 -165 -160h-50v110h25c30 0 57 25 60 50z" />
    <glyph glyph-name="afii10033" unicode="&#x41f;" horiz-adv-x="595" 
d="M200 0h-130v700h455v-700h-130v590h-195v-590z" />
    <glyph glyph-name="afii10037" unicode="&#x423;" horiz-adv-x="515" 
d="M15 700h130l115 -375h10l100 375h130v-55l-160 -480c-40 -120 -95 -175 -210 -175h-45v110h30c30 0 45 15 70 65l-170 480v55z" />
    <glyph glyph-name="afii10038" unicode="&#x424;" horiz-adv-x="800" 
d="M465 735v-90h140c90 0 145 -55 145 -135v-320c0 -80 -55 -135 -145 -135h-140v-80h-130v80h-140c-90 0 -145 55 -145 135v320c0 80 55 135 145 135h140v90h130zM570 535h-105v-370h105c30 0 50 20 50 45v280c0 25 -20 45 -50 45zM180 210c0 -25 20 -45 50 -45h105v370
h-105c-30 0 -50 -20 -50 -45v-280z" />
    <glyph glyph-name="afii10040" unicode="&#x426;" horiz-adv-x="605" 
d="M455 0h-385v700h130v-590h190v590h130v-590h65v-240h-115z" />
    <glyph glyph-name="afii10041" unicode="&#x427;" horiz-adv-x="570" 
d="M500 0h-130v240h-165c-90 0 -145 55 -145 135v325h130v-305c0 -25 20 -45 50 -45h130v350h130v-700z" />
    <glyph glyph-name="afii10042" unicode="&#x428;" horiz-adv-x="870" 
d="M370 700h130v-590h170v590h130v-700h-730v700h130v-590h170v590z" />
    <glyph glyph-name="afii10043" unicode="&#x429;" horiz-adv-x="885" 
d="M370 700h130v-590h170v590h130v-590h65v-240h-115l-15 130h-665v700h130v-590h170v590z" />
    <glyph glyph-name="afii10044" unicode="&#x42a;" horiz-adv-x="600" 
d="M0 590v110h250v-240h165c90 0 145 -55 145 -135v-190c0 -80 -55 -135 -145 -135h-295v590h-120zM250 110h130c30 0 50 20 50 45v150c0 25 -20 45 -50 45h-130v-240z" />
    <glyph glyph-name="afii10045" unicode="&#x42b;" horiz-adv-x="805" 
d="M735 0h-130v700h130v-700zM70 700h130v-240h165c90 0 145 -55 145 -135v-190c0 -80 -55 -135 -145 -135h-295v700zM200 110h130c30 0 50 20 50 45v150c0 25 -20 45 -50 45h-130v-240z" />
    <glyph glyph-name="afii10046" unicode="&#x42c;" horiz-adv-x="560" 
d="M70 700h130v-240h175c90 0 145 -55 145 -135v-190c0 -80 -55 -135 -145 -135h-305v700zM200 110h140c30 0 50 20 50 45v150c0 25 -20 45 -50 45h-140v-240z" />
    <glyph glyph-name="afii10047" unicode="&#x42d;" 
d="M265 590h-210l-35 35v75h280c90 0 145 -55 145 -135v-430c0 -80 -55 -135 -145 -135h-280v110h245c30 0 50 20 50 45v145h-180v110h180v135c0 25 -20 45 -50 45z" />
    <glyph glyph-name="afii10048" unicode="&#x42e;" horiz-adv-x="810" 
d="M615 -10h-155c-90 0 -145 55 -145 135v175h-115v-300h-130v700h130v-290h115v165c0 80 55 135 145 135h155c90 0 145 -55 145 -135v-450c0 -80 -55 -135 -145 -135zM495 100h85c30 0 50 20 50 45v410c0 25 -20 45 -50 45h-85c-30 0 -50 -20 -50 -45v-410
c0 -25 20 -45 50 -45z" />
    <glyph glyph-name="afii10049" unicode="&#x42f;" horiz-adv-x="580" 
d="M510 0h-130v260h-100l-105 -260h-130v55l105 215s-90 20 -90 125v170c0 80 55 135 145 135h305v-700zM380 590h-140c-30 0 -50 -20 -50 -45v-130c0 -25 20 -45 50 -45h140v220z" />
    <glyph glyph-name="space" unicode=" " horiz-adv-x="215" 
 />
    <glyph glyph-name="one" unicode="1" horiz-adv-x="315" 
d="M10 660l135 40h100v-700h-130v585h-105v75z" />
    <glyph glyph-name="two" unicode="2" horiz-adv-x="485" 
d="M185 110h270v-110h-435v110l260 280c20 21 45 45 45 80v75c0 25 -20 45 -50 45h-210l-35 35v75h280c90 0 145 -55 145 -135v-95c0 -65 -39 -105 -100 -170l-170 -180v-10z" />
    <glyph glyph-name="three" unicode="3" 
d="M430 590l-165 -170v-10h40c90 0 145 -55 145 -135v-140c0 -80 -55 -135 -145 -135h-285v110h250c30 0 50 20 50 45v100c0 25 -20 45 -50 45h-155v110l165 170v10h-220l-35 34v76h405v-110z" />
    <glyph glyph-name="four" unicode="4" horiz-adv-x="520" 
d="M435 0h-130v150h-285v110l255 440h160v-440h65v-110h-65v-150zM305 510h-10l-140 -240v-10h150v250z" />
    <glyph glyph-name="five" unicode="5" horiz-adv-x="510" 
d="M290 320h-230v380h390v-75l-35 -35h-225v-160h135c90 0 145 -55 145 -135v-160c0 -80 -55 -135 -145 -135h-275v110h240c30 0 50 20 50 45v120c0 25 -20 45 -50 45z" />
    <glyph glyph-name="six" unicode="6" horiz-adv-x="530" 
d="M310 320h-130v-175c0 -25 20 -45 50 -45h80c30 0 50 20 50 45v130c0 25 -20 45 -50 45zM50 125v440c0 80 55 135 145 135h265v-75l-35 -35h-195c-30 0 -50 -20 -50 -45v-115h165c90 0 145 -55 145 -135v-170c0 -80 -55 -135 -145 -135h-150c-90 0 -145 55 -145 135z" />
    <glyph glyph-name="seven" unicode="7" horiz-adv-x="460" 
d="M225 0h-120v55l190 525v10h-275v110h420v-110z" />
    <glyph glyph-name="eight" unicode="8" horiz-adv-x="530" 
d="M360 145v115c0 25 -20 45 -50 45h-90c-30 0 -50 -20 -50 -45v-115c0 -25 20 -45 51 -45h89c30 0 50 20 50 45zM300 600h-70c-30 0 -50 -20 -50 -45v-95c0 -25 20 -45 50 -45h70c30 0 50 20 50 45v95c0 25 -20 45 -50 45zM345 -10h-160c-90 0 -145 55 -145 135v125
c0 100 95 110 95 110v10s-85 20 -85 95v110c0 80 55 135 145 135h140c90 0 145 -55 145 -135v-110c0 -75 -85 -95 -85 -95v-10s95 -10 95 -110v-125c0 -80 -55 -135 -145 -135z" />
    <glyph glyph-name="nine" unicode="9" horiz-adv-x="530" 
d="M220 380h130v175c0 25 -20 45 -50 45h-80c-30 0 -50 -20 -50 -45v-130c0 -25 20 -45 50 -45zM480 575v-440c0 -80 -55 -135 -145 -135h-265v110h230c30 0 50 20 50 45v115h-165c-90 0 -145 55 -145 135v170c0 80 55 135 145 135h150c90 0 145 -55 145 -135z" />
    <glyph glyph-name="zero" unicode="0" horiz-adv-x="545" 
d="M230 100h85c30 0 50 20 50 45v410c0 25 -20 45 -50 45h-85c-30 0 -50 -20 -50 -45v-410c0 -25 20 -45 50 -45zM350 -10h-155c-90 0 -145 55 -145 135v450c0 80 55 135 145 135h155c90 0 145 -55 145 -135v-450c0 -80 -55 -135 -145 -135z" />
    <glyph glyph-name="question" unicode="?" horiz-adv-x="450" 
d="M240 0h-110v125h110v-125zM240 255v-40h-110v40c0 80 30 110 75 135l45 25c15 8 30 25 30 55v75c0 25 -20 45 -50 45h-180l-35 35v75h250c90 0 145 -55 145 -135v-95c0 -75 -20 -96 -90 -135l-45 -25c-20 -11 -35 -25 -35 -55z" />
    <glyph glyph-name="colon" unicode=":" horiz-adv-x="225" 
d="M170 0h-115v125h115v-125zM170 385h-115v125h115v-125z" />
    <glyph glyph-name="semicolon" unicode=";" horiz-adv-x="225" 
d="M170 35l-60 -130h-55v220h115v-90zM170 385h-115v125h115v-125z" />
    <glyph glyph-name="period" unicode="." horiz-adv-x="205" 
d="M160 0h-115v125h115v-125z" />
    <glyph glyph-name="comma" unicode="," horiz-adv-x="205" 
d="M160 35l-60 -130h-55v220h115v-90z" />
    <glyph glyph-name="exclam" unicode="!" horiz-adv-x="255" 
d="M85 225l-25 250v225h135v-225l-25 -250h-85zM185 0h-115v125h115v-125z" />
    <glyph glyph-name="numbersign" unicode="#" horiz-adv-x="615" 
d="M20 260h100l40 180h-90v100h115l35 160h115l-35 -160h100l35 160h115l-35 -160h80v-100h-105l-40 -180h95v-100h-115l-35 -160h-115l35 160h-100l-35 -160h-115l35 160h-80v100zM275 440l-40 -180h100l40 180h-100z" />
    <glyph glyph-name="ampersand" unicode="&#x26;" horiz-adv-x="565" 
d="M160 370v10s-60 55 -60 100v85c0 80 55 135 145 135h220v-75l-35 -35h-150c-30 0 -50 -20 -50 -45v-65c0 -15 10 -25 30 -50l305 -375v-55h-130l-35 50h-10s-20 -60 -110 -60h-100c-90 0 -145 55 -145 135v110c0 80 55 135 125 135zM330 145l-104 145h-11
c-30 0 -50 -20 -50 -45v-100c0 -25 20 -45 50 -45h65c50 0 50 45 50 45z" />
    <glyph glyph-name="dollar" unicode="$" horiz-adv-x="510" 
d="M40 460v105c0 80 55 135 145 135h10v100h120v-100h140v-75l-35 -35h-200c-30 0 -50 -20 -50 -45v-75c0 -20 15 -33 40 -40l150 -40c70 -19 115 -65 115 -140v-115c0 -80 -55 -135 -145 -135h-15v-100h-120v100h-160v110h260c30 0 50 20 50 45v85c0 20 -15 33 -40 40
l-150 40c-70 19 -115 65 -115 140z" />
    <glyph glyph-name="Euro" unicode="&#x20ac;" horiz-adv-x="535" 
d="M30 320h60v60h-60v100h60v85c0 80 55 135 145 135h280v-75l-35 -35h-210c-30 0 -50 -20 -50 -45v-65h185v-100h-185v-60h185v-100h-185v-65c0 -25 20 -45 50 -45h245v-110h-280c-90 0 -145 55 -145 135v85h-60v100z" />
    <glyph glyph-name="afii61352" unicode="&#x2116;" horiz-adv-x="905" 
d="M605 290h250v-90h-250v90zM525 0h-135l-195 440h-10l15 -180v-260h-130v700h135l195 -440h10l-15 180v260h130v-700zM750 370h-40c-70 0 -115 45 -115 95v150c0 50 45 95 115 95h40c70 0 115 -45 115 -95v-150c0 -50 -45 -95 -115 -95zM690 605v-130c0 -15 10 -25 30 -25
h20c20 0 30 10 30 25v130c0 15 -10 25 -30 25h-20c-20 0 -30 -10 -30 -25z" />
    <glyph glyph-name="currency" unicode="&#xa4;" horiz-adv-x="580" 
d="M220 0h-130v120h-60v100h60v60h-60v100h60v320h305c90 0 145 -55 145 -135v-150c0 -80 -55 -135 -145 -135h-175v-60h230v-100h-230v-120zM360 590h-140v-210h140c30 0 50 20 50 45v120c0 25 -20 45 -50 45z" />
    <glyph glyph-name="at" unicode="@" horiz-adv-x="760" 
d="M700 200h-90l-10 50h-10s-30 -60 -100 -60h-65c-80 0 -135 55 -135 125v65c0 70 55 125 135 125h150v80c0 25 -15 40 -45 40h-305c-35 0 -55 -20 -55 -50v-450c0 -30 20 -50 55 -50h460v-105h-490c-80 0 -135 55 -135 125v510c0 70 55 125 135 125h370
c80 0 135 -55 135 -125v-405zM415 360v-25c0 -25 15 -40 45 -40h55c45 0 60 45 60 45v60h-115c-30 0 -45 -15 -45 -40z" />
    <glyph glyph-name="guillemotleft" unicode="&#xab;" horiz-adv-x="415" 
d="M135 270l75 -160v-20h-100l-80 180l80 180h100v-20zM310 270l75 -160v-20h-100l-80 180l80 180h100v-20z" />
    <glyph glyph-name="guillemotright" unicode="&#xbb;" horiz-adv-x="415" 
d="M205 110l75 160l-75 160v20h100l80 -180l-80 -180h-100v20zM30 110l75 160l-75 160v20h100l80 -180l-80 -180h-100v20z" />
    <glyph glyph-name="quotedblright" unicode="&#x201d;" horiz-adv-x="370" 
d="M160 610l-60 -130h-55v220h115v-90zM325 610l-60 -130h-55v220h115v-90z" />
    <glyph glyph-name="quotedblleft" unicode="&#x201c;" horiz-adv-x="370" 
d="M45 570l60 130h55v-220h-115v90zM210 570l60 130h55v-220h-115v90z" />
    <glyph glyph-name="quotedblbase" unicode="&#x201e;" horiz-adv-x="370" 
d="M160 35l-60 -130h-55v220h115v-90zM325 35l-60 -130h-55v220h115v-90z" />
    <glyph glyph-name="asterisk" unicode="*" horiz-adv-x="360" 
d="M180 450l-75 -90l-50 35l65 105l-100 35l15 60l105 -20l10 125h60l10 -125l105 20l15 -60l-100 -35l65 -105l-50 -35z" />
    <glyph glyph-name="degree" unicode="&#xb0;" horiz-adv-x="350" 
d="M195 370h-40c-70 0 -115 45 -115 95v150c0 50 45 95 115 95h40c70 0 115 -45 115 -95v-150c0 -50 -45 -95 -115 -95zM135 605v-130c0 -15 10 -25 30 -25h20c20 0 30 10 30 25v130c0 15 -10 25 -30 25h-20c-20 0 -30 -10 -30 -25z" />
    <glyph glyph-name="parenleft" unicode="(" horiz-adv-x="310" 
d="M300 670h-50c-30 0 -50 -20 -50 -45v-660c0 -25 20 -45 50 -45h50v-110h-85c-90 0 -145 55 -145 135v700c0 80 55 135 145 135h85v-110z" />
    <glyph glyph-name="parenright" unicode=")" horiz-adv-x="310" 
d="M60 670h-50v110h85c90 0 145 -55 145 -135v-700c0 -80 -55 -135 -145 -135h-85v110h50c30 0 50 20 50 45v660c0 25 -20 45 -50 45z" />
    <glyph glyph-name="braceleft" unicode="{" horiz-adv-x="315" 
d="M130 300v-10s85 -10 85 -100v-225c0 -25 20 -45 50 -45h40v-110h-75c-90 0 -145 55 -145 135v245c0 30 -20 50 -65 50v110c45 0 65 20 65 50v245c0 80 55 135 145 135h75v-110h-40c-30 0 -50 -20 -50 -45v-225c0 -90 -85 -100 -85 -100z" />
    <glyph glyph-name="braceright" unicode="}" horiz-adv-x="315" 
d="M185 290v10s-85 10 -85 100v225c0 25 -20 45 -50 45h-40v110h75c90 0 145 -55 145 -135v-245c0 -30 20 -50 65 -50v-110c-45 0 -65 -20 -65 -50v-245c0 -80 -55 -135 -145 -135h-75v110h40c30 0 50 20 50 45v225c0 90 85 100 85 100z" />
    <glyph glyph-name="bracketleft" unicode="[" horiz-adv-x="300" 
d="M190 670v-750h100v-110h-230v970h230v-110h-100z" />
    <glyph glyph-name="bracketright" unicode="]" horiz-adv-x="300" 
d="M110 -80v750h-100v110h230v-970h-230v110h100z" />
    <glyph glyph-name="hyphen" unicode="-" horiz-adv-x="405" 
d="M30 375h345v-105h-345v105z" />
    <glyph glyph-name="plus" unicode="+" horiz-adv-x="455" 
d="M280 535v-160h145v-105h-145v-160h-105v160h-145v105h145v160h105z" />
    <glyph glyph-name="plusminus" unicode="&#xb1;" horiz-adv-x="475" 
d="M45 170h140v130h-145v105h145v160h105v-160h145v-105h-145v-130h140v-105h-385v105z" />
    <glyph glyph-name="equal" unicode="=" horiz-adv-x="425" 
d="M45 270h335v-100h-335v100zM45 475h335v-100h-335v100z" />
    <glyph glyph-name="asciitilde" unicode="~" horiz-adv-x="455" 
d="M225 265l-30 35c-12 15 -20 25 -35 25h-5c-10 0 -15 -5 -15 -20v-80h-100v130c0 55 30 85 75 85h30c45 0 65 -21 85 -45l30 -35c12 -15 20 -25 35 -25h5c10 0 15 5 15 20v80h100v-130c0 -55 -30 -85 -75 -85h-30c-45 0 -65 21 -85 45z" />
    <glyph glyph-name="underscore" unicode="_" horiz-adv-x="375" 
d="M20 -70h335v-105h-335v105z" />
    <glyph glyph-name="endash" unicode="&#x2013;" horiz-adv-x="475" 
d="M30 360h415v-100h-415v100z" />
    <glyph glyph-name="emdash" unicode="&#x2014;" horiz-adv-x="710" 
d="M30 360h650v-100h-650v100z" />
    <glyph glyph-name="asciicircum" unicode="^" horiz-adv-x="390" 
d="M370 450h-110l-60 130h-10l-60 -130h-110l120 250h110z" />
    <glyph glyph-name="grave" unicode="`" horiz-adv-x="260" 
d="M40 700h115l65 -150h-90z" />
    <glyph glyph-name="copyright" unicode="&#xa9;" horiz-adv-x="845" 
d="M550 170h-145c-65 0 -115 50 -115 110v140c0 60 50 110 115 110h145v-65l-25 -25h-90c-25 0 -40 -15 -40 -40v-100c0 -25 15 -40 40 -40h115v-90zM70 95v510c0 70 55 125 135 125h435c80 0 135 -55 135 -125v-510c0 -70 -55 -125 -135 -125h-435c-80 0 -135 55 -135 125z
M235 75h375c35 0 55 20 55 50v450c0 30 -20 50 -55 50h-375c-35 0 -55 -20 -55 -50v-450c0 -30 20 -50 55 -50z" />
    <glyph glyph-name="registered" unicode="&#xae;" horiz-adv-x="845" 
d="M565 435v-65c0 -60 -41 -80 -41 -80l46 -85v-35h-105l-40 105h-40v-105h-105v360h170c80 0 115 -35 115 -95zM435 440h-50v-75h50c15 0 25 10 25 25v25c0 15 -10 25 -25 25zM70 95v510c0 70 55 125 135 125h435c80 0 135 -55 135 -125v-510c0 -70 -55 -125 -135 -125
h-435c-80 0 -135 55 -135 125zM235 75h375c35 0 55 20 55 50v450c0 30 -20 50 -55 50h-375c-35 0 -55 -20 -55 -50v-450c0 -30 20 -50 55 -50z" />
    <glyph glyph-name="trademark" unicode="&#x2122;" horiz-adv-x="670" 
d="M0 620v80h260v-60l-20 -20h-65v-230h-90v230h-85zM490 430h-65l-50 140h-5l-10 -180h-85v35l30 275h90l60 -165h5l60 165h90l30 -275v-35h-85l-10 180h-5z" />
    <glyph glyph-name="slash" unicode="/" horiz-adv-x="470" 
d="M450 695l-320 -745h-110v55l320 745h110v-55z" />
    <glyph glyph-name="bar" unicode="|" horiz-adv-x="280" 
d="M205 800v-970h-130v970h130z" />
    <glyph glyph-name="backslash" unicode="\" horiz-adv-x="470" 
d="M340 -50l-320 745v55h110l320 -745v-55h-110z" />
    <glyph glyph-name="percent" unicode="%" horiz-adv-x="750" 
d="M510 700h80v-50l-350 -650h-80v50zM195 370h-40c-70 0 -115 45 -115 95v150c0 50 45 95 115 95h40c70 0 115 -45 115 -95v-150c0 -50 -45 -95 -115 -95zM135 605v-130c0 -15 10 -25 30 -25h20c20 0 30 10 30 25v130c0 15 -10 25 -30 25h-20c-20 0 -30 -10 -30 -25z
M595 -10h-40c-70 0 -115 45 -115 95v150c0 50 45 95 115 95h40c70 0 115 -45 115 -95v-150c0 -50 -45 -95 -115 -95zM535 225v-130c0 -15 10 -25 30 -25h20c20 0 30 10 30 25v130c0 15 -10 25 -30 25h-20c-20 0 -30 -10 -30 -25z" />
    <glyph glyph-name="paragraph" unicode="&#xb6;" horiz-adv-x="520" 
d="M145 700h365v-115h-60v-755h-115v755h-55v-755h-115v510h-20c-70 0 -115 45 -115 110v135c0 70 45 115 115 115z" />
    <glyph glyph-name="section" unicode="&#xa7;" horiz-adv-x="465" 
d="M255 345l-45 10s-35 -10 -35 -55v-65c0 -20 15 -36 35 -40l45 -10s35 10 35 55v65c0 20 -15 36 -35 40zM50 220v80c0 85 60 95 60 95v10s-60 10 -60 85v85c0 70 55 125 135 125h215v-75l-30 -30h-150c-30 0 -45 -15 -45 -40v-50c0 -20 15 -35 35 -40l110 -25
c55 -12 95 -50 95 -120v-80c0 -85 -60 -95 -60 -95v-10s60 -10 60 -85v-95c0 -70 -55 -125 -135 -125h-230v105h195c30 0 45 15 45 40v60c0 20 -15 35 -35 40l-110 25c-55 12 -95 50 -95 120z" />
    <glyph glyph-name="dagger" unicode="&#x2020;" horiz-adv-x="490" 
d="M180 515l20 205h90l20 -205h150v-115h-150v-570h-130v570h-150v115h150z" />
    <glyph glyph-name="quotesingle" unicode="'" horiz-adv-x="180" 
d="M60 480l-20 120v100h100v-100l-20 -120h-60z" />
    <glyph glyph-name="quotedbl" unicode="&#x22;" horiz-adv-x="340" 
d="M220 480l-20 120v100h100v-100l-20 -120h-60zM60 480l-20 120v100h100v-100l-20 -120h-60z" />
    <glyph glyph-name="less" unicode="&#x3c;" horiz-adv-x="440" 
d="M160 260v-10l235 -120v-115l-360 185v110l360 185v-115z" />
    <glyph glyph-name="greater" unicode="&#x3e;" horiz-adv-x="440" 
d="M280 250v10l-235 120v115l360 -185v-110l-360 -185v115z" />
    <glyph glyph-name="quotesinglbase" unicode="&#x201a;" horiz-adv-x="205" 
d="M160 35l-60 -130h-55v220h115v-90z" />
    <glyph glyph-name="guilsinglleft" unicode="&#x2039;" horiz-adv-x="295" 
d="M30 260l125 215h100v-45l-100 -170l100 -170v-45h-100z" />
    <glyph glyph-name="periodcentered" unicode="&#xb7;" horiz-adv-x="215" 
d="M165 285h-115v125h115v-125z" />
    <glyph glyph-name="bullet" unicode="&#x2022;" horiz-adv-x="275" 
d="M60 280v60c0 25 20 45 45 45h65c25 0 45 -21 45 -48v-57c0 -25 -20 -45 -45 -45h-65c-25 0 -45 20 -45 45z" />
    <glyph glyph-name="daggerdbl" unicode="&#x2021;" horiz-adv-x="490" 
d="M200 -190l-20 200h-150v115h150v280h-150v115h150l20 200h90l20 -200h150v-115h-150v-280h150v-115h-150l-20 -200h-90z" />
    <glyph glyph-name="logicalnot" unicode="&#xac;" horiz-adv-x="435" 
d="M40 440h355v-205h-120v100h-235v105z" />
    <glyph glyph-name="ellipsis" unicode="&#x2026;" horiz-adv-x="645" 
d="M160 0h-115v125h115v-125zM380 0h-115v125h115v-125zM600 0h-115v125h115v-125z" />
    <glyph glyph-name="brokenbar" unicode="&#xa6;" horiz-adv-x="290" 
d="M80 800h130v-400h-130v400zM210 230v-400h-130v400h130z" />
    <glyph glyph-name="perthousand" unicode="&#x2030;" horiz-adv-x="1055" 
d="M510 700h80v-50l-350 -650h-80v50zM195 370h-40c-70 0 -115 45 -115 95v150c0 50 45 95 115 95h40c70 0 115 -45 115 -95v-150c0 -50 -45 -95 -115 -95zM135 605v-130c0 -15 10 -25 30 -25h20c20 0 30 10 30 25v130c0 15 -10 25 -30 25h-20c-20 0 -30 -10 -30 -25z
M595 -10h-40c-70 0 -115 45 -115 95v150c0 50 45 95 115 95h40c70 0 115 -45 115 -95v-150c0 -50 -45 -95 -115 -95zM535 225v-130c0 -15 10 -25 30 -25h20c20 0 30 10 30 25v130c0 15 -10 25 -30 25h-20c-20 0 -30 -10 -30 -25zM900 -10h-40c-70 0 -115 45 -115 95v150
c0 50 45 95 115 95h40c70 0 115 -45 115 -95v-150c0 -50 -45 -95 -115 -95zM840 225v-130c0 -15 10 -25 30 -25h20c20 0 30 10 30 25v130c0 15 -10 25 -30 25h-20c-20 0 -30 -10 -30 -25z" />
    <glyph glyph-name="afii10053" unicode="&#x404;" 
d="M440 590h-210c-30 0 -50 -20 -50 -45v-135h180v-110h-180v-145c0 -25 20 -45 50 -45h245v-110h-280c-90 0 -145 55 -145 135v430c0 80 55 135 145 135h280v-75z" />
    <glyph glyph-name="afii10060" unicode="&#x40b;" horiz-adv-x="610" 
d="M380 325h-125v-325h-130v590h-125v110h405v-75l-35 -35h-115v-155h160c90 0 145 -55 145 -135v-300h-130v280c0 25 -20 45 -50 45z" />
    <glyph glyph-name="afii10051" unicode="&#x402;" horiz-adv-x="600" 
d="M380 325h-125v-325h-130v590h-125v110h405v-75l-35 -35h-115v-155h160c90 0 145 -55 145 -135v-185c0 -80 -55 -135 -145 -135h-65v110h30c30 0 50 20 50 45v145c0 25 -20 45 -50 45z" />
    <glyph glyph-name="afii10050" unicode="&#x490;" horiz-adv-x="470" 
d="M460 790v-200h-260v-590h-130v700h270l15 90h105z" />
    <glyph glyph-name="afii10145" unicode="&#x40f;" horiz-adv-x="595" 
d="M230 0h-160v700h130v-590h195v590h130v-700h-160l-15 -130h-105z" />
    <glyph glyph-name="afii10058" unicode="&#x409;" horiz-adv-x="850" 
d="M85 150l55 550h370v-240h155c90 0 145 -55 145 -135v-190c0 -80 -55 -135 -145 -135h-285v590h-120l-45 -440c-11 -110 -60 -160 -165 -160h-50v110h25c30 0 57 25 60 50zM510 110h120c30 0 50 20 50 45v150c0 25 -20 45 -50 45h-120v-240z" />
    <glyph glyph-name="afii10059" unicode="&#x40a;" horiz-adv-x="855" 
d="M200 0h-130v700h130v-260h180v260h130v-260h160c90 0 145 -55 145 -135v-170c0 -80 -55 -135 -145 -135h-290v330h-180v-330zM510 110h125c30 0 50 20 50 45v130c0 25 -20 45 -50 45h-125v-220z" />
    <glyph glyph-name="A" unicode="A" horiz-adv-x="550" 
d="M405 0l-35 150h-190l-35 -150h-130v55l175 645h170l175 -645v-55h-130zM270 525l-65 -265h140l-65 265h-10z" />
    <glyph glyph-name="guilsinglright" unicode="&#x203a;" horiz-adv-x="295" 
d="M140 475l125 -215l-125 -215h-100v45l100 170l-100 170v45h100z" />
    <glyph glyph-name="afii10017" unicode="&#x410;" horiz-adv-x="550" 
d="M405 0l-35 150h-190l-35 -150h-130v55l175 645h170l175 -645v-55h-130zM270 525l-65 -265h140l-65 265h-10z" />
    <glyph glyph-name="afii10019" unicode="&#x412;" horiz-adv-x="560" 
d="M70 0v700h285c90 0 145 -55 145 -135v-100c0 -75 -75 -90 -75 -90v-10s100 -5 100 -125v-105c0 -80 -55 -135 -145 -135h-310zM200 110h145c30 0 50 20 50 45v105c0 25 -20 45 -50 45h-145v-195zM320 590h-120v-175h120c30 0 50 20 50 45v85c0 25 -20 45 -50 45z" />
    <glyph glyph-name="afii10022" unicode="&#x415;" horiz-adv-x="510" 
d="M490 700v-75l-35 -35h-255v-180h210v-110h-210v-190h290v-110h-420v700h420z" />
    <glyph glyph-name="afii10030" unicode="&#x41c;" horiz-adv-x="780" 
d="M450 95h-120l-115 365h-10l-35 -460h-135v55l70 645h155l125 -390h10l125 390h155l70 -645v-55h-135l-35 460h-10z" />
    <glyph glyph-name="afii10031" unicode="&#x41d;" horiz-adv-x="595" 
d="M200 0h-130v700h130v-290h195v290h130v-700h-130v300h-195v-300z" />
    <glyph glyph-name="afii10032" unicode="&#x41e;" horiz-adv-x="580" 
d="M230 100h120c30 0 50 20 50 45v410c0 25 -20 45 -50 45h-120c-30 0 -50 -20 -50 -45v-410c0 -25 20 -45 50 -45zM385 -10h-190c-90 0 -145 55 -145 135v450c0 80 55 135 145 135h190c90 0 145 -55 145 -135v-450c0 -80 -55 -135 -145 -135z" />
    <glyph glyph-name="afii10034" unicode="&#x420;" horiz-adv-x="560" 
d="M200 0h-130v700h305c90 0 145 -55 145 -135v-210c0 -80 -55 -135 -145 -135h-175v-220zM340 590h-140v-260h140c30 0 50 20 50 45v170c0 25 -20 45 -50 45z" />
    <glyph glyph-name="afii10035" unicode="&#x421;" 
d="M440 590h-210c-30 0 -50 -20 -50 -45v-390c0 -25 20 -45 50 -45h245v-110h-280c-90 0 -145 55 -145 135v430c0 80 55 135 145 135h280v-75z" />
    <glyph glyph-name="afii10036" unicode="&#x422;" horiz-adv-x="480" 
d="M10 590v110h460v-75l-35 -35h-130v-590h-130v590h-165z" />
    <glyph glyph-name="afii10039" unicode="&#x425;" horiz-adv-x="540" 
d="M275 270h-10l-120 -270h-130v55l150 300l-135 290v55h130l105 -260h10l105 260h130v-55l-135 -290l150 -300v-55h-130z" />
    <glyph glyph-name="quoteleft" unicode="&#x2018;" horiz-adv-x="205" 
d="M45 570l60 130h55v-220h-115v90z" />
    <glyph glyph-name="quoteright" unicode="&#x2019;" horiz-adv-x="205" 
d="M160 610l-60 -130h-55v220h115v-90z" />
    <glyph glyph-name="T" unicode="T" horiz-adv-x="480" 
d="M10 590v110h460v-75l-35 -35h-130v-590h-130v590h-165z" />
    <glyph glyph-name="afii10028" unicode="&#x41a;" horiz-adv-x="555" 
d="M200 0h-130v700h130v-290h90l105 290h130v-55l-125 -290l135 -300v-55h-130l-115 300h-90v-300z" />
    <glyph glyph-name="K" unicode="K" horiz-adv-x="555" 
d="M200 0h-130v700h130v-290h90l105 290h130v-55l-125 -290l135 -300v-55h-130l-115 300h-90v-300z" />
    <glyph glyph-name="acute" unicode="&#xb4;" horiz-adv-x="270" 
d="M105 750h125l-100 -150h-90z" />
    <glyph glyph-name="breve" unicode="&#x2d8;" horiz-adv-x="355" 
d="M205 600h-55c-80 0 -110 30 -110 100v50h95v-45c0 -15 10 -25 30 -25h25c20 0 30 10 30 25v45h95v-50c0 -70 -30 -100 -110 -100z" />
    <glyph glyph-name="caron" unicode="&#x2c7;" horiz-adv-x="395" 
d="M260 600h-125l-95 150h110l45 -75h5l45 75h110z" />
    <glyph glyph-name="circumflex" unicode="&#x2c6;" horiz-adv-x="395" 
d="M135 750h125l95 -150h-110l-45 75h-5l-45 -75h-110z" />
    <glyph glyph-name="dieresis" unicode="&#xa8;" horiz-adv-x="365" 
d="M150 615h-110v120h110v-120zM325 615h-110v120h110v-120z" />
    <glyph glyph-name="dotaccent" unicode="&#x2d9;" horiz-adv-x="205" 
d="M165 740v-130h-125v130h125z" />
    <glyph glyph-name="hungarumlaut" unicode="&#x2dd;" horiz-adv-x="425" 
d="M105 750h115l-90 -150h-90zM270 750h115l-90 -150h-90z" />
    <glyph glyph-name="macron" unicode="&#xaf;" horiz-adv-x="345" 
d="M40 725h265v-100h-265v100z" />
    <glyph glyph-name="commaaccent" unicode="&#xf6c3;" horiz-adv-x="190" 
d="M150 -140l-55 -120h-55v200h110v-80z" />
    <glyph glyph-name="ring" unicode="&#x2da;" horiz-adv-x="295" 
d="M255 695v-40c0 -50 -35 -85 -85 -85h-45c-50 0 -85 35 -85 85v40c0 50 35 85 85 85h45c50 0 85 -35 85 -85zM180 690c0 15 -10 25 -20 25h-25c-10 0 -20 -10 -20 -25v-30c0 -15 10 -25 20 -25h25c10 0 20 10 20 25v30z" />
    <glyph glyph-name="tilde" unicode="&#x2dc;" horiz-adv-x="340" 
d="M175 625l-15 15c-15 15 -20 20 -30 20c-5 0 -10 -5 -10 -15v-45h-80v85c0 45 25 70 60 70h10c25 0 40 -15 55 -30l15 -15c15 -15 20 -20 30 -20c5 0 10 5 10 15v45h80v-85c0 -45 -25 -70 -60 -70h-10c-25 0 -40 15 -55 30z" />
    <glyph glyph-name="cedilla" unicode="&#xb8;" horiz-adv-x="280" 
d="M155 -240h-115v70h100c10 0 20 10 20 20v20c0 10 -10 20 -20 20h-50l-25 25v85h75v-40h15c50 0 85 -35 85 -85v-30c0 -50 -35 -85 -85 -85z" />
    <glyph glyph-name="ogonek" unicode="&#x2db;" horiz-adv-x="255" 
d="M160 -155h55v-75h-75c-65 0 -100 35 -100 90c0 85 95 140 95 140h80v-10s-80 -60 -80 -120c0 -15 10 -25 25 -25z" />
    <glyph glyph-name="Aacute" unicode="&#xc1;" horiz-adv-x="550" 
d="M405 0l-35 150h-190l-35 -150h-130v55l175 645h170l175 -645v-55h-130zM270 525l-65 -265h140l-65 265h-10zM295 910h125l-100 -140h-90z" />
    <glyph glyph-name="Abreve" unicode="&#x102;" horiz-adv-x="550" 
d="M405 0l-35 150h-190l-35 -150h-130v55l175 645h170l175 -645v-55h-130zM270 525l-65 -265h140l-65 265h-10zM303 770h-55c-80 0 -110 30 -110 100v40h95v-35c0 -15 10 -25 30 -25h25c20 0 30 10 30 25v35h95v-40c0 -70 -30 -100 -110 -100z" />
    <glyph glyph-name="Acircumflex" unicode="&#xc2;" horiz-adv-x="550" 
d="M405 0l-35 150h-190l-35 -150h-130v55l175 645h170l175 -645v-55h-130zM270 525l-65 -265h140l-65 265h-10zM213 910h125l95 -140h-110l-45 65h-5l-45 -65h-110z" />
    <glyph glyph-name="Agrave" unicode="&#xc0;" horiz-adv-x="550" 
d="M405 0l-35 150h-190l-35 -150h-130v55l175 645h170l175 -645v-55h-130zM270 525l-65 -265h140l-65 265h-10zM140 910h115l65 -140h-90z" />
    <glyph glyph-name="Adieresis" unicode="&#xc4;" horiz-adv-x="550" 
d="M405 0l-35 150h-190l-35 -150h-130v55l175 645h170l175 -645v-55h-130zM270 525l-65 -265h140l-65 265h-10zM240 780h-110v120h110v-120zM420 780h-110v120h110v-120z" />
    <glyph glyph-name="Amacron" unicode="&#x100;" horiz-adv-x="550" 
d="M405 0l-35 150h-190l-35 -150h-130v55l175 645h170l175 -645v-55h-130zM270 525l-65 -265h140l-65 265h-10zM143 890h265v-100h-265v100z" />
    <glyph glyph-name="Atilde" unicode="&#xc3;" horiz-adv-x="550" 
d="M405 0l-35 150h-190l-35 -150h-130v55l175 645h170l175 -645v-55h-130zM270 525l-65 -265h140l-65 265h-10zM280 795c-25 25 -30 30 -40 30s-15 -5 -15 -15v-40h-80v75c0 45 25 70 60 70h10c25 0 40 -15 55 -30c25 -25 30 -30 40 -30s15 5 15 15v40h80v-75
c0 -45 -25 -70 -60 -70h-10c-25 0 -40 15 -55 30z" />
    <glyph glyph-name="AE" unicode="&#xc6;" horiz-adv-x="805" 
d="M145 0h-130v55l205 645h565v-75l-34 -35h-246v-180h200v-110h-200v-190h280v-110h-410v200h-175zM306 590l-76 -280h145v280h-69z" />
    <glyph glyph-name="Cacute" unicode="&#x106;" 
d="M440 590h-210c-30 0 -50 -20 -50 -45v-390c0 -25 20 -45 50 -45h245v-110h-280c-90 0 -145 55 -145 135v430c0 80 55 135 145 135h280v-75zM325 910h125l-100 -140h-90z" />
    <glyph glyph-name="Ccaron" unicode="&#x10c;" 
d="M440 590h-210c-30 0 -50 -20 -50 -45v-390c0 -25 20 -45 50 -45h245v-110h-280c-90 0 -145 55 -145 135v430c0 80 55 135 145 135h280v-75zM365 770h-125l-95 140h110l45 -65h5l45 65h110z" />
    <glyph glyph-name="Ccircumflex" unicode="&#x108;" 
d="M440 590h-210c-30 0 -50 -20 -50 -45v-390c0 -25 20 -45 50 -45h245v-110h-280c-90 0 -145 55 -145 135v430c0 80 55 135 145 135h280v-75zM240 910h125l95 -140h-110l-45 65h-5l-45 -65h-110z" />
    <glyph glyph-name="Dcaron" unicode="&#x10e;" horiz-adv-x="570" 
d="M70 0v700h305c90 0 145 -55 145 -135v-430c0 -80 -55 -135 -145 -135h-305zM340 590h-140v-480h140c30 0 50 20 50 45v390c0 25 -20 45 -50 45zM360 770h-125l-95 140h110l45 -65h5l45 65h110z" />
    <glyph glyph-name="Eacute" unicode="&#xc9;" horiz-adv-x="510" 
d="M490 700v-75l-35 -35h-255v-180h210v-110h-210v-190h290v-110h-420v700h420zM315 910h125l-100 -140h-90z" />
    <glyph glyph-name="Ecaron" unicode="&#x11a;" horiz-adv-x="510" 
d="M490 700v-75l-35 -35h-255v-180h210v-110h-210v-190h290v-110h-420v700h420zM343 770h-125l-95 140h110l45 -65h5l45 65h110z" />
    <glyph glyph-name="Ecircumflex" unicode="&#xca;" horiz-adv-x="510" 
d="M490 700v-75l-35 -35h-255v-180h210v-110h-210v-190h290v-110h-420v700h420zM218 910h125l95 -140h-110l-45 65h-5l-45 -65h-110z" />
    <glyph glyph-name="Edieresis" unicode="&#xcb;" horiz-adv-x="510" 
d="M490 700v-75l-35 -35h-255v-180h210v-110h-210v-190h290v-110h-420v700h420zM245 780h-110v120h110v-120zM425 780h-110v120h110v-120z" />
    <glyph glyph-name="Edotaccent" unicode="&#x116;" horiz-adv-x="510" 
d="M490 700v-75l-35 -35h-255v-180h210v-110h-210v-190h290v-110h-420v700h420zM343 905v-130h-125v130h125z" />
    <glyph glyph-name="Egrave" unicode="&#xc8;" horiz-adv-x="510" 
d="M490 700v-75l-35 -35h-255v-180h210v-110h-210v-190h290v-110h-420v700h420zM185 910h115l65 -140h-90z" />
    <glyph glyph-name="Emacron" unicode="&#x112;" horiz-adv-x="510" 
d="M490 700v-75l-35 -35h-255v-180h210v-110h-210v-190h290v-110h-420v700h420zM148 890h265v-100h-265v100z" />
    <glyph glyph-name="Gbreve" unicode="&#x11e;" horiz-adv-x="555" 
d="M440 590h-210c-30 0 -50 -20 -50 -45v-390c0 -25 20 -45 50 -45h135v275h130v-385h-300c-90 0 -145 55 -145 135v430c0 80 55 135 145 135h280v-75zM320 770h-55c-80 0 -110 30 -110 100v40h95v-35c0 -15 10 -25 30 -25h25c20 0 30 10 30 25v35h95v-40
c0 -70 -30 -100 -110 -100z" />
    <glyph glyph-name="Iacute" unicode="&#xcd;" horiz-adv-x="270" 
d="M200 0h-130v700h130v-700zM165 910h125l-100 -140h-90z" />
    <glyph glyph-name="Icircumflex" unicode="&#xce;" horiz-adv-x="275" 
d="M202 0h-130v700h130v-700zM75 910h125l95 -140h-110l-45 65h-5l-45 -65h-110z" />
    <glyph glyph-name="Idieresis" unicode="&#xcf;" horiz-adv-x="270" 
d="M200 0h-130v700h130v-700zM100 780h-110v120h110v-120zM280 780h-110v120h110v-120z" />
    <glyph glyph-name="Idotaccent" unicode="&#x130;" horiz-adv-x="270" 
d="M200 0h-130v700h130v-700zM198 905v-130h-125v130h125z" />
    <glyph glyph-name="Igrave" unicode="&#xcc;" horiz-adv-x="270" 
d="M200 0h-130v700h130v-700zM20 910h115l65 -140h-90z" />
    <glyph glyph-name="Imacron" unicode="&#x12a;" horiz-adv-x="275" 
d="M202 0h-130v700h130v-700zM5 890h265v-100h-265v100z" />
    <glyph glyph-name="Kcommaaccent" unicode="&#x136;" horiz-adv-x="555" 
d="M200 0h-130v700h130v-290h90l105 290h130v-55l-125 -290l135 -300v-55h-130l-115 300h-90v-300zM360 -140l-55 -120h-55v200h110v-80z" />
    <glyph glyph-name="Lacute" unicode="&#x139;" horiz-adv-x="485" 
d="M200 110h275v-110h-405v700h130v-590zM168 910h125l-100 -140h-90z" />
    <glyph glyph-name="Lcaron" unicode="&#x13d;" horiz-adv-x="485" 
d="M200 110h275v-110h-405v700h130v-590zM400 620l-55 -120h-55v200h110v-80z" />
    <glyph glyph-name="Lcommaaccent" unicode="&#x13b;" horiz-adv-x="485" 
d="M200 110h275v-110h-405v700h130v-590zM327 -140l-55 -120h-55v200h110v-80z" />
    <glyph glyph-name="Lslash" unicode="&#x141;" horiz-adv-x="500" 
d="M215 110h275v-110h-405v275l-65 -30v110l65 30v315h130v-255l105 50v-110l-105 -50v-225z" />
    <glyph glyph-name="Nacute" unicode="&#x143;" horiz-adv-x="595" 
d="M525 0h-135l-195 440h-10l15 -180v-260h-130v700h135l195 -440h10l-15 180v260h130v-700zM325 910h125l-100 -140h-90z" />
    <glyph glyph-name="Ncaron" unicode="&#x147;" horiz-adv-x="595" 
d="M525 0h-135l-195 440h-10l15 -180v-260h-130v700h135l195 -440h10l-15 180v260h130v-700zM360 770h-125l-95 140h110l45 -65h5l45 65h110z" />
    <glyph glyph-name="Ncommaaccent" unicode="&#x145;" horiz-adv-x="595" 
d="M525 0h-135l-195 440h-10l15 -180v-260h-130v700h135l195 -440h10l-15 180v260h130v-700zM352 -140l-55 -120h-55v200h110v-80z" />
    <glyph glyph-name="Ntilde" unicode="&#xd1;" horiz-adv-x="595" 
d="M525 0h-135l-195 440h-10l15 -180v-260h-130v700h135l195 -440h10l-15 180v260h130v-700zM302 795c-25 25 -30 30 -40 30s-15 -5 -15 -15v-40h-80v75c0 45 25 70 60 70h10c25 0 40 -15 55 -30c25 -25 30 -30 40 -30s15 5 15 15v40h80v-75c0 -45 -25 -70 -60 -70h-10
c-25 0 -40 15 -55 30z" />
    <glyph glyph-name="Oacute" unicode="&#xd3;" horiz-adv-x="580" 
d="M230 100h120c30 0 50 20 50 45v410c0 25 -20 45 -50 45h-120c-30 0 -50 -20 -50 -45v-410c0 -25 20 -45 50 -45zM385 -10h-190c-90 0 -145 55 -145 135v450c0 80 55 135 145 135h190c90 0 145 -55 145 -135v-450c0 -80 -55 -135 -145 -135zM330 910h125l-100 -140h-90z
" />
    <glyph glyph-name="Ocircumflex" unicode="&#xd4;" horiz-adv-x="580" 
d="M230 100h120c30 0 50 20 50 45v410c0 25 -20 45 -50 45h-120c-30 0 -50 -20 -50 -45v-410c0 -25 20 -45 50 -45zM385 -10h-190c-90 0 -145 55 -145 135v450c0 80 55 135 145 135h190c90 0 145 -55 145 -135v-450c0 -80 -55 -135 -145 -135zM228 910h125l95 -140h-110
l-45 65h-5l-45 -65h-110z" />
    <glyph glyph-name="Odieresis" unicode="&#xd6;" horiz-adv-x="580" 
d="M230 100h120c30 0 50 20 50 45v410c0 25 -20 45 -50 45h-120c-30 0 -50 -20 -50 -45v-410c0 -25 20 -45 50 -45zM385 -10h-190c-90 0 -145 55 -145 135v450c0 80 55 135 145 135h190c90 0 145 -55 145 -135v-450c0 -80 -55 -135 -145 -135zM255 780h-110v120h110v-120z
M435 780h-110v120h110v-120z" />
    <glyph glyph-name="Ograve" unicode="&#xd2;" horiz-adv-x="580" 
d="M230 100h120c30 0 50 20 50 45v410c0 25 -20 45 -50 45h-120c-30 0 -50 -20 -50 -45v-410c0 -25 20 -45 50 -45zM385 -10h-190c-90 0 -145 55 -145 135v450c0 80 55 135 145 135h190c90 0 145 -55 145 -135v-450c0 -80 -55 -135 -145 -135zM185 910h115l65 -140h-90z" />
    <glyph glyph-name="Ohungarumlaut" unicode="&#x150;" horiz-adv-x="580" 
d="M230 100h120c30 0 50 20 50 45v410c0 25 -20 45 -50 45h-120c-30 0 -50 -20 -50 -45v-410c0 -25 20 -45 50 -45zM385 -10h-190c-90 0 -145 55 -145 135v450c0 80 55 135 145 135h190c90 0 145 -55 145 -135v-450c0 -80 -55 -135 -145 -135zM240 910h115l-90 -140h-90z
M405 910h115l-90 -140h-90z" />
    <glyph glyph-name="Omacron" unicode="&#x14c;" horiz-adv-x="580" 
d="M230 100h120c30 0 50 20 50 45v410c0 25 -20 45 -50 45h-120c-30 0 -50 -20 -50 -45v-410c0 -25 20 -45 50 -45zM385 -10h-190c-90 0 -145 55 -145 135v450c0 80 55 135 145 135h190c90 0 145 -55 145 -135v-450c0 -80 -55 -135 -145 -135zM158 890h265v-100h-265v100z
" />
    <glyph glyph-name="Oslash" unicode="&#xd8;" horiz-adv-x="580" 
d="M385 -10h-190c-90 0 -145 55 -145 135v450c0 80 55 135 145 135h190c90 0 145 -55 145 -135v-450c0 -80 -55 -135 -145 -135zM230 100h120c30 0 50 20 50 45v350zM180 205l170 395h-120c-30 0 -50 -20 -50 -45v-350z" />
    <glyph glyph-name="Otilde" unicode="&#xd5;" horiz-adv-x="580" 
d="M230 100h120c30 0 50 20 50 45v410c0 25 -20 45 -50 45h-120c-30 0 -50 -20 -50 -45v-410c0 -25 20 -45 50 -45zM385 -10h-190c-90 0 -145 55 -145 135v450c0 80 55 135 145 135h190c90 0 145 -55 145 -135v-450c0 -80 -55 -135 -145 -135zM295 795c-25 25 -30 30 -40 30
s-15 -5 -15 -15v-40h-80v75c0 45 25 70 60 70h10c25 0 40 -15 55 -30c25 -25 30 -30 40 -30s15 5 15 15v40h80v-75c0 -45 -25 -70 -60 -70h-10c-25 0 -40 15 -55 30z" />
    <glyph glyph-name="OE" unicode="&#x152;" horiz-adv-x="795" 
d="M775 700v-75l-35 -35h-250v-180h205v-110h-205v-190h285v-110h-580c-90 0 -145 55 -145 135v430c0 80 55 135 145 135h580zM360 590h-130c-30 0 -50 -20 -50 -45v-390c0 -25 20 -45 50 -45h130v480z" />
    <glyph glyph-name="Racute" unicode="&#x154;" horiz-adv-x="565" 
d="M200 0h-130v700h305c90 0 145 -55 145 -135v-170c0 -105 -90 -125 -90 -125l105 -215v-55h-130l-105 260h-100v-260zM340 590h-140v-220h140c30 0 50 20 50 45v130c0 25 -20 45 -50 45zM310 910h125l-100 -140h-90z" />
    <glyph glyph-name="Rcaron" unicode="&#x158;" horiz-adv-x="565" 
d="M200 0h-130v700h305c90 0 145 -55 145 -135v-170c0 -105 -90 -125 -90 -125l105 -215v-55h-130l-105 260h-100v-260zM340 590h-140v-220h140c30 0 50 20 50 45v130c0 25 -20 45 -50 45zM346 770h-125l-95 140h110l45 -65h5l45 65h110z" />
    <glyph glyph-name="Rcommaaccent" unicode="&#x156;" horiz-adv-x="565" 
d="M200 0h-130v700h305c90 0 145 -55 145 -135v-170c0 -105 -90 -125 -90 -125l105 -215v-55h-130l-105 260h-100v-260zM340 590h-140v-220h140c30 0 50 20 50 45v130c0 25 -20 45 -50 45zM365 -140l-55 -120h-55v200h110v-80z" />
    <glyph glyph-name="Sacute" unicode="&#x15a;" horiz-adv-x="510" 
d="M40 460v105c0 80 55 135 145 135h270v-75l-35 -35h-200c-30 0 -50 -20 -50 -45v-75c0 -20 15 -33 40 -40l150 -40c70 -19 115 -65 115 -140v-115c0 -80 -55 -135 -145 -135h-295v110h260c30 0 50 20 50 45v85c0 20 -15 33 -40 40l-150 40c-70 19 -115 65 -115 140z
M290 910h125l-100 -140h-90z" />
    <glyph glyph-name="Scaron" unicode="&#x160;" horiz-adv-x="510" 
d="M40 460v105c0 80 55 135 145 135h270v-75l-35 -35h-200c-30 0 -50 -20 -50 -45v-75c0 -20 15 -33 40 -40l150 -40c70 -19 115 -65 115 -140v-115c0 -80 -55 -135 -145 -135h-295v110h260c30 0 50 20 50 45v85c0 20 -15 33 -40 40l-150 40c-70 19 -115 65 -115 140z
M330 770h-125l-95 140h110l45 -65h5l45 65h110z" />
    <glyph glyph-name="Scommaaccent" unicode="&#x218;" horiz-adv-x="510" 
d="M40 460v105c0 80 55 135 145 135h270v-75l-35 -35h-200c-30 0 -50 -20 -50 -45v-75c0 -20 15 -33 40 -40l150 -40c70 -19 115 -65 115 -140v-115c0 -80 -55 -135 -145 -135h-295v110h260c30 0 50 20 50 45v85c0 20 -15 33 -40 40l-150 40c-70 19 -115 65 -115 140z
M310 -140l-55 -120h-55v200h110v-80z" />
    <glyph glyph-name="Tcaron" unicode="&#x164;" horiz-adv-x="480" 
d="M10 590v110h460v-75l-35 -35h-130v-590h-130v590h-165zM303 770h-125l-95 140h110l45 -65h5l45 65h110z" />
    <glyph glyph-name="Tcommaaccent" unicode="&#x162;" horiz-adv-x="480" 
d="M10 590v110h460v-75l-35 -35h-130v-590h-130v590h-165zM295 -140l-55 -120h-55v200h110v-80z" />
    <glyph glyph-name="Uacute" unicode="&#xda;" horiz-adv-x="600" 
d="M70 700h130v-555c0 -25 20 -45 50 -45h100c30 0 50 20 50 45v555h130v-575c0 -80 -55 -135 -145 -135h-170c-90 0 -145 55 -145 135v575zM330 910h125l-100 -140h-90z" />
    <glyph glyph-name="Ucircumflex" unicode="&#xdb;" horiz-adv-x="600" 
d="M70 700h130v-555c0 -25 20 -45 50 -45h100c30 0 50 20 50 45v555h130v-575c0 -80 -55 -135 -145 -135h-170c-90 0 -145 55 -145 135v575zM238 910h125l95 -140h-110l-45 65h-5l-45 -65h-110z" />
    <glyph glyph-name="Udieresis" unicode="&#xdc;" horiz-adv-x="600" 
d="M70 700h130v-555c0 -25 20 -45 50 -45h100c30 0 50 20 50 45v555h130v-575c0 -80 -55 -135 -145 -135h-170c-90 0 -145 55 -145 135v575zM265 780h-110v120h110v-120zM445 780h-110v120h110v-120z" />
    <glyph glyph-name="Ugrave" unicode="&#xd9;" horiz-adv-x="600" 
d="M70 700h130v-555c0 -25 20 -45 50 -45h100c30 0 50 20 50 45v555h130v-575c0 -80 -55 -135 -145 -135h-170c-90 0 -145 55 -145 135v575zM190 910h115l65 -140h-90z" />
    <glyph glyph-name="Uhungarumlaut" unicode="&#x170;" horiz-adv-x="600" 
d="M70 700h130v-555c0 -25 20 -45 50 -45h100c30 0 50 20 50 45v555h130v-575c0 -80 -55 -135 -145 -135h-170c-90 0 -145 55 -145 135v575zM250 910h115l-90 -140h-90zM415 910h115l-90 -140h-90z" />
    <glyph glyph-name="Umacron" unicode="&#x16a;" horiz-adv-x="600" 
d="M70 700h130v-555c0 -25 20 -45 50 -45h100c30 0 50 20 50 45v555h130v-575c0 -80 -55 -135 -145 -135h-170c-90 0 -145 55 -145 135v575zM168 890h265v-100h-265v100z" />
    <glyph glyph-name="Uring" unicode="&#x16e;" horiz-adv-x="600" 
d="M70 700h130v-555c0 -25 20 -45 50 -45h100c30 0 50 20 50 45v555h130v-575c0 -80 -55 -135 -145 -135h-170c-90 0 -145 55 -145 135v575zM408 845v-20c0 -50 -35 -85 -85 -85h-45c-50 0 -85 35 -85 85v20c0 50 35 85 85 85h45c50 0 85 -35 85 -85zM333 840
c0 15 -10 25 -20 25h-25c-10 0 -20 -10 -20 -25v-10c0 -15 10 -25 20 -25h25c10 0 20 10 20 25v10z" />
    <glyph glyph-name="Yacute" unicode="&#xdd;" horiz-adv-x="510" 
d="M10 700h130l110 -325h10l110 325h130v-55l-180 -435v-210h-130v210l-180 435v55zM285 910h125l-100 -140h-90z" />
    <glyph glyph-name="Ydieresis" unicode="&#x178;" horiz-adv-x="510" 
d="M10 700h130l110 -325h10l110 325h130v-55l-180 -435v-210h-130v210l-180 435v55zM220 780h-110v120h110v-120zM400 780h-110v120h110v-120z" />
    <glyph glyph-name="Zacute" unicode="&#x179;" horiz-adv-x="470" 
d="M165 110h290v-110h-440v110l290 470v10h-245l-35 35v75h430v-110l-290 -470v-10zM265 910h125l-100 -140h-90z" />
    <glyph glyph-name="Zcaron" unicode="&#x17d;" horiz-adv-x="470" 
d="M165 110h290v-110h-440v110l290 470v10h-245l-35 35v75h430v-110l-290 -470v-10zM303 770h-125l-95 140h110l45 -65h5l45 65h110z" />
    <glyph glyph-name="Zdotaccent" unicode="&#x17b;" horiz-adv-x="470" 
d="M165 110h290v-110h-440v110l290 470v10h-245l-35 35v75h430v-110l-290 -470v-10zM303 905v-130h-125v130h125z" />
    <glyph glyph-name="exclamdown" unicode="&#xa1;" horiz-adv-x="255" 
d="M170 285l25 -235v-220h-135v220l25 235h85zM70 510h115v-125h-115v125z" />
    <glyph glyph-name="questiondown" unicode="&#xbf;" horiz-adv-x="435" 
d="M210 510h110v-125h-110v125zM210 265v30h110v-30c0 -80 -30 -110 -75 -135l-45 -25c-15 -8 -30 -25 -30 -55v-65c0 -25 20 -45 50 -45h180l35 -35v-75h-250c-90 0 -145 55 -145 135v85c0 75 20 96 90 135l45 25c20 11 35 25 35 55z" />
    <glyph glyph-name="divide" unicode="&#xf7;" horiz-adv-x="415" 
d="M375 270h-335v105h335v-105zM265 60h-115v115h115v-115zM265 470h-115v115h115v-115z" />
    <glyph glyph-name="multiply" unicode="&#xd7;" horiz-adv-x="450" 
d="M151 325l-111 125l75 75l110 -125l110 125l75 -75l-111 -125l111 -125l-75 -75l-110 125l-110 -125l-75 75z" />
    <glyph glyph-name="Thorn" unicode="&#xde;" horiz-adv-x="565" 
d="M200 0h-130v710h130v-115h175c90 0 145 -55 145 -135v-235c0 -80 -55 -135 -145 -135h-175v-90zM340 485h-140v-285h140c30 0 50 20 50 45v195c0 25 -20 45 -50 45z" />
    <glyph glyph-name="yen" unicode="&#xa5;" horiz-adv-x="510" 
d="M10 700h130l110 -325h10l110 325h130v-55l-125 -300h80v-100h-120l-15 -35v-25h135v-100h-135v-85h-130v85h-135v100h135v25l-15 35h-120v100h80l-125 300v55z" />
    <glyph glyph-name="sterling" unicode="&#xa3;" horiz-adv-x="475" 
d="M200 110h265v-110h-445v110h40s70 25 70 90v115h-60v110h60v150c0 80 55 135 145 135h135v-75l-35 -35h-65c-30 0 -50 -20 -50 -45v-130h115v-110h-115v-115c0 -65 -60 -80 -60 -80v-10z" />
    <glyph glyph-name="onequarter" unicode="&#xbc;" horiz-adv-x="690" 
d="M460 700h80v-50l-350 -650h-80v50zM180 700v-340h-90v255h-60v55l90 30h60zM390 60v70l130 210h100v-210h30v-70h-30v-60h-90v60h-140zM470 135v-5h60v95h-5z" />
    <glyph glyph-name="onesuperior" unicode="&#xb9;" horiz-adv-x="220" 
d="M170 700v-340h-90v255h-60v55l90 30h60z" />
    <glyph glyph-name="twosuperior" unicode="&#xb2;" horiz-adv-x="320" 
d="M40 360v70l120 115c15 15 20 20 20 35v30c0 10 -10 20 -25 20h-105v70h135c55 0 90 -35 90 -80v-30c0 -35 -25 -60 -45 -80l-75 -73v-7h125v-70h-240z" />
    <glyph glyph-name="threesuperior" unicode="&#xb3;" horiz-adv-x="295" 
d="M160 360h-130v70h120c15 0 25 10 25 20v30c0 10 -10 20 -25 20h-60v60l70 65v5h-125v70h220v-70l-70 -65v-5c45 0 80 -35 80 -75v-40c0 -50 -35 -85 -105 -85z" />
    <glyph glyph-name="onehalf" unicode="&#xbd;" horiz-adv-x="715" 
d="M460 700h80v-50l-350 -650h-80v50zM180 700v-340h-90v255h-60v55l90 30h60zM435 0v70l120 115c15 15 20 20 20 35v30c0 10 -10 20 -25 20h-105v70h135c55 0 90 -35 90 -80v-30c0 -35 -25 -60 -45 -80l-75 -73v-7h125v-70h-240zM460 700h80v-50l-350 -650h-80v50zM180 700
v-340h-90v255h-60v55l90 30h60zM435 0v70l120 115c15 15 20 20 20 35v30c0 10 -10 20 -25 20h-105v70h135c55 0 90 -35 90 -80v-30c0 -35 -25 -60 -45 -80l-75 -73v-7h125v-70h-240z" />
    <glyph glyph-name="threequarters" unicode="&#xbe;" horiz-adv-x="740" 
d="M510 700h80v-50l-350 -650h-80v50zM170 360h-130v70h120c15 0 25 10 25 20v30c0 10 -10 20 -25 20h-60v60l70 65v5h-125v70h220v-70l-70 -65v-5c45 0 80 -35 80 -75v-40c0 -50 -35 -85 -105 -85zM440 60v70l130 210h100v-210h30v-70h-30v-60h-90v60h-140zM520 135v-5h60
v95h-5z" />
    <glyph glyph-name="ordfeminine" unicode="&#xaa;" horiz-adv-x="345" 
d="M305 360h-60l-10 40h-5s-15 -40 -55 -40h-50c-50 0 -85 35 -85 80v45c0 45 35 80 85 80h90v40c0 15 -10 25 -25 25h-120v70h135c60 0 100 -40 100 -90v-250zM150 430h30c25 0 35 25 35 25v40h-65c-11 0 -20 -10 -20 -20v-25c0 -9 9 -20 20 -20z" />
    <glyph glyph-name="afii10055" unicode="&#x406;" horiz-adv-x="270" 
d="M200 0h-130v700h130v-700z" />
    <glyph glyph-name="afii10054" unicode="&#x405;" horiz-adv-x="510" 
d="M40 460v105c0 80 55 135 145 135h270v-75l-35 -35h-200c-30 0 -50 -20 -50 -45v-75c0 -20 15 -33 40 -40l150 -40c70 -19 115 -65 115 -140v-115c0 -80 -55 -135 -145 -135h-295v110h260c30 0 50 20 50 45v85c0 20 -15 33 -40 40l-150 40c-70 19 -115 65 -115 140z" />
    <glyph glyph-name="afii10057" unicode="&#x408;" horiz-adv-x="430" 
d="M10 -10v110h170c30 0 50 20 50 45v555h130v-575c0 -80 -55 -135 -145 -135h-205z" />
    <glyph glyph-name="uni00AD" unicode="&#xad;" horiz-adv-x="405" 
d="M30 375h345v-105h-345v105z" />
    <glyph glyph-name="afii10052" unicode="&#x403;" horiz-adv-x="470" 
d="M300 910h125l-100 -140h-90zM460 700v-75l-35 -35h-225v-590h-130v700h390z" />
    <glyph glyph-name="afii10061" unicode="&#x40c;" horiz-adv-x="555" 
d="M200 0h-130v700h130v-290h90l105 290h130v-55l-125 -290l135 -300v-55h-130l-115 300h-90v-300zM320 910h125l-100 -140h-90z" />
    <glyph glyph-name="afii10062" unicode="&#x40e;" horiz-adv-x="515" 
d="M15 700h130l115 -375h10l100 375h130v-55l-160 -480c-40 -120 -95 -175 -210 -175h-45v110h30c30 0 45 15 70 65l-170 480v55zM305 780h-95c-65 0 -100 35 -100 100v55h100v-50c0 -15 10 -25 30 -25h35c20 0 30 10 30 25v50h100v-55c0 -65 -35 -100 -100 -100z" />
    <glyph glyph-name="afii10110" unicode="&#x45e;" horiz-adv-x="450" 
d="M435 460l-125 -455c-30 -110 -95 -175 -185 -175h-65v105h35c30 0 50 20 70 70l-150 455v50h130l85 -345h9l66 345h130v-50zM253 590h-55c-80 0 -110 30 -110 100v50h95v-45c0 -15 10 -25 30 -25h25c20 0 30 10 30 25v45h95v-50c0 -70 -30 -100 -110 -100z" />
    <glyph glyph-name="afii10056" unicode="&#x407;" horiz-adv-x="270" 
d="M200 0h-130v700h130v-700zM100 780h-110v120h110v-120zM280 780h-110v120h110v-120z" />
    <glyph glyph-name="afii10023" unicode="&#x401;" horiz-adv-x="510" 
d="M490 700v-75l-35 -35h-255v-180h210v-110h-210v-190h290v-110h-420v700h420zM245 780h-110v120h110v-120zM425 780h-110v120h110v-120z" />
    <glyph glyph-name="afii57929" unicode="&#x2bc;" horiz-adv-x="190" 
d="M150 620l-55 -120h-55v200h110v-80z" />
    <glyph glyph-name="minus" unicode="&#x2212;" horiz-adv-x="460" 
d="M40 375h380v-105h-380v105z" />
    <glyph glyph-name="Ccedilla" unicode="&#xc7;" 
d="M315 -240h-115v70h100c10 0 20 10 20 20v20c0 10 -10 20 -20 20h-50l-25 25v85h-30c-90 0 -145 55 -145 135v430c0 80 55 135 145 135h280v-75l-35 -35h-210c-30 0 -50 -20 -50 -45v-390c0 -25 20 -45 50 -45h245v-110h-175v-40h15c50 0 85 -35 85 -85v-30
c0 -50 -35 -85 -85 -85z" />
    <glyph glyph-name="Dcroat" unicode="&#x110;" horiz-adv-x="570" 
d="M70 0v295h-50v110h50v295h305c90 0 145 -55 145 -135v-430c0 -80 -55 -135 -145 -135h-305zM340 590h-140v-185h105v-110h-105v-185h140c30 0 50 20 50 45v390c0 25 -20 45 -50 45z" />
    <glyph glyph-name="Eth" unicode="&#xd0;" horiz-adv-x="570" 
d="M70 0v295h-50v110h50v295h305c90 0 145 -55 145 -135v-430c0 -80 -55 -135 -145 -135h-305zM340 590h-140v-185h105v-110h-105v-185h140c30 0 50 20 50 45v390c0 25 -20 45 -50 45z" />
    <glyph glyph-name="Gcommaaccent" unicode="&#x122;" horiz-adv-x="555" 
d="M440 590h-210c-30 0 -50 -20 -50 -45v-390c0 -25 20 -45 50 -45h135v275h130v-385h-300c-90 0 -145 55 -145 135v430c0 80 55 135 145 135h280v-75zM360 -140l-55 -120h-55v200h110v-80z" />
    <glyph glyph-name="Iogonek" unicode="&#x12e;" horiz-adv-x="270" 
d="M145 -155h55v-75h-75c-65 0 -100 35 -100 90c0 85 95 140 95 140h-50v700h130v-710s-80 -60 -80 -120c0 -15 10 -25 25 -25z" />
    <glyph glyph-name="Scedilla" unicode="&#x15e;" horiz-adv-x="510" 
d="M285 -240h-115v70h100c10 0 20 10 20 20v20c0 10 -10 20 -20 20h-50l-25 25v85h-160v110h260c30 0 50 20 50 45v85c0 20 -15 33 -40 40l-150 40c-70 19 -115 65 -115 140v105c0 80 55 135 145 135h270v-75l-35 -35h-200c-30 0 -50 -20 -50 -45v-75c0 -20 15 -33 40 -40
l150 -40c70 -19 115 -65 115 -140v-115c0 -80 -55 -135 -145 -135h-60v-40h15c50 0 85 -35 85 -85v-30c0 -50 -35 -85 -85 -85z" />
    <glyph glyph-name="uni20BD" unicode="&#x20bd;" horiz-adv-x="580" 
d="M220 0h-130v120h-60v100h60v60h-60v100h60v320h305c90 0 145 -55 145 -135v-150c0 -80 -55 -135 -145 -135h-175v-60h230v-100h-230v-120zM360 590h-140v-210h140c30 0 50 20 50 45v120c0 25 -20 45 -50 45z" />
    <glyph glyph-name="B" unicode="B" horiz-adv-x="560" 
d="M70 0v700h285c90 0 145 -55 145 -135v-100c0 -75 -75 -90 -75 -90v-10s100 -5 100 -125v-105c0 -80 -55 -135 -145 -135h-310zM200 110h145c30 0 50 20 50 45v105c0 25 -20 45 -50 45h-145v-195zM320 590h-120v-175h120c30 0 50 20 50 45v85c0 25 -20 45 -50 45z" />
    <glyph glyph-name="foundryicon" horiz-adv-x="1230" 
d="M100 -110v920h1030v-920h-1030zM1110 -90v880h-990v-880h990zM635 610h110c50 0 80 -30 80 -65s-30 -65 -80 -65h-55v-80h-55v210zM635 300h110c50 0 80 -30 80 -65s-30 -65 -80 -65h-55v-80h-55v210zM495 170l-75 130h60l40 -75h5l40 75h65l-80 -130v-80h-55v80z
M495 480l-75 130h60l40 -75h5l40 75h65l-80 -130v-80h-55v80zM300 255h-65v45h165l25 -45h-70v-165h-55v165zM300 565h-65v45h165l25 -45h-70v-165h-55v165zM790 400v65c25 5 55 30 60 60h80v-45h-85v-35h120v-45h-175zM790 90v65c25 5 55 30 60 60h80v-45h-85v-35h120v-45
h-175zM810 300h155v-45h-115c-5 20 -20 40 -40 45zM810 610h155v-45h-115c-5 20 -20 40 -40 45zM765 545c0 10 -10 20 -20 20h-55v-40h55c10 0 20 9 20 20zM765 235c0 10 -10 20 -20 20h-55v-40h55c10 0 20 9 20 20z" />
    <glyph glyph-name="Germandbls" horiz-adv-x="585" 
d="M400 420v-10c90 0 145 -55 145 -135v-140c0 -80 -55 -135 -145 -135h-115v110h80c30 0 50 20 50 45v100c0 25 -20 45 -50 45h-90v110l115 170v10h-140c-30 0 -50 -20 -50 -45v-545h-130v565c0 80 55 135 145 135h300v-110z" />
    <glyph glyph-name="uni1E9E" unicode="&#x1e9e;" horiz-adv-x="585" 
d="M400 420v-10c90 0 145 -55 145 -135v-140c0 -80 -55 -135 -145 -135h-115v110h80c30 0 50 20 50 45v100c0 25 -20 45 -50 45h-90v110l115 170v10h-140c-30 0 -50 -20 -50 -45v-545h-130v565c0 80 55 135 145 135h300v-110z" />
    <glyph glyph-name="cyrbreve" unicode="&#xf6d4;" horiz-adv-x="355" 
d="M205 590h-55c-80 0 -110 30 -110 100v50h95v-45c0 -15 10 -25 30 -25h25c20 0 30 10 30 25v45h95v-50c0 -70 -30 -100 -110 -100z" />
    <glyph glyph-name="cyrBreve" unicode="&#xf6d1;" horiz-adv-x="375" 
d="M235 780h-95c-65 0 -100 35 -100 100v55h100v-50c0 -15 10 -25 30 -25h35c20 0 30 10 30 25v50h100v-55c0 -65 -35 -100 -100 -100z" />
    <glyph glyph-name="uni20B4" unicode="&#x20b4;" horiz-adv-x="565" 
d="M525 380h-485v100h300s10 10 10 30v35c0 25 -20 45 -50 45h-175l-35 35v75h245c90 0 145 -55 145 -135v-55c0 -20 -10 -30 -10 -30h55v-100zM40 320h485v-100h-300s-10 -10 -10 -30v-35c0 -25 20 -45 50 -45h220v-110h-255c-90 0 -145 55 -145 135v55c0 20 10 30 10 30
h-55v100z" />
    <glyph glyph-name="fraction" unicode="&#x2044;" horiz-adv-x="470" 
d="M370 700h80v-50l-350 -650h-80v50z" />
    <glyph glyph-name="ordmasculine" unicode="&#xba;" horiz-adv-x="350" 
d="M195 360h-40c-70 0 -115 45 -115 95v150c0 50 45 95 115 95h40c70 0 115 -45 115 -95v-150c0 -50 -45 -95 -115 -95zM135 605v-150c0 -15 10 -25 30 -25h20c20 0 30 10 30 25v150c0 15 -10 25 -30 25h-20c-20 0 -30 -10 -30 -25z" />
    <glyph glyph-name="foursuperior" unicode="&#x2074;" horiz-adv-x="320" 
d="M30 420v70l130 210h100v-210h30v-70h-30v-60h-90v60h-140zM110 495v-5h60v95h-5z" />
    <glyph glyph-name="Eogonek" unicode="&#x118;" horiz-adv-x="510" 
d="M435 -155h55v-75h-75c-65 0 -100 35 -100 90c0 85 95 140 95 140h-340v700h420v-75l-35 -35h-255v-180h210v-110h-210v-190h290v-120s-80 -60 -80 -120c0 -15 10 -25 25 -25z" />
    <glyph glyph-name="Uogonek" unicode="&#x172;" horiz-adv-x="600" 
d="M320 -155h55v-75h-75c-65 0 -100 35 -100 90c0 80 80 130 80 130h-65c-90 0 -145 55 -145 135v575h130v-555c0 -25 20 -45 50 -45h100c30 0 50 20 50 45v555h130v-575c0 -80 -55 -135 -145 -135h-10s-80 -60 -80 -120c0 -15 10 -25 25 -25z" />
    <glyph glyph-name="D" unicode="D" horiz-adv-x="570" 
d="M70 0v700h305c90 0 145 -55 145 -135v-430c0 -80 -55 -135 -145 -135h-305zM340 590h-140v-480h140c30 0 50 20 50 45v390c0 25 -20 45 -50 45z" />
    <glyph glyph-name="a" unicode="a" 
d="M160 170v-35c0 -25 15 -40 45 -40h45c45 0 60 45 60 45v70h-105c-30 0 -45 -15 -45 -40zM435 0h-90l-10 50h-10s-30 -60 -100 -60h-55c-80 0 -135 55 -135 125v75c0 70 55 125 135 125h140v50c0 25 -15 40 -45 40h-190v105h225c80 0 135 -55 135 -125v-385z" />
    <glyph glyph-name="b" unicode="b" horiz-adv-x="520" 
d="M70 0v700h125v-190h145c80 0 135 -55 135 -125v-260c0 -70 -55 -125 -135 -125h-270zM350 145v220c0 25 -15 40 -45 40h-110v-300h110c30 0 45 15 45 40z" />
    <glyph glyph-name="c" unicode="c" horiz-adv-x="425" 
d="M170 365v-220c0 -25 15 -40 45 -40h190v-105h-225c-80 0 -135 55 -135 125v260c0 70 55 125 135 125h225v-75l-30 -30h-160c-30 0 -45 -15 -45 -40z" />
    <glyph glyph-name="d" unicode="d" horiz-adv-x="520" 
d="M215 95h50c45 0 60 45 60 45v265h-110c-30 0 -45 -15 -45 -40v-230c0 -25 15 -40 45 -40zM240 -10h-60c-80 0 -135 55 -135 125v270c0 70 55 125 135 125h145v190h125v-700h-90l-10 50h-10s-30 -60 -100 -60z" />
    <glyph glyph-name="e" unicode="e" horiz-adv-x="485" 
d="M270 415h-55c-30 0 -45 -15 -45 -40v-65h145v65c0 25 -15 40 -45 40zM420 0h-240c-80 0 -135 55 -135 125v270c0 70 55 125 135 125h125c80 0 135 -55 135 -125v-190h-270v-60c0 -25 15 -40 45 -40h205v-105z" />
    <glyph glyph-name="f" unicode="f" horiz-adv-x="345" 
d="M70 0v585c0 70 55 125 135 125h160v-75l-30 -30h-95c-30 0 -45 -15 -45 -40v-110h120v-105h-120v-350h-125z" />
    <glyph glyph-name="g" unicode="g" horiz-adv-x="465" 
d="M165 375v-35c0 -25 15 -40 45 -40h45c30 0 45 15 45 40v35c0 25 -15 40 -45 40h-45c-30 0 -45 -15 -45 -40zM135 0v-30c0 -25 15 -40 45 -40h105c30 0 45 15 45 40v30c0 25 -15 40 -45 40h-105c-30 0 -45 -15 -45 -40zM360 505v-10s65 -20 65 -100v-75
c0 -70 -55 -125 -135 -125h-105c-10 0 -15 -5 -15 -15v-20c0 -10 5 -15 15 -15h135c80 0 135 -55 135 -125v-70c0 -71 -56 -125 -135 -125h-175c-80 0 -135 55 -135 125v70c0 80 70 100 70 100v10s-20 5 -20 30v35c0 25 20 30 20 30v10s-40 25 -40 85v75
c0 70 55 125 135 125h85l40 90h105v-50z" />
    <glyph glyph-name="h" unicode="h" horiz-adv-x="535" 
d="M195 510h145c80 0 135 -55 135 -125v-385h-125v365c0 25 -15 40 -45 40h-110v-405h-125v700h125v-190z" />
    <glyph glyph-name="i" unicode="i" horiz-adv-x="245" 
d="M185 510v-510h-125v510h125zM185 740v-130h-125v130h125z" />
    <glyph glyph-name="j" unicode="j" horiz-adv-x="245" 
d="M185 510v-555c0 -70 -55 -125 -135 -125h-80v105h45c30 0 45 15 45 40v535h125zM185 740v-130h-125v130h125z" />
    <glyph glyph-name="k" unicode="k" horiz-adv-x="490" 
d="M195 700v-385h70l70 195h125v-50l-90 -195l100 -215v-50h-125l-80 210h-70v-210h-125v700h125z" />
    <glyph glyph-name="l" unicode="l" horiz-adv-x="270" 
d="M70 125v575h125v-555c0 -25 15 -40 45 -40h20v-105h-55c-80 0 -135 55 -135 125z" />
    <glyph glyph-name="m" unicode="m" horiz-adv-x="775" 
d="M325 0v375c0 25 -15 40 -45 40h-35c-45 0 -60 -45 -60 -45v-370h-125v510h90l10 -50h10s30 60 100 60h45c75 0 100 -55 100 -55h5s25 55 100 55h60c80 0 135 -55 135 -125v-395h-125v375c0 25 -15 40 -45 40h-50c-30 0 -45 -15 -45 -40v-375h-125z" />
    <glyph glyph-name="n" unicode="n" horiz-adv-x="525" 
d="M270 520h60c80 0 135 -55 135 -125v-395h-125v375c0 25 -15 40 -45 40h-50c-45 0 -60 -45 -60 -45v-370h-125v510h90l10 -50h10s30 60 100 60z" />
    <glyph glyph-name="o" unicode="o" 
d="M45 115v280c0 70 55 125 135 125h135c80 0 135 -55 135 -125v-280c0 -70 -55 -125 -135 -125h-135c-80 0 -135 55 -135 125zM280 95c30 0 45 15 45 40v240c0 25 -15 40 -45 40h-65c-30 0 -45 -15 -45 -40v-240c0 -25 15 -40 45 -40h65z" />
    <glyph glyph-name="p" unicode="p" horiz-adv-x="510" 
d="M295 415h-50c-45 0 -60 -45 -60 -45v-265h110c30 0 45 15 45 40v230c0 25 -15 40 -45 40zM270 520h60c80 0 135 -55 135 -125v-270c0 -70 -55 -125 -135 -125h-145v-170h-125v680h90l10 -50h10s30 60 100 60z" />
    <glyph glyph-name="q" unicode="q" horiz-adv-x="510" 
d="M450 510v-680h-125v170h-145c-80 0 -135 55 -135 125v260c0 70 55 125 135 125h270zM170 365v-220c0 -25 15 -40 45 -40h110v300h-110c-30 0 -45 -15 -45 -40z" />
    <glyph glyph-name="r" unicode="r" horiz-adv-x="355" 
d="M270 520h75v-105h-100c-45 0 -60 -45 -60 -45v-370h-125v510h90l10 -50h10s30 60 100 60z" />
    <glyph glyph-name="s" unicode="s" horiz-adv-x="430" 
d="M35 340v45c0 70 55 125 135 125h215v-75l-30 -30h-150c-30 0 -45 -15 -45 -40v-10c0 -20 15 -35 35 -40l110 -25c55 -11 95 -50 95 -120v-45c0 -70 -55 -125 -135 -125h-235v105h200c30 0 45 15 45 40v10c0 20 -15 35 -35 40l-110 25c-55 11 -95 50 -95 120z" />
    <glyph glyph-name="t" unicode="t" horiz-adv-x="350" 
d="M80 125v280h-60v105h60l50 145h75v-145h100v-105h-100v-260c0 -25 15 -40 45 -40h80v-105h-115c-80 0 -135 55 -135 125z" />
    <glyph glyph-name="u" unicode="u" horiz-adv-x="525" 
d="M255 -10h-60c-80 0 -135 55 -135 125v395h125v-375c0 -25 15 -40 45 -40h50c45 0 60 45 60 45v370h125v-510h-90l-10 50h-10s-30 -60 -100 -60z" />
    <glyph glyph-name="v" unicode="v" horiz-adv-x="450" 
d="M300 0h-150l-135 460v50h125l80 -345h10l80 345h125v-50z" />
    <glyph glyph-name="w" unicode="w" horiz-adv-x="650" 
d="M380 440l60 -260h10l45 330h135v-50l-100 -460h-135l-65 260h-10l-65 -260h-135l-100 460v50h135l45 -330h10l60 260h110z" />
    <glyph glyph-name="x" unicode="x" horiz-adv-x="440" 
d="M225 180h-10l-75 -180h-125v50l110 210l-100 200v50h125l65 -175h10l65 175h125v-50l-100 -200l110 -210v-50h-125z" />
    <glyph glyph-name="y" unicode="y" horiz-adv-x="450" 
d="M435 460l-125 -455c-30 -110 -95 -175 -185 -175h-65v105h35c30 0 50 20 70 70l-150 455v50h130l85 -345h9l66 345h130v-50z" />
    <glyph glyph-name="z" unicode="z" horiz-adv-x="410" 
d="M235 395v10h-180l-30 30v75h365v-105l-215 -290v-10h215v-105h-370v105z" />
    <glyph glyph-name="afii10100" unicode="&#x453;" horiz-adv-x="400" 
d="M260 750h125l-100 -150h-90zM60 0v510h340v-75l-30 -30h-185v-405h-125z" />
    <glyph glyph-name="afii10099" unicode="&#x452;" horiz-adv-x="525" 
d="M360 140v140c0 25 -15 40 -45 40h-110v-320h-125v495h-60v105h60l35 110h90v-110h110v-105h-110v-70h145c80 0 135 -55 135 -125v-180c0 -70 -55 -125 -135 -125h-60v105h25c30 0 45 15 45 40z" />
    <glyph glyph-name="afii10106" unicode="&#x459;" horiz-adv-x="725" 
d="M115 510h325v-160h120c80 0 135 -55 135 -125v-100c0 -70 -55 -125 -135 -125h-245v405h-85l-25 -260c-10 -105 -60 -155 -145 -155h-60v105h20c35 0 58 25 60 50zM525 245h-85v-140h85c30 0 45 15 45 40v60c0 25 -15 40 -45 40z" />
    <glyph glyph-name="afii10107" unicode="&#x45a;" horiz-adv-x="735" 
d="M185 510v-180h140v180h125v-180h120c80 0 135 -55 135 -125v-80c0 -70 -55 -125 -135 -125h-245v225h-140v-225h-125v510h125zM535 225h-85v-120h85c30 0 45 15 45 40v40c0 25 -15 40 -45 40z" />
    <glyph glyph-name="afii10109" unicode="&#x45c;" horiz-adv-x="480" 
d="M280 750h125l-100 -150h-90zM185 510v-195h70l70 195h125v-50l-90 -195l100 -215v-50h-125l-80 210h-70v-210h-125v510h125z" />
    <glyph glyph-name="afii10108" unicode="&#x45b;" horiz-adv-x="535" 
d="M360 0v280c0 25 -15 40 -45 40h-110v-320h-125v495h-60v105h60l35 110h90v-110h110v-105h-110v-70h145c80 0 135 -55 135 -125v-300h-125z" />
    <glyph glyph-name="afii10193" unicode="&#x45f;" horiz-adv-x="520" 
d="M460 0h-140l-15 -110h-90l-15 110h-140v510h125v-405h150v405h125v-510z" />
    <glyph glyph-name="afii10103" unicode="&#x456;" horiz-adv-x="245" 
d="M185 510v-510h-125v510h125zM185 740v-130h-125v130h125z" />
    <glyph glyph-name="afii10098" unicode="&#x491;" horiz-adv-x="400" 
d="M400 405h-215v-405h-125v510h230l15 85h95v-190z" />
    <glyph glyph-name="mu" unicode="&#xb5;" horiz-adv-x="525" 
d="M185 -170h-125v680h125v-375c0 -25 15 -40 45 -40h50c45 0 60 45 60 45v370h125v-510h-90l-10 50h-10s-30 -60 -100 -60c-40 0 -60 15 -60 15h-10v-175z" />
    <glyph glyph-name="afii10071" unicode="&#x451;" horiz-adv-x="485" 
d="M270 415h-55c-30 0 -45 -15 -45 -40v-65h145v65c0 25 -15 40 -45 40zM420 0h-240c-80 0 -135 55 -135 125v270c0 70 55 125 135 125h125c80 0 135 -55 135 -125v-190h-270v-60c0 -25 15 -40 45 -40h205v-105zM210 615h-110v120h110v-120zM385 615h-110v120h110v-120z" />
    <glyph glyph-name="afii10101" unicode="&#x454;" horiz-adv-x="425" 
d="M170 205v-60c0 -25 15 -40 45 -40h190v-105h-225c-80 0 -135 55 -135 125v260c0 70 55 125 135 125h225v-75l-30 -30h-160c-30 0 -45 -15 -45 -40v-55h140v-105h-140z" />
    <glyph glyph-name="afii10105" unicode="&#x458;" horiz-adv-x="245" 
d="M185 510v-555c0 -70 -55 -125 -135 -125h-80v105h45c30 0 45 15 45 40v535h125zM185 740v-130h-125v130h125z" />
    <glyph glyph-name="afii10102" unicode="&#x455;" horiz-adv-x="430" 
d="M35 340v45c0 70 55 125 135 125h215v-75l-30 -30h-150c-30 0 -45 -15 -45 -40v-10c0 -20 15 -35 35 -40l110 -25c55 -11 95 -50 95 -120v-45c0 -70 -55 -125 -135 -125h-235v105h200c30 0 45 15 45 40v10c0 20 -15 35 -35 40l-110 25c-55 11 -95 50 -95 120z" />
    <glyph glyph-name="afii10104" unicode="&#x457;" horiz-adv-x="245" 
d="M185 510v-510h-125v510h125zM90 615h-110v120h110v-120zM265 615h-110v120h110v-120z" />
    <glyph glyph-name="afii10065" unicode="&#x430;" 
d="M160 170v-35c0 -25 15 -40 45 -40h45c45 0 60 45 60 45v70h-105c-30 0 -45 -15 -45 -40zM435 0h-90l-10 50h-10s-30 -60 -100 -60h-55c-80 0 -135 55 -135 125v75c0 70 55 125 135 125h140v50c0 25 -15 40 -45 40h-190v105h225c80 0 135 -55 135 -125v-385z" />
    <glyph glyph-name="afii10066" unicode="&#x431;" horiz-adv-x="505" 
d="M290 335h-105v-200c0 -25 15 -40 45 -40h60c30 0 45 15 45 40v160c0 25 -15 40 -45 40zM460 315v-200c0 -70 -55 -125 -135 -125h-130c-80 0 -135 55 -135 125v380c0 105 45 152 155 175l215 45l20 -110l-215 -45c-30 -6 -50 -25 -50 -70v-50h140c80 0 135 -55 135 -125z
" />
    <glyph glyph-name="afii10067" unicode="&#x432;" horiz-adv-x="485" 
d="M60 0v510h240c80 0 135 -55 135 -125v-35c0 -70 -65 -85 -65 -85v-5s80 -15 80 -95v-40c0 -70 -55 -125 -135 -125h-255zM280 210h-95v-105h95c30 0 45 15 45 40v25c0 25 -15 40 -45 40zM265 405h-80v-90h80c30 0 45 15 45 40v10c0 25 -15 40 -45 40z" />
    <glyph glyph-name="afii10068" unicode="&#x433;" horiz-adv-x="400" 
d="M60 0v510h340v-75l-30 -30h-185v-405h-125z" />
    <glyph glyph-name="afii10069" unicode="&#x434;" horiz-adv-x="510" 
d="M0 105h20s49 20 55 85l30 320h325v-405h60v-215h-110l-10 110h-250l-10 -110h-110v215zM220 405l-20 -215c-6 -65 -45 -80 -45 -80v-5h150v300h-85z" />
    <glyph glyph-name="afii10070" unicode="&#x435;" horiz-adv-x="485" 
d="M270 415h-55c-30 0 -45 -15 -45 -40v-65h145v65c0 25 -15 40 -45 40zM420 0h-240c-80 0 -135 55 -135 125v270c0 70 55 125 135 125h125c80 0 135 -55 135 -125v-190h-270v-60c0 -25 15 -40 45 -40h205v-105z" />
    <glyph glyph-name="afii10072" unicode="&#x436;" horiz-adv-x="695" 
d="M285 315v195h125v-195h60l70 195h125v-50l-90 -195l100 -215v-50h-125l-80 210h-60v-210h-125v210h-60l-80 -210h-125v50l100 215l-90 195v50h125l70 -195h60z" />
    <glyph glyph-name="afii10073" unicode="&#x437;" horiz-adv-x="420" 
d="M385 165v-40c0 -70 -55 -125 -135 -125h-230v105h195c30 0 45 15 45 40v25c0 25 -15 40 -45 40h-100v105h90c30 0 45 15 45 40v10c0 25 -15 40 -45 40h-145l-30 30v75h210c80 0 135 -55 135 -125v-30c0 -75 -70 -90 -70 -90v-5s80 -15 80 -95z" />
    <glyph glyph-name="afii10074" unicode="&#x438;" horiz-adv-x="515" 
d="M60 0v510h125v-185l-15 -120h5l155 305h125v-510h-125v185l15 120h-5l-155 -305h-125z" />
    <glyph glyph-name="afii10075" unicode="&#x439;" horiz-adv-x="515" 
d="M60 0v510h125v-185l-15 -120h5l155 305h125v-510h-125v185l15 120h-5l-155 -305h-125zM285 590h-55c-80 0 -110 30 -110 100v50h95v-45c0 -15 10 -25 30 -25h25c20 0 30 10 30 25v45h95v-50c0 -70 -30 -100 -110 -100z" />
    <glyph glyph-name="afii10076" unicode="&#x43a;" horiz-adv-x="480" 
d="M185 510v-195h70l70 195h125v-50l-90 -195l100 -215v-50h-125l-80 210h-70v-210h-125v510h125z" />
    <glyph glyph-name="afii10077" unicode="&#x43b;" horiz-adv-x="505" 
d="M115 510h330v-510h-125v405h-90l-25 -260c-10 -105 -60 -155 -145 -155h-60v105h20c35 0 58 25 60 50z" />
    <glyph glyph-name="afii10078" unicode="&#x43c;" horiz-adv-x="640" 
d="M370 60h-100l-75 245h-10l-25 -305h-125v55l50 455h140l90 -285h10l90 285h140l50 -455v-55h-125l-25 305h-10z" />
    <glyph glyph-name="afii10079" unicode="&#x43d;" horiz-adv-x="515" 
d="M185 510v-200h145v200h125v-510h-125v205h-145v-205h-125v510h125z" />
    <glyph glyph-name="afii10080" unicode="&#x43e;" 
d="M45 115v280c0 70 55 125 135 125h135c80 0 135 -55 135 -125v-280c0 -70 -55 -125 -135 -125h-135c-80 0 -135 55 -135 125zM280 95c30 0 45 15 45 40v240c0 25 -15 40 -45 40h-65c-30 0 -45 -15 -45 -40v-240c0 -25 15 -40 45 -40h65z" />
    <glyph glyph-name="afii10081" unicode="&#x43f;" horiz-adv-x="515" 
d="M60 510h395v-510h-125v405h-145v-405h-125v510z" />
    <glyph glyph-name="afii10082" unicode="&#x440;" horiz-adv-x="510" 
d="M295 415h-50c-45 0 -60 -45 -60 -45v-265h110c30 0 45 15 45 40v230c0 25 -15 40 -45 40zM270 520h60c80 0 135 -55 135 -125v-270c0 -70 -55 -125 -135 -125h-145v-170h-125v680h90l10 -50h10s30 60 100 60z" />
    <glyph glyph-name="afii10083" unicode="&#x441;" horiz-adv-x="425" 
d="M170 365v-220c0 -25 15 -40 45 -40h190v-105h-225c-80 0 -135 55 -135 125v260c0 70 55 125 135 125h225v-75l-30 -30h-160c-30 0 -45 -15 -45 -40z" />
    <glyph glyph-name="afii10084" unicode="&#x442;" horiz-adv-x="405" 
d="M10 405v105h385v-75l-25 -30h-105v-405h-125v405h-130z" />
    <glyph glyph-name="afii10085" unicode="&#x443;" horiz-adv-x="450" 
d="M435 460l-125 -455c-30 -110 -95 -175 -185 -175h-65v105h35c30 0 50 20 70 70l-150 455v50h130l85 -345h9l66 345h130v-50z" />
    <glyph glyph-name="afii10086" unicode="&#x444;" horiz-adv-x="685" 
d="M405 -170h-125v170h-100c-80 0 -135 55 -135 125v260c0 70 55 125 135 125h100v190h125v-190h100c80 0 135 -55 135 -125v-260c0 -70 -55 -125 -135 -125h-100v-170zM515 145v220c0 25 -15 40 -45 40h-65v-300h65c30 0 45 15 45 40zM170 365v-220c0 -25 15 -40 45 -40h65
v300h-65c-30 0 -45 -15 -45 -40z" />
    <glyph glyph-name="afii10087" unicode="&#x445;" horiz-adv-x="440" 
d="M225 180h-10l-75 -180h-125v50l110 210l-100 200v50h125l65 -175h10l65 175h125v-50l-100 -200l110 -210v-50h-125z" />
    <glyph glyph-name="afii10088" unicode="&#x446;" horiz-adv-x="530" 
d="M390 0h-330v510h125v-405h140v405h125v-405h60v-215h-110z" />
    <glyph glyph-name="afii10089" unicode="&#x447;" 
d="M50 290v220h125v-200c0 -25 15 -40 45 -40h90v240h125v-510h-125v165h-125c-80 0 -135 55 -135 125z" />
    <glyph glyph-name="afii10090" unicode="&#x448;" horiz-adv-x="735" 
d="M675 0h-615v510h125v-405h120v405h125v-405h120v405h125v-510z" />
    <glyph glyph-name="afii10091" unicode="&#x449;" horiz-adv-x="755" 
d="M615 0h-555v510h125v-405h120v405h125v-405h120v405h125v-405h60v-215h-110z" />
    <glyph glyph-name="afii10092" unicode="&#x44a;" horiz-adv-x="505" 
d="M100 0v405h-100v105h225v-160h110c80 0 135 -55 135 -125v-100c0 -70 -55 -125 -135 -125h-235zM300 245h-75v-140h75c30 0 45 15 45 40v60c0 25 -15 40 -45 40z" />
    <glyph glyph-name="afii10093" unicode="&#x44b;" horiz-adv-x="685" 
d="M625 0h-125v510h125v-510zM60 0v510h125v-160h110c80 0 135 -55 135 -125v-100c0 -70 -55 -125 -135 -125h-235zM260 245h-75v-140h75c30 0 45 15 45 40v60c0 25 -15 40 -45 40z" />
    <glyph glyph-name="afii10094" unicode="&#x44c;" horiz-adv-x="475" 
d="M60 0v510h125v-160h120c80 0 135 -55 135 -125v-100c0 -70 -55 -125 -135 -125h-245zM270 245h-85v-140h85c30 0 45 15 45 40v60c0 25 -15 40 -45 40z" />
    <glyph glyph-name="afii10095" unicode="&#x44d;" horiz-adv-x="425" 
d="M255 145v60h-140v105h140v55c0 25 -15 40 -45 40h-160l-30 30v75h225c80 0 135 -55 135 -125v-260c0 -70 -55 -125 -135 -125h-225v105h190c30 0 45 15 45 40z" />
    <glyph glyph-name="afii10096" unicode="&#x44e;" horiz-adv-x="685" 
d="M265 115v90h-80v-205h-125v510h125v-200h80v85c0 70 55 125 135 125h105c80 0 135 -55 135 -125v-280c0 -70 -55 -125 -135 -125h-105c-80 0 -135 55 -135 125zM470 95c30 0 45 15 45 40v240c0 25 -15 40 -45 40h-35c-30 0 -45 -15 -45 -40v-240c0 -25 15 -40 45 -40h35z
" />
    <glyph glyph-name="afii10097" unicode="&#x44f;" horiz-adv-x="490" 
d="M430 510v-510h-125v170h-70l-75 -170h-125v55l80 130s-65 30 -65 110v90c0 70 55 125 135 125h245zM175 315c0 -25 15 -40 45 -40h85v130h-85c-30 0 -45 -15 -45 -40v-50z" />
    <glyph glyph-name="agrave" unicode="&#xe0;" 
d="M160 170v-35c0 -25 15 -40 45 -40h45c45 0 60 45 60 45v70h-105c-30 0 -45 -15 -45 -40zM435 0h-90l-10 50h-10s-30 -60 -100 -60h-55c-80 0 -135 55 -135 125v75c0 70 55 125 135 125h140v50c0 25 -15 40 -45 40h-190v105h225c80 0 135 -55 135 -125v-385zM120 750h115
l65 -150h-90z" />
    <glyph glyph-name="aacute" unicode="&#xe1;" 
d="M160 170v-35c0 -25 15 -40 45 -40h45c45 0 60 45 60 45v70h-105c-30 0 -45 -15 -45 -40zM435 0h-90l-10 50h-10s-30 -60 -100 -60h-55c-80 0 -135 55 -135 125v75c0 70 55 125 135 125h140v50c0 25 -15 40 -45 40h-190v105h225c80 0 135 -55 135 -125v-385zM265 750h125
l-100 -150h-90z" />
    <glyph glyph-name="abreve" unicode="&#x103;" 
d="M160 170v-35c0 -25 15 -40 45 -40h45c45 0 60 45 60 45v70h-105c-30 0 -45 -15 -45 -40zM435 0h-90l-10 50h-10s-30 -60 -100 -60h-55c-80 0 -135 55 -135 125v75c0 70 55 125 135 125h140v50c0 25 -15 40 -45 40h-190v105h225c80 0 135 -55 135 -125v-385zM275 600h-55
c-80 0 -110 30 -110 100v50h95v-45c0 -15 10 -25 30 -25h25c20 0 30 10 30 25v45h95v-50c0 -70 -30 -100 -110 -100z" />
    <glyph glyph-name="acircumflex" unicode="&#xe2;" 
d="M160 170v-35c0 -25 15 -40 45 -40h45c45 0 60 45 60 45v70h-105c-30 0 -45 -15 -45 -40zM435 0h-90l-10 50h-10s-30 -60 -100 -60h-55c-80 0 -135 55 -135 125v75c0 70 55 125 135 125h140v50c0 25 -15 40 -45 40h-190v105h225c80 0 135 -55 135 -125v-385zM185 750h125
l95 -150h-110l-45 75h-5l-45 -75h-110z" />
    <glyph glyph-name="adieresis" unicode="&#xe4;" 
d="M160 170v-35c0 -25 15 -40 45 -40h45c45 0 60 45 60 45v70h-105c-30 0 -45 -15 -45 -40zM435 0h-90l-10 50h-10s-30 -60 -100 -60h-55c-80 0 -135 55 -135 125v75c0 70 55 125 135 125h140v50c0 25 -15 40 -45 40h-190v105h225c80 0 135 -55 135 -125v-385zM215 615h-110
v120h110v-120zM390 615h-110v120h110v-120z" />
    <glyph glyph-name="amacron" unicode="&#x101;" 
d="M160 170v-35c0 -25 15 -40 45 -40h45c45 0 60 45 60 45v70h-105c-30 0 -45 -15 -45 -40zM435 0h-90l-10 50h-10s-30 -60 -100 -60h-55c-80 0 -135 55 -135 125v75c0 70 55 125 135 125h140v50c0 25 -15 40 -45 40h-190v105h225c80 0 135 -55 135 -125v-385zM115 725h265
v-100h-265v100z" />
    <glyph glyph-name="aogonek" unicode="&#x105;" 
d="M380 -155h55v-75h-75c-65 0 -100 35 -100 90c0 85 95 140 95 140l-20 50h-10s-30 -60 -100 -60h-55c-80 0 -135 55 -135 125v75c0 70 55 125 135 125h140v50c0 25 -15 40 -45 40h-190v105h225c80 0 135 -55 135 -125v-395s-80 -60 -80 -120c0 -15 10 -25 25 -25zM160 170
v-35c0 -25 15 -40 45 -40h45c45 0 60 45 60 45v70h-105c-30 0 -45 -15 -45 -40z" />
    <glyph glyph-name="aring" unicode="&#xe5;" 
d="M160 170v-35c0 -25 15 -40 45 -40h45c45 0 60 45 60 45v70h-105c-30 0 -45 -15 -45 -40zM435 0h-90l-10 50h-10s-30 -60 -100 -60h-55c-80 0 -135 55 -135 125v75c0 70 55 125 135 125h140v50c0 25 -15 40 -45 40h-190v105h225c80 0 135 -55 135 -125v-385zM355 695v-40
c0 -50 -35 -85 -85 -85h-45c-50 0 -85 35 -85 85v40c0 50 35 85 85 85h45c50 0 85 -35 85 -85zM280 690c0 15 -10 25 -20 25h-25c-10 0 -20 -10 -20 -25v-30c0 -15 10 -25 20 -25h25c10 0 20 10 20 25v30z" />
    <glyph glyph-name="atilde" unicode="&#xe3;" 
d="M160 170v-35c0 -25 15 -40 45 -40h45c45 0 60 45 60 45v70h-105c-30 0 -45 -15 -45 -40zM435 0h-90l-10 50h-10s-30 -60 -100 -60h-55c-80 0 -135 55 -135 125v75c0 70 55 125 135 125h140v50c0 25 -15 40 -45 40h-190v105h225c80 0 135 -55 135 -125v-385zM252 625
l-15 15c-15 15 -20 20 -30 20c-5 0 -10 -5 -10 -15v-45h-80v85c0 45 25 70 60 70h10c25 0 40 -15 55 -30l15 -15c15 -15 20 -20 30 -20c5 0 10 5 10 15v45h80v-85c0 -45 -25 -70 -60 -70h-10c-25 0 -40 15 -55 30z" />
    <glyph glyph-name="ae" unicode="&#xe6;" horiz-adv-x="745" 
d="M160 170v-35c0 -25 15 -40 45 -40h45c45 0 60 45 60 45v70h-105c-30 0 -45 -15 -45 -40zM75 510h210c50 0 80 -50 80 -50h10s30 60 100 60h95c80 0 135 -55 135 -125v-190h-270v-60c0 -25 15 -40 45 -40h205v-105h-210c-70 0 -100 50 -100 50h-10s-30 -60 -100 -60h-95
c-80 0 -135 55 -135 125v75c0 70 55 125 135 125h140v50c0 25 -15 40 -45 40h-190v105zM535 415h-55c-30 0 -45 -15 -45 -40v-65h145v65c0 25 -15 40 -45 40z" />
    <glyph glyph-name="cacute" unicode="&#x107;" horiz-adv-x="425" 
d="M170 365v-220c0 -25 15 -40 45 -40h190v-105h-225c-80 0 -135 55 -135 125v260c0 70 55 125 135 125h225v-75l-30 -30h-160c-30 0 -45 -15 -45 -40zM280 750h125l-100 -150h-90z" />
    <glyph glyph-name="ccaron" unicode="&#x10d;" horiz-adv-x="425" 
d="M170 365v-220c0 -25 15 -40 45 -40h190v-105h-225c-80 0 -135 55 -135 125v260c0 70 55 125 135 125h225v-75l-30 -30h-160c-30 0 -45 -15 -45 -40zM300 600h-125l-95 150h110l45 -75h5l45 75h110z" />
    <glyph glyph-name="ccedilla" unicode="&#xe7;" horiz-adv-x="425" 
d="M270 -240h-115v70h100c10 0 20 10 20 20v20c0 10 -10 20 -20 20h-50l-25 25v85c-80 0 -135 55 -135 125v260c0 70 55 125 135 125h225v-75l-30 -30h-160c-30 0 -45 -15 -45 -40v-220c0 -25 15 -40 45 -40h190v-105h-150v-40h15c50 0 85 -35 85 -85v-30
c0 -50 -35 -85 -85 -85z" />
    <glyph glyph-name="ccircumflex" unicode="&#x109;" horiz-adv-x="425" 
d="M170 365v-220c0 -25 15 -40 45 -40h190v-105h-225c-80 0 -135 55 -135 125v260c0 70 55 125 135 125h225v-75l-30 -30h-160c-30 0 -45 -15 -45 -40zM175 750h125l95 -150h-110l-45 75h-5l-45 -75h-110z" />
    <glyph glyph-name="dcaron" unicode="&#x10f;" horiz-adv-x="575" 
d="M215 95h50c45 0 60 45 60 45v265h-110c-30 0 -45 -15 -45 -40v-230c0 -25 15 -40 45 -40zM240 -10h-60c-80 0 -135 55 -135 125v270c0 70 55 125 135 125h145v190h125v-700h-90l-10 50h-10s-30 -60 -100 -60zM635 620l-55 -120h-55v200h110v-80z" />
    <glyph glyph-name="dcroat" unicode="&#x111;" horiz-adv-x="515" 
d="M240 -10h-60c-80 0 -135 55 -135 125v195c0 70 55 125 135 125h145v65h-140v105h140v95h125v-95h55v-105h-55v-500h-90l-10 50h-10s-30 -60 -100 -60zM215 95h50c45 0 60 45 60 45v190h-110c-30 0 -45 -15 -45 -40v-155c0 -25 15 -40 45 -40z" />
    <glyph glyph-name="eth" unicode="&#xf0;" 
d="M45 115v210c0 70 55 125 135 125h140v45c0 45 -20 64 -50 70l-55 11l-15 -66l-100 20l15 67l-60 13l20 110l60 -13l15 68l100 -20l-15 -70l55 -10c111 -20 155 -70 155 -175v-385c0 -70 -55 -125 -135 -125h-130c-80 0 -135 55 -135 125zM320 345h-105
c-30 0 -45 -15 -45 -40v-170c0 -25 15 -40 45 -40h60c30 0 45 15 45 40v210z" />
    <glyph glyph-name="egrave" unicode="&#xe8;" horiz-adv-x="485" 
d="M270 415h-55c-30 0 -45 -15 -45 -40v-65h145v65c0 25 -15 40 -45 40zM420 0h-240c-80 0 -135 55 -135 125v270c0 70 55 125 135 125h125c80 0 135 -55 135 -125v-190h-270v-60c0 -25 15 -40 45 -40h205v-105zM130 750h115l65 -150h-90z" />
    <glyph glyph-name="eacute" unicode="&#xe9;" horiz-adv-x="485" 
d="M270 415h-55c-30 0 -45 -15 -45 -40v-65h145v65c0 25 -15 40 -45 40zM420 0h-240c-80 0 -135 55 -135 125v270c0 70 55 125 135 125h125c80 0 135 -55 135 -125v-190h-270v-60c0 -25 15 -40 45 -40h205v-105zM275 750h125l-100 -150h-90z" />
    <glyph glyph-name="ecaron" unicode="&#x11b;" horiz-adv-x="485" 
d="M270 415h-55c-30 0 -45 -15 -45 -40v-65h145v65c0 25 -15 40 -45 40zM420 0h-240c-80 0 -135 55 -135 125v270c0 70 55 125 135 125h125c80 0 135 -55 135 -125v-190h-270v-60c0 -25 15 -40 45 -40h205v-105zM305 600h-125l-95 150h110l45 -75h5l45 75h110z" />
    <glyph glyph-name="ecircumflex" unicode="&#xea;" horiz-adv-x="485" 
d="M270 415h-55c-30 0 -45 -15 -45 -40v-65h145v65c0 25 -15 40 -45 40zM420 0h-240c-80 0 -135 55 -135 125v270c0 70 55 125 135 125h125c80 0 135 -55 135 -125v-190h-270v-60c0 -25 15 -40 45 -40h205v-105zM180 750h125l95 -150h-110l-45 75h-5l-45 -75h-110z" />
    <glyph glyph-name="edieresis" unicode="&#xeb;" horiz-adv-x="485" 
d="M270 415h-55c-30 0 -45 -15 -45 -40v-65h145v65c0 25 -15 40 -45 40zM420 0h-240c-80 0 -135 55 -135 125v270c0 70 55 125 135 125h125c80 0 135 -55 135 -125v-190h-270v-60c0 -25 15 -40 45 -40h205v-105zM210 615h-110v120h110v-120zM385 615h-110v120h110v-120z" />
    <glyph glyph-name="edotaccent" unicode="&#x117;" horiz-adv-x="485" 
d="M270 415h-55c-30 0 -45 -15 -45 -40v-65h145v65c0 25 -15 40 -45 40zM420 0h-240c-80 0 -135 55 -135 125v270c0 70 55 125 135 125h125c80 0 135 -55 135 -125v-190h-270v-60c0 -25 15 -40 45 -40h205v-105zM305 740v-130h-125v130h125z" />
    <glyph glyph-name="emacron" unicode="&#x113;" horiz-adv-x="485" 
d="M270 415h-55c-30 0 -45 -15 -45 -40v-65h145v65c0 25 -15 40 -45 40zM420 0h-240c-80 0 -135 55 -135 125v270c0 70 55 125 135 125h125c80 0 135 -55 135 -125v-190h-270v-60c0 -25 15 -40 45 -40h205v-105zM110 725h265v-100h-265v100z" />
    <glyph glyph-name="eogonek" unicode="&#x119;" horiz-adv-x="485" 
d="M420 -10c0 0 -80 -60 -80 -120c0 -15 10 -25 25 -25h55v-75h-75c-65 0 -100 35 -100 90c0 85 95 140 95 140h-160c-80 0 -135 55 -135 125v270c0 70 55 125 135 125h125c80 0 135 -55 135 -125v-190h-270v-60c0 -25 15 -40 45 -40h205v-115zM270 415h-55
c-30 0 -45 -15 -45 -40v-65h145v65c0 25 -15 40 -45 40z" />
    <glyph glyph-name="gbreve" unicode="&#x11f;" horiz-adv-x="510" 
d="M180 520h60c70 0 100 -60 100 -60h10l10 50h90v-565c0 -70 -55 -125 -135 -125h-245v105h210c30 0 45 15 45 40v65h-145c-80 0 -135 55 -135 125v240c0 70 55 125 135 125zM265 415h-50c-30 0 -45 -15 -45 -40v-200c0 -25 15 -40 45 -40h110v235s-15 45 -60 45zM285 600
h-55c-80 0 -110 30 -110 100v50h95v-45c0 -15 10 -25 30 -25h25c20 0 30 10 30 25v45h95v-50c0 -70 -30 -100 -110 -100z" />
    <glyph glyph-name="gcommaaccent" unicode="&#x123;" horiz-adv-x="510" 
d="M180 520h60c70 0 100 -60 100 -60h10l10 50h90v-565c0 -70 -55 -125 -135 -125h-245v105h210c30 0 45 15 45 40v65h-145c-80 0 -135 55 -135 125v240c0 70 55 125 135 125zM265 415h-50c-30 0 -45 -15 -45 -40v-200c0 -25 15 -40 45 -40h110v235s-15 45 -60 45zM200 680
l55 120h55v-200h-110v80z" />
    <glyph glyph-name="kcommaaccent" unicode="&#x137;" horiz-adv-x="490" 
d="M195 700v-385h70l70 195h125v-50l-90 -195l100 -215v-50h-125l-80 210h-70v-210h-125v700h125zM325 -140l-55 -120h-55v200h110v-80z" />
    <glyph glyph-name="lacute" unicode="&#x13a;" horiz-adv-x="270" 
d="M70 125v575h125v-555c0 -25 15 -40 45 -40h20v-105h-55c-80 0 -135 55 -135 125zM155 910h125l-100 -140h-90z" />
    <glyph glyph-name="lcaron" unicode="&#x13e;" horiz-adv-x="310" 
d="M70 125v575h125v-555c0 -25 15 -40 45 -40h20v-105h-55c-80 0 -135 55 -135 125zM370 620l-55 -120h-55v200h110v-80z" />
    <glyph glyph-name="lcommaaccent" unicode="&#x13c;" horiz-adv-x="270" 
d="M70 125v575h125v-555c0 -25 15 -40 45 -40h20v-105h-55c-80 0 -135 55 -135 125zM225 -140l-55 -120h-55v200h110v-80z" />
    <glyph glyph-name="lslash" unicode="&#x142;" horiz-adv-x="300" 
d="M70 125v170l-50 -25v110l50 25v295h125v-235l85 40v-110l-85 -40v-210c0 -25 15 -40 45 -40h20v-105h-55c-80 0 -135 55 -135 125z" />
    <glyph glyph-name="igrave" unicode="&#xec;" horiz-adv-x="245" 
d="M185 510v-510h-125v510h125zM-10 750h115l65 -150h-90z" />
    <glyph glyph-name="iacute" unicode="&#xed;" horiz-adv-x="245" 
d="M185 510v-510h-125v510h125zM150 750h125l-100 -150h-90z" />
    <glyph glyph-name="icircumflex" unicode="&#xee;" horiz-adv-x="245" 
d="M185 510v-510h-125v510h125zM60 750h125l95 -150h-110l-45 75h-5l-45 -75h-110z" />
    <glyph glyph-name="idieresis" unicode="&#xef;" horiz-adv-x="245" 
d="M185 510v-510h-125v510h125zM90 615h-110v120h110v-120zM265 615h-110v120h110v-120z" />
    <glyph glyph-name="dotlessi" unicode="&#x131;" horiz-adv-x="245" 
d="M185 510v-510h-125v510h125z" />
    <glyph glyph-name="imacron" unicode="&#x12b;" horiz-adv-x="245" 
d="M-10 725h265v-100h-265v100zM185 510v-510h-125v510h125z" />
    <glyph glyph-name="iogonek" unicode="&#x12f;" horiz-adv-x="245" 
d="M130 -155h55v-75h-75c-65 0 -100 35 -100 90c0 85 95 140 95 140h-45v510h125v-520s-80 -60 -80 -120c0 -15 10 -25 25 -25zM185 740v-130h-125v130h125z" />
    <glyph glyph-name="nacute" unicode="&#x144;" horiz-adv-x="525" 
d="M270 520h60c80 0 135 -55 135 -125v-395h-125v375c0 25 -15 40 -45 40h-50c-45 0 -60 -45 -60 -45v-370h-125v510h90l10 -50h10s30 60 100 60zM285 750h125l-100 -150h-90z" />
    <glyph glyph-name="ncaron" unicode="&#x148;" horiz-adv-x="525" 
d="M270 520h60c80 0 135 -55 135 -125v-395h-125v375c0 25 -15 40 -45 40h-50c-45 0 -60 -45 -60 -45v-370h-125v510h90l10 -50h10s30 60 100 60zM325 600h-125l-95 150h110l45 -75h5l45 75h110z" />
    <glyph glyph-name="ncommaaccent" unicode="&#x146;" horiz-adv-x="525" 
d="M270 520h60c80 0 135 -55 135 -125v-395h-125v375c0 25 -15 40 -45 40h-50c-45 0 -60 -45 -60 -45v-370h-125v510h90l10 -50h10s30 60 100 60zM320 -140l-55 -120h-55v200h110v-80z" />
    <glyph glyph-name="ntilde" unicode="&#xf1;" horiz-adv-x="525" 
d="M270 520h60c80 0 135 -55 135 -125v-395h-125v375c0 25 -15 40 -45 40h-50c-45 0 -60 -45 -60 -45v-370h-125v510h90l10 -50h10s30 60 100 60zM267 625l-15 15c-15 15 -20 20 -30 20c-5 0 -10 -5 -10 -15v-45h-80v85c0 45 25 70 60 70h10c25 0 40 -15 55 -30l15 -15
c15 -15 20 -20 30 -20c5 0 10 5 10 15v45h80v-85c0 -45 -25 -70 -60 -70h-10c-25 0 -40 15 -55 30z" />
    <glyph glyph-name="ograve" unicode="&#xf2;" 
d="M45 115v280c0 70 55 125 135 125h135c80 0 135 -55 135 -125v-280c0 -70 -55 -125 -135 -125h-135c-80 0 -135 55 -135 125zM280 95c30 0 45 15 45 40v240c0 25 -15 40 -45 40h-65c-30 0 -45 -15 -45 -40v-240c0 -25 15 -40 45 -40h65zM135 750h115l65 -150h-90z" />
    <glyph glyph-name="oacute" unicode="&#xf3;" 
d="M45 115v280c0 70 55 125 135 125h135c80 0 135 -55 135 -125v-280c0 -70 -55 -125 -135 -125h-135c-80 0 -135 55 -135 125zM280 95c30 0 45 15 45 40v240c0 25 -15 40 -45 40h-65c-30 0 -45 -15 -45 -40v-240c0 -25 15 -40 45 -40h65zM285 750h125l-100 -150h-90z" />
    <glyph glyph-name="ocircumflex" unicode="&#xf4;" 
d="M45 115v280c0 70 55 125 135 125h135c80 0 135 -55 135 -125v-280c0 -70 -55 -125 -135 -125h-135c-80 0 -135 55 -135 125zM280 95c30 0 45 15 45 40v240c0 25 -15 40 -45 40h-65c-30 0 -45 -15 -45 -40v-240c0 -25 15 -40 45 -40h65zM185 750h125l95 -150h-110l-45 75
h-5l-45 -75h-110z" />
    <glyph glyph-name="odieresis" unicode="&#xf6;" 
d="M45 115v280c0 70 55 125 135 125h135c80 0 135 -55 135 -125v-280c0 -70 -55 -125 -135 -125h-135c-80 0 -135 55 -135 125zM280 95c30 0 45 15 45 40v240c0 25 -15 40 -45 40h-65c-30 0 -45 -15 -45 -40v-240c0 -25 15 -40 45 -40h65zM215 615h-110v120h110v-120z
M390 615h-110v120h110v-120z" />
    <glyph glyph-name="ohungarumlaut" unicode="&#x151;" 
d="M45 115v280c0 70 55 125 135 125h135c80 0 135 -55 135 -125v-280c0 -70 -55 -125 -135 -125h-135c-80 0 -135 55 -135 125zM280 95c30 0 45 15 45 40v240c0 25 -15 40 -45 40h-65c-30 0 -45 -15 -45 -40v-240c0 -25 15 -40 45 -40h65zM182 750h115l-90 -150h-90z
M347 750h115l-90 -150h-90z" />
    <glyph glyph-name="omacron" unicode="&#x14d;" 
d="M45 115v280c0 70 55 125 135 125h135c80 0 135 -55 135 -125v-280c0 -70 -55 -125 -135 -125h-135c-80 0 -135 55 -135 125zM280 95c30 0 45 15 45 40v240c0 25 -15 40 -45 40h-65c-30 0 -45 -15 -45 -40v-240c0 -25 15 -40 45 -40h65zM115 725h265v-100h-265v100z" />
    <glyph glyph-name="otilde" unicode="&#xf5;" 
d="M45 115v280c0 70 55 125 135 125h135c80 0 135 -55 135 -125v-280c0 -70 -55 -125 -135 -125h-135c-80 0 -135 55 -135 125zM280 95c30 0 45 15 45 40v240c0 25 -15 40 -45 40h-65c-30 0 -45 -15 -45 -40v-240c0 -25 15 -40 45 -40h65zM252 625l-15 15
c-15 15 -20 20 -30 20c-5 0 -10 -5 -10 -15v-45h-80v85c0 45 25 70 60 70h10c25 0 40 -15 55 -30l15 -15c15 -15 20 -20 30 -20c5 0 10 5 10 15v45h80v-85c0 -45 -25 -70 -60 -70h-10c-25 0 -40 15 -55 30z" />
    <glyph glyph-name="oslash" unicode="&#xf8;" 
d="M45 115v280c0 70 55 125 135 125h135c80 0 135 -55 135 -125v-280c0 -70 -55 -125 -135 -125h-135c-80 0 -135 55 -135 125zM280 95c30 0 45 15 45 40v195l-110 -235h65zM170 180l110 235h-65c-30 0 -45 -15 -45 -40v-195z" />
    <glyph glyph-name="oe" unicode="&#x153;" horiz-adv-x="765" 
d="M280 95c30 0 45 15 45 40v240c0 25 -15 40 -45 40h-65c-30 0 -45 -15 -45 -40v-240c0 -25 15 -40 45 -40h65zM550 415h-55c-30 0 -45 -15 -45 -40v-65h145v65c0 25 -15 40 -45 40zM495 520h90c80 0 135 -55 135 -125v-190h-270v-60c0 -25 15 -40 45 -40h205v-105h-205
c-70 0 -100 50 -100 50h-10s-30 -60 -100 -60h-105c-80 0 -135 55 -135 125v280c0 70 55 125 135 125h105c70 0 100 -50 100 -50h10s30 50 100 50z" />
    <glyph glyph-name="racute" unicode="&#x155;" horiz-adv-x="355" 
d="M270 520h75v-105h-100c-45 0 -60 -45 -60 -45v-370h-125v510h90l10 -50h10s30 60 100 60zM235 750h125l-100 -150h-90z" />
    <glyph glyph-name="rcaron" unicode="&#x159;" horiz-adv-x="355" 
d="M270 520h75v-105h-100c-45 0 -60 -45 -60 -45v-370h-125v510h90l10 -50h10s30 60 100 60zM275 600h-125l-95 150h110l45 -75h5l45 75h110z" />
    <glyph glyph-name="rcommaaccent" unicode="&#x157;" horiz-adv-x="355" 
d="M270 520h75v-105h-100c-45 0 -60 -45 -60 -45v-370h-125v510h90l10 -50h10s30 60 100 60zM177 -140l-55 -120h-55v200h110v-80z" />
    <glyph glyph-name="sacute" unicode="&#x15b;" horiz-adv-x="430" 
d="M35 340v45c0 70 55 125 135 125h215v-75l-30 -30h-150c-30 0 -45 -15 -45 -40v-10c0 -20 15 -35 35 -40l110 -25c55 -11 95 -50 95 -120v-45c0 -70 -55 -125 -135 -125h-235v105h200c30 0 45 15 45 40v10c0 20 -15 35 -35 40l-110 25c-55 11 -95 50 -95 120zM240 750h125
l-100 -150h-90z" />
    <glyph glyph-name="scaron" unicode="&#x161;" horiz-adv-x="430" 
d="M35 340v45c0 70 55 125 135 125h215v-75l-30 -30h-150c-30 0 -45 -15 -45 -40v-10c0 -20 15 -35 35 -40l110 -25c55 -11 95 -50 95 -120v-45c0 -70 -55 -125 -135 -125h-235v105h200c30 0 45 15 45 40v10c0 20 -15 35 -35 40l-110 25c-55 11 -95 50 -95 120zM285 600
h-125l-95 150h110l45 -75h5l45 75h110z" />
    <glyph glyph-name="scedilla" unicode="&#x15f;" horiz-adv-x="430" 
d="M240 -240h-115v70h100c10 0 20 10 20 20v20c0 10 -10 20 -20 20h-50l-25 25v85h-120v105h200c30 0 45 15 45 40v10c0 20 -15 35 -35 40l-110 25c-55 11 -95 50 -95 120v45c0 70 55 125 135 125h215v-75l-30 -30h-150c-30 0 -45 -15 -45 -40v-10c0 -20 15 -35 35 -40
l110 -25c55 -11 95 -50 95 -120v-45c0 -70 -55 -125 -135 -125h-40v-40h15c50 0 85 -35 85 -85v-30c0 -50 -35 -85 -85 -85z" />
    <glyph glyph-name="scommaaccent" unicode="&#x219;" horiz-adv-x="430" 
d="M35 340v45c0 70 55 125 135 125h215v-75l-30 -30h-150c-30 0 -45 -15 -45 -40v-10c0 -20 15 -35 35 -40l110 -25c55 -11 95 -50 95 -120v-45c0 -70 -55 -125 -135 -125h-235v105h200c30 0 45 15 45 40v10c0 20 -15 35 -35 40l-110 25c-55 11 -95 50 -95 120zM270 -140
l-55 -120h-55v200h110v-80z" />
    <glyph glyph-name="thorn" unicode="&#xfe;" horiz-adv-x="520" 
d="M340 0h-145v-170h-125v870h125v-190h145c80 0 135 -55 135 -125v-260c0 -70 -55 -125 -135 -125zM350 145v220c0 25 -15 40 -45 40h-110v-300h110c30 0 45 15 45 40z" />
    <glyph glyph-name="tcaron" unicode="&#x165;" horiz-adv-x="395" 
d="M80 125v280h-60v105h60l50 145h75v-145h100v-105h-100v-260c0 -25 15 -40 45 -40h80v-105h-115c-80 0 -135 55 -135 125zM455 620l-55 -120h-55v200h110v-80z" />
    <glyph glyph-name="tcommaaccent" unicode="&#x163;" horiz-adv-x="350" 
d="M80 125v280h-60v105h60l50 145h75v-145h100v-105h-100v-260c0 -25 15 -40 45 -40h80v-105h-115c-80 0 -135 55 -135 125zM250 -140l-55 -120h-55v200h110v-80z" />
    <glyph glyph-name="yacute" unicode="&#xfd;" horiz-adv-x="450" 
d="M435 460l-125 -455c-30 -110 -95 -175 -185 -175h-65v105h35c30 0 50 20 70 70l-150 455v50h130l85 -345h9l66 345h130v-50zM245 750h125l-100 -150h-90z" />
    <glyph glyph-name="ydieresis" unicode="&#xff;" horiz-adv-x="450" 
d="M435 460l-125 -455c-30 -110 -95 -175 -185 -175h-65v105h35c30 0 50 20 70 70l-150 455v50h130l85 -345h9l66 345h130v-50zM193 615h-110v120h110v-120zM368 615h-110v120h110v-120z" />
    <glyph glyph-name="ugrave" unicode="&#xf9;" horiz-adv-x="525" 
d="M255 -10h-60c-80 0 -135 55 -135 125v395h125v-375c0 -25 15 -40 45 -40h50c45 0 60 45 60 45v370h125v-510h-90l-10 50h-10s-30 -60 -100 -60zM135 750h115l65 -150h-90z" />
    <glyph glyph-name="uacute" unicode="&#xfa;" horiz-adv-x="525" 
d="M255 -10h-60c-80 0 -135 55 -135 125v395h125v-375c0 -25 15 -40 45 -40h50c45 0 60 45 60 45v370h125v-510h-90l-10 50h-10s-30 -60 -100 -60zM295 750h125l-100 -150h-90z" />
    <glyph glyph-name="ucircumflex" unicode="&#xfb;" horiz-adv-x="525" 
d="M255 -10h-60c-80 0 -135 55 -135 125v395h125v-375c0 -25 15 -40 45 -40h50c45 0 60 45 60 45v370h125v-510h-90l-10 50h-10s-30 -60 -100 -60zM200 750h125l95 -150h-110l-45 75h-5l-45 -75h-110z" />
    <glyph glyph-name="udieresis" unicode="&#xfc;" horiz-adv-x="525" 
d="M255 -10h-60c-80 0 -135 55 -135 125v395h125v-375c0 -25 15 -40 45 -40h50c45 0 60 45 60 45v370h125v-510h-90l-10 50h-10s-30 -60 -100 -60zM230 615h-110v120h110v-120zM405 615h-110v120h110v-120z" />
    <glyph glyph-name="uhungarumlaut" unicode="&#x171;" horiz-adv-x="525" 
d="M255 -10h-60c-80 0 -135 55 -135 125v395h125v-375c0 -25 15 -40 45 -40h50c45 0 60 45 60 45v370h125v-510h-90l-10 50h-10s-30 -60 -100 -60zM205 750h115l-90 -150h-90zM370 750h115l-90 -150h-90z" />
    <glyph glyph-name="umacron" unicode="&#x16b;" horiz-adv-x="525" 
d="M255 -10h-60c-80 0 -135 55 -135 125v395h125v-375c0 -25 15 -40 45 -40h50c45 0 60 45 60 45v370h125v-510h-90l-10 50h-10s-30 -60 -100 -60zM130 725h265v-100h-265v100z" />
    <glyph glyph-name="uogonek" unicode="&#x173;" horiz-adv-x="525" 
d="M410 -155h55v-75h-75c-65 0 -100 35 -100 90c0 85 95 140 95 140l-20 50h-10s-30 -60 -100 -60h-60c-80 0 -135 55 -135 125v395h125v-375c0 -25 15 -40 45 -40h50c45 0 60 45 60 45v370h125v-520s-80 -60 -80 -120c0 -15 10 -25 25 -25z" />
    <glyph glyph-name="uring" unicode="&#x16f;" horiz-adv-x="525" 
d="M255 -10h-60c-80 0 -135 55 -135 125v395h125v-375c0 -25 15 -40 45 -40h50c45 0 60 45 60 45v370h125v-510h-90l-10 50h-10s-30 -60 -100 -60zM370 695v-40c0 -50 -35 -85 -85 -85h-45c-50 0 -85 35 -85 85v40c0 50 35 85 85 85h45c50 0 85 -35 85 -85zM295 690
c0 15 -10 25 -20 25h-25c-10 0 -20 -10 -20 -25v-30c0 -15 10 -25 20 -25h25c10 0 20 10 20 25v30z" />
    <glyph glyph-name="zacute" unicode="&#x17a;" horiz-adv-x="410" 
d="M235 395v10h-180l-30 30v75h365v-105l-215 -290v-10h215v-105h-370v105zM225 750h125l-100 -150h-90z" />
    <glyph glyph-name="zcaron" unicode="&#x17e;" horiz-adv-x="410" 
d="M235 395v10h-180l-30 30v75h365v-105l-215 -290v-10h215v-105h-370v105zM270 600h-125l-95 150h110l45 -75h5l45 75h110z" />
    <glyph glyph-name="zdotaccent" unicode="&#x17c;" horiz-adv-x="410" 
d="M235 395v10h-180l-30 30v75h365v-105l-215 -290v-10h215v-105h-370v105zM270 740v-130h-125v130h125z" />
    <glyph glyph-name="cent" unicode="&#xa2;" horiz-adv-x="425" 
d="M170 365v-220c0 -25 15 -40 45 -40h190v-105h-90v-95h-125v95h-10c-80 0 -135 55 -135 125v260c0 70 55 125 135 125h10v95h125v-95h90v-75l-30 -30h-160c-30 0 -45 -15 -45 -40z" />
    <glyph glyph-name="florin" unicode="&#x192;" horiz-adv-x="335" 
d="M195 350v-395c0 -70 -55 -125 -135 -125h-80v105h45c30 0 45 15 45 40v610c0 70 55 125 135 125h160v-75l-30 -30h-95c-30 0 -45 -15 -45 -40v-110h120v-105h-120z" />
    <glyph glyph-name="germandbls" unicode="&#xdf;" horiz-adv-x="545" 
d="M260 350v50c0 75 60 85 60 135v20c0 25 -15 40 -45 40h-34c-31 0 -46 -15 -46 -40v-555h-125v575c0 70 55 125 135 125h105c80 0 135 -55 135 -125v-40c0 -90 -65 -100 -65 -140v-40c0 -50 140 -30 140 -155v-75c0 -70 -55 -125 -135 -125h-115v105h80c30 0 45 15 45 40
v55c0 50 -135 45 -135 150z" />
    <glyph glyph-name="C" unicode="C" 
d="M440 590h-210c-30 0 -50 -20 -50 -45v-390c0 -25 20 -45 50 -45h245v-110h-280c-90 0 -145 55 -145 135v430c0 80 55 135 145 135h280v-75z" />
    <glyph glyph-name="Aogonek" unicode="&#x104;" horiz-adv-x="550" 
d="M405 0l-35 150h-190l-35 -150h-130v55l175 645h170l175 -645v-65s-80 -60 -80 -120c0 -15 10 -25 25 -25h55v-75h-75c-65 0 -100 35 -100 90c0 85 95 140 95 140h-50zM270 525l-65 -265h140l-65 265h-10z" />
    <glyph glyph-name="Aring" unicode="&#xc5;" horiz-adv-x="550" 
d="M383 845v-70c0 -55 -43 -75 -43 -75h20l175 -645v-55h-130l-35 150h-190l-35 -150h-130v55l175 645h20s-42 20 -42 75v70c0 50 35 85 85 85h45c50 0 85 -35 85 -85zM270 525l-65 -265h140l-65 265h-10zM308 840c0 15 -10 25 -20 25h-25c-10 0 -20 -10 -20 -25v-60
c0 -15 10 -25 20 -25h25c10 0 20 10 20 25v60z" />
    <glyph glyph-name="Acute" unicode="&#xf6c9;" horiz-adv-x="270" 
d="M105 910h125l-100 -140h-90z" />
    <glyph glyph-name="Breve" horiz-adv-x="355" 
d="M205 770h-55c-80 0 -110 30 -110 100v40h95v-35c0 -15 10 -25 30 -25h25c20 0 30 10 30 25v35h95v-40c0 -70 -30 -100 -110 -100z" />
    <glyph glyph-name="Caron" unicode="&#xf6ca;" horiz-adv-x="395" 
d="M260 770h-125l-95 140h110l45 -65h5l45 65h110z" />
    <glyph glyph-name="Circumflex" unicode="&#xf408;" horiz-adv-x="395" 
d="M135 910h125l95 -140h-110l-45 65h-5l-45 -65h-110z" />
    <glyph glyph-name="Dieresis" unicode="&#xf6cb;" horiz-adv-x="370" 
d="M150 780h-110v120h110v-120zM330 780h-110v120h110v-120z" />
    <glyph glyph-name="Dotaccent" unicode="&#xf40b;" horiz-adv-x="205" 
d="M165 905v-130h-125v130h125z" />
    <glyph glyph-name="Grave" unicode="&#xf6ce;" horiz-adv-x="260" 
d="M40 910h115l65 -140h-90z" />
    <glyph glyph-name="Hungarumlaut" unicode="&#xf6cf;" horiz-adv-x="425" 
d="M105 910h115l-90 -140h-90zM270 910h115l-90 -140h-90z" />
    <glyph glyph-name="Macron" unicode="&#xf6d0;" horiz-adv-x="345" 
d="M40 890h265v-100h-265v100z" />
    <glyph glyph-name="Ring" unicode="&#xf40c;" horiz-adv-x="295" 
d="M255 845v-20c0 -50 -35 -85 -85 -85h-45c-50 0 -85 35 -85 85v20c0 50 35 85 85 85h45c50 0 85 -35 85 -85zM180 840c0 15 -10 25 -20 25h-25c-10 0 -20 -10 -20 -25v-10c0 -15 10 -25 20 -25h25c10 0 20 10 20 25v10z" />
    <glyph glyph-name="Tilde" unicode="&#xf40d;" horiz-adv-x="340" 
d="M175 795c-25 25 -30 30 -40 30s-15 -5 -15 -15v-40h-80v75c0 45 25 70 60 70h10c25 0 40 -15 55 -30c25 -25 30 -30 40 -30s15 5 15 15v40h80v-75c0 -45 -25 -70 -60 -70h-10c-25 0 -40 15 -55 30z" />
    <glyph glyph-name="CR" unicode="&#xd;" horiz-adv-x="0" 
 />
    <glyph glyph-name=".null" horiz-adv-x="0" 
 />
    <glyph glyph-name=".null" horiz-adv-x="0" 
 />
    <glyph glyph-name="nbspace" unicode="&#xa0;" horiz-adv-x="215" 
 />
    <glyph glyph-name="E" unicode="E" horiz-adv-x="510" 
d="M490 700v-75l-35 -35h-255v-180h210v-110h-210v-190h290v-110h-420v700h420z" />
    </font>
</defs>
</svg>
