<?xml version="1.0" standalone="no"?>
<!DOCTYPE svg PUBLIC "-//W3C//DTD SVG 1.1//EN" "http://www.w3.org/Graphics/SVG/1.1/DTD/svg11.dtd" >
<svg>
<metadata>
Created by FontForge 20120731 at Tue Sep 10 18:49:12 2019
 By www-data
Designed for Typetype in 2016 by Ivan Gladkikh. TT Supermolot Condensed is one of series of fontfamilies which were designed for use in web and mobile applications, print and multimedia environments. 
</metadata>
<defs>
<font id="TTSupermolotCondensed-BlackItalic" horiz-adv-x="550" >
  <font-face 
    font-family="TT Supermolot Condensed Black"
    font-weight="900"
    font-style="italic"
    font-stretch="normal"
    units-per-em="1000"
    panose-1="2 0 5 3 4 0 0 9 0 3"
    ascent="800"
    descent="-200"
    x-height="520"
    cap-height="700"
    bbox="-109 -300 1130 950"
    underline-thickness="50"
    underline-position="-50"
    stemh="180"
    unicode-range="U+000D-F6D4"
  />
<missing-glyph horiz-adv-x="0" 
 />
    <glyph glyph-name=".notdef" horiz-adv-x="0" 
 />
    <glyph glyph-name="F" unicode="F" horiz-adv-x="530" 
d="M593 700l-23 -130l-71 -60h-180l-18 -105h155l-34 -190h-155l-37 -215h-220l123 700h460z" />
    <glyph glyph-name="G" unicode="G" horiz-adv-x="590" 
d="M490 0h-350c-85 0 -131 55 -116 140l74 420c15 85 80 140 165 140h325l-21 -120l-71 -60h-185l-60 -340h60l39 220h210z" />
    <glyph glyph-name="H" unicode="H" horiz-adv-x="630" 
d="M230 0h-220l123 700h220l-45 -255h70l45 255h220l-123 -700h-220l44 255h-70z" />
    <glyph glyph-name="I" unicode="I" horiz-adv-x="340" 
d="M230 0h-220l123 700h220z" />
    <glyph glyph-name="J" unicode="J" horiz-adv-x="460" 
d="M263 700h220l-101 -570c-15 -85 -79 -140 -164 -140h-260l31 180h180z" />
    <glyph glyph-name="L" unicode="L" horiz-adv-x="505" 
d="M263 190h215l-33 -190h-435l123 700h220z" />
    <glyph glyph-name="M" unicode="M" horiz-adv-x="810" 
d="M455 90h-170l-16 190h-10l-49 -280h-240l17 100l161 600h270l20 -200h10l90 200h270l-51 -600l-17 -100h-240l49 280h-10z" />
    <glyph glyph-name="N" unicode="N" horiz-adv-x="630" 
d="M520 0h-230l-28 240h-10l-5 -140l-17 -100h-220l123 700h230l28 -240h10l4 140l18 100h220z" />
    <glyph glyph-name="O" unicode="O" horiz-adv-x="620" 
d="M329 170l64 360h-80l-64 -360h80zM22 130l78 440c15 85 80 140 165 140h240c85 0 130 -55 115 -140l-78 -440c-15 -85 -79 -140 -164 -140h-240c-85 0 -131 55 -116 140z" />
    <glyph glyph-name="P" unicode="P" horiz-adv-x="595" 
d="M230 0h-220l123 700h365c85 0 130 -55 115 -140l-40 -230c-15 -85 -80 -140 -165 -140h-145zM386 520h-65l-26 -150h65z" />
    <glyph glyph-name="R" unicode="R" horiz-adv-x="610" 
d="M230 0h-220l123 700h365c85 0 130 -55 115 -140l-33 -190c-15 -85 -75 -110 -75 -110l42 -160l-17 -100h-220l-15 235h-24zM386 520h-65l-18 -105h65z" />
    <glyph glyph-name="Q" unicode="Q" horiz-adv-x="620" 
d="M22 130l78 440c15 85 80 140 165 140h240c85 0 130 -55 115 -140l-78 -440c-15 -85 -79 -140 -164 -140h-20l27 -70l-14 -80h-200l-13 150h-20c-85 0 -131 55 -116 140zM329 170l64 360h-80l-64 -360h80z" />
    <glyph glyph-name="S" unicode="S" horiz-adv-x="545" 
d="M54 425l24 135c15 85 80 140 165 140h325l-21 -120l-71 -60h-185l-10 -60l130 -25c73 -14 118 -70 104 -150l-26 -145c-15 -85 -79 -140 -164 -140h-345l31 180h265l13 70l-131 25c-73 14 -118 70 -104 150z" />
    <glyph glyph-name="U" unicode="U" horiz-adv-x="610" 
d="M343 700l-94 -530h70l94 530h220l-101 -570c-15 -85 -79 -140 -164 -140h-230c-85 0 -131 55 -116 140l101 570h220z" />
    <glyph glyph-name="V" unicode="V" horiz-adv-x="570" 
d="M385 0h-300l-20 600l18 100h220l-22 -410h10l122 410h220l-18 -100z" />
    <glyph glyph-name="W" unicode="W" horiz-adv-x="840" 
d="M564 590l11 -220h10l58 330h260l-18 -100l-195 -600h-265l-12 220h-10l-88 -220h-265l15 600l18 100h260l-58 -330h10l89 220h180z" />
    <glyph glyph-name="X" unicode="X" horiz-adv-x="570" 
d="M281 235h-10l-91 -235h-220l17 100l144 250l-41 250l18 100h220l-7 -235h10l77 235h220l-18 -100l-129 -250l56 -250l-17 -100h-220z" />
    <glyph glyph-name="Y" unicode="Y" 
d="M366 180l-31 -180h-220l31 180l-81 420l18 100h220l-8 -270h10l88 270h220l-18 -100z" />
    <glyph glyph-name="Z" unicode="Z" horiz-adv-x="520" 
d="M258 190h225l-33 -190h-480l31 180l282 320l1 10h-155l-49 60l23 130h470l-32 -180l-281 -320z" />
    <glyph glyph-name="afii10018" unicode="&#x411;" horiz-adv-x="585" 
d="M133 700h460l-21 -120l-71 -60h-180l-12 -70h135c85 0 130 -55 115 -140l-30 -170c-15 -85 -79 -140 -164 -140h-355zM259 170h55l20 110h-55z" />
    <glyph glyph-name="afii10020" unicode="&#x413;" horiz-adv-x="515" 
d="M578 700l-23 -130l-71 -60h-165l-89 -510h-220l123 700h445z" />
    <glyph glyph-name="afii10021" unicode="&#x414;" horiz-adv-x="630" 
d="M170 0l-42 -120h-199l54 310h25s44 25 57 70l128 440h440l-90 -510h70l-55 -310h-200l2 120h-190zM354 510l-69 -250c-12 -45 -45 -59 -45 -60l-2 -10h85l56 320h-25z" />
    <glyph glyph-name="afii10024" unicode="&#x416;" horiz-adv-x="850" 
d="M485 0h-220l44 250h-25l-104 -250h-220l17 100l144 250l-41 250l18 100h220l1 -250h25l44 250h220l-44 -250h25l89 250h220l-18 -100l-129 -250l56 -250l-17 -100h-220l-16 250h-25z" />
    <glyph glyph-name="afii10025" unicode="&#x417;" horiz-adv-x="525" 
d="M93 700h330c85 0 130 -55 115 -140l-12 -70c-20 -115 -116 -120 -116 -120l-2 -10s99 -5 77 -130l-16 -90c-15 -85 -79 -140 -164 -140h-335l31 180h255l14 80h-145l32 180h140l14 80h-190l-49 60z" />
    <glyph glyph-name="afii10026" unicode="&#x418;" horiz-adv-x="630" 
d="M230 0h-220l123 700h220l-18 -100l-44 -140h10l122 240h220l-123 -700h-220l17 100l45 140h-10z" />
    <glyph glyph-name="afii10027" unicode="&#x419;" horiz-adv-x="630" 
d="M230 0h-220l123 700h220l-18 -100l-44 -140h10l122 240h220l-123 -700h-220l17 100l45 140h-10zM446 890l11 60h140l-18 -100c-8 -45 -49 -80 -94 -80h-170c-45 0 -74 35 -66 80l18 100h140l-11 -60h50z" />
    <glyph glyph-name="afii10029" unicode="&#x41b;" horiz-adv-x="625" 
d="M41 180l152 520h445l-123 -700h-220l89 510h-30l-105 -370c-27 -95 -91 -150 -206 -150h-94l32 190h60z" />
    <glyph glyph-name="afii10033" unicode="&#x41f;" horiz-adv-x="630" 
d="M230 0h-220l123 700h510l-123 -700h-220l89 510h-70z" />
    <glyph glyph-name="afii10037" unicode="&#x423;" 
d="M83 700h220l-11 -320h9l92 320h220l-18 -100l-211 -460c-44 -95 -106 -150 -196 -150h-160l31 180h65l2 10l-61 420z" />
    <glyph glyph-name="afii10038" unicode="&#x424;" horiz-adv-x="840" 
d="M608 730l-12 -70h130c85 0 130 -55 115 -140l-58 -330c-15 -85 -80 -140 -165 -140h-130l-12 -70h-220l12 70h-130c-85 0 -130 55 -115 140l58 330c15 85 80 140 165 140h130l12 70h220zM294 480l-44 -250h50l44 250h-50zM570 230l44 250h-50l-44 -250h50z" />
    <glyph glyph-name="afii10040" unicode="&#x426;" horiz-adv-x="630" 
d="M360 0h-350l123 700h220l-90 -510h60l90 510h220l-90 -510h70l-55 -310h-200z" />
    <glyph glyph-name="afii10041" unicode="&#x427;" horiz-adv-x="605" 
d="M495 0h-220l37 210h-135c-85 0 -131 55 -116 140l62 350h220l-55 -310h55l55 310h220z" />
    <glyph glyph-name="afii10042" unicode="&#x428;" horiz-adv-x="910" 
d="M418 700h220l-90 -510h65l90 510h220l-123 -700h-790l123 700h220l-90 -510h65z" />
    <glyph glyph-name="afii10043" unicode="&#x429;" horiz-adv-x="920" 
d="M418 700h220l-90 -510h65l90 510h220l-90 -510h70l-55 -310h-200l2 120h-640l123 700h220l-90 -510h65z" />
    <glyph glyph-name="afii10044" unicode="&#x42a;" horiz-adv-x="615" 
d="M41 520l32 180h310l-37 -210h135c85 0 130 -55 115 -140l-37 -210c-15 -85 -79 -140 -164 -140h-355l91 520h-90zM291 180h55l23 130h-55z" />
    <glyph glyph-name="afii10045" unicode="&#x42b;" horiz-adv-x="895" 
d="M785 0h-220l123 700h220zM133 700h220l-37 -210h135c85 0 130 -55 115 -140l-37 -210c-15 -85 -79 -140 -164 -140h-355zM261 180h55l23 130h-55z" />
    <glyph glyph-name="afii10046" unicode="&#x42c;" horiz-adv-x="595" 
d="M133 700h220l-37 -210h145c85 0 130 -55 115 -140l-37 -210c-15 -85 -79 -140 -164 -140h-365zM261 180h65l23 130h-65z" />
    <glyph glyph-name="afii10047" unicode="&#x42d;" horiz-adv-x="535" 
d="M295 0h-325l31 180h245l14 80h-135l32 180h135l14 80h-185l-49 60l21 120h325c85 0 130 -55 115 -140l-74 -420c-15 -85 -79 -140 -164 -140z" />
    <glyph glyph-name="afii10048" unicode="&#x42e;" horiz-adv-x="885" 
d="M317 130l22 125h-65l-44 -255h-220l123 700h220l-45 -255h65l22 125c15 85 80 140 165 140h210c85 0 130 -55 115 -140l-78 -440c-15 -85 -79 -140 -164 -140h-210c-85 0 -131 55 -116 140zM594 170l64 360h-50l-64 -360h50z" />
    <glyph glyph-name="afii10049" unicode="&#x42f;" horiz-adv-x="590" 
d="M490 0h-220l41 235h-24l-97 -235h-220l17 100l98 160s-50 25 -35 110l33 190c15 85 80 140 165 140h365zM361 520h-65l-18 -105h65z" />
    <glyph glyph-name="afii10066" unicode="&#x431;" horiz-adv-x="555" 
d="M304 280h-45l-21 -120h45zM523 330l-39 -220c-12 -65 -76 -120 -141 -120h-225c-65 0 -111 55 -99 120l67 380c18 105 95 170 218 190l247 40l-6 -180l-247 -40l-9 -50h135c65 0 110 -55 99 -120z" />
    <glyph glyph-name="afii10067" unicode="&#x432;" horiz-adv-x="530" 
d="M300 374h-25l-9 -54h25zM235 146h35l10 54h-35zM505 400l-7 -40c-14 -80 -76 -90 -76 -90l-2 -10s79 -10 64 -90l-8 -50c-12 -65 -76 -120 -141 -120h-335l91 520h315c65 0 110 -55 99 -120z" />
    <glyph glyph-name="afii10068" unicode="&#x433;" horiz-adv-x="450" 
d="M0 0l91 520h400l-22 -125l-60 -55h-140l-59 -340h-210z" />
    <glyph glyph-name="afii10069" unicode="&#x434;" horiz-adv-x="565" 
d="M-21 170h30s37 30 48 70l79 280h415l-62 -350h55l-47 -270h-190l3 100h-155l-33 -100h-189zM314 340h-25l-27 -100c-11 -40 -36 -60 -36 -60l-2 -10h60z" />
    <glyph glyph-name="afii10072" unicode="&#x436;" horiz-adv-x="760" 
d="M285 345l31 175h210l-31 -175h15l61 175h210l-16 -90l-100 -170l45 -170l-15 -90h-210l-5 175h-15l-30 -175h-210l30 175h-15l-65 -175h-210l15 90l105 170l-40 170l16 90h210l-1 -175h15z" />
    <glyph glyph-name="afii10073" unicode="&#x437;" horiz-adv-x="460" 
d="M414 170l-8 -50c-12 -65 -76 -120 -141 -120h-295l26 150h205l8 45h-105l23 130h95l8 45h-135l-41 55l17 95h275c65 0 110 -55 99 -120l-7 -40c-14 -80 -86 -90 -86 -90l-2 -10s79 -10 64 -90z" />
    <glyph glyph-name="afii10074" unicode="&#x438;" horiz-adv-x="560" 
d="M0 0l91 520h210l-16 -90l-29 -80h10l85 170h200l-91 -520h-210l15 90l29 80h-10l-84 -170h-200z" />
    <glyph glyph-name="afii10075" unicode="&#x439;" horiz-adv-x="560" 
d="M0 0l91 520h210l-16 -90l-29 -80h10l85 170h200l-91 -520h-210l15 90l29 80h-10l-84 -170h-200zM373 700l11 60h145l-16 -90c-8 -45 -49 -80 -94 -80h-170c-45 0 -74 35 -66 80l16 90h145l-11 -60h40z" />
    <glyph glyph-name="afii10076" unicode="&#x43a;" horiz-adv-x="540" 
d="M301 520l-31 -175h20l61 175h210l-16 -90l-100 -170l45 -170l-15 -90h-210l-5 175h-20l-30 -175h-210l91 520h210z" />
    <glyph glyph-name="afii10077" unicode="&#x43b;" horiz-adv-x="570" 
d="M141 520h420l-91 -520h-210l59 340h-25l-62 -210c-23 -85 -89 -140 -164 -140h-110l30 170h50z" />
    <glyph glyph-name="afii10078" unicode="&#x43c;" horiz-adv-x="680" 
d="M360 60h-120l-10 115h-10l-30 -175h-220l15 90l121 430h220l15 -200h10l85 200h220l-31 -430l-15 -90h-220l30 175h-10z" />
    <glyph glyph-name="afii10079" unicode="&#x43d;" horiz-adv-x="570" 
d="M301 520l-32 -180h50l32 180h210l-91 -520h-210l31 180h-50l-31 -180h-210l91 520h210z" />
    <glyph glyph-name="afii10081" unicode="&#x43f;" horiz-adv-x="570" 
d="M91 520h470l-91 -520h-210l61 350h-50l-61 -350h-210z" />
    <glyph glyph-name="afii10084" unicode="&#x442;" horiz-adv-x="450" 
d="M19 340l32 180h430l-22 -125l-60 -55h-60l-59 -340h-210l59 340h-110z" />
    <glyph glyph-name="afii10086" unicode="&#x444;" horiz-adv-x="770" 
d="M410 -170h-210l30 170h-120c-65 0 -111 55 -99 120l49 280c11 65 76 120 141 120h120l32 180h210l-32 -180h120c65 0 110 -55 99 -120l-49 -280c-12 -65 -76 -120 -141 -120h-120zM251 350l-32 -180h40l32 180h-40zM509 170l32 180h-40l-32 -180h40z" />
    <glyph glyph-name="afii10088" unicode="&#x446;" horiz-adv-x="565" 
d="M310 0h-310l91 520h210l-62 -350h40l62 350h210l-62 -350h55l-47 -270h-190z" />
    <glyph glyph-name="afii10089" unicode="&#x447;" horiz-adv-x="540" 
d="M254 140h-120c-65 0 -110 55 -99 120l46 260h210l-37 -210h30l37 210h210l-91 -520h-210z" />
    <glyph glyph-name="afii10090" unicode="&#x448;" horiz-adv-x="790" 
d="M690 0h-690l91 520h210l-62 -350h30l62 350h210l-62 -350h30l62 350h210z" />
    <glyph glyph-name="afii10091" unicode="&#x449;" horiz-adv-x="795" 
d="M540 0h-540l91 520h210l-62 -350h30l62 350h210l-62 -350h30l62 350h210l-62 -350h55l-47 -270h-190z" />
    <glyph glyph-name="afii10092" unicode="&#x44a;" 
d="M355 0h-315l61 350h-90l30 170h300l-26 -150h105c65 0 110 -55 99 -120l-23 -130c-12 -65 -76 -120 -141 -120zM315 230h-25l-16 -90h25z" />
    <glyph glyph-name="afii10093" unicode="&#x44b;" horiz-adv-x="785" 
d="M685 0h-210l91 520h210zM315 0h-315l91 520h210l-26 -150h105c65 0 110 -55 99 -120l-23 -130c-12 -65 -76 -120 -141 -120zM275 230h-25l-16 -90h25z" />
    <glyph glyph-name="afii10094" unicode="&#x44c;" horiz-adv-x="520" 
d="M325 0h-325l91 520h210l-26 -150h115c65 0 110 -55 99 -120l-23 -130c-12 -65 -76 -120 -141 -120zM275 230h-25l-16 -90h25z" />
    <glyph glyph-name="afii10095" unicode="&#x44d;" horiz-adv-x="465" 
d="M255 0h-285l26 150h195l8 45h-105l23 130h105l8 45h-145l-41 55l17 95h285c65 0 110 -55 99 -120l-49 -280c-12 -65 -76 -120 -141 -120z" />
    <glyph glyph-name="afii10096" unicode="&#x44e;" horiz-adv-x="780" 
d="M269 110l12 70h-40l-31 -180h-210l91 520h210l-32 -180h40l13 70c11 65 76 120 141 120h200c65 0 110 -55 99 -120l-53 -300c-12 -65 -76 -120 -141 -120h-200c-65 0 -111 55 -99 120zM518 160l35 200h-40l-35 -200h40z" />
    <glyph glyph-name="afii10097" unicode="&#x44f;" horiz-adv-x="535" 
d="M201 520h325l-91 -520h-210l17 100l16 60h-10l-78 -160h-200l15 90l90 110s-45 30 -33 100l18 100c11 65 76 120 141 120zM251 290h25l16 90h-25z" />
    <glyph glyph-name="a" unicode="a" horiz-adv-x="540" 
d="M213 135h40l13 70h-40zM440 0h-150l-18 45h-5s-29 -55 -84 -55h-85c-65 0 -111 55 -99 120l16 90c11 65 76 120 141 120h130l9 50h-205l26 150h295c65 0 110 -55 99 -120z" />
    <glyph glyph-name="b" unicode="b" horiz-adv-x="565" 
d="M326 350h-45l-32 -180h45zM355 0h-345l123 700h210l-32 -180h135c65 0 110 -55 99 -120l-49 -280c-12 -65 -76 -120 -141 -120z" />
    <glyph glyph-name="c" unicode="c" horiz-adv-x="470" 
d="M395 0h-285c-65 0 -111 55 -99 120l49 280c11 65 76 120 141 120h285l-20 -115l-60 -55h-145l-32 -180h195z" />
    <glyph glyph-name="d" unicode="d" horiz-adv-x="565" 
d="M306 350h-45l-33 -190h45zM198 -10h-90c-65 0 -111 55 -99 120l51 290c11 65 76 120 141 120h135l32 180h210l-123 -700h-150l-18 45h-5s-29 -55 -84 -55z" />
    <glyph glyph-name="e" unicode="e" horiz-adv-x="530" 
d="M298 390h-30l-12 -70h30zM203 530h210c65 0 110 -55 99 -120l-39 -220h-240l-7 -40h220l-26 -150h-310c-65 0 -111 55 -99 120l51 290c11 65 76 120 141 120z" />
    <glyph glyph-name="f" unicode="f" horiz-adv-x="410" 
d="M255 710h240l-21 -115l-59 -55h-100l-14 -80h105l-32 -180h-105l-49 -280h-210l104 590c11 65 76 120 141 120z" />
    <glyph glyph-name="h" unicode="h" horiz-adv-x="565" 
d="M220 0h-210l123 700h210l-32 -180h135c65 0 110 -55 99 -120l-70 -400h-210l61 350h-45z" />
    <glyph glyph-name="i" unicode="i" horiz-adv-x="310" 
d="M301 520l-91 -520h-210l91 520h210zM344 760l-30 -170h-210l30 170h210z" />
    <glyph glyph-name="j" unicode="j" horiz-adv-x="310" 
d="M344 760l-30 -170h-210l30 170h210zM60 -170h-169l29 170h80l91 520h210l-100 -570c-12 -65 -76 -120 -141 -120z" />
    <glyph glyph-name="k" unicode="k" 
d="M343 700l-63 -355h20l61 175h210l-16 -90l-100 -170l45 -170l-15 -90h-210l-5 175h-20l-30 -175h-210l123 700h210z" />
    <glyph glyph-name="l" unicode="l" horiz-adv-x="335" 
d="M265 0h-135c-65 0 -111 55 -99 120l102 580h210l-94 -530h45z" />
    <glyph glyph-name="m" unicode="m" horiz-adv-x="810" 
d="M250 0l63 360h-40l-63 -360h-210l91 520h150l17 -45h5s30 55 85 55h90c55 0 65 -55 65 -55h5s30 55 85 55h90c65 0 110 -55 99 -120l-72 -410h-210l63 360h-40l-63 -360h-210z" />
    <glyph glyph-name="n" unicode="n" horiz-adv-x="565" 
d="M210 0h-210l91 520h150l17 -45h5s30 55 85 55h90c65 0 110 -55 99 -120l-72 -410h-210l63 360h-45z" />
    <glyph glyph-name="o" unicode="o" 
d="M9 110l53 300c11 65 76 120 141 120h230c65 0 110 -55 99 -120l-53 -300c-12 -65 -76 -120 -141 -120h-230c-65 0 -111 55 -99 120zM278 160l35 200h-50l-35 -200h50z" />
    <glyph glyph-name="p" unicode="p" horiz-adv-x="555" 
d="M239 170h45l34 190h-45zM348 530h90c65 0 110 -55 99 -120l-51 -290c-12 -65 -76 -120 -141 -120h-135l-30 -170h-210l121 690h150l17 -45h5s30 55 85 55z" />
    <glyph glyph-name="q" unicode="q" horiz-adv-x="555" 
d="M229 170h45l32 180h-45zM201 520h345l-121 -690h-210l30 170h-135c-65 0 -111 55 -99 120l49 280c11 65 76 120 141 120z" />
    <glyph glyph-name="r" unicode="r" horiz-adv-x="405" 
d="M406 350h-135l-61 -350h-210l91 520h150l17 -45h5s30 55 85 55h90z" />
    <glyph glyph-name="s" unicode="s" horiz-adv-x="455" 
d="M28 330l12 70c11 65 76 120 141 120h275l-17 -95l-59 -55h-135l-6 -35l95 -25c62 -16 95 -55 84 -120l-12 -70c-12 -65 -76 -120 -141 -120h-295l26 150h205l6 35l-95 25c-63 16 -96 55 -84 120z" />
    <glyph glyph-name="t" unicode="t" horiz-adv-x="385" 
d="M315 0h-190c-65 0 -111 55 -99 120l38 220h-45l32 180h55l93 130h130l-23 -130h85l-32 -180h-85l-30 -170h100z" />
    <glyph glyph-name="u" unicode="u" horiz-adv-x="565" 
d="M346 520h210l-91 -520h-150l-18 45h-5s-29 -55 -84 -55h-90c-65 0 -111 55 -99 120l72 410h210l-63 -360h45z" />
    <glyph glyph-name="v" unicode="v" horiz-adv-x="500" 
d="M330 0h-260l-35 430l16 90h210l-26 -290h10l76 290h210l-16 -90z" />
    <glyph glyph-name="w" unicode="w" horiz-adv-x="700" 
d="M442 440v-140h10l39 220h240l-16 -90l-155 -430h-230l-1 140h-10l-49 -140h-230l-5 430l16 90h240l-39 -220h10l50 140h130z" />
    <glyph glyph-name="x" unicode="x" horiz-adv-x="510" 
d="M263 360h10l48 160h210l-16 -90l-95 -170l40 -170l-15 -90h-210l1 150h-10l-51 -150h-210l15 90l100 170l-35 170l16 90h210z" />
    <glyph glyph-name="y" unicode="y" horiz-adv-x="500" 
d="M515 430l-186 -460c-30 -75 -104 -140 -194 -140h-155l30 170h75l1 10l-51 420l16 90h215l-24 -280h10l69 280h210z" />
    <glyph glyph-name="z" unicode="z" horiz-adv-x="475" 
d="M204 340l2 10h-120l-40 55l20 115h425l-28 -160l-202 -180l-2 -10h170l-29 -170h-425l28 160z" />
    <glyph glyph-name="space" unicode=" " horiz-adv-x="230" 
 />
    <glyph glyph-name="one" unicode="1" horiz-adv-x="400" 
d="M71 630l172 70h170l-123 -700h-220l89 510h-110z" />
    <glyph glyph-name="two" unicode="2" horiz-adv-x="520" 
d="M272 190h201l-33 -190h-470l33 190l295 255l13 75h-185l-49 60l21 120h325c85 0 130 -55 115 -140l-17 -100c-11 -60 -76 -115 -105 -140l-142 -120z" />
    <glyph glyph-name="three" unicode="3" horiz-adv-x="520" 
d="M513 530l-138 -100l-1 -10c85 0 130 -55 115 -140l-25 -140c-15 -85 -79 -140 -164 -140h-330l31 180h250l16 90h-155l25 140l127 100l2 10h-145l-49 60l21 120h450z" />
    <glyph glyph-name="four" unicode="4" horiz-adv-x="555" 
d="M440 0h-220l21 120h-260l30 170l262 410h290l-71 -400h45l-31 -180h-45zM307 440h-10l-85 -140h70z" />
    <glyph glyph-name="five" unicode="5" 
d="M309 450h100c85 0 130 -55 115 -140l-30 -170c-15 -85 -79 -140 -164 -140h-330l31 180h250l18 100h-240l74 420h440l-21 -120l-71 -60h-160z" />
    <glyph glyph-name="six" unicode="6" horiz-adv-x="560" 
d="M309 280h-40l-20 -110h40zM22 130l76 430c15 85 80 140 165 140h315l-21 -120l-71 -60h-175l-14 -80h120c85 0 130 -55 115 -140l-30 -170c-15 -85 -79 -140 -164 -140h-200c-85 0 -131 55 -116 140z" />
    <glyph glyph-name="seven" unicode="7" horiz-adv-x="485" 
d="M230 0h-200l17 100l232 410l2 10h-230l32 180h465l-30 -170z" />
    <glyph glyph-name="eight" unicode="8" horiz-adv-x="560" 
d="M289 170l17 95h-60l-17 -95h60zM348 530h-50l-15 -85h50zM338 -10h-220c-85 0 -131 55 -116 140l18 100c20 115 112 125 112 125l2 10s-83 10 -65 115l16 90c15 85 80 140 165 140h210c85 0 130 -55 115 -140l-16 -90c-18 -105 -105 -115 -105 -115l-2 -10
s88 -10 68 -125l-18 -100c-15 -85 -79 -140 -164 -140z" />
    <glyph glyph-name="nine" unicode="9" horiz-adv-x="560" 
d="M274 420h40l19 110h-40zM560 570l-76 -430c-15 -85 -79 -140 -164 -140h-315l31 180h235l14 80h-120c-85 0 -130 55 -115 140l30 170c15 85 80 140 165 140h200c85 0 130 -55 115 -140z" />
    <glyph glyph-name="zero" unicode="0" horiz-adv-x="590" 
d="M299 170l64 360h-50l-64 -360h50zM22 130l78 440c15 85 80 140 165 140h210c85 0 130 -55 115 -140l-78 -440c-15 -85 -79 -140 -164 -140h-210c-85 0 -131 55 -116 140z" />
    <glyph glyph-name="question" unicode="?" horiz-adv-x="480" 
d="M310 288l-8 -48h-190l16 90c16 95 142 124 142 124l11 66h-170l-49 60l21 120h310c85 0 130 -55 115 -140l-24 -140c-19 -105 -174 -132 -174 -132zM255 0h-180l31 180h180z" />
    <glyph glyph-name="colon" unicode=":" horiz-adv-x="260" 
d="M170 0h-180l31 180h180zM229 340h-180l31 180h180z" />
    <glyph glyph-name="semicolon" unicode=";" horiz-adv-x="260" 
d="M177 40l-123 -130h-80l47 270h180zM229 340h-180l31 180h180z" />
    <glyph glyph-name="period" unicode="." horiz-adv-x="260" 
d="M170 0h-180l31 180h180z" />
    <glyph glyph-name="comma" unicode="," horiz-adv-x="260" 
d="M177 40l-123 -130h-80l47 270h180z" />
    <glyph glyph-name="exclam" unicode="!" horiz-adv-x="320" 
d="M72 240l6 260l35 200h240l-35 -200l-86 -260h-160zM200 0h-180l31 180h180z" />
    <glyph glyph-name="numbersign" unicode="#" horiz-adv-x="635" 
d="M488 700h190l-46 -120h45l-30 -170h-85l-46 -120h60l-30 -170h-100l-46 -120h-190l46 120h-40l-46 -120h-190l46 120h-45l30 170h85l46 120h-60l30 170h100l46 120h190l-46 -120h40zM332 410l-46 -120h40l46 120h-40z" />
    <glyph glyph-name="ampersand" unicode="&#x26;" horiz-adv-x="595" 
d="M218 160h65l-40 85h-10zM341 465l221 -365l-17 -100h-205l-18 40h-10s-34 -50 -94 -50h-110c-85 0 -131 55 -116 140l16 90c15 85 80 140 155 140l2 10s-54 35 -42 105l15 85c15 85 80 140 165 140h280l-21 -120l-71 -60h-140z" />
    <glyph glyph-name="dollar" unicode="$" horiz-adv-x="545" 
d="M54 425l24 135c15 85 80 140 165 140h10l16 90h190l-16 -90h125l-21 -120l-71 -60h-185l-10 -60l130 -25c73 -14 118 -70 104 -150l-26 -145c-15 -85 -79 -140 -164 -140h-5l-16 -90h-190l16 90h-150l31 180h265l13 70l-131 25c-73 14 -118 70 -104 150z" />
    <glyph glyph-name="Euro" unicode="&#x20ac;" horiz-adv-x="555" 
d="M480 0h-325c-85 0 -131 55 -116 140l14 80h-45l20 110h45l7 40h-45l19 110h45l14 80c15 85 80 140 165 140h325l-21 -120l-71 -60h-185l-7 -40h135l-19 -110h-135l-7 -40h135l-20 -110h-135l-7 -40h245z" />
    <glyph glyph-name="afii61352" unicode="&#x2116;" horiz-adv-x="950" 
d="M614 310h300l-26 -150h-300zM520 0h-230l-28 240h-10l-5 -140l-17 -100h-220l123 700h230l28 -240h10l4 140l18 100h220zM840 370h-130c-45 0 -78 40 -70 85l30 170c8 45 55 85 100 85h130c45 0 78 -40 70 -85l-30 -170c-8 -45 -55 -85 -100 -85zM781 490h30l18 100h-30z
" />
    <glyph glyph-name="currency" unicode="&#xa4;" horiz-adv-x="600" 
d="M235 0h-220l17 100h-45l23 130h45l7 40h-45l25 140h45l51 290h365c85 0 130 -55 115 -140l-26 -150c-15 -85 -80 -140 -165 -140h-145l-7 -40h185l-23 -130h-185zM391 520h-65l-19 -110h65z" />
    <glyph glyph-name="at" unicode="@" horiz-adv-x="785" 
d="M696 120l-27 -150h-555c-65 0 -110 55 -99 120l92 520c12 65 76 120 141 120h445c65 0 111 -55 99 -120l-73 -415h-110l-17 45h-5s-30 -55 -85 -55h-125c-65 0 -110 55 -99 120l16 90c12 65 76 120 141 120h170l12 65h-345l-81 -460h505zM450 315h120l12 70h-120z" />
    <glyph glyph-name="guillemotleft" unicode="&#xab;" horiz-adv-x="525" 
d="M197 270l42 -160l-4 -20h-165l-43 180l107 180h165l-4 -20zM412 270l42 -160l-4 -20h-165l-43 180l107 180h165l-4 -20z" />
    <glyph glyph-name="guillemotright" unicode="&#xbb;" horiz-adv-x="525" 
d="M322 270l-42 160l4 20h165l43 -180l-107 -180h-165l4 20zM107 270l-42 160l4 20h165l43 -180l-107 -180h-165l4 20z" />
    <glyph glyph-name="quotedblright" unicode="&#x201d;" horiz-adv-x="480" 
d="M268 560l-123 -130h-80l48 270h180zM488 560l-123 -130h-80l48 270h180z" />
    <glyph glyph-name="quotedblleft" unicode="&#x201c;" horiz-adv-x="480" 
d="M90 570l123 130h80l-48 -270h-180zM310 570l123 130h80l-48 -270h-180z" />
    <glyph glyph-name="quotedblbase" unicode="&#x201e;" horiz-adv-x="480" 
d="M177 40l-123 -130h-80l47 270h180zM397 40l-123 -130h-80l47 270h180z" />
    <glyph glyph-name="asterisk" unicode="*" horiz-adv-x="390" 
d="M263 330l-46 80l-74 -80l-79 65l70 85l-76 20l38 105l93 -10l29 105h100l-9 -105l97 10l2 -105l-84 -20l40 -85z" />
    <glyph glyph-name="degree" unicode="&#xb0;" horiz-adv-x="340" 
d="M250 370h-130c-45 0 -78 40 -70 85l30 170c8 45 55 85 100 85h130c45 0 78 -40 70 -85l-30 -170c-8 -45 -55 -85 -100 -85zM191 490h30l18 100h-30z" />
    <glyph glyph-name="parenleft" unicode="(" horiz-adv-x="360" 
d="M1 -50l121 690c15 85 80 140 165 140h150l-32 -180h-70l-107 -610h70l-32 -180h-150c-85 0 -130 55 -115 140z" />
    <glyph glyph-name="parenright" unicode=")" horiz-adv-x="360" 
d="M362 640l-121 -690c-15 -85 -80 -140 -165 -140h-149l31 180h70l107 610h-70l32 180h150c85 0 130 -55 115 -140z" />
    <glyph glyph-name="braceleft" unicode="{" horiz-adv-x="350" 
d="M192 300l-1 -10s89 -5 70 -110l-33 -190h60l-32 -180h-140c-85 0 -130 55 -115 140l40 230c3 15 -5 25 -20 25h-25l31 180h25c15 0 27 10 30 25l40 230c15 85 80 140 165 140h140l-32 -180h-60l-33 -190c-19 -105 -110 -110 -110 -110z" />
    <glyph glyph-name="braceright" unicode="}" horiz-adv-x="350" 
d="M161 290l1 10s-89 5 -70 110l33 190h-60l32 180h140c85 0 130 -55 115 -140l-40 -230c-3 -15 5 -25 20 -25h25l-31 -180h-25c-15 0 -27 -10 -30 -25l-40 -230c-15 -85 -80 -140 -165 -140h-139l31 180h60l33 190c19 105 110 110 110 110z" />
    <glyph glyph-name="bracketleft" unicode="[" horiz-adv-x="360" 
d="M335 600l-107 -610h70l-32 -180h-290l171 970h290l-32 -180h-70z" />
    <glyph glyph-name="bracketright" unicode="]" horiz-adv-x="360" 
d="M28 -10l107 610h-70l32 180h290l-171 -970h-289l31 180h70z" />
    <glyph glyph-name="hyphen" unicode="-" horiz-adv-x="425" 
d="M51 405h365l-30 -170h-365z" />
    <glyph glyph-name="plus" unicode="+" horiz-adv-x="480" 
d="M371 550l-25 -145h125l-30 -170h-125l-26 -145h-170l26 145h-125l30 170h125l25 145h170z" />
    <glyph glyph-name="plusminus" unicode="&#xb1;" horiz-adv-x="480" 
d="M379 590l-26 -145h125l-30 -170h-125l-15 -85h114l-30 -170h-399l30 170h115l15 85h-125l30 170h125l26 145h170z" />
    <glyph glyph-name="equal" unicode="=" horiz-adv-x="445" 
d="M79 505h365l-27 -150h-365zM40 285h365l-27 -150h-365z" />
    <glyph glyph-name="asciitilde" unicode="~" horiz-adv-x="460" 
d="M459 450l-29 -165c-8 -45 -43 -75 -83 -75h-45c-35 0 -52 20 -68 40l-29 35h-10l-12 -65h-165l29 165c8 45 44 75 84 75h45c35 0 51 -20 68 -40l28 -35h10l12 65h165z" />
    <glyph glyph-name="underscore" unicode="_" horiz-adv-x="405" 
d="M-36 -30h365l-30 -170h-364z" />
    <glyph glyph-name="endash" unicode="&#x2013;" horiz-adv-x="500" 
d="M50 400h440l-30 -170h-440z" />
    <glyph glyph-name="emdash" unicode="&#x2014;" horiz-adv-x="735" 
d="M50 400h675l-30 -170h-675z" />
    <glyph glyph-name="asciicircum" unicode="^" horiz-adv-x="450" 
d="M388 700l71 -250h-180l-8 70h-10l-32 -70h-180l159 250h180z" />
    <glyph glyph-name="grave" unicode="`" horiz-adv-x="295" 
d="M73 700h210l35 -170h-160z" />
    <glyph glyph-name="copyright" unicode="&#xa9;" horiz-adv-x="865" 
d="M191 120h425l81 460h-425zM555 400h-105l-18 -100h140l-23 -130h-200c-45 0 -77 40 -70 85l34 190c8 45 55 85 100 85h200l-16 -90zM639 -30h-525c-65 0 -110 55 -99 120l92 520c12 65 76 120 141 120h525c65 0 111 -55 99 -120l-92 -520c-11 -65 -76 -120 -141 -120z
" />
    <glyph glyph-name="registered" unicode="&#xae;" horiz-adv-x="865" 
d="M618 445l-12 -70c-8 -45 -52 -65 -52 -65l36 -80l-11 -60h-150l2 120h-10l-22 -120h-145l64 360h230c45 0 78 -40 70 -85zM445 430l-8 -50h25l8 50h-25zM191 120h425l81 460h-425zM639 -30h-525c-65 0 -110 55 -99 120l92 520c12 65 76 120 141 120h525
c65 0 111 -55 99 -120l-92 -520c-11 -65 -76 -120 -141 -120z" />
    <glyph glyph-name="trademark" unicode="&#x2122;" horiz-adv-x="725" 
d="M52 580l21 120h280l-15 -85l-36 -35h-40l-34 -190h-140l34 190h-70zM588 500l-28 -70h-90l-2 70h-5l-20 -110h-140l11 60l74 250h145l8 -110h6l46 110h145l-14 -250l-11 -60h-140l20 110h-5z" />
    <glyph glyph-name="slash" unicode="/" horiz-adv-x="525" 
d="M569 650l-423 -700h-185l17 100l424 700h185z" />
    <glyph glyph-name="bar" unicode="|" horiz-adv-x="360" 
d="M381 800l-171 -970h-220l171 970h220z" />
    <glyph glyph-name="backslash" unicode="\" horiz-adv-x="525" 
d="M261 -50l-177 700l18 100h185l176 -700l-17 -100h-185z" />
    <glyph glyph-name="percent" unicode="%" horiz-adv-x="775" 
d="M250 370h-130c-45 0 -78 40 -70 85l30 170c8 45 55 85 100 85h130c45 0 78 -40 70 -85l-30 -170c-8 -45 -55 -85 -100 -85zM191 490h30l18 100h-30zM618 -10h-130c-45 0 -78 40 -70 85l30 170c8 45 55 85 100 85h130c45 0 78 -40 70 -85l-30 -170
c-8 -45 -55 -85 -100 -85zM559 110h30l18 100h-30zM568 700h125l-18 -100l-445 -600h-125l17 100z" />
    <glyph glyph-name="paragraph" unicode="&#xb6;" horiz-adv-x="625" 
d="M49 450l19 110c15 85 80 140 165 140h455l-34 -190h-60l-119 -680h-180l119 680h-25l-119 -680h-180l84 480h-10c-85 0 -130 55 -115 140z" />
    <glyph glyph-name="section" unicode="&#xa7;" horiz-adv-x="510" 
d="M280 315l-38 10l-18 -100l38 -10zM24 195l15 85c14 80 76 90 76 90l2 10s-59 10 -45 90l20 110c11 65 76 120 141 120h290l-20 -115l-60 -55h-150l-7 -40l110 -25c63 -14 96 -55 84 -120l-15 -85c-14 -80 -76 -90 -76 -90l-1 -10s58 -10 44 -90l-21 -120
c-12 -65 -76 -120 -141 -120h-310l30 170h220l8 50l-110 25c-63 14 -96 55 -84 120z" />
    <glyph glyph-name="dagger" unicode="&#x2020;" horiz-adv-x="520" 
d="M68 560h130l58 160h160l2 -160h130l-33 -190h-130l-95 -540h-220l95 540h-130z" />
    <glyph glyph-name="quotesingle" unicode="'" horiz-adv-x="220" 
d="M92 470l-8 120l19 110h160l-19 -110l-52 -120h-100z" />
    <glyph glyph-name="quotedbl" unicode="&#x22;" horiz-adv-x="415" 
d="M92 470l-8 120l19 110h160l-19 -110l-52 -120h-100zM287 470l-8 120l19 110h160l-19 -110l-52 -120h-100z" />
    <glyph glyph-name="less" unicode="&#x3c;" horiz-adv-x="440" 
d="M261 265l-2 -10l134 -65l-33 -190l-351 170l32 180l410 170l-33 -190z" />
    <glyph glyph-name="greater" unicode="&#x3e;" horiz-adv-x="440" 
d="M169 255l2 10l-133 65l33 190l350 -170l-32 -180l-409 -170l33 190z" />
    <glyph glyph-name="quotesinglbase" unicode="&#x201a;" horiz-adv-x="260" 
d="M177 40l-123 -130h-80l47 270h180z" />
    <glyph glyph-name="guilsinglleft" unicode="&#x2039;" horiz-adv-x="360" 
d="M102 40l-77 220l154 220h165l-14 -80l-100 -140l51 -140l-14 -80h-165z" />
    <glyph glyph-name="periodcentered" unicode="&#xb7;" horiz-adv-x="230" 
d="M200 260h-180l31 180h180z" />
    <glyph glyph-name="bullet" unicode="&#x2022;" horiz-adv-x="380" 
d="M75 260l18 100c6 35 36 60 71 60h100c35 0 55 -25 49 -60l-18 -100c-6 -35 -35 -60 -70 -60h-100c-35 0 -56 25 -50 60z" />
    <glyph glyph-name="daggerdbl" unicode="&#x2021;" horiz-adv-x="540" 
d="M266 -190h-160l-2 160h-130l34 190h130l37 210h-130l33 190h130l58 160h160l2 -160h130l-33 -190h-130l-37 -210h130l-34 -190h-130z" />
    <glyph glyph-name="logicalnot" unicode="&#xac;" horiz-adv-x="475" 
d="M72 470h395l-45 -260h-200l15 90h-195z" />
    <glyph glyph-name="ellipsis" unicode="&#x2026;" horiz-adv-x="760" 
d="M170 0h-180l31 180h180zM420 0h-180l31 180h180zM670 0h-180l31 180h180z" />
    <glyph glyph-name="brokenbar" unicode="&#xa6;" horiz-adv-x="340" 
d="M151 800h220l-73 -410h-220zM272 240l-72 -410h-220l72 410h220z" />
    <glyph glyph-name="perthousand" unicode="&#x2030;" horiz-adv-x="1100" 
d="M250 370h-130c-45 0 -78 40 -70 85l30 170c8 45 55 85 100 85h130c45 0 78 -40 70 -85l-30 -170c-8 -45 -55 -85 -100 -85zM191 490h30l18 100h-30zM618 -10h-130c-45 0 -78 40 -70 85l30 170c8 45 55 85 100 85h130c45 0 78 -40 70 -85l-30 -170
c-8 -45 -55 -85 -100 -85zM559 110h30l18 100h-30zM943 -10h-130c-45 0 -78 40 -70 85l30 170c8 45 55 85 100 85h130c45 0 78 -40 70 -85l-30 -170c-8 -45 -55 -85 -100 -85zM884 110h30l18 100h-30zM568 700h125l-18 -100l-445 -600h-125l17 100z" />
    <glyph glyph-name="afii10053" unicode="&#x404;" horiz-adv-x="540" 
d="M465 0h-325c-85 0 -131 55 -116 140l74 420c15 85 80 140 165 140h325l-21 -120l-71 -60h-185l-14 -80h135l-32 -180h-135l-14 -80h245z" />
    <glyph glyph-name="afii10101" unicode="&#x454;" horiz-adv-x="470" 
d="M395 0h-285c-65 0 -111 55 -99 120l49 280c11 65 76 120 141 120h285l-17 -95l-59 -55h-145l-8 -45h105l-23 -130h-105l-8 -45h195z" />
    <glyph glyph-name="mu" unicode="&#xb5;" horiz-adv-x="565" 
d="M180 -170h-210l121 690h210l-63 -360h45l63 360h210l-91 -520h-150l-18 45h-5s-29 -55 -84 -55z" />
    <glyph glyph-name="afii10060" unicode="&#x40b;" horiz-adv-x="635" 
d="M372 270h-55l-47 -270h-220l89 510h-100l34 190h450l-23 -130l-71 -60h-70l-10 -60h125c90 0 139 -60 123 -150l-52 -300h-220z" />
    <glyph glyph-name="afii10108" unicode="&#x45b;" horiz-adv-x="565" 
d="M470 0h-210l50 285h-45l-50 -285h-210l82 470h-45l29 160h55l59 80h155l-14 -80h70l-29 -160h-70l-7 -40h135c65 0 111 -55 99 -120z" />
    <glyph glyph-name="afii10051" unicode="&#x402;" horiz-adv-x="625" 
d="M372 270h-55l-47 -270h-220l89 510h-100l34 190h450l-23 -130l-71 -60h-70l-10 -60h125c90 0 139 -60 123 -150l-30 -170c-15 -90 -86 -150 -176 -150h-95l32 180h25z" />
    <glyph glyph-name="afii10099" unicode="&#x452;" 
d="M348 -10h-105l30 170h25l22 125h-55l-50 -285h-210l82 470h-45l29 160h55l59 80h155l-14 -80h70l-29 -160h-70l-7 -40h135c65 0 111 -55 99 -120l-35 -200c-12 -65 -76 -120 -141 -120z" />
    <glyph glyph-name="afii10050" unicode="&#x490;" horiz-adv-x="515" 
d="M590 770l-46 -260h-225l-89 -510h-220l123 700h255l32 70h170z" />
    <glyph glyph-name="afii10098" unicode="&#x491;" horiz-adv-x="450" 
d="M459 340h-190l-59 -340h-210l91 520h220l26 60h165z" />
    <glyph glyph-name="afii10193" unicode="&#x45f;" horiz-adv-x="570" 
d="M470 0h-130l-38 -100h-170l-2 100h-130l91 520h210l-62 -350h50l62 350h210z" />
    <glyph glyph-name="afii10145" unicode="&#x40f;" horiz-adv-x="630" 
d="M155 0h-145l123 700h220l-90 -510h70l90 510h220l-123 -700h-145l-45 -110h-170z" />
    <glyph glyph-name="afii10106" unicode="&#x459;" horiz-adv-x="760" 
d="M141 520h415l-26 -150h105c65 0 110 -55 99 -120l-23 -130c-12 -65 -76 -120 -141 -120h-315l59 340h-20l-62 -210c-23 -85 -89 -140 -164 -140h-110l30 170h50zM530 230h-25l-16 -90h25z" />
    <glyph glyph-name="afii10058" unicode="&#x409;" horiz-adv-x="860" 
d="M51 180l152 520h440l-37 -210h120c85 0 130 -55 115 -140l-37 -210c-15 -85 -79 -140 -164 -140h-340l89 510h-25l-105 -370c-27 -95 -91 -150 -206 -150h-95l33 190h60zM551 180h40l23 130h-40z" />
    <glyph glyph-name="afii10059" unicode="&#x40a;" horiz-adv-x="855" 
d="M230 0h-220l123 700h220l-42 -235h65l42 235h220l-42 -235h120c85 0 131 -55 116 -140l-33 -185c-15 -85 -79 -140 -164 -140h-340l48 275h-65zM546 180h40l19 105h-40z" />
    <glyph glyph-name="afii10107" unicode="&#x45a;" horiz-adv-x="755" 
d="M565 0h-315l34 195h-40l-34 -195h-210l91 520h210l-29 -165h40l29 165h210l-29 -165h105c65 0 110 -55 99 -120l-20 -115c-12 -65 -76 -120 -141 -120zM522 215h-25l-13 -75h25z" />
    <glyph glyph-name="A" unicode="A" horiz-adv-x="570" 
d="M513 700l24 -600l-17 -100h-220l4 110h-100l-34 -110h-220l17 100l236 600h310zM307 440l-55 -170h60l5 170h-10z" />
    <glyph glyph-name="afii10104" unicode="&#x457;" horiz-adv-x="310" 
d="M301 520l-91 -520h-210l91 520h210zM189 590h-170l30 170h170zM399 590h-170l30 170h170z" />
    <glyph glyph-name="guilsinglright" unicode="&#x203a;" horiz-adv-x="360" 
d="M325 260l-153 -220h-165l14 80l99 140l-50 140l14 80h165z" />
    <glyph glyph-name="afii10017" unicode="&#x410;" horiz-adv-x="570" 
d="M513 700l24 -600l-17 -100h-220l4 110h-100l-34 -110h-220l17 100l236 600h310zM307 440l-55 -170h60l5 170h-10z" />
    <glyph glyph-name="afii10019" unicode="&#x412;" horiz-adv-x="600" 
d="M133 700h345c85 0 130 -55 115 -140l-12 -70c-20 -115 -106 -120 -106 -120l-2 -10s109 -5 87 -130l-16 -90c-15 -85 -79 -140 -164 -140h-370zM259 170h70l19 105h-70zM368 530h-45l-17 -95h45z" />
    <glyph glyph-name="afii10022" unicode="&#x415;" 
d="M598 700l-21 -120l-71 -60h-185l-15 -85h160l-30 -170h-160l-15 -85h245l-31 -180h-465l123 700h465z" />
    <glyph glyph-name="afii10030" unicode="&#x41c;" horiz-adv-x="810" 
d="M455 90h-170l-16 190h-10l-49 -280h-240l17 100l161 600h270l20 -200h10l90 200h270l-51 -600l-17 -100h-240l49 280h-10z" />
    <glyph glyph-name="afii10031" unicode="&#x41d;" horiz-adv-x="630" 
d="M230 0h-220l123 700h220l-45 -255h70l45 255h220l-123 -700h-220l44 255h-70z" />
    <glyph glyph-name="afii10032" unicode="&#x41e;" horiz-adv-x="620" 
d="M329 170l64 360h-80l-64 -360h80zM22 130l78 440c15 85 80 140 165 140h240c85 0 130 -55 115 -140l-78 -440c-15 -85 -79 -140 -164 -140h-240c-85 0 -131 55 -116 140z" />
    <glyph glyph-name="afii10034" unicode="&#x420;" horiz-adv-x="595" 
d="M230 0h-220l123 700h365c85 0 130 -55 115 -140l-40 -230c-15 -85 -80 -140 -165 -140h-145zM386 520h-65l-26 -150h65z" />
    <glyph glyph-name="afii10035" unicode="&#x421;" horiz-adv-x="540" 
d="M465 0h-325c-85 0 -131 55 -116 140l74 420c15 85 80 140 165 140h325l-21 -120l-71 -60h-185l-60 -340h245z" />
    <glyph glyph-name="afii10036" unicode="&#x422;" horiz-adv-x="520" 
d="M49 510l34 190h500l-23 -130l-71 -60h-80l-89 -510h-220l89 510h-140z" />
    <glyph glyph-name="afii10039" unicode="&#x425;" horiz-adv-x="570" 
d="M281 235h-10l-91 -235h-220l17 100l144 250l-41 250l18 100h220l-7 -235h10l77 235h220l-18 -100l-129 -250l56 -250l-17 -100h-220z" />
    <glyph glyph-name="afii10065" unicode="&#x430;" horiz-adv-x="540" 
d="M213 135h40l13 70h-40zM440 0h-150l-18 45h-5s-29 -55 -84 -55h-85c-65 0 -111 55 -99 120l16 90c11 65 76 120 141 120h130l9 50h-205l26 150h295c65 0 110 -55 99 -120z" />
    <glyph glyph-name="afii10070" unicode="&#x435;" horiz-adv-x="530" 
d="M298 390h-30l-12 -70h30zM203 530h210c65 0 110 -55 99 -120l-39 -220h-240l-7 -40h220l-26 -150h-310c-65 0 -111 55 -99 120l51 290c11 65 76 120 141 120z" />
    <glyph glyph-name="afii10080" unicode="&#x43e;" 
d="M9 110l53 300c11 65 76 120 141 120h230c65 0 110 -55 99 -120l-53 -300c-12 -65 -76 -120 -141 -120h-230c-65 0 -111 55 -99 120zM278 160l35 200h-50l-35 -200h50z" />
    <glyph glyph-name="afii10082" unicode="&#x440;" horiz-adv-x="555" 
d="M239 170h45l34 190h-45zM348 530h90c65 0 110 -55 99 -120l-51 -290c-12 -65 -76 -120 -141 -120h-135l-30 -170h-210l121 690h150l17 -45h5s30 55 85 55z" />
    <glyph glyph-name="afii10083" unicode="&#x441;" horiz-adv-x="470" 
d="M395 0h-285c-65 0 -111 55 -99 120l49 280c11 65 76 120 141 120h285l-20 -115l-60 -55h-145l-32 -180h195z" />
    <glyph glyph-name="afii10085" unicode="&#x443;" horiz-adv-x="500" 
d="M515 430l-186 -460c-30 -75 -104 -140 -194 -140h-155l30 170h75l1 10l-51 420l16 90h215l-24 -280h10l69 280h210z" />
    <glyph glyph-name="afii10087" unicode="&#x445;" horiz-adv-x="510" 
d="M263 360h10l48 160h210l-16 -90l-95 -170l40 -170l-15 -90h-210l1 150h-10l-51 -150h-210l15 90l100 170l-35 170l16 90h210z" />
    <glyph glyph-name="quoteleft" unicode="&#x2018;" horiz-adv-x="260" 
d="M90 570l123 130h80l-48 -270h-180z" />
    <glyph glyph-name="quoteright" unicode="&#x2019;" horiz-adv-x="260" 
d="M268 560l-123 -130h-80l48 270h180z" />
    <glyph glyph-name="T" unicode="T" horiz-adv-x="520" 
d="M49 510l34 190h500l-23 -130l-71 -60h-80l-89 -510h-220l89 510h-140z" />
    <glyph glyph-name="afii10028" unicode="&#x41a;" horiz-adv-x="610" 
d="M230 0h-220l123 700h220l-44 -250h35l89 250h220l-18 -100l-129 -250l56 -250l-17 -100h-220l-16 250h-35z" />
    <glyph glyph-name="K" unicode="K" horiz-adv-x="610" 
d="M230 0h-220l123 700h220l-44 -250h35l89 250h220l-18 -100l-129 -250l56 -250l-17 -100h-220l-16 250h-35z" />
    <glyph glyph-name="acute" unicode="&#xb4;" horiz-adv-x="355" 
d="M189 760h210l-145 -170h-160z" />
    <glyph glyph-name="breve" unicode="&#x2d8;" horiz-adv-x="420" 
d="M308 700l11 60h145l-16 -90c-8 -45 -49 -80 -94 -80h-180c-45 0 -74 35 -66 80l16 90h145l-11 -60h50z" />
    <glyph glyph-name="caron" unicode="&#x2c7;" horiz-adv-x="450" 
d="M374 590h-190l-60 170h160l12 -45h10l28 45h160z" />
    <glyph glyph-name="circumflex" unicode="&#x2c6;" horiz-adv-x="450" 
d="M214 760h190l60 -170h-160l-13 45h-10l-27 -45h-160z" />
    <glyph glyph-name="dieresis" unicode="&#xa8;" horiz-adv-x="460" 
d="M264 590h-170l30 170h170zM474 590h-170l30 170h170z" />
    <glyph glyph-name="dotaccent" unicode="&#x2d9;" horiz-adv-x="290" 
d="M334 760l-30 -170h-210l30 170h210z" />
    <glyph glyph-name="hungarumlaut" unicode="&#x2dd;" horiz-adv-x="545" 
d="M189 760h190l-135 -170h-150zM399 760h190l-135 -170h-150z" />
    <glyph glyph-name="macron" unicode="&#xaf;" horiz-adv-x="400" 
d="M122 750h320l-27 -150h-320z" />
    <glyph glyph-name="commaaccent" unicode="&#xf6c3;" horiz-adv-x="250" 
d="M130 -170l-123 -130h-69l41 240h170z" />
    <glyph glyph-name="ring" unicode="&#x2da;" horiz-adv-x="330" 
d="M219 790h70c50 0 83 -40 74 -90l-9 -50c-9 -50 -56 -90 -106 -90h-70c-50 0 -83 40 -74 90l9 50c9 50 56 90 106 90zM257 695h-40l-7 -40h40z" />
    <glyph glyph-name="tilde" unicode="&#x2dc;" horiz-adv-x="400" 
d="M444 760l-21 -115c-6 -35 -35 -60 -70 -60h-35c-40 0 -49 10 -65 30l-12 15h-10l-7 -40h-130l20 115c6 35 35 60 70 60h35c40 0 49 -10 65 -30l12 -15h10l8 40h130z" />
    <glyph glyph-name="cedilla" unicode="&#xb8;" horiz-adv-x="325" 
d="M95 -250h-149l17 100h120l4 20h-55l-34 35l17 95h110l-6 -30h15c50 0 87 -45 78 -95l-5 -30c-9 -50 -62 -95 -112 -95z" />
    <glyph glyph-name="ogonek" unicode="&#x2db;" horiz-adv-x="320" 
d="M137 -130h60l-20 -110c3 0 -58 0 -105 0c-80 0 -117 45 -107 100c17 100 135 140 135 140h130l-2 -10s-98 -45 -108 -100c-2 -10 7 -20 17 -20z" />
    <glyph glyph-name="Aacute" unicode="&#xc1;" horiz-adv-x="570" 
d="M513 700l24 -600l-17 -100h-220l4 110h-100l-34 -110h-220l17 100l236 600h310zM307 440l-55 -170h60l5 170h-10zM382 920h210l-143 -160h-160z" />
    <glyph glyph-name="Abreve" unicode="&#x102;" horiz-adv-x="570" 
d="M513 700l24 -600l-17 -100h-220l4 110h-100l-34 -110h-220l17 100l236 600h310zM307 440l-55 -170h60l5 170h-10zM413 870l9 50h145l-14 -80c-8 -45 -49 -80 -94 -80h-180c-45 0 -74 35 -66 80l14 80h145l-9 -50h50z" />
    <glyph glyph-name="Acircumflex" unicode="&#xc2;" horiz-adv-x="570" 
d="M513 700l24 -600l-17 -100h-220l4 110h-100l-34 -110h-220l17 100l236 600h310zM307 440l-55 -170h60l5 170h-10zM302 920h190l62 -160h-160l-13 45h-10l-27 -45h-160z" />
    <glyph glyph-name="Agrave" unicode="&#xc0;" horiz-adv-x="570" 
d="M513 700l24 -600l-17 -100h-220l4 110h-100l-34 -110h-220l17 100l236 600h310zM307 440l-55 -170h60l5 170h-10zM212 920h210l37 -160h-160z" />
    <glyph glyph-name="Adieresis" unicode="&#xc4;" horiz-adv-x="570" 
d="M513 700l24 -600l-17 -100h-220l4 110h-100l-34 -110h-220l17 100l236 600h310zM307 440l-55 -170h60l5 170h-10zM349 760h-170l28 160h170zM559 760h-170l28 160h170z" />
    <glyph glyph-name="Amacron" unicode="&#x100;" horiz-adv-x="570" 
d="M513 700l24 -600l-17 -100h-220l4 110h-100l-34 -110h-220l17 100l236 600h310zM307 440l-55 -170h60l5 170h-10zM235 910h320l-25 -140h-320z" />
    <glyph glyph-name="Atilde" unicode="&#xc3;" horiz-adv-x="570" 
d="M513 700l24 -600l-17 -100h-220l4 110h-100l-34 -110h-220l17 100l236 600h310zM307 440l-55 -170h60l5 170h-10zM557 920l-19 -105c-6 -35 -35 -60 -70 -60h-35c-40 0 -49 10 -65 30l-12 15h-10l-7 -40h-130l18 105c6 35 36 60 71 60h35c40 0 48 -10 64 -30l13 -15h10
l7 40h130z" />
    <glyph glyph-name="AE" unicode="&#xc6;" horiz-adv-x="840" 
d="M893 700l-21 -120l-71 -60h-180l-15 -85h155l-30 -170h-155l-15 -85h240l-31 -180h-460l30 175h-100l-70 -175h-220l17 100l285 600h641zM374 510l-62 -155h60l27 155h-25z" />
    <glyph glyph-name="Cacute" unicode="&#x106;" horiz-adv-x="540" 
d="M465 0h-325c-85 0 -131 55 -116 140l74 420c15 85 80 140 165 140h325l-21 -120l-71 -60h-185l-60 -340h245zM407 920h210l-143 -160h-160z" />
    <glyph glyph-name="Ccaron" unicode="&#x10c;" horiz-adv-x="540" 
d="M465 0h-325c-85 0 -131 55 -116 140l74 420c15 85 80 140 165 140h325l-21 -120l-71 -60h-185l-60 -340h245zM484 760h-190l-62 160h160l12 -45h10l28 45h160z" />
    <glyph glyph-name="Ccircumflex" unicode="&#x108;" horiz-adv-x="540" 
d="M465 0h-325c-85 0 -131 55 -116 140l74 420c15 85 80 140 165 140h325l-21 -120l-71 -60h-185l-60 -340h245zM322 920h190l62 -160h-160l-13 45h-10l-27 -45h-160z" />
    <glyph glyph-name="Dcaron" unicode="&#x10e;" horiz-adv-x="600" 
d="M371 520h-50l-60 -340h50zM360 0h-350l123 700h350c85 0 130 -55 115 -140l-74 -420c-15 -85 -79 -140 -164 -140zM474 760h-190l-62 160h160l12 -45h10l28 45h160z" />
    <glyph glyph-name="Eacute" unicode="&#xc9;" 
d="M598 700l-21 -120l-71 -60h-185l-15 -85h160l-30 -170h-160l-15 -85h245l-31 -180h-465l123 700h465zM392 920h210l-143 -160h-160z" />
    <glyph glyph-name="Ecaron" unicode="&#x11a;" 
d="M598 700l-21 -120l-71 -60h-185l-15 -85h160l-30 -170h-160l-15 -85h245l-31 -180h-465l123 700h465zM471 760h-190l-62 160h160l12 -45h10l28 45h160z" />
    <glyph glyph-name="Ecircumflex" unicode="&#xca;" 
d="M598 700l-21 -120l-71 -60h-185l-15 -85h160l-30 -170h-160l-15 -85h245l-31 -180h-465l123 700h465zM309 920h190l62 -160h-160l-13 45h-10l-27 -45h-160z" />
    <glyph glyph-name="Edieresis" unicode="&#xcb;" 
d="M598 700l-21 -120l-71 -60h-185l-15 -85h160l-30 -170h-160l-15 -85h245l-31 -180h-465l123 700h465zM356 760h-170l28 160h170zM566 760h-170l28 160h170z" />
    <glyph glyph-name="Edotaccent" unicode="&#x116;" 
d="M598 700l-21 -120l-71 -60h-185l-15 -85h160l-30 -170h-160l-15 -85h245l-31 -180h-465l123 700h465zM509 920l-28 -160h-210l28 160h210z" />
    <glyph glyph-name="Egrave" unicode="&#xc8;" 
d="M598 700l-21 -120l-71 -60h-185l-15 -85h160l-30 -170h-160l-15 -85h245l-31 -180h-465l123 700h465zM242 920h210l37 -160h-160z" />
    <glyph glyph-name="Emacron" unicode="&#x112;" 
d="M598 700l-21 -120l-71 -60h-185l-15 -85h160l-30 -170h-160l-15 -85h245l-31 -180h-465l123 700h465zM242 910h320l-25 -140h-320z" />
    <glyph glyph-name="Gbreve" unicode="&#x11e;" horiz-adv-x="590" 
d="M490 0h-350c-85 0 -131 55 -116 140l74 420c15 85 80 140 165 140h325l-21 -120l-71 -60h-185l-60 -340h60l39 220h210zM428 870l9 50h145l-14 -80c-8 -45 -49 -80 -94 -80h-180c-45 0 -74 35 -66 80l14 80h145l-9 -50h50z" />
    <glyph glyph-name="Iacute" unicode="&#xcd;" horiz-adv-x="340" 
d="M230 0h-220l123 700h220zM262 920h210l-143 -160h-160z" />
    <glyph glyph-name="Icircumflex" unicode="&#xce;" horiz-adv-x="340" 
d="M230 0h-220l123 700h220zM187 920h190l62 -160h-160l-13 45h-10l-27 -45h-160z" />
    <glyph glyph-name="Idieresis" unicode="&#xcf;" horiz-adv-x="340" 
d="M230 0h-220l123 700h220zM234 760h-170l28 160h170zM444 760h-170l28 160h170z" />
    <glyph glyph-name="Idotaccent" unicode="&#x130;" horiz-adv-x="340" 
d="M230 0h-220l123 700h220zM387 920l-28 -160h-210l28 160h210z" />
    <glyph glyph-name="Igrave" unicode="&#xcc;" horiz-adv-x="340" 
d="M230 0h-220l123 700h220zM102 920h210l37 -160h-160z" />
    <glyph glyph-name="Imacron" unicode="&#x12a;" horiz-adv-x="340" 
d="M230 0h-220l123 700h220zM120 910h320l-25 -140h-320z" />
    <glyph glyph-name="Kcommaaccent" unicode="&#x136;" horiz-adv-x="610" 
d="M230 0h-220l123 700h220l-44 -250h35l89 250h220l-18 -100l-129 -250l56 -250l-17 -100h-220l-16 250h-35zM325 -170l-123 -130h-69l41 240h170z" />
    <glyph glyph-name="Lacute" unicode="&#x139;" horiz-adv-x="505" 
d="M263 190h215l-33 -190h-435l123 700h220zM262 920h210l-143 -160h-160z" />
    <glyph glyph-name="Lcaron" unicode="&#x13d;" horiz-adv-x="520" 
d="M263 190h215l-33 -190h-435l123 700h220zM564 590l-123 -130h-70l42 240h170z" />
    <glyph glyph-name="Lcommaaccent" unicode="&#x13b;" horiz-adv-x="505" 
d="M263 190h215l-33 -190h-435l123 700h220zM282 -170l-123 -130h-69l41 240h170z" />
    <glyph glyph-name="Lslash" unicode="&#x141;" horiz-adv-x="510" 
d="M30 400l59 20l49 280h220l-34 -190l76 30l-32 -180l-75 -30l-25 -140h215l-33 -190h-435l42 240l-59 -20z" />
    <glyph glyph-name="Nacute" unicode="&#x143;" horiz-adv-x="630" 
d="M520 0h-230l-28 240h-10l-5 -140l-17 -100h-220l123 700h230l28 -240h10l4 140l18 100h220zM397 920h210l-143 -160h-160z" />
    <glyph glyph-name="Ncaron" unicode="&#x147;" horiz-adv-x="630" 
d="M520 0h-230l-28 240h-10l-5 -140l-17 -100h-220l123 700h230l28 -240h10l4 140l18 100h220zM494 760h-190l-62 160h160l12 -45h10l28 45h160z" />
    <glyph glyph-name="Ncommaaccent" unicode="&#x145;" horiz-adv-x="630" 
d="M520 0h-230l-28 240h-10l-5 -140l-17 -100h-220l123 700h230l28 -240h10l4 140l18 100h220zM320 -170l-123 -130h-69l41 240h170z" />
    <glyph glyph-name="Ntilde" unicode="&#xd1;" horiz-adv-x="630" 
d="M520 0h-230l-28 240h-10l-5 -140l-17 -100h-220l123 700h230l28 -240h10l4 140l18 100h220zM587 920l-19 -105c-6 -35 -35 -60 -70 -60h-35c-40 0 -49 10 -65 30l-12 15h-10l-7 -40h-130l18 105c6 35 36 60 71 60h35c40 0 48 -10 64 -30l13 -15h10l7 40h130z" />
    <glyph glyph-name="Oacute" unicode="&#xd3;" horiz-adv-x="620" 
d="M329 170l64 360h-80l-64 -360h80zM22 130l78 440c15 85 80 140 165 140h240c85 0 130 -55 115 -140l-78 -440c-15 -85 -79 -140 -164 -140h-240c-85 0 -131 55 -116 140zM402 920h210l-143 -160h-160z" />
    <glyph glyph-name="Ocircumflex" unicode="&#xd4;" horiz-adv-x="620" 
d="M329 170l64 360h-80l-64 -360h80zM22 130l78 440c15 85 80 140 165 140h240c85 0 130 -55 115 -140l-78 -440c-15 -85 -79 -140 -164 -140h-240c-85 0 -131 55 -116 140zM327 920h190l62 -160h-160l-13 45h-10l-27 -45h-160z" />
    <glyph glyph-name="Odieresis" unicode="&#xd6;" horiz-adv-x="620" 
d="M329 170l64 360h-80l-64 -360h80zM22 130l78 440c15 85 80 140 165 140h240c85 0 130 -55 115 -140l-78 -440c-15 -85 -79 -140 -164 -140h-240c-85 0 -131 55 -116 140zM374 760h-170l28 160h170zM584 760h-170l28 160h170z" />
    <glyph glyph-name="Ograve" unicode="&#xd2;" horiz-adv-x="620" 
d="M329 170l64 360h-80l-64 -360h80zM22 130l78 440c15 85 80 140 165 140h240c85 0 130 -55 115 -140l-78 -440c-15 -85 -79 -140 -164 -140h-240c-85 0 -131 55 -116 140zM242 920h210l37 -160h-160z" />
    <glyph glyph-name="Ohungarumlaut" unicode="&#x150;" horiz-adv-x="620" 
d="M329 170l64 360h-80l-64 -360h80zM22 130l78 440c15 85 80 140 165 140h240c85 0 130 -55 115 -140l-78 -440c-15 -85 -79 -140 -164 -140h-240c-85 0 -131 55 -116 140zM307 920h190l-133 -160h-150zM517 920h190l-133 -160h-150z" />
    <glyph glyph-name="Omacron" unicode="&#x14c;" horiz-adv-x="620" 
d="M329 170l64 360h-80l-64 -360h80zM22 130l78 440c15 85 80 140 165 140h240c85 0 130 -55 115 -140l-78 -440c-15 -85 -79 -140 -164 -140h-240c-85 0 -131 55 -116 140zM260 910h320l-25 -140h-320z" />
    <glyph glyph-name="Oslash" unicode="&#xd8;" horiz-adv-x="620" 
d="M287 410l108 130h-90l-23 -130h5zM22 130l78 440c15 85 80 140 165 140h240c85 0 130 -55 115 -140l-78 -440c-15 -85 -79 -140 -164 -140h-240c-85 0 -131 55 -116 140zM356 290l-108 -130h90l23 130h-5z" />
    <glyph glyph-name="Otilde" unicode="&#xd5;" horiz-adv-x="620" 
d="M329 170l64 360h-80l-64 -360h80zM22 130l78 440c15 85 80 140 165 140h240c85 0 130 -55 115 -140l-78 -440c-15 -85 -79 -140 -164 -140h-240c-85 0 -131 55 -116 140zM582 920l-19 -105c-6 -35 -35 -60 -70 -60h-35c-40 0 -49 10 -65 30l-12 15h-10l-7 -40h-130
l18 105c6 35 36 60 71 60h35c40 0 48 -10 64 -30l13 -15h10l7 40h130z" />
    <glyph glyph-name="OE" unicode="&#x152;" horiz-adv-x="805" 
d="M730 0h-590c-85 0 -131 55 -116 140l74 420c15 85 80 140 165 140h590l-21 -120l-71 -60h-180l-15 -85h155l-30 -170h-155l-15 -85h240zM371 520h-60l-60 -340h60z" />
    <glyph glyph-name="Racute" unicode="&#x154;" horiz-adv-x="610" 
d="M230 0h-220l123 700h365c85 0 130 -55 115 -140l-33 -190c-15 -85 -75 -110 -75 -110l42 -160l-17 -100h-220l-15 235h-24zM386 520h-65l-18 -105h65zM392 920h210l-143 -160h-160z" />
    <glyph glyph-name="Rcaron" unicode="&#x158;" horiz-adv-x="610" 
d="M230 0h-220l123 700h365c85 0 130 -55 115 -140l-33 -190c-15 -85 -75 -110 -75 -110l42 -160l-17 -100h-220l-15 235h-24zM386 520h-65l-18 -105h65zM485 760h-190l-62 160h160l12 -45h10l28 45h160z" />
    <glyph glyph-name="Rcommaaccent" unicode="&#x156;" horiz-adv-x="610" 
d="M230 0h-220l123 700h365c85 0 130 -55 115 -140l-33 -190c-15 -85 -75 -110 -75 -110l42 -160l-17 -100h-220l-15 235h-24zM386 520h-65l-18 -105h65zM320 -170l-123 -130h-69l41 240h170z" />
    <glyph glyph-name="Sacute" unicode="&#x15a;" horiz-adv-x="545" 
d="M54 425l24 135c15 85 80 140 165 140h325l-21 -120l-71 -60h-185l-10 -60l130 -25c73 -14 118 -70 104 -150l-26 -145c-15 -85 -79 -140 -164 -140h-345l31 180h265l13 70l-131 25c-73 14 -118 70 -104 150zM372 920h210l-143 -160h-160z" />
    <glyph glyph-name="Scaron" unicode="&#x160;" horiz-adv-x="545" 
d="M54 425l24 135c15 85 80 140 165 140h325l-21 -120l-71 -60h-185l-10 -60l130 -25c73 -14 118 -70 104 -150l-26 -145c-15 -85 -79 -140 -164 -140h-345l31 180h265l13 70l-131 25c-73 14 -118 70 -104 150zM464 760h-190l-62 160h160l12 -45h10l28 45h160z" />
    <glyph glyph-name="Scommaaccent" unicode="&#x218;" horiz-adv-x="545" 
d="M54 425l24 135c15 85 80 140 165 140h325l-21 -120l-71 -60h-185l-10 -60l130 -25c73 -14 118 -70 104 -150l-26 -145c-15 -85 -79 -140 -164 -140h-345l31 180h265l13 70l-131 25c-73 14 -118 70 -104 150zM275 -170l-123 -130h-69l41 240h170z" />
    <glyph glyph-name="Tcaron" unicode="&#x164;" horiz-adv-x="520" 
d="M49 510l34 190h500l-23 -130l-71 -60h-80l-89 -510h-220l89 510h-140zM439 760h-190l-62 160h160l12 -45h10l28 45h160z" />
    <glyph glyph-name="Tcommaaccent" unicode="&#x162;" horiz-adv-x="520" 
d="M49 510l34 190h500l-23 -130l-71 -60h-80l-89 -510h-220l89 510h-140zM265 -170l-123 -130h-69l41 240h170z" />
    <glyph glyph-name="Uacute" unicode="&#xda;" horiz-adv-x="610" 
d="M343 700l-94 -530h70l94 530h220l-101 -570c-15 -85 -79 -140 -164 -140h-230c-85 0 -131 55 -116 140l101 570h220zM402 920h210l-143 -160h-160z" />
    <glyph glyph-name="Ucircumflex" unicode="&#xdb;" horiz-adv-x="610" 
d="M343 700l-94 -530h70l94 530h220l-101 -570c-15 -85 -79 -140 -164 -140h-230c-85 0 -131 55 -116 140l101 570h220zM322 920h190l62 -160h-160l-13 45h-10l-27 -45h-160z" />
    <glyph glyph-name="Udieresis" unicode="&#xdc;" horiz-adv-x="610" 
d="M343 700l-94 -530h70l94 530h220l-101 -570c-15 -85 -79 -140 -164 -140h-230c-85 0 -131 55 -116 140l101 570h220zM369 760h-170l28 160h170zM579 760h-170l28 160h170z" />
    <glyph glyph-name="Ugrave" unicode="&#xd9;" horiz-adv-x="610" 
d="M343 700l-94 -530h70l94 530h220l-101 -570c-15 -85 -79 -140 -164 -140h-230c-85 0 -131 55 -116 140l101 570h220zM237 920h210l37 -160h-160z" />
    <glyph glyph-name="Uhungarumlaut" unicode="&#x170;" horiz-adv-x="610" 
d="M343 700l-94 -530h70l94 530h220l-101 -570c-15 -85 -79 -140 -164 -140h-230c-85 0 -131 55 -116 140l101 570h220zM302 920h190l-133 -160h-150zM512 920h190l-133 -160h-150z" />
    <glyph glyph-name="Umacron" unicode="&#x16a;" horiz-adv-x="610" 
d="M343 700l-94 -530h70l94 530h220l-101 -570c-15 -85 -79 -140 -164 -140h-230c-85 0 -131 55 -116 140l101 570h220zM255 910h320l-25 -140h-320z" />
    <glyph glyph-name="Uring" unicode="&#x16e;" horiz-adv-x="610" 
d="M343 700l-94 -530h70l94 530h220l-101 -570c-15 -85 -79 -140 -164 -140h-230c-85 0 -131 55 -116 140l101 570h220zM386 945h70c50 0 83 -40 74 -90l-5 -30c-9 -50 -56 -90 -106 -90h-70c-50 0 -83 40 -74 90l5 30c9 50 56 90 106 90zM425 855h-40l-5 -30h40z" />
    <glyph glyph-name="Yacute" unicode="&#xdd;" 
d="M366 180l-31 -180h-220l31 180l-81 420l18 100h220l-8 -270h10l88 270h220l-18 -100zM372 920h210l-143 -160h-160z" />
    <glyph glyph-name="Ydieresis" unicode="&#x178;" 
d="M366 180l-31 -180h-220l31 180l-81 420l18 100h220l-8 -270h10l88 270h220l-18 -100zM339 760h-170l28 160h170zM549 760h-170l28 160h170z" />
    <glyph glyph-name="Zacute" unicode="&#x179;" horiz-adv-x="520" 
d="M258 190h225l-33 -190h-480l31 180l282 320l1 10h-155l-49 60l23 130h470l-32 -180l-281 -320zM357 920h210l-143 -160h-160z" />
    <glyph glyph-name="Zcaron" unicode="&#x17d;" horiz-adv-x="520" 
d="M258 190h225l-33 -190h-480l31 180l282 320l1 10h-155l-49 60l23 130h470l-32 -180l-281 -320zM444 760h-190l-62 160h160l12 -45h10l28 45h160z" />
    <glyph glyph-name="Zdotaccent" unicode="&#x17b;" horiz-adv-x="520" 
d="M258 190h225l-33 -190h-480l31 180l282 320l1 10h-155l-49 60l23 130h470l-32 -180l-281 -320zM487 920l-28 -160h-210l28 160h210z" />
    <glyph glyph-name="aacute" unicode="&#xe1;" horiz-adv-x="540" 
d="M213 135h40l13 70h-40zM440 0h-150l-18 45h-5s-29 -55 -84 -55h-85c-65 0 -111 55 -99 120l16 90c11 65 76 120 141 120h130l9 50h-205l26 150h295c65 0 110 -55 99 -120zM334 760h210l-145 -170h-160z" />
    <glyph glyph-name="abreve" unicode="&#x103;" horiz-adv-x="540" 
d="M213 135h40l13 70h-40zM440 0h-150l-18 45h-5s-29 -55 -84 -55h-85c-65 0 -111 55 -99 120l16 90c11 65 76 120 141 120h130l9 50h-205l26 150h295c65 0 110 -55 99 -120zM373 700l11 60h145l-16 -90c-8 -45 -49 -80 -94 -80h-180c-45 0 -74 35 -66 80l16 90h145l-11 -60
h50z" />
    <glyph glyph-name="acircumflex" unicode="&#xe2;" horiz-adv-x="540" 
d="M213 135h40l13 70h-40zM440 0h-150l-18 45h-5s-29 -55 -84 -55h-85c-65 0 -111 55 -99 120l16 90c11 65 76 120 141 120h130l9 50h-205l26 150h295c65 0 110 -55 99 -120zM264 760h190l60 -170h-160l-13 45h-10l-27 -45h-160z" />
    <glyph glyph-name="adieresis" unicode="&#xe4;" horiz-adv-x="540" 
d="M213 135h40l13 70h-40zM440 0h-150l-18 45h-5s-29 -55 -84 -55h-85c-65 0 -111 55 -99 120l16 90c11 65 76 120 141 120h130l9 50h-205l26 150h295c65 0 110 -55 99 -120zM309 590h-170l30 170h170zM519 590h-170l30 170h170z" />
    <glyph glyph-name="agrave" unicode="&#xe0;" horiz-adv-x="540" 
d="M213 135h40l13 70h-40zM440 0h-150l-18 45h-5s-29 -55 -84 -55h-85c-65 0 -111 55 -99 120l16 90c11 65 76 120 141 120h130l9 50h-205l26 150h295c65 0 110 -55 99 -120zM183 760h210l35 -170h-160z" />
    <glyph glyph-name="amacron" unicode="&#x101;" horiz-adv-x="540" 
d="M213 135h40l13 70h-40zM440 0h-150l-18 45h-5s-29 -55 -84 -55h-85c-65 0 -111 55 -99 120l16 90c11 65 76 120 141 120h130l9 50h-205l26 150h295c65 0 110 -55 99 -120zM197 750h320l-27 -150h-320z" />
    <glyph glyph-name="aring" unicode="&#xe5;" horiz-adv-x="540" 
d="M213 135h40l13 70h-40zM440 0h-150l-18 45h-5s-29 -55 -84 -55h-85c-65 0 -111 55 -99 120l16 90c11 65 76 120 141 120h130l9 50h-205l26 150h295c65 0 110 -55 99 -120zM329 790h70c50 0 83 -40 74 -90l-9 -50c-9 -50 -56 -90 -106 -90h-70c-50 0 -83 40 -74 90l9 50
c9 50 56 90 106 90zM367 695h-40l-7 -40h40z" />
    <glyph glyph-name="atilde" unicode="&#xe3;" horiz-adv-x="540" 
d="M213 135h40l13 70h-40zM440 0h-150l-18 45h-5s-29 -55 -84 -55h-85c-65 0 -111 55 -99 120l16 90c11 65 76 120 141 120h130l9 50h-205l26 150h295c65 0 110 -55 99 -120zM519 760l-21 -115c-6 -35 -35 -60 -70 -60h-35c-40 0 -49 10 -65 30l-12 15h-10l-7 -40h-130
l20 115c6 35 35 60 70 60h35c40 0 49 -10 65 -30l12 -15h10l8 40h130z" />
    <glyph glyph-name="cacute" unicode="&#x107;" horiz-adv-x="470" 
d="M395 0h-285c-65 0 -111 55 -99 120l49 280c11 65 76 120 141 120h285l-20 -115l-60 -55h-145l-32 -180h195zM339 760h210l-145 -170h-160z" />
    <glyph glyph-name="ccaron" unicode="&#x10d;" horiz-adv-x="470" 
d="M395 0h-285c-65 0 -111 55 -99 120l49 280c11 65 76 120 141 120h285l-20 -115l-60 -55h-145l-32 -180h195zM409 590h-190l-60 170h160l12 -45h10l28 45h160z" />
    <glyph glyph-name="ccircumflex" unicode="&#x109;" horiz-adv-x="470" 
d="M395 0h-285c-65 0 -111 55 -99 120l49 280c11 65 76 120 141 120h285l-20 -115l-60 -55h-145l-32 -180h195zM249 760h190l60 -170h-160l-13 45h-10l-27 -45h-160z" />
    <glyph glyph-name="dcaron" unicode="&#x10f;" horiz-adv-x="640" 
d="M306 350h-45l-33 -190h45zM198 -10h-90c-65 0 -111 55 -99 120l51 290c11 65 76 120 141 120h135l32 180h210l-123 -700h-150l-18 45h-5s-29 -55 -84 -55zM774 590l-123 -130h-70l42 240h170z" />
    <glyph glyph-name="dcroat" unicode="&#x111;" horiz-adv-x="565" 
d="M198 -10h-90c-65 0 -111 55 -99 120l35 200c12 65 76 120 141 120h135l7 40h-110l29 160h110l12 70h210l-12 -70h40l-29 -160h-40l-82 -470h-150l-18 45h-5s-29 -55 -84 -55zM290 260h-45l-17 -100h45z" />
    <glyph glyph-name="eacute" unicode="&#xe9;" horiz-adv-x="530" 
d="M298 390h-30l-12 -70h30zM203 530h210c65 0 110 -55 99 -120l-39 -220h-240l-7 -40h220l-26 -150h-310c-65 0 -111 55 -99 120l51 290c11 65 76 120 141 120zM329 760h210l-145 -170h-160z" />
    <glyph glyph-name="ecaron" unicode="&#x11b;" horiz-adv-x="530" 
d="M298 390h-30l-12 -70h30zM203 530h210c65 0 110 -55 99 -120l-39 -220h-240l-7 -40h220l-26 -150h-310c-65 0 -111 55 -99 120l51 290c11 65 76 120 141 120zM414 590h-190l-60 170h160l12 -45h10l28 45h160z" />
    <glyph glyph-name="ecircumflex" unicode="&#xea;" horiz-adv-x="530" 
d="M298 390h-30l-12 -70h30zM203 530h210c65 0 110 -55 99 -120l-39 -220h-240l-7 -40h220l-26 -150h-310c-65 0 -111 55 -99 120l51 290c11 65 76 120 141 120zM254 760h190l60 -170h-160l-13 45h-10l-27 -45h-160z" />
    <glyph glyph-name="edieresis" unicode="&#xeb;" horiz-adv-x="530" 
d="M298 390h-30l-12 -70h30zM203 530h210c65 0 110 -55 99 -120l-39 -220h-240l-7 -40h220l-26 -150h-310c-65 0 -111 55 -99 120l51 290c11 65 76 120 141 120zM299 590h-170l30 170h170zM509 590h-170l30 170h170z" />
    <glyph glyph-name="edotaccent" unicode="&#x117;" horiz-adv-x="530" 
d="M298 390h-30l-12 -70h30zM203 530h210c65 0 110 -55 99 -120l-39 -220h-240l-7 -40h220l-26 -150h-310c-65 0 -111 55 -99 120l51 290c11 65 76 120 141 120zM454 760l-30 -170h-210l30 170h210z" />
    <glyph glyph-name="egrave" unicode="&#xe8;" horiz-adv-x="530" 
d="M298 390h-30l-12 -70h30zM203 530h210c65 0 110 -55 99 -120l-39 -220h-240l-7 -40h220l-26 -150h-310c-65 0 -111 55 -99 120l51 290c11 65 76 120 141 120zM169 760h210l35 -170h-160z" />
    <glyph glyph-name="emacron" unicode="&#x113;" horiz-adv-x="530" 
d="M298 390h-30l-12 -70h30zM203 530h210c65 0 110 -55 99 -120l-39 -220h-240l-7 -40h220l-26 -150h-310c-65 0 -111 55 -99 120l51 290c11 65 76 120 141 120zM187 750h320l-27 -150h-320z" />
    <glyph glyph-name="dotlessi" unicode="&#x131;" horiz-adv-x="310" 
d="M301 520l-91 -520h-210l91 520h210z" />
    <glyph glyph-name="iacute" unicode="&#xed;" horiz-adv-x="310" 
d="M301 520l-91 -520h-210l91 520h210zM224 760h210l-145 -170h-160z" />
    <glyph glyph-name="icircumflex" unicode="&#xee;" horiz-adv-x="310" 
d="M301 520l-91 -520h-210l91 520h210zM144 760h190l60 -170h-160l-13 45h-10l-27 -45h-160z" />
    <glyph glyph-name="idieresis" unicode="&#xef;" horiz-adv-x="310" 
d="M301 520l-91 -520h-210l91 520h210zM189 590h-170l30 170h170zM399 590h-170l30 170h170z" />
    <glyph glyph-name="igrave" unicode="&#xec;" horiz-adv-x="310" 
d="M301 520l-91 -520h-210l91 520h210zM44 760h210l35 -170h-160z" />
    <glyph glyph-name="imacron" unicode="&#x12b;" horiz-adv-x="310" 
d="M301 520l-91 -520h-210l91 520h210zM77 750h320l-27 -150h-320z" />
    <glyph glyph-name="kcommaaccent" unicode="&#x137;" 
d="M343 700l-63 -355h20l61 175h210l-16 -90l-100 -170l45 -170l-15 -90h-210l-5 175h-20l-30 -175h-210l123 700h210zM305 -170l-123 -130h-69l41 240h170z" />
    <glyph glyph-name="lacute" unicode="&#x13a;" horiz-adv-x="335" 
d="M265 0h-135c-65 0 -111 55 -99 120l102 580h210l-94 -530h45zM262 920h210l-143 -160h-160z" />
    <glyph glyph-name="lcaron" unicode="&#x13e;" horiz-adv-x="405" 
d="M265 0h-135c-65 0 -111 55 -99 120l102 580h210l-94 -530h45zM539 590l-123 -130h-70l42 240h170z" />
    <glyph glyph-name="lcommaaccent" unicode="&#x13c;" horiz-adv-x="335" 
d="M265 0h-135c-65 0 -111 55 -99 120l102 580h210l-94 -530h45zM200 -170l-123 -130h-69l41 240h170z" />
    <glyph glyph-name="lslash" unicode="&#x142;" horiz-adv-x="350" 
d="M265 0h-135c-65 0 -111 55 -99 120l25 145l-54 -25l30 170l54 25l47 265h210l-30 -170l65 30l-30 -170l-65 -30l-34 -190h45z" />
    <glyph glyph-name="nacute" unicode="&#x144;" horiz-adv-x="565" 
d="M210 0h-210l91 520h150l17 -45h5s30 55 85 55h90c65 0 110 -55 99 -120l-72 -410h-210l63 360h-45zM338 760h210l-145 -170h-160z" />
    <glyph glyph-name="ncaron" unicode="&#x148;" horiz-adv-x="565" 
d="M210 0h-210l91 520h150l17 -45h5s30 55 85 55h90c65 0 110 -55 99 -120l-72 -410h-210l63 360h-45zM431 590h-190l-60 170h160l12 -45h10l28 45h160z" />
    <glyph glyph-name="ncommaaccent" unicode="&#x146;" horiz-adv-x="565" 
d="M210 0h-210l91 520h150l17 -45h5s30 55 85 55h90c65 0 110 -55 99 -120l-72 -410h-210l63 360h-45zM287 -170l-123 -130h-69l41 240h170z" />
    <glyph glyph-name="ntilde" unicode="&#xf1;" horiz-adv-x="565" 
d="M210 0h-210l91 520h150l17 -45h5s30 55 85 55h90c65 0 110 -55 99 -120l-72 -410h-210l63 360h-45zM527 770l-21 -115c-6 -35 -35 -60 -70 -60h-35c-40 0 -49 10 -65 30l-12 15h-10l-7 -40h-130l20 115c6 35 35 60 70 60h35c40 0 49 -10 65 -30l12 -15h10l8 40h130z" />
    <glyph glyph-name="oacute" unicode="&#xf3;" 
d="M9 110l53 300c11 65 76 120 141 120h230c65 0 110 -55 99 -120l-53 -300c-12 -65 -76 -120 -141 -120h-230c-65 0 -111 55 -99 120zM278 160l35 200h-50l-35 -200h50zM349 760h210l-145 -170h-160z" />
    <glyph glyph-name="ocircumflex" unicode="&#xf4;" 
d="M9 110l53 300c11 65 76 120 141 120h230c65 0 110 -55 99 -120l-53 -300c-12 -65 -76 -120 -141 -120h-230c-65 0 -111 55 -99 120zM278 160l35 200h-50l-35 -200h50zM264 760h190l60 -170h-160l-13 45h-10l-27 -45h-160z" />
    <glyph glyph-name="odieresis" unicode="&#xf6;" 
d="M9 110l53 300c11 65 76 120 141 120h230c65 0 110 -55 99 -120l-53 -300c-12 -65 -76 -120 -141 -120h-230c-65 0 -111 55 -99 120zM278 160l35 200h-50l-35 -200h50zM309 590h-170l30 170h170zM519 590h-170l30 170h170z" />
    <glyph glyph-name="ograve" unicode="&#xf2;" 
d="M9 110l53 300c11 65 76 120 141 120h230c65 0 110 -55 99 -120l-53 -300c-12 -65 -76 -120 -141 -120h-230c-65 0 -111 55 -99 120zM278 160l35 200h-50l-35 -200h50zM188 760h210l35 -170h-160z" />
    <glyph glyph-name="ohungarumlaut" unicode="&#x151;" 
d="M9 110l53 300c11 65 76 120 141 120h230c65 0 110 -55 99 -120l-53 -300c-12 -65 -76 -120 -141 -120h-230c-65 0 -111 55 -99 120zM278 160l35 200h-50l-35 -200h50zM244 760h190l-135 -170h-150zM454 760h190l-135 -170h-150z" />
    <glyph glyph-name="omacron" unicode="&#x14d;" 
d="M9 110l53 300c11 65 76 120 141 120h230c65 0 110 -55 99 -120l-53 -300c-12 -65 -76 -120 -141 -120h-230c-65 0 -111 55 -99 120zM278 160l35 200h-50l-35 -200h50zM197 750h320l-27 -150h-320z" />
    <glyph glyph-name="otilde" unicode="&#xf5;" 
d="M9 110l53 300c11 65 76 120 141 120h230c65 0 110 -55 99 -120l-53 -300c-12 -65 -76 -120 -141 -120h-230c-65 0 -111 55 -99 120zM278 160l35 200h-50l-35 -200h50zM519 760l-21 -115c-6 -35 -35 -60 -70 -60h-35c-40 0 -49 10 -65 30l-12 15h-10l-7 -40h-130l20 115
c6 35 35 60 70 60h35c40 0 49 -10 65 -30l12 -15h10l8 40h130z" />
    <glyph glyph-name="oe" unicode="&#x153;" horiz-adv-x="775" 
d="M268 160l35 200h-50l-35 -200h50zM558 390h-40l-12 -70h40zM268 -10h-160c-65 0 -111 55 -99 120l53 300c11 65 76 120 141 120h160c55 0 65 -55 65 -55h5s30 55 85 55h140c65 0 110 -55 99 -120l-39 -220h-235l-7 -40h215l-26 -150h-245c-55 0 -63 45 -63 45h-5
s-29 -55 -84 -55z" />
    <glyph glyph-name="racute" unicode="&#x155;" horiz-adv-x="405" 
d="M406 350h-135l-61 -350h-210l91 520h150l17 -45h5s30 55 85 55h90zM299 760h210l-145 -170h-160z" />
    <glyph glyph-name="rcaron" unicode="&#x159;" horiz-adv-x="405" 
d="M406 350h-135l-61 -350h-210l91 520h150l17 -45h5s30 55 85 55h90zM379 590h-190l-60 170h160l12 -45h10l28 45h160z" />
    <glyph glyph-name="rcommaaccent" unicode="&#x157;" horiz-adv-x="405" 
d="M406 350h-135l-61 -350h-210l91 520h150l17 -45h5s30 55 85 55h90zM160 -170l-123 -130h-69l41 240h170z" />
    <glyph glyph-name="sacute" unicode="&#x15b;" horiz-adv-x="455" 
d="M28 330l12 70c11 65 76 120 141 120h275l-17 -95l-59 -55h-135l-6 -35l95 -25c62 -16 95 -55 84 -120l-12 -70c-12 -65 -76 -120 -141 -120h-295l26 150h205l6 35l-95 25c-63 16 -96 55 -84 120zM309 760h210l-145 -170h-160z" />
    <glyph glyph-name="scaron" unicode="&#x161;" horiz-adv-x="455" 
d="M28 330l12 70c11 65 76 120 141 120h275l-17 -95l-59 -55h-135l-6 -35l95 -25c62 -16 95 -55 84 -120l-12 -70c-12 -65 -76 -120 -141 -120h-295l26 150h205l6 35l-95 25c-63 16 -96 55 -84 120zM389 590h-190l-60 170h160l12 -45h10l28 45h160z" />
    <glyph glyph-name="scommaaccent" unicode="&#x219;" horiz-adv-x="455" 
d="M28 330l12 70c11 65 76 120 141 120h275l-17 -95l-59 -55h-135l-6 -35l95 -25c62 -16 95 -55 84 -120l-12 -70c-12 -65 -76 -120 -141 -120h-295l26 150h205l6 35l-95 25c-63 16 -96 55 -84 120zM240 -170l-123 -130h-69l41 240h170z" />
    <glyph glyph-name="tcaron" unicode="&#x165;" horiz-adv-x="470" 
d="M315 0h-190c-65 0 -111 55 -99 120l38 220h-45l32 180h55l93 130h130l-23 -130h85l-32 -180h-85l-30 -170h100zM604 590l-123 -130h-70l42 240h170z" />
    <glyph glyph-name="tcommaaccent" unicode="&#x163;" horiz-adv-x="385" 
d="M315 0h-190c-65 0 -111 55 -99 120l38 220h-45l32 180h55l93 130h130l-23 -130h85l-32 -180h-85l-30 -170h100zM215 -170l-123 -130h-69l41 240h170z" />
    <glyph glyph-name="uacute" unicode="&#xfa;" horiz-adv-x="565" 
d="M346 520h210l-91 -520h-150l-18 45h-5s-29 -55 -84 -55h-90c-65 0 -111 55 -99 120l72 410h210l-63 -360h45zM349 760h210l-145 -170h-160z" />
    <glyph glyph-name="udieresis" unicode="&#xfc;" horiz-adv-x="565" 
d="M346 520h210l-91 -520h-150l-18 45h-5s-29 -55 -84 -55h-90c-65 0 -111 55 -99 120l72 410h210l-63 -360h45zM316 590h-170l30 170h170zM526 590h-170l30 170h170z" />
    <glyph glyph-name="ucircumflex" unicode="&#xfb;" horiz-adv-x="565" 
d="M346 520h210l-91 -520h-150l-18 45h-5s-29 -55 -84 -55h-90c-65 0 -111 55 -99 120l72 410h210l-63 -360h45zM271 760h190l60 -170h-160l-13 45h-10l-27 -45h-160z" />
    <glyph glyph-name="uhungarumlaut" unicode="&#x171;" horiz-adv-x="565" 
d="M346 520h210l-91 -520h-150l-18 45h-5s-29 -55 -84 -55h-90c-65 0 -111 55 -99 120l72 410h210l-63 -360h45zM249 760h190l-135 -170h-150zM459 760h190l-135 -170h-150z" />
    <glyph glyph-name="ugrave" unicode="&#xf9;" horiz-adv-x="565" 
d="M346 520h210l-91 -520h-150l-18 45h-5s-29 -55 -84 -55h-90c-65 0 -111 55 -99 120l72 410h210l-63 -360h45zM173 760h210l35 -170h-160z" />
    <glyph glyph-name="umacron" unicode="&#x16b;" horiz-adv-x="565" 
d="M346 520h210l-91 -520h-150l-18 45h-5s-29 -55 -84 -55h-90c-65 0 -111 55 -99 120l72 410h210l-63 -360h45zM204 750h320l-27 -150h-320z" />
    <glyph glyph-name="uring" unicode="&#x16f;" horiz-adv-x="565" 
d="M346 520h210l-91 -520h-150l-18 45h-5s-29 -55 -84 -55h-90c-65 0 -111 55 -99 120l72 410h210l-63 -360h45zM336 790h70c50 0 83 -40 74 -90l-9 -50c-9 -50 -56 -90 -106 -90h-70c-50 0 -83 40 -74 90l9 50c9 50 56 90 106 90zM374 695h-40l-7 -40h40z" />
    <glyph glyph-name="yacute" unicode="&#xfd;" horiz-adv-x="500" 
d="M515 430l-186 -460c-30 -75 -104 -140 -194 -140h-155l30 170h75l1 10l-51 420l16 90h215l-24 -280h10l69 280h210zM314 760h210l-145 -170h-160z" />
    <glyph glyph-name="ydieresis" unicode="&#xff;" horiz-adv-x="500" 
d="M515 430l-186 -460c-30 -75 -104 -140 -194 -140h-155l30 170h75l1 10l-51 420l16 90h215l-24 -280h10l69 280h210zM286 590h-170l30 170h170zM496 590h-170l30 170h170z" />
    <glyph glyph-name="zacute" unicode="&#x17a;" horiz-adv-x="475" 
d="M204 340l2 10h-120l-40 55l20 115h425l-28 -160l-202 -180l-2 -10h170l-29 -170h-425l28 160zM309 760h210l-145 -170h-160z" />
    <glyph glyph-name="zcaron" unicode="&#x17e;" horiz-adv-x="475" 
d="M204 340l2 10h-120l-40 55l20 115h425l-28 -160l-202 -180l-2 -10h170l-29 -170h-425l28 160zM386 590h-190l-60 170h160l12 -45h10l28 45h160z" />
    <glyph glyph-name="zdotaccent" unicode="&#x17c;" horiz-adv-x="475" 
d="M204 340l2 10h-120l-40 55l20 115h425l-28 -160l-202 -180l-2 -10h170l-29 -170h-425l28 160zM426 760l-30 -170h-210l30 170h210z" />
    <glyph glyph-name="exclamdown" unicode="&#xa1;" horiz-adv-x="320" 
d="M239 280l-4 -250l-35 -200h-240l35 200l84 250h160zM111 520h180l-32 -180h-180z" />
    <glyph glyph-name="questiondown" unicode="&#xbf;" horiz-adv-x="470" 
d="M162 242l7 38h190l-14 -80c-17 -95 -142 -124 -142 -124l-12 -66h170l50 -60l-21 -120h-310c-85 0 -130 55 -116 140l25 140c18 105 173 132 173 132zM216 520h180l-32 -180h-180z" />
    <glyph glyph-name="divide" unicode="&#xf7;" horiz-adv-x="500" 
d="M61 405h420l-30 -170h-420zM297 40h-180l28 160h180zM367 440h-180l28 160h180z" />
    <glyph glyph-name="multiply" unicode="&#xd7;" horiz-adv-x="530" 
d="M250 200l-124 -105l-99 120l124 105l-87 105l142 120l86 -105l124 105l98 -120l-123 -105l86 -105l-141 -120z" />
    <glyph glyph-name="germandbls" unicode="&#xdf;" horiz-adv-x="605" 
d="M496 375l-2 -10s102 -15 84 -120l-22 -125c-12 -65 -76 -120 -141 -120h-145l28 160h55l10 60s-70 25 -55 110l11 65c11 60 56 88 56 88l10 57h-70l-95 -540h-210l104 590c11 65 76 120 141 120h230c65 0 110 -55 99 -120l-23 -125c-14 -80 -65 -90 -65 -90z" />
    <glyph glyph-name="Thorn" unicode="&#xde;" horiz-adv-x="595" 
d="M230 0h-220l123 700h220l-18 -100h145c85 0 131 -55 116 -140l-41 -230c-15 -85 -80 -140 -165 -140h-145zM369 420h-65l-27 -150h65z" />
    <glyph glyph-name="thorn" unicode="&#xfe;" horiz-adv-x="565" 
d="M249 170h45l32 180h-45zM311 520h135c65 0 110 -55 99 -120l-49 -280c-12 -65 -76 -120 -141 -120h-135l-30 -170h-210l153 870h210z" />
    <glyph glyph-name="eth" unicode="&#xf0;" 
d="M9 110l39 220c11 65 76 120 141 120h135l10 60l-34 5l-18 -45l-160 25l19 50l-40 5l57 180l43 -10l19 50l160 -30l-18 -45l29 -5c117 -20 170 -85 152 -190l-69 -390c-12 -65 -76 -120 -141 -120h-225c-65 0 -111 55 -99 120zM294 280h-45l-21 -120h45z" />
    <glyph glyph-name="florin" unicode="&#x192;" horiz-adv-x="390" 
d="M245 710h240l-21 -115l-59 -55h-100l-14 -80h105l-32 -180h-105l-58 -330c-12 -65 -76 -120 -141 -120h-169l29 170h80l104 590c11 65 76 120 141 120z" />
    <glyph glyph-name="cent" unicode="&#xa2;" horiz-adv-x="470" 
d="M115 0h-5c-65 0 -111 55 -99 120l49 280c11 65 76 120 141 120h5l14 80h200l-14 -80h80l-20 -115l-60 -55h-145l-32 -180h195l-29 -170h-80l-15 -80h-200z" />
    <glyph glyph-name="yen" unicode="&#xa5;" 
d="M484 225h-95l-15 -30h105l-24 -135h-110l-10 -60h-220l10 60h-110l24 135h105l-5 30h-95l24 135h45l-48 240l18 100h220l-8 -270h10l88 270h220l-18 -100l-132 -240h45z" />
    <glyph glyph-name="sterling" unicode="&#xa3;" horiz-adv-x="505" 
d="M295 710h240l-21 -115l-59 -55h-100l-14 -80h95l-32 -180h-85l-4 -20c-8 -45 -45 -60 -45 -60l-2 -10h210l-33 -190h-485l33 190h43c2 0 50 15 59 70l4 20h-35l32 180h35l23 130c11 65 76 120 141 120z" />
    <glyph glyph-name="onequarter" unicode="&#xbc;" horiz-adv-x="735" 
d="M523 700h125l-18 -100l-445 -600h-125l17 100zM293 700l-60 -340h-145l39 220h-55l14 80l107 40h100zM358 50l17 100l134 190h160l-34 -190h25l-17 -100h-25l-9 -50h-140l9 50h-120zM490 150h25l7 40h-10l-20 -30z" />
    <glyph glyph-name="onesuperior" unicode="&#xb9;" horiz-adv-x="260" 
d="M293 700l-60 -340h-145l39 220h-55l14 80l107 40h100z" />
    <glyph glyph-name="twosuperior" unicode="&#xb2;" horiz-adv-x="310" 
d="M43 360l19 110l131 90l4 20h-110l21 120h160c45 0 78 -40 70 -85l-4 -20c-8 -50 -43 -75 -43 -75l-52 -40l-2 -10h75l-19 -110h-250z" />
    <glyph glyph-name="threesuperior" unicode="&#xb3;" horiz-adv-x="330" 
d="M218 360h-175l17 95h125l6 35h-65l11 65l57 40l2 10h-105l17 95h240l-17 -95l-51 -36l-2 -9s58 -10 46 -80l-6 -35c-8 -45 -55 -85 -100 -85z" />
    <glyph glyph-name="onehalf" unicode="&#xbd;" horiz-adv-x="750" 
d="M523 700h125l-18 -100l-445 -600h-125l17 100zM293 700l-60 -340h-145l39 220h-55l14 80l107 40h100zM399 0l19 110l131 90l4 20h-110l21 120h160c45 0 78 -40 70 -85l-4 -20c-8 -50 -43 -75 -43 -75l-52 -40l-2 -10h75l-19 -110h-250z" />
    <glyph glyph-name="threequarters" unicode="&#xbe;" horiz-adv-x="775" 
d="M563 700h125l-18 -100l-445 -600h-125l17 100zM398 50l17 100l134 190h160l-34 -190h25l-17 -100h-25l-9 -50h-140l9 50h-120zM530 150h25l7 40h-10l-20 -30zM208 360h-175l17 95h125l6 35h-65l11 65l57 40l2 10h-105l17 95h240l-17 -95l-51 -36l-2 -9s58 -10 46 -80
l-6 -35c-8 -45 -55 -85 -100 -85z" />
    <glyph glyph-name="ordfeminine" unicode="&#xaa;" horiz-adv-x="360" 
d="M333 360h-100l-4 35h-5s-21 -35 -66 -35h-40c-45 0 -78 40 -70 85l6 35c8 45 55 85 100 85h80l6 35h-125l18 100h175c45 0 78 -40 70 -85zM184 450h30l8 45h-30z" />
    <glyph glyph-name="afii10055" unicode="&#x406;" horiz-adv-x="340" 
d="M230 0h-220l123 700h220z" />
    <glyph glyph-name="afii10103" unicode="&#x456;" horiz-adv-x="310" 
d="M301 520l-91 -520h-210l91 520h210zM344 760l-30 -170h-210l30 170h210z" />
    <glyph glyph-name="afii10054" unicode="&#x405;" horiz-adv-x="545" 
d="M54 425l24 135c15 85 80 140 165 140h325l-21 -120l-71 -60h-185l-10 -60l130 -25c73 -14 118 -70 104 -150l-26 -145c-15 -85 -79 -140 -164 -140h-345l31 180h265l13 70l-131 25c-73 14 -118 70 -104 150z" />
    <glyph glyph-name="afii10102" unicode="&#x455;" horiz-adv-x="455" 
d="M28 330l12 70c11 65 76 120 141 120h275l-17 -95l-59 -55h-135l-6 -35l95 -25c62 -16 95 -55 84 -120l-12 -70c-12 -65 -76 -120 -141 -120h-295l26 150h205l6 35l-95 25c-63 16 -96 55 -84 120z" />
    <glyph glyph-name="afii10105" unicode="&#x458;" horiz-adv-x="310" 
d="M344 760l-30 -170h-210l30 170h210zM60 -170h-169l29 170h80l91 520h210l-100 -570c-12 -65 -76 -120 -141 -120z" />
    <glyph glyph-name="afii10057" unicode="&#x408;" horiz-adv-x="460" 
d="M263 700h220l-101 -570c-15 -85 -79 -140 -164 -140h-260l31 180h180z" />
    <glyph glyph-name="uni00AD" unicode="&#xad;" horiz-adv-x="445" 
d="M62 410h365l-32 -180h-365z" />
    <glyph glyph-name="afii10052" unicode="&#x403;" horiz-adv-x="515" 
d="M578 700l-23 -130l-71 -60h-165l-89 -510h-220l123 700h445zM377 920h210l-143 -160h-160z" />
    <glyph glyph-name="afii10100" unicode="&#x453;" horiz-adv-x="450" 
d="M0 0l91 520h400l-22 -125l-60 -55h-140l-59 -340h-210zM324 760h210l-145 -170h-160z" />
    <glyph glyph-name="afii10061" unicode="&#x40c;" horiz-adv-x="610" 
d="M230 0h-220l123 700h220l-44 -250h35l89 250h220l-18 -100l-129 -250l56 -250l-17 -100h-220l-16 250h-35zM407 920h210l-143 -160h-160z" />
    <glyph glyph-name="afii10071" unicode="&#x451;" horiz-adv-x="530" 
d="M298 390h-30l-12 -70h30zM203 530h210c65 0 110 -55 99 -120l-39 -220h-240l-7 -40h220l-26 -150h-310c-65 0 -111 55 -99 120l51 290c11 65 76 120 141 120zM299 590h-170l30 170h170zM509 590h-170l30 170h170z" />
    <glyph glyph-name="afii10109" unicode="&#x45c;" horiz-adv-x="540" 
d="M301 520l-31 -175h20l61 175h210l-16 -90l-100 -170l45 -170l-15 -90h-210l-5 175h-20l-30 -175h-210l91 520h210zM339 760h210l-145 -170h-160z" />
    <glyph glyph-name="afii10062" unicode="&#x40e;" 
d="M83 700h220l-11 -320h9l92 320h220l-18 -100l-211 -460c-44 -95 -106 -150 -196 -150h-160l31 180h65l2 10l-61 420zM411 890l11 60h140l-18 -100c-8 -45 -49 -80 -94 -80h-170c-45 0 -74 35 -66 80l18 100h140l-11 -60h50z" />
    <glyph glyph-name="afii10110" unicode="&#x45e;" horiz-adv-x="500" 
d="M515 430l-186 -460c-30 -75 -104 -140 -194 -140h-155l30 170h75l1 10l-51 420l16 90h215l-24 -280h10l69 280h210zM348 700l11 60h145l-16 -90c-8 -45 -49 -80 -94 -80h-170c-45 0 -74 35 -66 80l16 90h145l-11 -60h40z" />
    <glyph glyph-name="afii10056" unicode="&#x407;" horiz-adv-x="340" 
d="M230 0h-220l123 700h220zM234 760h-170l28 160h170zM444 760h-170l28 160h170z" />
    <glyph glyph-name="afii10023" unicode="&#x401;" 
d="M598 700l-21 -120l-71 -60h-185l-15 -85h160l-30 -170h-160l-15 -85h245l-31 -180h-465l123 700h465zM356 760h-170l28 160h170zM566 760h-170l28 160h170z" />
    <glyph glyph-name="afii57929" unicode="&#x2bc;" horiz-adv-x="250" 
d="M264 590l-123 -130h-70l42 240h170z" />
    <glyph glyph-name="minus" unicode="&#x2212;" horiz-adv-x="480" 
d="M61 405h400l-30 -170h-400z" />
    <glyph glyph-name="Aogonek" unicode="&#x104;" horiz-adv-x="570" 
d="M427 -130h60l-20 -110h-105c-80 0 -117 45 -107 100c17 100 135 140 135 140h-90l4 110h-100l-34 -110h-220l17 100l236 600h310l24 -600l-19 -110s-98 -45 -108 -100c-2 -10 7 -20 17 -20zM307 440l-55 -170h60l5 170h-10z" />
    <glyph glyph-name="Ccedilla" unicode="&#xc7;" horiz-adv-x="540" 
d="M255 -250h-150l18 100h120l4 20h-55l-34 35l17 95h-35c-85 0 -131 55 -116 140l74 420c15 85 80 140 165 140h325l-21 -120l-71 -60h-185l-60 -340h245l-31 -180h-180l-6 -30h15c50 0 87 -45 78 -95l-5 -30c-9 -50 -62 -95 -112 -95z" />
    <glyph glyph-name="Dcroat" unicode="&#x110;" horiz-adv-x="600" 
d="M360 0h-350l47 270h-50l28 160h50l48 270h350c85 0 130 -55 115 -140l-74 -420c-15 -85 -79 -140 -164 -140zM371 520h-60l-16 -90h40l-28 -160h-40l-16 -90h60z" />
    <glyph glyph-name="Eth" unicode="&#xd0;" horiz-adv-x="600" 
d="M360 0h-350l47 270h-50l28 160h50l48 270h350c85 0 130 -55 115 -140l-74 -420c-15 -85 -79 -140 -164 -140zM371 520h-60l-16 -90h40l-28 -160h-40l-16 -90h60z" />
    <glyph glyph-name="Gcommaaccent" unicode="&#x122;" horiz-adv-x="590" 
d="M490 0h-350c-85 0 -131 55 -116 140l74 420c15 85 80 140 165 140h325l-21 -120l-71 -60h-185l-60 -340h60l39 220h210zM320 -170l-123 -130h-69l41 240h170z" />
    <glyph glyph-name="ccedilla" unicode="&#xe7;" horiz-adv-x="470" 
d="M210 -250h-150l18 100h120l4 20h-55l-34 35l17 95h-20c-65 0 -111 55 -99 120l49 280c11 65 76 120 141 120h285l-20 -115l-60 -55h-145l-32 -180h195l-29 -170h-155l-6 -30h15c50 0 87 -45 78 -95l-5 -30c-9 -50 -62 -95 -112 -95z" />
    <glyph glyph-name="ae" unicode="&#xe6;" horiz-adv-x="755" 
d="M538 390h-40l-12 -70h40zM248 -10h-150c-65 0 -111 55 -99 120l16 90c11 65 76 120 141 120h120l11 60h-195l26 150h225c55 0 65 -55 65 -55h5s30 55 85 55h140c65 0 110 -55 99 -120l-39 -220h-235l-7 -40h215l-26 -150h-245c-55 0 -63 45 -63 45h-5s-29 -55 -84 -55z
M203 135h40l13 70h-40z" />
    <glyph glyph-name="eogonek" unicode="&#x119;" horiz-adv-x="530" 
d="M327 -130h60l-20 -110h-105c-80 0 -117 45 -107 100c17 100 135 140 135 140h-180c-65 0 -111 55 -99 120l51 290c11 65 76 120 141 120h210c65 0 110 -55 99 -120l-39 -220h-240l-7 -40h220l-28 -160s-98 -45 -108 -100c-2 -10 7 -20 17 -20zM298 390h-30l-12 -70h30z
" />
    <glyph glyph-name="Iogonek" unicode="&#x12e;" horiz-adv-x="340" 
d="M230 0h-220l123 700h220zM137 -130h60l-20 -110c3 0 -58 0 -105 0c-80 0 -117 45 -107 100c17 100 135 140 135 140h130l-2 -10s-98 -45 -108 -100c-2 -10 7 -20 17 -20z" />
    <glyph glyph-name="Scedilla" unicode="&#x15e;" horiz-adv-x="545" 
d="M225 -250h-150l18 100h120l4 20h-55l-34 35l17 95h-165l31 180h265l13 70l-131 25c-73 14 -118 70 -104 150l24 135c15 85 80 140 165 140h325l-21 -120l-71 -60h-185l-10 -60l130 -25c73 -14 118 -70 104 -150l-26 -145c-15 -85 -79 -140 -164 -140h-70l-6 -30h15
c50 0 87 -45 78 -95l-5 -30c-9 -50 -62 -95 -112 -95z" />
    <glyph glyph-name="iogonek" unicode="&#x12f;" horiz-adv-x="310" 
d="M117 -130h60l-20 -110h-105c-80 0 -116 45 -106 100c16 100 134 140 134 140h-80l91 520h210l-93 -530s-98 -45 -108 -100c-2 -10 7 -20 17 -20zM344 760l-30 -170h-210l30 170h210z" />
    <glyph glyph-name="scedilla" unicode="&#x15f;" horiz-adv-x="455" 
d="M170 -250h-150l18 100h120l4 20h-55l-34 35l17 95h-120l26 150h205l6 35l-95 25c-63 16 -96 55 -84 120l12 70c11 65 76 120 141 120h275l-17 -95l-59 -55h-135l-6 -35l95 -25c62 -16 95 -55 84 -120l-12 -70c-12 -65 -76 -120 -141 -120h-65l-6 -30h15
c50 0 87 -45 78 -95l-5 -30c-9 -50 -62 -95 -112 -95z" />
    <glyph glyph-name="oslash" unicode="&#xf8;" 
d="M9 110l53 300c11 65 76 120 141 120h230c65 0 110 -55 99 -120l-53 -300c-12 -65 -76 -120 -141 -120h-230c-65 0 -111 55 -99 120zM249 310l66 60h-60l-11 -60h5zM292 210l-66 -60h60l11 60h-5z" />
    <glyph glyph-name="uni20BD" unicode="&#x20bd;" horiz-adv-x="600" 
d="M235 0h-220l17 100h-45l23 130h45l7 40h-45l25 140h45l51 290h365c85 0 130 -55 115 -140l-26 -150c-15 -85 -80 -140 -165 -140h-145l-7 -40h185l-23 -130h-185zM391 520h-65l-19 -110h65z" />
    <glyph glyph-name="B" unicode="B" horiz-adv-x="600" 
d="M133 700h345c85 0 130 -55 115 -140l-12 -70c-20 -115 -106 -120 -106 -120l-2 -10s109 -5 87 -130l-16 -90c-15 -85 -79 -140 -164 -140h-370zM259 170h70l19 105h-70zM368 530h-45l-17 -95h45z" />
    <glyph glyph-name="foundryicon" horiz-adv-x="1230" 
d="M100 -110v920h1030v-920h-1030zM1110 -90v880h-990v-880h990zM635 610h110c50 0 80 -30 80 -65s-30 -65 -80 -65h-55v-80h-55v210zM635 300h110c50 0 80 -30 80 -65s-30 -65 -80 -65h-55v-80h-55v210zM495 170l-75 130h60l40 -75h5l40 75h65l-80 -130v-80h-55v80z
M495 480l-75 130h60l40 -75h5l40 75h65l-80 -130v-80h-55v80zM300 255h-65v45h165l25 -45h-70v-165h-55v165zM300 565h-65v45h165l25 -45h-70v-165h-55v165zM790 400v65c25 5 55 30 60 60h80v-45h-85v-35h120v-45h-175zM790 90v65c25 5 55 30 60 60h80v-45h-85v-35h120v-45
h-175zM810 300h155v-45h-115c-5 20 -20 40 -40 45zM810 610h155v-45h-115c-5 20 -20 40 -40 45zM765 545c0 10 -10 20 -20 20h-55v-40h55c10 0 20 9 20 20zM765 235c0 10 -10 20 -20 20h-55v-40h55c10 0 20 9 20 20z" />
    <glyph glyph-name="Germandbls" horiz-adv-x="620" 
d="M311 520l-91 -520h-220l98 560c15 85 80 140 165 140h365l-32 -180l-72 -95l-1 -10s77 -15 58 -125l-27 -150c-15 -85 -79 -140 -164 -140h-115l31 180h48l15 85h-73l27 150l71 95l2 10h-85z" />
    <glyph glyph-name="uni1E9E" unicode="&#x1e9e;" horiz-adv-x="620" 
d="M311 520l-91 -520h-220l98 560c15 85 80 140 165 140h365l-32 -180l-72 -95l-1 -10s77 -15 58 -125l-27 -150c-15 -85 -79 -140 -164 -140h-115l31 180h48l15 85h-73l27 150l71 95l2 10h-85z" />
    <glyph glyph-name="cyrbreve" unicode="&#xf6d4;" horiz-adv-x="410" 
d="M298 700l11 60h145l-16 -90c-8 -45 -49 -80 -94 -80h-170c-45 0 -74 35 -66 80l16 90h145l-11 -60h40z" />
    <glyph glyph-name="cyrBreve" unicode="&#xf6d1;" horiz-adv-x="410" 
d="M336 890l11 60h140l-18 -100c-8 -45 -49 -80 -94 -80h-170c-45 0 -74 35 -66 80l18 100h140l-11 -60h50z" />
    <glyph glyph-name="uni20B4" unicode="&#x20b4;" horiz-adv-x="575" 
d="M564 365h-525l18 105h265l9 50h-170l-49 60l21 120h310c85 0 130 -55 115 -140l-16 -90h40zM34 335h525l-19 -105h-265l-9 -50h230l-31 -180h-310c-85 0 -131 55 -116 140l16 90h-40z" />
    <glyph glyph-name="fraction" unicode="&#x2044;" horiz-adv-x="505" 
d="M433 700h125l-18 -100l-445 -600h-125l17 100z" />
    <glyph glyph-name="ordmasculine" unicode="&#xba;" horiz-adv-x="380" 
d="M268 360h-130c-45 0 -78 40 -70 85l30 170c8 45 55 85 100 85h130c45 0 78 -40 70 -85l-30 -170c-8 -45 -55 -85 -100 -85zM209 480h30l18 100h-30z" />
    <glyph glyph-name="foursuperior" unicode="&#x2074;" horiz-adv-x="345" 
d="M52 410l17 100l134 190h160l-34 -190h25l-17 -100h-25l-9 -50h-140l9 50h-120zM184 510h25l7 40h-10l-20 -30z" />
    <glyph glyph-name="C" unicode="C" horiz-adv-x="540" 
d="M465 0h-325c-85 0 -131 55 -116 140l74 420c15 85 80 140 165 140h325l-21 -120l-71 -60h-185l-60 -340h245z" />
    <glyph glyph-name="g" unicode="g" horiz-adv-x="505" 
d="M243 390l-12 -70h40l12 70h-40zM163 20l-11 -60h75l11 60h-75zM223 160h130c65 0 110 -55 99 -120l-18 -100c-12 -65 -76 -120 -141 -120h-255c-65 0 -110 55 -98 120l13 80c13 75 96 90 96 90l2 10s-24 5 -20 30l9 50c4 25 25 30 25 30l2 10s-48 15 -36 80l16 90
c11 65 76 120 141 120h110l39 80h160l-16 -90l-28 -20l-2 -10s47 -15 36 -80l-20 -110c-11 -65 -76 -120 -141 -120h-100c-5 0 -11 -5 -12 -10c0 -5 4 -10 9 -10z" />
    <glyph glyph-name="gcommaaccent" unicode="&#x123;" horiz-adv-x="555" 
d="M305 -170h-315l30 170h225l8 50h-135c-65 0 -110 55 -99 120l43 240c11 65 76 120 141 120h90c55 0 65 -55 65 -55h5l33 45h150l-100 -570c-12 -65 -76 -120 -141 -120zM238 220h45l25 140h-45zM278 700l123 130h70l-42 -240h-170z" />
    <glyph glyph-name="gbreve" unicode="&#x11f;" horiz-adv-x="555" 
d="M305 -170h-315l30 170h225l8 50h-135c-65 0 -110 55 -99 120l43 240c11 65 76 120 141 120h90c55 0 65 -55 65 -55h5l33 45h150l-100 -570c-12 -65 -76 -120 -141 -120zM378 700l11 60h145l-16 -90c-8 -45 -49 -80 -94 -80h-180c-45 0 -74 35 -66 80l16 90h145l-11 -60
h50zM238 220h45l25 140h-45z" />
    <glyph glyph-name="Eogonek" unicode="&#x118;" 
d="M382 -130h60l-20 -110h-105c-80 0 -117 45 -107 100c17 100 135 140 135 140h-335l123 700h465l-21 -120l-71 -60h-185l-15 -85h160l-30 -170h-160l-15 -85h245l-33 -190s-98 -45 -108 -100c-2 -10 7 -20 17 -20z" />
    <glyph glyph-name="aogonek" unicode="&#x105;" horiz-adv-x="540" 
d="M347 -130h60l-20 -110h-105c-80 0 -117 45 -107 100c17 100 135 140 135 140h-20l-18 45h-5s-29 -55 -84 -55h-85c-65 0 -111 55 -99 120l16 90c11 65 76 120 141 120h130l9 50h-205l26 150h295c65 0 110 -55 99 -120l-72 -410s-98 -45 -108 -100c-2 -10 7 -20 17 -20z
M213 135h40l13 70h-40z" />
    <glyph glyph-name="Uogonek" unicode="&#x172;" horiz-adv-x="610" 
d="M277 -130h60l-20 -110h-105c-80 0 -117 45 -107 100c16 90 113 130 113 130h-80c-85 0 -131 55 -116 140l101 570h220l-94 -530h70l94 530h220l-101 -570c-15 -85 -79 -140 -164 -140c0 0 -98 -45 -108 -100c-2 -10 7 -20 17 -20z" />
    <glyph glyph-name="uogonek" unicode="&#x173;" horiz-adv-x="565" 
d="M372 -130h60l-20 -110h-105c-80 0 -117 45 -107 100c17 100 135 140 135 140h-20l-18 45h-5s-29 -55 -84 -55h-90c-65 0 -111 55 -99 120l72 410h210l-63 -360h45l63 360h210l-93 -530s-98 -45 -108 -100c-2 -10 7 -20 17 -20z" />
    <glyph glyph-name="Aring" unicode="&#xc5;" horiz-adv-x="570" 
d="M363 930h70c50 0 83 -40 75 -90l-13 -70c-9 -50 -47 -70 -47 -70h65l24 -600l-17 -100h-220l4 110h-100l-34 -110h-220l17 100l236 600h65s-32 20 -23 70l13 70c8 50 55 90 105 90zM307 440l-55 -170h60l5 170h-10zM401 830h-40l-11 -60h40z" />
    <glyph glyph-name="D" unicode="D" horiz-adv-x="600" 
d="M371 520h-50l-60 -340h50zM360 0h-350l123 700h350c85 0 130 -55 115 -140l-74 -420c-15 -85 -79 -140 -164 -140z" />
    <glyph glyph-name="Acute" unicode="&#xf6c9;" horiz-adv-x="355" 
d="M217 920h210l-143 -160h-160z" />
    <glyph glyph-name="Breve" unicode="&#xf406;" horiz-adv-x="420" 
d="M338 870l9 50h145l-14 -80c-8 -45 -49 -80 -94 -80h-180c-45 0 -74 35 -66 80l14 80h145l-9 -50h50z" />
    <glyph glyph-name="Caron" unicode="&#xf6ca;" horiz-adv-x="450" 
d="M404 760h-190l-62 160h160l12 -45h10l28 45h160z" />
    <glyph glyph-name="Circumflex" unicode="&#xf408;" horiz-adv-x="450" 
d="M242 920h190l62 -160h-160l-13 45h-10l-27 -45h-160z" />
    <glyph glyph-name="Dieresis" unicode="&#xf6cb;" horiz-adv-x="460" 
d="M294 760h-170l28 160h170zM504 760h-170l28 160h170z" />
    <glyph glyph-name="Dotaccent" unicode="&#xf40b;" horiz-adv-x="290" 
d="M362 920l-28 -160h-210l28 160h210z" />
    <glyph glyph-name="Hungarumlaut" unicode="&#xf6cf;" horiz-adv-x="545" 
d="M217 920h190l-133 -160h-150zM427 920h190l-133 -160h-150z" />
    <glyph glyph-name="Macron" unicode="&#xf6d0;" horiz-adv-x="400" 
d="M150 910h320l-25 -140h-320z" />
    <glyph glyph-name="Ring" unicode="&#xf40c;" horiz-adv-x="330" 
d="M246 945h70c50 0 83 -40 74 -90l-5 -30c-9 -50 -56 -90 -106 -90h-70c-50 0 -83 40 -74 90l5 30c9 50 56 90 106 90zM285 855h-40l-5 -30h40z" />
    <glyph glyph-name="Tilde" unicode="&#xf40d;" horiz-adv-x="400" 
d="M472 920l-19 -105c-6 -35 -35 -60 -70 -60h-35c-40 0 -49 10 -65 30l-12 15h-10l-7 -40h-130l18 105c6 35 36 60 71 60h35c40 0 48 -10 64 -30l13 -15h10l7 40h130z" />
    <glyph glyph-name="Grave" unicode="&#xf6ce;" horiz-adv-x="355" 
d="M152 920h210l37 -160h-160z" />
    <glyph glyph-name="E" unicode="E" 
d="M598 700l-21 -120l-71 -60h-185l-15 -85h160l-30 -170h-160l-15 -85h245l-31 -180h-465l123 700h465z" />
    <glyph glyph-name="nbspace" unicode="&#xa0;" horiz-adv-x="0" 
 />
    <glyph glyph-name="CR" unicode="&#xd;" horiz-adv-x="0" 
 />
    <glyph glyph-name=".null" horiz-adv-x="0" 
 />
    <glyph glyph-name=".null" horiz-adv-x="0" 
 />
    </font>
</defs>
</svg>
