<?xml version="1.0" standalone="no"?>
<!DOCTYPE svg PUBLIC "-//W3C//DTD SVG 1.1//EN" "http://www.w3.org/Graphics/SVG/1.1/DTD/svg11.dtd" >
<svg>
<metadata>
Created by FontForge 20120731 at Tue Sep 10 18:47:10 2019
 By www-data
Designed for Typetype in 2016 by Ivan Gladkikh. TT Supermolot Condensed is one of series of fontfamilies which were designed for use in web and mobile applications, print and multimedia environments. 
</metadata>
<defs>
<font id="TTSupermolotCondensed-Light" horiz-adv-x="515" >
  <font-face 
    font-family="TT Supermolot Condensed Thin"
    font-weight="300"
    font-stretch="normal"
    units-per-em="1000"
    panose-1="2 0 8 6 2 0 0 2 0 3"
    ascent="800"
    descent="-200"
    x-height="510"
    cap-height="700"
    bbox="-35 -235 1130 925"
    underline-thickness="50"
    underline-position="-50"
    unicode-range="U+000D-F6D4"
  />
<missing-glyph horiz-adv-x="0" 
 />
    <glyph glyph-name=".notdef" horiz-adv-x="0" 
 />
    <glyph glyph-name="F" unicode="F" horiz-adv-x="485" 
d="M475 700v-30l-10 -10h-320v-315h245v-40h-245v-305h-45v700h375z" />
    <glyph glyph-name="G" unicode="G" horiz-adv-x="565" 
d="M455 660h-220c-70 0 -110 -40 -110 -110v-400c0 -70 40 -110 110 -110h205v335h45v-375h-250c-95 0 -155 60 -155 150v400c0 90 60 150 155 150h230v-30z" />
    <glyph glyph-name="H" unicode="H" horiz-adv-x="610" 
d="M145 0h-45v700h45v-320h320v320h45v-700h-45v340h-320v-340z" />
    <glyph glyph-name="I" unicode="I" horiz-adv-x="245" 
d="M145 0h-45v700h45v-700z" />
    <glyph glyph-name="J" unicode="J" horiz-adv-x="420" 
d="M165 -10h-155v40h155c70 0 110 40 110 110v560h45v-560c0 -90 -60 -150 -155 -150z" />
    <glyph glyph-name="L" unicode="L" horiz-adv-x="485" 
d="M145 40h330v-40h-375v700h45v-660z" />
    <glyph glyph-name="M" unicode="M" horiz-adv-x="775" 
d="M410 100h-45l-190 510h-5l-65 -610h-45v20l75 680h55l195 -525h5l195 525h55l75 -680v-20h-45l-65 610h-5z" />
    <glyph glyph-name="N" unicode="N" horiz-adv-x="610" 
d="M510 0h-50l-315 615h-5l5 -125v-490h-45v700h50l315 -615h5l-5 125v490h45v-700z" />
    <glyph glyph-name="O" unicode="O" horiz-adv-x="600" 
d="M235 30h130c70 0 110 40 110 110v420c0 70 -40 110 -110 110h-130c-70 0 -110 -40 -110 -110v-420c0 -70 40 -110 110 -110zM365 -10h-130c-95 0 -155 60 -155 150v420c0 90 60 150 155 150h130c95 0 155 -60 155 -150v-420c0 -90 -60 -150 -155 -150z" />
    <glyph glyph-name="P" unicode="P" horiz-adv-x="575" 
d="M145 0h-45v700h250c95 0 155 -60 155 -150v-150c0 -90 -60 -150 -155 -150h-205v-250zM350 660h-205v-370h205c70 0 110 40 110 110v150c0 70 -40 110 -110 110z" />
    <glyph glyph-name="R" unicode="R" horiz-adv-x="580" 
d="M145 0h-45v700h250c95 0 155 -60 155 -150v-120c0 -135 -125 -145 -125 -145l140 -265v-20h-45l-140 280h-190v-280zM350 660h-205v-340h205c70 0 110 40 110 110v120c0 70 -40 110 -110 110z" />
    <glyph glyph-name="Q" unicode="Q" horiz-adv-x="600" 
d="M365 -10h-45l80 -130v-20h-45l-75 150h-45c-95 0 -155 60 -155 150v420c0 90 60 150 155 150h130c95 0 155 -60 155 -150v-420c0 -90 -60 -150 -155 -150zM235 30h130c70 0 110 40 110 110v420c0 70 -40 110 -110 110h-130c-70 0 -110 -40 -110 -110v-420
c0 -70 40 -110 110 -110z" />
    <glyph glyph-name="S" unicode="S" horiz-adv-x="500" 
d="M60 490v60c0 90 60 150 155 150h220v-30l-10 -10h-210c-70 0 -110 -40 -110 -110v-60c0 -50 30 -79 70 -90l170 -45c70 -19 105 -55 105 -130v-75c0 -90 -60 -150 -155 -150h-245v40h245c70 0 110 40 110 110v75c0 50 -30 79 -70 90l-170 45c-70 19 -105 55 -105 130z
" />
    <glyph glyph-name="U" unicode="U" horiz-adv-x="610" 
d="M100 700h45v-560c0 -70 40 -110 110 -110h100c70 0 110 40 110 110v560h45v-560c0 -90 -60 -150 -155 -150h-100c-95 0 -155 60 -155 150v560z" />
    <glyph glyph-name="V" unicode="V" horiz-adv-x="495" 
d="M275 0h-55l-200 680v20h45l180 -630h5l180 630h45v-20z" />
    <glyph glyph-name="W" unicode="W" horiz-adv-x="795" 
d="M420 590l150 -505h5l145 615h45v-20l-165 -680h-50l-150 505h-5l-150 -505h-50l-165 680v20h45l145 -615h5l150 505h45z" />
    <glyph glyph-name="X" unicode="X" horiz-adv-x="495" 
d="M250 320h-5l-180 -320h-45v20l195 340l-180 320v20h45l165 -300h5l165 300h45v-20l-180 -320l195 -340v-20h-45z" />
    <glyph glyph-name="Y" unicode="Y" horiz-adv-x="485" 
d="M15 700h45l180 -415h5l180 415h45v-20l-205 -455v-225h-45v225l-205 455v20z" />
    <glyph glyph-name="Z" unicode="Z" horiz-adv-x="465" 
d="M75 40h365v-40h-415v40l365 615v5h-345l-10 10v30h405v-40l-365 -615v-5z" />
    <glyph glyph-name="afii10018" unicode="&#x411;" horiz-adv-x="565" 
d="M470 700v-30l-10 -10h-315v-250h205c95 0 155 -60 155 -150v-110c0 -90 -60 -150 -155 -150h-250v700h370zM145 40h205c70 0 110 40 110 110v110c0 70 -40 110 -110 110h-205v-330z" />
    <glyph glyph-name="afii10020" unicode="&#x413;" horiz-adv-x="450" 
d="M450 700v-30l-10 -10h-295v-660h-45v700h350z" />
    <glyph glyph-name="afii10021" unicode="&#x414;" horiz-adv-x="580" 
d="M45 0l-10 -150h-35v190h20s67 40 75 115l55 545h330v-660h70v-190h-35l-10 150h-460zM190 660l-50 -505c-7 -75 -65 -110 -65 -110v-5h360v620h-245z" />
    <glyph glyph-name="afii10024" unicode="&#x416;" horiz-adv-x="815" 
d="M430 0h-45v340h-145l-165 -340h-45v20l170 340l-165 320v20h45l160 -320h145v320h45v-320h145l160 320h45v-20l-165 -320l170 -340v-20h-45l-165 340h-145v-340z" />
    <glyph glyph-name="afii10025" unicode="&#x417;" horiz-adv-x="470" 
d="M35 700h210c95 0 155 -60 155 -150v-55c0 -110 -85 -125 -85 -125v-5s95 -10 95 -130v-85c0 -90 -60 -150 -155 -150h-230v40h230c70 0 110 40 110 110v84c0 71 -40 111 -110 111h-125v40h115c70 0 110 40 110 110v55c0 70 -40 110 -110 110h-200l-10 10v30z" />
    <glyph glyph-name="afii10026" unicode="&#x418;" horiz-adv-x="610" 
d="M460 700h50v-700h-45v490l5 125h-5l-315 -615h-50v700h45v-490l-5 -125h5z" />
    <glyph glyph-name="afii10027" unicode="&#x419;" horiz-adv-x="610" 
d="M460 700h50v-700h-45v490l5 125h-5l-315 -615h-50v700h45v-490l-5 -125h5zM345 795h-80c-50 0 -85 35 -85 85v45h40v-45c0 -35 15 -50 45 -50h80c30 0 45 15 45 50v45h40v-45c0 -50 -35 -85 -85 -85z" />
    <glyph glyph-name="afii10029" unicode="&#x41b;" horiz-adv-x="600" 
d="M0 30h30c40 0 73 35 80 110l55 560h335v-700h-45v660h-250l-50 -520c-10 -100 -60 -150 -125 -150h-30v40z" />
    <glyph glyph-name="afii10033" unicode="&#x41f;" horiz-adv-x="610" 
d="M145 0h-45v700h410v-700h-45v660h-320v-660z" />
    <glyph glyph-name="afii10037" unicode="&#x423;" horiz-adv-x="475" 
d="M20 700h45l175 -485h5l165 485h45v-20l-185 -530c-38 -110 -90 -160 -155 -160h-35v40h35c35 0 75 40 100 120l-195 530v20z" />
    <glyph glyph-name="afii10038" unicode="&#x424;" horiz-adv-x="795" 
d="M420 740v-100h150c95 0 155 -60 155 -150v-280c0 -90 -60 -150 -155 -150h-150v-90h-45v90h-150c-95 0 -155 60 -155 150v280c0 90 60 150 155 150h150v100h45zM570 600h-150v-500h150c70 0 110 40 110 110v280c0 70 -40 110 -110 110zM115 210c0 -70 40 -110 110 -110
h150v500h-150c-70 0 -110 -40 -110 -110v-280z" />
    <glyph glyph-name="afii10040" unicode="&#x426;" horiz-adv-x="605" 
d="M530 0h-430v700h45v-660h315v660h45v-660h70v-190h-35z" />
    <glyph glyph-name="afii10041" unicode="&#x427;" horiz-adv-x="575" 
d="M475 0h-45v270h-195c-95 0 -155 60 -155 150v280h45v-280c0 -70 40 -110 110 -110h195v390h45v-700z" />
    <glyph glyph-name="afii10042" unicode="&#x428;" horiz-adv-x="875" 
d="M415 700h45v-660h270v660h45v-700h-675v700h45v-660h270v660z" />
    <glyph glyph-name="afii10043" unicode="&#x429;" horiz-adv-x="875" 
d="M100 0v700h45v-660h270v660h45v-660h270v660h45v-660h70v-190h-35l-10 150h-700z" />
    <glyph glyph-name="afii10044" unicode="&#x42a;" horiz-adv-x="600" 
d="M0 660v40h190v-270h195c95 0 155 -60 155 -150v-130c0 -90 -60 -150 -155 -150h-240v660h-145zM190 40h195c70 0 110 40 110 110v130c0 70 -40 110 -110 110h-195v-350z" />
    <glyph glyph-name="afii10045" unicode="&#x42b;" horiz-adv-x="775" 
d="M675 0h-45v700h45v-700zM100 700h45v-270h195c95 0 155 -60 155 -150v-130c0 -90 -60 -150 -155 -150h-240v700zM145 40h195c70 0 110 40 110 110v130c0 70 -40 110 -110 110h-195v-350z" />
    <glyph glyph-name="afii10046" unicode="&#x42c;" horiz-adv-x="565" 
d="M100 700h45v-270h205c95 0 155 -60 155 -150v-130c0 -90 -60 -150 -155 -150h-250v700zM145 40h205c70 0 110 40 110 110v130c0 70 -40 110 -110 110h-205v-350z" />
    <glyph glyph-name="afii10047" unicode="&#x42d;" horiz-adv-x="500" 
d="M265 660h-220l-10 10v30h230c95 0 155 -60 155 -150v-400c0 -90 -60 -150 -155 -150h-230v40h230c70 0 110 40 110 110v185h-230v40h230v175c0 70 -40 110 -110 110z" />
    <glyph glyph-name="afii10048" unicode="&#x42e;" horiz-adv-x="805" 
d="M570 -10h-105c-95 0 -155 60 -155 150v195h-165v-335h-45v700h45v-325h165v185c0 90 60 150 155 150h105c95 0 155 -60 155 -150v-420c0 -90 -60 -150 -155 -150zM465 30h105c70 0 110 40 110 110v420c0 70 -40 110 -110 110h-105c-70 0 -110 -40 -110 -110v-420
c0 -70 40 -110 110 -110z" />
    <glyph glyph-name="afii10049" unicode="&#x42f;" horiz-adv-x="570" 
d="M470 0h-45v280h-190l-140 -280h-45v20l140 265s-125 10 -125 145v120c0 90 60 150 155 150h250v-700zM425 660h-205c-70 0 -110 -40 -110 -110v-120c0 -70 40 -110 110 -110h205v340z" />
    <glyph glyph-name="a" unicode="a" horiz-adv-x="480" 
d="M95 110c0 -50 30 -80 80 -80h75c80 0 105 100 105 100v125h-180c-50 0 -80 -30 -80 -80v-65zM400 0h-30l-10 65h-5s-25 -75 -105 -75h-75c-75 0 -125 50 -125 120v65c0 70 50 120 125 120h180v95c0 50 -30 80 -80 80h-185v40h185c75 0 125 -50 125 -120v-390z" />
    <glyph glyph-name="b" unicode="b" horiz-adv-x="505" 
d="M125 700v-190h185c75 0 125 -50 125 -120v-270c0 -70 -50 -120 -125 -120h-230v700h45zM390 120v270c0 50 -30 80 -80 80h-185v-430h185c50 0 80 30 80 80z" />
    <glyph glyph-name="c" unicode="c" horiz-adv-x="415" 
d="M115 390v-270c0 -50 30 -80 80 -80h195v-40h-195c-75 0 -125 50 -125 120v270c0 70 50 120 125 120h195v-30l-10 -10h-185c-50 0 -80 -30 -80 -80z" />
    <glyph glyph-name="d" unicode="d" horiz-adv-x="505" 
d="M380 130v340h-185c-50 0 -80 -30 -80 -80v-280c0 -50 30 -80 80 -80h80c80 0 105 100 105 100zM275 -10h-80c-75 0 -125 50 -125 120v280c0 70 50 120 125 120h185v190h45v-700h-30l-10 65h-5s-25 -75 -105 -75z" />
    <glyph glyph-name="e" unicode="e" horiz-adv-x="490" 
d="M295 480h-100c-50 0 -80 -30 -80 -80v-130h260v130c0 50 -30 80 -80 80zM405 0h-210c-75 0 -125 50 -125 120v280c0 70 50 120 125 120h100c75 0 125 -50 125 -120v-170h-305v-110c0 -50 30 -80 80 -80h210v-40z" />
    <glyph glyph-name="f" unicode="f" horiz-adv-x="305" 
d="M80 0v590c0 70 50 120 125 120h120v-30l-10 -10h-110c-50 0 -80 -30 -80 -80v-145h150v-40h-150v-405h-45z" />
    <glyph glyph-name="h" unicode="h" 
d="M390 0v390c0 50 -30 80 -80 80h-185v-470h-45v700h45v-190h185c75 0 125 -50 125 -120v-390h-45z" />
    <glyph glyph-name="i" unicode="i" horiz-adv-x="205" 
d="M125 510v-510h-45v510h45zM125 725v-100h-45v100h45z" />
    <glyph glyph-name="j" unicode="j" horiz-adv-x="205" 
d="M125 510v-560c0 -70 -50 -120 -125 -120h-35v40h35c50 0 80 30 80 80v560h45zM125 725v-100h-45v100h45z" />
    <glyph glyph-name="k" unicode="k" horiz-adv-x="455" 
d="M125 700v-415h130l110 225h45v-20l-115 -225l130 -245v-20h-45l-125 245h-130v-245h-45v700h45z" />
    <glyph glyph-name="l" unicode="l" horiz-adv-x="235" 
d="M125 700v-580c0 -50 30 -80 80 -80h10v-40h-10c-75 0 -125 50 -125 120v580h45z" />
    <glyph glyph-name="m" unicode="m" horiz-adv-x="755" 
d="M480 520h70c75 0 125 -50 125 -120v-400h-45v400c0 50 -30 80 -80 80h-70c-50 0 -80 -30 -80 -80v-400h-45v400c0 50 -30 80 -80 80h-45c-80 0 -105 -100 -105 -100v-380h-45v510h30l10 -65h5s25 75 105 75h45c85 0 105 -65 105 -65h5s20 65 95 65z" />
    <glyph glyph-name="n" unicode="n" 
d="M390 0v400c0 50 -30 80 -80 80h-80c-80 0 -105 -100 -105 -100v-380h-45v510h30l10 -65h5s25 75 105 75h80c75 0 125 -50 125 -120v-400h-45z" />
    <glyph glyph-name="o" unicode="o" horiz-adv-x="500" 
d="M195 520h110c75 0 125 -50 125 -120v-290c0 -70 -50 -120 -125 -120h-110c-75 0 -125 50 -125 120v290c0 70 50 120 125 120zM305 480h-110c-50 0 -80 -30 -80 -80v-290c0 -50 30 -80 80 -80h110c50 0 80 30 80 80v290c0 50 -30 80 -80 80z" />
    <glyph glyph-name="p" unicode="p" horiz-adv-x="505" 
d="M125 380v-340h185c50 0 80 30 80 80v280c0 50 -30 80 -80 80h-80c-80 0 -105 -100 -105 -100zM230 520h80c75 0 125 -50 125 -120v-280c0 -70 -50 -120 -125 -120h-185v-170h-45v680h30l10 -65h5s25 75 105 75z" />
    <glyph glyph-name="q" unicode="q" horiz-adv-x="505" 
d="M380 -170v170h-185c-75 0 -125 50 -125 120v270c0 70 50 120 125 120h230v-680h-45zM115 390v-270c0 -50 30 -80 80 -80h185v430h-185c-50 0 -80 -30 -80 -80z" />
    <glyph glyph-name="r" unicode="r" horiz-adv-x="320" 
d="M310 520v-45h-80c-80 0 -105 -95 -105 -95v-380h-45v510h30l10 -65h5s25 75 105 75h80z" />
    <glyph glyph-name="s" unicode="s" horiz-adv-x="435" 
d="M55 360v30c0 70 50 120 125 120h195v-30l-10 -10h-185c-50 0 -80 -30 -80 -80v-30c0 -35 20 -54 60 -65l130 -35c70 -19 95 -45 95 -105v-35c0 -70 -50 -120 -125 -120h-210v40h210c50 0 80 30 80 80v35c0 35 -20 54 -60 65l-130 35c-70 19 -95 45 -95 105z" />
    <glyph glyph-name="t" unicode="t" horiz-adv-x="325" 
d="M275 510v-40h-140v-350c0 -50 30 -80 80 -80h80v-40h-80c-75 0 -125 50 -125 120v350h-70v40h70l20 155h25v-155h140z" />
    <glyph glyph-name="u" unicode="u" 
d="M125 510v-400c0 -50 30 -80 80 -80h80c80 0 105 100 105 100v380h45v-510h-30l-10 65h-5s-25 -75 -105 -75h-80c-75 0 -125 50 -125 120v400h45z" />
    <glyph glyph-name="v" unicode="v" horiz-adv-x="415" 
d="M235 0h-55l-160 490v20h45l140 -445h5l140 445h45v-20z" />
    <glyph glyph-name="w" unicode="w" horiz-adv-x="625" 
d="M340 440l105 -370h5l100 440h45v-20l-120 -490h-50l-110 375h-5l-110 -375h-50l-120 490v20h45l100 -440h5l105 370h55z" />
    <glyph glyph-name="x" unicode="x" horiz-adv-x="415" 
d="M210 230h-5l-135 -230h-45v19l150 246l-135 225v20h40l125 -210h5l125 210h40v-20l-135 -225l150 -246v-19h-45z" />
    <glyph glyph-name="y" unicode="y" horiz-adv-x="420" 
d="M400 490l-160 -495c-39 -120 -85 -165 -150 -165h-25v40h25c40 0 90 50 105 125l-175 495v20h45l150 -440h5l135 440h45v-20z" />
    <glyph glyph-name="z" unicode="z" horiz-adv-x="400" 
d="M315 465v5h-265l-10 10v30h330v-40l-285 -425v-5h285v-40h-340v40z" />
    <glyph glyph-name="space" unicode=" " horiz-adv-x="195" 
 />
    <glyph glyph-name="one" unicode="1" horiz-adv-x="270" 
d="M20 680l115 20h35v-700h-45v655h-105v25z" />
    <glyph glyph-name="two" unicode="2" horiz-adv-x="475" 
d="M75 40h340v-40h-405v40l275 290c48 50 80 80 80 155v65c0 70 -40 110 -110 110h-215l-10 10v30h225c95 0 155 -60 155 -150v-65c0 -90 -47 -135 -95 -185l-240 -255v-5z" />
    <glyph glyph-name="three" unicode="3" horiz-adv-x="470" 
d="M400 660l-215 -265v-5h75c95 0 155 -60 155 -150v-90c0 -90 -60 -150 -155 -150h-235v40h235c70 0 110 40 110 110v90c0 70 -40 110 -110 110h-130v40l215 265v5h-300l-10 10v30h365v-40z" />
    <glyph glyph-name="four" unicode="4" horiz-adv-x="500" 
d="M385 0h-45v175h-320v40l315 485h50v-485h85v-40h-85v-175zM340 625h-5l-260 -405v-5h265v410z" />
    <glyph glyph-name="five" unicode="5" horiz-adv-x="505" 
d="M295 360h-210v340h340v-30l-10 -10h-285v-260h165c95 0 155 -60 155 -150v-100c0 -90 -60 -150 -155 -150h-220v40h220c70 0 110 40 110 110v100c0 70 -40 110 -110 110z" />
    <glyph glyph-name="six" unicode="6" horiz-adv-x="535" 
d="M320 375h-195v-235c0 -70 40 -110 110 -110h85c70 0 110 40 110 110v124c0 71 -40 111 -110 111zM80 140v410c0 90 60 150 155 150h205v-30l-10 -10h-195c-70 0 -110 -40 -110 -110v-135h195c95 0 155 -60 155 -150v-125c0 -90 -60 -150 -155 -150h-85
c-95 0 -155 60 -155 150z" />
    <glyph glyph-name="seven" unicode="7" horiz-adv-x="430" 
d="M170 0h-45v20l235 635v5h-340v40h390v-40z" />
    <glyph glyph-name="eight" unicode="8" horiz-adv-x="520" 
d="M420 235c0 70 -40 110 -110 110h-100c-70 0 -110 -40 -110 -110v-95c0 -70 40 -110 110 -110h100c70 0 110 40 110 110v95zM295 670h-70c-70 0 -110 -40 -110 -110v-66c0 -69 40 -109 110 -109h70c70 0 110 40 110 110v65c0 70 -40 110 -110 110zM310 -10h-100
c-95 0 -155 60 -155 150v95c0 120 95 130 95 130v5s-80 15 -80 125v65c0 90 60 150 155 150h70c95 0 155 -60 155 -150v-65c0 -110 -80 -125 -80 -125v-5s95 -10 95 -130v-95c0 -90 -60 -150 -155 -150z" />
    <glyph glyph-name="nine" unicode="9" horiz-adv-x="535" 
d="M215 325h195v235c0 70 -40 110 -110 110h-85c-70 0 -110 -40 -110 -110v-124c0 -71 40 -111 110 -111zM455 560v-410c0 -90 -60 -150 -155 -150h-205v40h205c70 0 110 40 110 110v135h-195c-95 0 -155 60 -155 150v125c0 90 60 150 155 150h85c95 0 155 -60 155 -150z
" />
    <glyph glyph-name="zero" unicode="0" horiz-adv-x="565" 
d="M235 30h95c70 0 110 40 110 110v420c0 70 -40 110 -110 110h-95c-70 0 -110 -40 -110 -110v-420c0 -70 40 -110 110 -110zM330 -10h-95c-95 0 -155 60 -155 150v420c0 90 60 150 155 150h95c95 0 155 -60 155 -150v-420c0 -90 -60 -150 -155 -150z" />
    <glyph glyph-name="question" unicode="?" horiz-adv-x="430" 
d="M185 0h-45v80h45v-80zM185 240v-45h-45v45c0 65 25 90 80 120l55 30c30 16 55 40 55 95v65c0 70 -40 110 -110 110h-200l-10 10v30h210c95 0 155 -60 155 -150v-65c0 -70 -35 -105 -80 -130l-55 -30c-34 -19 -55 -40 -55 -85z" />
    <glyph glyph-name="colon" unicode=":" horiz-adv-x="185" 
d="M115 0h-45v80h45v-80zM115 430h-45v80h45v-80z" />
    <glyph glyph-name="semicolon" unicode=";" horiz-adv-x="185" 
d="M115 30l-25 -130h-20v180h45v-50zM115 430h-45v80h45v-80z" />
    <glyph glyph-name="period" unicode="." horiz-adv-x="165" 
d="M105 0h-45v80h45v-80z" />
    <glyph glyph-name="comma" unicode="," horiz-adv-x="165" 
d="M105 30l-25 -130h-20v180h45v-50z" />
    <glyph glyph-name="exclam" unicode="!" horiz-adv-x="235" 
d="M105 200l-10 280v220h45v-220l-10 -280h-25zM140 0h-45v80h45v-80z" />
    <glyph glyph-name="numbersign" unicode="#" horiz-adv-x="610" 
d="M475 700h45l-45 -190h105v-40h-115l-55 -240h120v-40h-131l-44 -190h-45l45 190h-176l-44 -190h-45l45 190h-105v40h115l55 240h-120v40h130l45 190h45l-45 -190h175zM245 470l-55 -240h175l55 240h-175z" />
    <glyph glyph-name="ampersand" unicode="&#x26;" horiz-adv-x="540" 
d="M495 0l-65 75h-5s-25 -85 -140 -85h-80c-95 0 -155 60 -155 150v85c0 130 120 150 120 150v5c-30 35 -55 60 -55 110v60c0 90 60 150 155 150h155v-30l-10 -10h-145c-70 0 -110 -40 -110 -110v-60c0 -35 29 -65 55 -95l325 -375v-20h-45zM205 30h80c90 0 115 80 115 80
l-190 225h-5c-70 0 -110 -40 -110 -110v-85c0 -70 40 -110 110 -110z" />
    <glyph glyph-name="dollar" unicode="$" horiz-adv-x="500" 
d="M230 700v110h45v-110h160v-30l-10 -10h-210c-70 0 -110 -40 -110 -110v-60c0 -50 30 -79 70 -90l170 -45c70 -19 105 -55 105 -130v-75c0 -90 -60 -150 -155 -150h-20v-110h-45v110h-180v40h245c70 0 110 40 110 110v75c0 50 -30 79 -70 90l-170 45
c-70 19 -105 55 -105 130v60c0 90 60 150 155 150h15z" />
    <glyph glyph-name="Euro" unicode="&#x20ac;" horiz-adv-x="520" 
d="M30 280h70v140h-70v35h70v95c0 90 60 150 155 150h230v-30l-10 -10h-220c-70 0 -110 -40 -110 -110v-95h245v-35h-245v-140h245v-35h-245v-95c0 -70 40 -110 110 -110h230v-40h-230c-95 0 -155 60 -155 150v95h-70v35z" />
    <glyph glyph-name="afii61352" unicode="&#x2116;" horiz-adv-x="915" 
d="M615 270h231v-40h-231v40zM750 370h-40c-65 0 -105 40 -105 100v140c0 60 40 100 105 100h40c65 0 105 -40 105 -100v-140c0 -60 -40 -100 -105 -100zM710 405h40c40 0 65 25 65 65v140c0 40 -25 65 -65 65h-40c-40 0 -65 -25 -65 -65v-140c0 -40 25 -65 65 -65zM510 0
h-50l-315 615h-5l5 -125v-490h-45v700h50l315 -615h5l-5 125v490h45v-700z" />
    <glyph glyph-name="currency" unicode="&#xa4;" horiz-adv-x="565" 
d="M155 0h-45v150h-80v40h80v110h-80v40h80v360h240c95 0 155 -60 155 -150v-100c0 -90 -60 -150 -155 -150h-195v-110h270v-40h-270v-150zM350 660h-195v-320h195c70 0 110 40 110 110v100c0 70 -40 110 -110 110z" />
    <glyph glyph-name="at" unicode="@" horiz-adv-x="755" 
d="M675 205h-30l-10 65h-5s-25 -75 -105 -75h-85c-75 0 -125 50 -125 120v60c0 70 50 120 125 120h190v115c0 50 -30 80 -80 80h-315c-70 0 -110 -40 -110 -110v-460c0 -70 40 -110 110 -110h425v-40h-425c-95 0 -155 60 -155 150v460c0 90 60 150 155 150h315
c75 0 125 -50 125 -120v-405zM360 315c0 -50 30 -80 80 -80h85c80 0 105 100 105 100v120h-190c-50 0 -80 -30 -80 -80v-60z" />
    <glyph glyph-name="guillemotleft" unicode="&#xab;" horiz-adv-x="390" 
d="M95 270l85 -165v-15h-40l-90 180l90 180h40v-15zM245 270l85 -165v-15h-40l-90 180l90 180h40v-15z" />
    <glyph glyph-name="guillemotright" unicode="&#xbb;" horiz-adv-x="390" 
d="M210 105l85 165l-85 165v15h40l90 -180l-90 -180h-40v15zM60 105l85 165l-85 165v15h40l90 -180l-90 -180h-40v15z" />
    <glyph glyph-name="quotedblright" unicode="&#x201d;" horiz-adv-x="285" 
d="M105 650l-25 -130h-20v180h45v-50zM225 650l-25 -130h-20v180h45v-50z" />
    <glyph glyph-name="quotedblleft" unicode="&#x201c;" horiz-adv-x="285" 
d="M60 570l25 130h20v-180h-45v50zM180 570l25 130h20v-180h-45v50z" />
    <glyph glyph-name="quotedblbase" unicode="&#x201e;" horiz-adv-x="285" 
d="M105 30l-25 -130h-20v180h45v-50zM225 30l-25 -130h-20v180h45v-50z" />
    <glyph glyph-name="asterisk" unicode="*" horiz-adv-x="350" 
d="M175 495l-85 -105l-20 15l75 115l-115 45l5 20l120 -25l10 140h20l10 -140l120 25l5 -20l-115 -45l75 -115l-20 -15z" />
    <glyph glyph-name="degree" unicode="&#xb0;" horiz-adv-x="370" 
d="M205 370h-40c-65 0 -105 40 -105 100v140c0 60 40 100 105 100h40c65 0 105 -40 105 -100v-140c0 -60 -40 -100 -105 -100zM165 405h40c40 0 65 25 65 65v140c0 40 -25 65 -65 65h-40c-40 0 -65 -25 -65 -65v-140c0 -40 25 -65 65 -65z" />
    <glyph glyph-name="parenleft" unicode="(" horiz-adv-x="285" 
d="M245 780h30v-40h-30c-70 0 -110 -40 -110 -110v-670c0 -70 40 -110 110 -110h30v-40h-30c-95 0 -155 60 -155 150v670c0 90 60 150 155 150z" />
    <glyph glyph-name="parenright" unicode=")" horiz-adv-x="285" 
d="M40 -190h-30v40h30c70 0 110 40 110 110v670c0 70 -40 110 -110 110h-30v40h30c95 0 155 -60 155 -150v-670c0 -90 -60 -150 -155 -150z" />
    <glyph glyph-name="braceleft" unicode="{" horiz-adv-x="290" 
d="M70 300v-5s80 -20 80 -100v-235c0 -70 40 -110 110 -110h20v-40h-20c-95 0 -155 60 -155 150v235c0 35 -35 80 -85 80v45c50 0 85 35 85 80v230c0 90 60 150 155 150h20v-40h-20c-70 0 -110 -40 -110 -110v-230c0 -90 -80 -100 -80 -100z" />
    <glyph glyph-name="braceright" unicode="}" horiz-adv-x="290" 
d="M220 295v5s-80 10 -80 100v230c0 70 -40 110 -110 110h-20v40h20c95 0 155 -60 155 -150v-230c0 -45 35 -80 85 -80v-45c-50 0 -85 -45 -85 -80v-235c0 -90 -60 -150 -155 -150h-20v40h20c70 0 110 40 110 110v235c0 80 80 100 80 100z" />
    <glyph glyph-name="bracketleft" unicode="[" horiz-adv-x="295" 
d="M145 740v-890h140v-40h-185v970h185v-40h-140z" />
    <glyph glyph-name="bracketright" unicode="]" horiz-adv-x="295" 
d="M150 -150v890h-140v40h185v-970h-185v40h140z" />
    <glyph glyph-name="hyphen" unicode="-" horiz-adv-x="400" 
d="M35 345h330v-40h-330v40z" />
    <glyph glyph-name="plus" unicode="+" horiz-adv-x="450" 
d="M245 530v-185h170v-40h-170v-185h-40v185h-170v40h170v185h40z" />
    <glyph glyph-name="plusminus" unicode="&#xb1;" horiz-adv-x="470" 
d="M45 150h170v180h-170v40h170v185h40v-185h170v-40h-170v-180h170v-40h-380v40z" />
    <glyph glyph-name="equal" unicode="=" horiz-adv-x="420" 
d="M50 250h320v-40h-320v40zM50 440h320v-40h-320v40z" />
    <glyph glyph-name="asciitilde" unicode="~" horiz-adv-x="430" 
d="M205 370l50 -65c15 -20 30 -35 50 -35h10c20 0 35 15 35 35v105h40v-105c0 -40 -30 -70 -75 -70h-10c-40 0 -53 15 -80 50l-50 65c-15 20 -30 35 -50 35h-10c-20 0 -35 -15 -35 -35v-105h-40v105c0 40 30 70 75 70h10c40 0 53 -15 80 -50z" />
    <glyph glyph-name="underscore" unicode="_" horiz-adv-x="330" 
d="M10 -110h310v-40h-310v40z" />
    <glyph glyph-name="endash" unicode="&#x2013;" horiz-adv-x="475" 
d="M40 325h395v-40h-395v40z" />
    <glyph glyph-name="emdash" unicode="&#x2014;" horiz-adv-x="710" 
d="M40 325h630v-40h-630v40z" />
    <glyph glyph-name="asciicircum" unicode="^" horiz-adv-x="365" 
d="M330 450h-45l-100 200h-5l-100 -200h-45l125 250h45z" />
    <glyph glyph-name="grave" unicode="`" horiz-adv-x="195" 
d="M40 700h50l65 -150h-35z" />
    <glyph glyph-name="copyright" unicode="&#xa9;" horiz-adv-x="820" 
d="M525 170h-130c-65 0 -110 45 -110 110v140c0 65 45 110 110 110h130v-30l-10 -10h-120c-40 0 -65 -25 -65 -70v-140c0 -45 25 -70 65 -70h130v-40zM235 10h350c70 0 110 40 110 110v460c0 70 -40 110 -110 110h-350c-70 0 -110 -40 -110 -110v-460
c0 -70 40 -110 110 -110zM585 -30h-350c-95 0 -155 60 -155 150v460c0 90 60 150 155 150h350c95 0 155 -60 155 -150v-460c0 -90 -60 -150 -155 -150z" />
    <glyph glyph-name="registered" unicode="&#xae;" horiz-adv-x="820" 
d="M545 435v-30c0 -85 -70 -90 -70 -90l70 -130v-15h-45l-70 140h-95v-140h-45v360h160c60 0 95 -30 95 -95zM450 490h-115v-140h115c30 0 50 20 50 55v30c0 35 -20 55 -50 55zM235 10h350c70 0 110 40 110 110v460c0 70 -40 110 -110 110h-350c-70 0 -110 -40 -110 -110
v-460c0 -70 40 -110 110 -110zM585 -30h-350c-95 0 -155 60 -155 150v460c0 90 60 150 155 150h350c95 0 155 -60 155 -150v-460c0 -90 -60 -150 -155 -150z" />
    <glyph glyph-name="trademark" unicode="&#x2122;" horiz-adv-x="650" 
d="M10 665v35h240v-25l-10 -10h-90v-275h-40v275h-100zM450 430h-35l-80 205h-5l-25 -245h-40v15l35 295h50l80 -205h5l80 205h50l35 -295v-15h-40l-25 245h-5z" />
    <glyph glyph-name="slash" unicode="/" horiz-adv-x="420" 
d="M400 730l-345 -780h-35v20l345 780h35v-20z" />
    <glyph glyph-name="bar" unicode="|" horiz-adv-x="245" 
d="M145 800v-970h-45v970h45z" />
    <glyph glyph-name="backslash" unicode="\" horiz-adv-x="420" 
d="M55 750l345 -780v-20h-35l-345 780v20h35z" />
    <glyph glyph-name="percent" unicode="%" horiz-adv-x="680" 
d="M505 700h35v-20l-365 -680h-35v20zM185 370h-40c-65 0 -105 40 -105 100v140c0 60 40 100 105 100h40c65 0 105 -40 105 -100v-140c0 -60 -40 -100 -105 -100zM145 405h40c40 0 65 25 65 65v140c0 40 -25 65 -65 65h-40c-40 0 -65 -25 -65 -65v-140c0 -40 25 -65 65 -65z
M535 -10h-40c-65 0 -105 40 -105 100v140c0 60 40 100 105 100h40c65 0 105 -40 105 -100v-140c0 -60 -40 -100 -105 -100zM495 25h40c40 0 65 25 65 65v140c0 40 -25 65 -65 65h-40c-40 0 -65 -25 -65 -65v-140c0 -40 25 -65 65 -65z" />
    <glyph glyph-name="paragraph" unicode="&#xb6;" horiz-adv-x="430" 
d="M145 700h275v-40h-85v-830h-45v830h-85v-830h-45v550h-15c-70 0 -110 40 -110 110v100c0 70 40 110 110 110z" />
    <glyph glyph-name="section" unicode="&#xa7;" horiz-adv-x="470" 
d="M295 380l-110 30s-70 -15 -70 -85v-95c0 -35 20 -54 60 -65l110 -30s70 15 70 85v95c0 35 -20 54 -60 65zM70 230v95c0 80 65 100 65 100v5s-65 10 -65 90v60c0 70 50 120 125 120h195v-30l-10 -10h-185c-50 0 -80 -30 -80 -80v-60c0 -35 21 -55 60 -65l130 -35
c70 -19 95 -45 95 -105v-95c0 -80 -65 -100 -65 -100v-5s65 -10 65 -90v-75c0 -70 -50 -120 -125 -120h-205v40h205c50 0 80 30 80 80v75c0 35 -20 54 -60 65l-130 35c-70 19 -95 45 -95 105z" />
    <glyph glyph-name="dagger" unicode="&#x2020;" horiz-adv-x="455" 
d="M205 475l10 245h25l10 -245h175v-40h-175v-605h-45v605h-175v40h175z" />
    <glyph glyph-name="quotesingle" unicode="'" horiz-adv-x="160" 
d="M70 490l-10 120v90h40v-90l-10 -120h-20z" />
    <glyph glyph-name="quotedbl" unicode="&#x22;" horiz-adv-x="285" 
d="M70 490l-10 120v90h40v-90l-10 -120h-20zM195 490l-10 120v90h40v-90l-10 -120h-20z" />
    <glyph glyph-name="less" unicode="&#x3c;" horiz-adv-x="435" 
d="M80 255v-5l305 -185v-45l-345 210v45l345 210v-45z" />
    <glyph glyph-name="greater" unicode="&#x3e;" horiz-adv-x="435" 
d="M355 250v5l-305 185v45l345 -210v-45l-345 -210v45z" />
    <glyph glyph-name="quotesinglbase" unicode="&#x201a;" horiz-adv-x="165" 
d="M105 30l-25 -130h-20v180h45v-50z" />
    <glyph glyph-name="guilsinglleft" unicode="&#x2039;" horiz-adv-x="280" 
d="M50 260l130 210h40v-20l-120 -190l120 -190v-20h-40z" />
    <glyph glyph-name="periodcentered" unicode="&#xb7;" horiz-adv-x="195" 
d="M120 310h-45v80h45v-80z" />
    <glyph glyph-name="bullet" unicode="&#x2022;" horiz-adv-x="245" 
d="M80 300v25c0 20 10 30 30 30h26c19 0 29 -10 29 -30v-25c0 -20 -10 -30 -30 -30h-25c-20 0 -30 10 -30 30z" />
    <glyph glyph-name="daggerdbl" unicode="&#x2021;" horiz-adv-x="455" 
d="M215 -190l-10 235h-175v40h175v360h-175v40h175l10 235h25l10 -235h175v-40h-175v-360h175v-40h-175l-10 -235h-25z" />
    <glyph glyph-name="logicalnot" unicode="&#xac;" horiz-adv-x="410" 
d="M35 415h330v-160h-45v120h-285v40z" />
    <glyph glyph-name="ellipsis" unicode="&#x2026;" horiz-adv-x="525" 
d="M105 0h-45v80h45v-80zM285 0h-45v80h45v-80zM465 0h-45v80h45v-80z" />
    <glyph glyph-name="brokenbar" unicode="&#xa6;" horiz-adv-x="245" 
d="M100 225h45v-395h-45v395zM145 800v-395h-45v395h45z" />
    <glyph glyph-name="perthousand" unicode="&#x2030;" horiz-adv-x="975" 
d="M505 700h35v-20l-365 -680h-35v20zM185 370h-40c-65 0 -105 40 -105 100v140c0 60 40 100 105 100h40c65 0 105 -40 105 -100v-140c0 -60 -40 -100 -105 -100zM145 405h40c40 0 65 25 65 65v140c0 40 -25 65 -65 65h-40c-40 0 -65 -25 -65 -65v-140c0 -40 25 -65 65 -65z
M535 -10h-40c-65 0 -105 40 -105 100v140c0 60 40 100 105 100h40c65 0 105 -40 105 -100v-140c0 -60 -40 -100 -105 -100zM495 25h40c40 0 65 25 65 65v140c0 40 -25 65 -65 65h-40c-40 0 -65 -25 -65 -65v-140c0 -40 25 -65 65 -65zM830 -10h-40c-65 0 -105 40 -105 100
v140c0 60 40 100 105 100h40c65 0 105 -40 105 -100v-140c0 -60 -40 -100 -105 -100zM790 25h40c40 0 65 25 65 65v140c0 40 -25 65 -65 65h-40c-40 0 -65 -25 -65 -65v-140c0 -40 25 -65 65 -65z" />
    <glyph glyph-name="afii10053" unicode="&#x404;" horiz-adv-x="500" 
d="M455 660h-220c-70 0 -110 -40 -110 -110v-175h230v-40h-230v-185c0 -70 40 -110 110 -110h230v-40h-230c-95 0 -155 60 -155 150v400c0 90 60 150 155 150h230v-30z" />
    <glyph glyph-name="afii10101" unicode="&#x454;" horiz-adv-x="415" 
d="M115 240v-120c0 -50 30 -80 80 -80h195v-40h-195c-75 0 -125 50 -125 120v270c0 70 50 120 125 120h195v-30l-10 -10h-185c-50 0 -80 -30 -80 -80v-110h180v-40h-180z" />
    <glyph glyph-name="mu" unicode="&#xb5;" 
d="M125 25v-195h-45v680h45v-400c0 -50 30 -80 80 -80h80c80 0 105 100 105 100v380h45v-510h-30l-10 65h-5s-25 -75 -105 -75h-80c-50 0 -75 35 -75 35h-5z" />
    <glyph glyph-name="afii10060" unicode="&#x40b;" horiz-adv-x="610" 
d="M375 390h-180v-390h-45v660h-150v40h370v-30l-10 -10h-165v-230h180c95 0 155 -60 155 -150v-280h-45v280c0 70 -40 110 -110 110z" />
    <glyph glyph-name="afii10108" unicode="&#x45b;" horiz-adv-x="525" 
d="M400 0v300c0 50 -30 80 -80 80h-185v-380h-45v525h-70v40h70l20 145h25v-145h140v-40h-140v-105h185c75 0 125 -50 125 -120v-300h-45z" />
    <glyph glyph-name="afii10051" unicode="&#x402;" horiz-adv-x="590" 
d="M375 390h-180v-390h-45v660h-150v40h370v-30l-10 -10h-165v-230h180c95 0 155 -60 155 -150v-150c0 -90 -60 -150 -155 -150h-30v40h30c70 0 110 40 110 110v150c0 70 -40 110 -110 110z" />
    <glyph glyph-name="afii10099" unicode="&#x452;" horiz-adv-x="510" 
d="M400 110v190c0 50 -30 80 -80 80h-185v-380h-45v525h-70v40h70l20 145h25v-145h140v-40h-140v-105h185c75 0 125 -50 125 -120v-190c0 -70 -50 -120 -125 -120h-35v40h35c50 0 80 30 80 80z" />
    <glyph glyph-name="afii10050" unicode="&#x490;" horiz-adv-x="450" 
d="M450 805v-145h-305v-660h-45v700h310l10 105h30z" />
    <glyph glyph-name="afii10098" unicode="&#x491;" horiz-adv-x="380" 
d="M380 470h-255v-470h-45v510h260l10 105h30v-145z" />
    <glyph glyph-name="afii10193" unicode="&#x45f;" horiz-adv-x="510" 
d="M430 0h-150l-10 -130h-30l-10 130h-150v510h45v-470h260v470h45v-510z" />
    <glyph glyph-name="afii10145" unicode="&#x40f;" horiz-adv-x="610" 
d="M280 0h-180v700h45v-660h320v660h45v-700h-180l-10 -140h-30z" />
    <glyph glyph-name="afii10106" unicode="&#x459;" horiz-adv-x="725" 
d="M140 510h265v-185h145c75 0 125 -50 125 -120v-85c0 -70 -50 -120 -125 -120h-190v470h-180l-30 -350c-7 -85 -50 -130 -125 -130h-25v40h25c45 0 75 30 80 90zM550 285h-145v-245h145c50 0 80 30 80 80v85c0 50 -30 80 -80 80z" />
    <glyph glyph-name="afii10058" unicode="&#x409;" horiz-adv-x="875" 
d="M0 30h30c40 0 73 35 80 110l55 560h315v-270h180c95 0 155 -60 155 -150v-130c0 -90 -60 -150 -155 -150h-225v660h-230l-50 -520c-10 -100 -60 -150 -125 -150h-30v40zM480 40h180c70 0 110 40 110 110v130c0 70 -40 110 -110 110h-180v-350z" />
    <glyph glyph-name="afii10059" unicode="&#x40a;" horiz-adv-x="880" 
d="M145 0h-45v700h45v-290h295v290h45v-290h180c95 0 155 -60 155 -150v-110c0 -90 -60 -150 -155 -150h-225v370h-295v-370zM485 40h180c70 0 110 40 110 110v110c0 70 -40 110 -110 110h-180v-330z" />
    <glyph glyph-name="afii10107" unicode="&#x45a;" horiz-adv-x="740" 
d="M410 305h155c75 0 125 -50 125 -120v-65c0 -70 -50 -120 -125 -120h-200v265h-240v-265h-45v510h45v-205h240v205h45v-205zM565 265h-155v-225h155c50 0 80 30 80 80v65c0 50 -30 80 -80 80z" />
    <glyph glyph-name="A" unicode="A" 
d="M125 195l-60 -195h-45v20l210 680h55l210 -680v-20h-45l-60 195h-265zM255 615l-120 -380h245l-120 380h-5z" />
    <glyph glyph-name="afii10104" unicode="&#x457;" horiz-adv-x="205" 
d="M125 510v-510h-45v510h45zM50 630h-45v90h45v-90zM200 630h-45v90h45v-90z" />
    <glyph glyph-name="guilsinglright" unicode="&#x203a;" horiz-adv-x="280" 
d="M100 470l130 -210l-130 -210h-40v20l120 190l-120 190v20h40z" />
    <glyph glyph-name="afii10017" unicode="&#x410;" 
d="M125 195l-60 -195h-45v20l210 680h55l210 -680v-20h-45l-60 195h-265zM255 615l-120 -380h245l-120 380h-5z" />
    <glyph glyph-name="afii10019" unicode="&#x412;" horiz-adv-x="570" 
d="M485 550v-55c0 -100 -75 -120 -75 -120v-5s105 -10 105 -135v-85c0 -90 -60 -150 -155 -150h-260v700h230c95 0 155 -60 155 -150zM145 40h215c70 0 110 40 110 110v85c0 70 -40 110 -110 110h-215v-305zM330 660h-185v-275h185c70 0 110 40 110 110v55
c0 70 -40 110 -110 110z" />
    <glyph glyph-name="afii10022" unicode="&#x415;" horiz-adv-x="505" 
d="M475 700v-30l-10 -10h-320v-280h250v-40h-250v-300h330v-40h-375v700h375z" />
    <glyph glyph-name="afii10030" unicode="&#x41c;" horiz-adv-x="775" 
d="M410 100h-45l-190 510h-5l-65 -610h-45v20l75 680h55l195 -525h5l195 525h55l75 -680v-20h-45l-65 610h-5z" />
    <glyph glyph-name="afii10031" unicode="&#x41d;" horiz-adv-x="610" 
d="M145 0h-45v700h45v-320h320v320h45v-700h-45v340h-320v-340z" />
    <glyph glyph-name="afii10032" unicode="&#x41e;" horiz-adv-x="600" 
d="M235 30h130c70 0 110 40 110 110v420c0 70 -40 110 -110 110h-130c-70 0 -110 -40 -110 -110v-420c0 -70 40 -110 110 -110zM365 -10h-130c-95 0 -155 60 -155 150v420c0 90 60 150 155 150h130c95 0 155 -60 155 -150v-420c0 -90 -60 -150 -155 -150z" />
    <glyph glyph-name="afii10034" unicode="&#x420;" horiz-adv-x="575" 
d="M145 0h-45v700h250c95 0 155 -60 155 -150v-150c0 -90 -60 -150 -155 -150h-205v-250zM350 660h-205v-370h205c70 0 110 40 110 110v150c0 70 -40 110 -110 110z" />
    <glyph glyph-name="afii10035" unicode="&#x421;" horiz-adv-x="500" 
d="M455 660h-220c-70 0 -110 -40 -110 -110v-400c0 -70 40 -110 110 -110h230v-40h-230c-95 0 -155 60 -155 150v400c0 90 60 150 155 150h230v-30z" />
    <glyph glyph-name="afii10036" unicode="&#x422;" horiz-adv-x="455" 
d="M10 660v40h435v-30l-10 -10h-185v-660h-45v660h-195z" />
    <glyph glyph-name="afii10039" unicode="&#x425;" horiz-adv-x="495" 
d="M250 320h-5l-180 -320h-45v20l195 340l-180 320v20h45l165 -300h5l165 300h45v-20l-180 -320l195 -340v-20h-45z" />
    <glyph glyph-name="quoteleft" unicode="&#x2018;" horiz-adv-x="165" 
d="M60 570l25 130h20v-180h-45v50z" />
    <glyph glyph-name="quoteright" unicode="&#x2019;" horiz-adv-x="165" 
d="M105 650l-25 -130h-20v180h45v-50z" />
    <glyph glyph-name="T" unicode="T" horiz-adv-x="455" 
d="M10 660v40h435v-30l-10 -10h-185v-660h-45v660h-195z" />
    <glyph glyph-name="afii10028" unicode="&#x41a;" horiz-adv-x="540" 
d="M145 0h-45v700h45v-320h155l160 320h45v-20l-165 -320l170 -340v-20h-45l-165 340h-155v-340z" />
    <glyph glyph-name="K" unicode="K" horiz-adv-x="540" 
d="M145 0h-45v700h45v-320h155l160 320h45v-20l-165 -320l170 -340v-20h-45l-165 340h-155v-340z" />
    <glyph glyph-name="acute" unicode="&#xb4;" horiz-adv-x="195" 
d="M105 750h50l-80 -150h-35z" />
    <glyph glyph-name="breve" unicode="&#x2d8;" horiz-adv-x="315" 
d="M190 615h-65c-50 0 -85 35 -85 85v35h40v-35c0 -35 15 -50 45 -50h65c30 0 45 15 45 50v35h40v-35c0 -50 -35 -85 -85 -85z" />
    <glyph glyph-name="caron" unicode="&#x2c7;" horiz-adv-x="335" 
d="M255 750h40l-105 -150h-45l-105 150h40l85 -120h5z" />
    <glyph glyph-name="circumflex" unicode="&#x2c6;" horiz-adv-x="335" 
d="M80 600h-40l105 150h45l105 -150h-40l-85 120h-5z" />
    <glyph glyph-name="dieresis" unicode="&#xa8;" horiz-adv-x="275" 
d="M85 630h-45v90h45v-90zM235 630h-45v90h45v-90z" />
    <glyph glyph-name="dotaccent" unicode="&#x2d9;" horiz-adv-x="125" 
d="M85 725v-100h-45v100h45z" />
    <glyph glyph-name="hungarumlaut" unicode="&#x2dd;" horiz-adv-x="335" 
d="M105 750h50l-80 -150h-35zM245 750h50l-80 -150h-35z" />
    <glyph glyph-name="macron" unicode="&#xaf;" horiz-adv-x="315" 
d="M40 700h235v-40h-235v40z" />
    <glyph glyph-name="commaaccent" unicode="&#xf6c3;" horiz-adv-x="125" 
d="M85 -105l-25 -130h-20v170h45v-40z" />
    <glyph glyph-name="ring" unicode="&#x2da;" horiz-adv-x="255" 
d="M215 660c0 -40 -35 -75 -80 -75h-15c-45 0 -80 35 -80 75v30c0 40 35 75 80 75h15c45 0 80 -35 80 -75v-30zM75 690v-30c0 -25 20 -45 45 -45h15c25 0 45 20 45 45v30c0 25 -20 45 -45 45h-15c-25 0 -45 -20 -45 -45z" />
    <glyph glyph-name="tilde" unicode="&#x2dc;" horiz-adv-x="295" 
d="M155 640l-40 50c-8 10 -15 15 -25 15s-15 -5 -15 -15v-75h-35v75c0 30 20 50 50 50c25 0 34 -10 50 -30l40 -50c8 -10 15 -15 25 -15s15 5 15 15v75h35v-75c0 -30 -20 -50 -50 -50c-25 0 -34 10 -50 30z" />
    <glyph glyph-name="cedilla" unicode="&#xb8;" horiz-adv-x="240" 
d="M120 -230h-80v35h80c25 0 40 15 40 40v25c0 25 -15 40 -40 40h-55v90h40v-55h15c45 0 80 -35 80 -75v-25c0 -40 -35 -75 -80 -75z" />
    <glyph glyph-name="ogonek" unicode="&#x2db;" horiz-adv-x="210" 
d="M120 -175h50v-35h-50c-50 0 -80 30 -80 75c0 80 85 135 85 135h30v-5s-75 -50 -75 -130c0 -25 15 -40 40 -40z" />
    <glyph glyph-name="Aacute" unicode="&#xc1;" 
d="M125 195l-60 -195h-45v20l210 680h55l210 -680v-20h-45l-60 195h-265zM255 615l-120 -380h245l-120 380h-5zM310 910h50l-80 -140h-35z" />
    <glyph glyph-name="Abreve" unicode="&#x102;" 
d="M125 195l-60 -195h-45v20l210 680h55l210 -680v-20h-45l-60 195h-265zM255 615l-120 -380h245l-120 380h-5zM290 785h-65c-50 0 -85 35 -85 85v30h40v-30c0 -35 15 -50 45 -50h65c30 0 45 15 45 50v30h40v-30c0 -50 -35 -85 -85 -85z" />
    <glyph glyph-name="Acircumflex" unicode="&#xc2;" 
d="M125 195l-60 -195h-45v20l210 680h55l210 -680v-20h-45l-60 195h-265zM255 615l-120 -380h245l-120 380h-5zM170 770h-40l105 140h45l105 -140h-40l-85 115h-5z" />
    <glyph glyph-name="Agrave" unicode="&#xc0;" 
d="M125 195l-60 -195h-45v20l210 680h55l210 -680v-20h-45l-60 195h-265zM255 615l-120 -380h245l-120 380h-5zM160 910h50l65 -140h-35z" />
    <glyph glyph-name="Adieresis" unicode="&#xc4;" 
d="M125 195l-60 -195h-45v20l210 680h55l210 -680v-20h-45l-60 195h-265zM255 615l-120 -380h245l-120 380h-5zM205 795h-45v90h45v-90zM355 795h-45v90h45v-90z" />
    <glyph glyph-name="Amacron" unicode="&#x100;" 
d="M125 195l-60 -195h-45v20l210 680h55l210 -680v-20h-45l-60 195h-265zM255 615l-120 -380h245l-120 380h-5zM140 860h235v-40h-235v40z" />
    <glyph glyph-name="Atilde" unicode="&#xc3;" 
d="M125 195l-60 -195h-45v20l210 680h55l210 -680v-20h-45l-60 195h-265zM255 615l-120 -380h245l-120 380h-5zM265 810l-40 40c-10 10 -15 15 -25 15s-15 -5 -15 -15v-65h-35v65c0 30 20 50 50 50c20 0 30 -10 50 -30l40 -40c10 -10 15 -15 25 -15s15 5 15 15v65h35v-65
c0 -30 -20 -50 -50 -50c-20 0 -30 10 -50 30z" />
    <glyph glyph-name="AE" unicode="&#xc6;" horiz-adv-x="765" 
d="M375 215h-260l-70 -215h-45v20l225 680h510v-30l-10 -10h-305v-280h235v-40h-235v-300h315v-40h-360v215zM255 660l-130 -405h250v405h-120z" />
    <glyph glyph-name="Cacute" unicode="&#x106;" horiz-adv-x="500" 
d="M455 660h-220c-70 0 -110 -40 -110 -110v-400c0 -70 40 -110 110 -110h230v-40h-230c-95 0 -155 60 -155 150v400c0 90 60 150 155 150h230v-30zM345 910h50l-80 -140h-35z" />
    <glyph glyph-name="Ccaron" unicode="&#x10c;" horiz-adv-x="500" 
d="M455 660h-220c-70 0 -110 -40 -110 -110v-400c0 -70 40 -110 110 -110h230v-40h-230c-95 0 -155 60 -155 150v400c0 90 60 150 155 150h230v-30zM380 910h40l-105 -140h-45l-105 140h40l85 -115h5z" />
    <glyph glyph-name="Ccircumflex" unicode="&#x108;" horiz-adv-x="500" 
d="M455 660h-220c-70 0 -110 -40 -110 -110v-400c0 -70 40 -110 110 -110h230v-40h-230c-95 0 -155 60 -155 150v400c0 90 60 150 155 150h230v-30zM205 770h-40l105 140h45l105 -140h-40l-85 115h-5z" />
    <glyph glyph-name="Dcaron" unicode="&#x10e;" horiz-adv-x="590" 
d="M100 0v700h255c95 0 155 -60 155 -150v-400c0 -90 -60 -150 -155 -150h-255zM355 660h-210v-620h210c70 0 110 40 110 110v400c0 70 -40 110 -110 110zM380 910h40l-105 -140h-45l-105 140h40l85 -115h5z" />
    <glyph glyph-name="Eacute" unicode="&#xc9;" horiz-adv-x="505" 
d="M475 700v-30l-10 -10h-320v-280h250v-40h-250v-300h330v-40h-375v700h375zM335 910h50l-80 -140h-35z" />
    <glyph glyph-name="Ecaron" unicode="&#x11a;" horiz-adv-x="505" 
d="M475 700v-30l-10 -10h-320v-280h250v-40h-250v-300h330v-40h-375v700h375zM375 910h40l-105 -140h-45l-105 140h40l85 -115h5z" />
    <glyph glyph-name="Ecircumflex" unicode="&#xca;" horiz-adv-x="505" 
d="M475 700v-30l-10 -10h-320v-280h250v-40h-250v-300h330v-40h-375v700h375zM200 770h-40l105 140h45l105 -140h-40l-85 115h-5z" />
    <glyph glyph-name="Edieresis" unicode="&#xcb;" horiz-adv-x="505" 
d="M475 700v-30l-10 -10h-320v-280h250v-40h-250v-300h330v-40h-375v700h375zM235 795h-45v90h45v-90zM385 795h-45v90h45v-90z" />
    <glyph glyph-name="Edotaccent" unicode="&#x116;" horiz-adv-x="505" 
d="M475 700v-30l-10 -10h-320v-280h250v-40h-250v-300h330v-40h-375v700h375zM310 890v-100h-45v100h45z" />
    <glyph glyph-name="Egrave" unicode="&#xc8;" horiz-adv-x="505" 
d="M475 700v-30l-10 -10h-320v-280h250v-40h-250v-300h330v-40h-375v700h375zM215 910h50l65 -140h-35z" />
    <glyph glyph-name="Emacron" unicode="&#x112;" horiz-adv-x="505" 
d="M475 700v-30l-10 -10h-320v-280h250v-40h-250v-300h330v-40h-375v700h375zM170 860h235v-40h-235v40z" />
    <glyph glyph-name="Gbreve" unicode="&#x11e;" horiz-adv-x="565" 
d="M455 660h-220c-70 0 -110 -40 -110 -110v-400c0 -70 40 -110 110 -110h205v335h45v-375h-250c-95 0 -155 60 -155 150v400c0 90 60 150 155 150h230v-30zM315 785h-65c-50 0 -85 35 -85 85v30h40v-30c0 -35 15 -50 45 -50h65c30 0 45 15 45 50v30h40v-30
c0 -50 -35 -85 -85 -85z" />
    <glyph glyph-name="Iacute" unicode="&#xcd;" horiz-adv-x="245" 
d="M145 0h-45v700h45v-700zM165 910h50l-80 -140h-35z" />
    <glyph glyph-name="Icircumflex" unicode="&#xce;" horiz-adv-x="245" 
d="M145 0h-45v700h45v-700zM35 770h-40l105 140h45l105 -140h-40l-85 115h-5z" />
    <glyph glyph-name="Idieresis" unicode="&#xcf;" horiz-adv-x="245" 
d="M145 0h-45v700h45v-700zM70 795h-45v90h45v-90zM220 795h-45v90h45v-90z" />
    <glyph glyph-name="Idotaccent" unicode="&#x130;" horiz-adv-x="245" 
d="M145 0h-45v700h45v-700zM145 890v-100h-45v100h45z" />
    <glyph glyph-name="Igrave" unicode="&#xcc;" horiz-adv-x="245" 
d="M145 0h-45v700h45v-700zM30 910h50l65 -140h-35z" />
    <glyph glyph-name="Imacron" unicode="&#x12a;" horiz-adv-x="245" 
d="M145 0h-45v700h45v-700zM5 860h235v-40h-235v40z" />
    <glyph glyph-name="Kcommaaccent" unicode="&#x136;" horiz-adv-x="540" 
d="M145 0h-45v700h45v-320h155l160 320h45v-20l-165 -320l170 -340v-20h-45l-165 340h-155v-340zM320 -105l-25 -130h-20v170h45v-40z" />
    <glyph glyph-name="Lacute" unicode="&#x139;" horiz-adv-x="485" 
d="M145 40h330v-40h-375v700h45v-660zM170 910h50l-80 -140h-35z" />
    <glyph glyph-name="Lcaron" unicode="&#x13d;" horiz-adv-x="485" 
d="M145 40h330v-40h-375v700h45v-660zM285 660l-25 -130h-20v170h45v-40z" />
    <glyph glyph-name="Lcommaaccent" unicode="&#x13b;" horiz-adv-x="485" 
d="M145 40h330v-40h-375v700h45v-660zM310 -105l-25 -130h-20v170h45v-40z" />
    <glyph glyph-name="Lslash" unicode="&#x141;" horiz-adv-x="485" 
d="M145 40h330v-40h-375v305l-70 -35v45l70 35v350h45v-325l150 75v-45l-150 -75v-290z" />
    <glyph glyph-name="Nacute" unicode="&#x143;" horiz-adv-x="610" 
d="M510 0h-50l-315 615h-5l5 -125v-490h-45v700h50l315 -615h5l-5 125v490h45v-700zM350 910h50l-80 -140h-35z" />
    <glyph glyph-name="Ncaron" unicode="&#x147;" horiz-adv-x="610" 
d="M510 0h-50l-315 615h-5l5 -125v-490h-45v700h50l315 -615h5l-5 125v490h45v-700zM393 910h40l-105 -140h-45l-105 140h40l85 -115h5z" />
    <glyph glyph-name="Ncommaaccent" unicode="&#x145;" horiz-adv-x="610" 
d="M510 0h-50l-315 615h-5l5 -125v-490h-45v700h50l315 -615h5l-5 125v490h45v-700zM328 -105l-25 -130h-20v170h45v-40z" />
    <glyph glyph-name="Ntilde" unicode="&#xd1;" horiz-adv-x="610" 
d="M510 0h-50l-315 615h-5l5 -125v-490h-45v700h50l315 -615h5l-5 125v490h45v-700zM313 810l-40 40c-10 10 -15 15 -25 15s-15 -5 -15 -15v-65h-35v65c0 30 20 50 50 50c20 0 30 -10 50 -30l40 -40c10 -10 15 -15 25 -15s15 5 15 15v65h35v-65c0 -30 -20 -50 -50 -50
c-20 0 -30 10 -50 30z" />
    <glyph glyph-name="Oacute" unicode="&#xd3;" horiz-adv-x="600" 
d="M235 30h130c70 0 110 40 110 110v420c0 70 -40 110 -110 110h-130c-70 0 -110 -40 -110 -110v-420c0 -70 40 -110 110 -110zM365 -10h-130c-95 0 -155 60 -155 150v420c0 90 60 150 155 150h130c95 0 155 -60 155 -150v-420c0 -90 -60 -150 -155 -150zM350 910h50
l-80 -140h-35z" />
    <glyph glyph-name="Ocircumflex" unicode="&#xd4;" horiz-adv-x="600" 
d="M235 30h130c70 0 110 40 110 110v420c0 70 -40 110 -110 110h-130c-70 0 -110 -40 -110 -110v-420c0 -70 40 -110 110 -110zM365 -10h-130c-95 0 -155 60 -155 150v420c0 90 60 150 155 150h130c95 0 155 -60 155 -150v-420c0 -90 -60 -150 -155 -150zM213 770h-40
l105 140h45l105 -140h-40l-85 115h-5z" />
    <glyph glyph-name="Odieresis" unicode="&#xd6;" horiz-adv-x="600" 
d="M235 30h130c70 0 110 40 110 110v420c0 70 -40 110 -110 110h-130c-70 0 -110 -40 -110 -110v-420c0 -70 40 -110 110 -110zM365 -10h-130c-95 0 -155 60 -155 150v420c0 90 60 150 155 150h130c95 0 155 -60 155 -150v-420c0 -90 -60 -150 -155 -150zM248 795h-45v90h45
v-90zM398 795h-45v90h45v-90z" />
    <glyph glyph-name="Ograve" unicode="&#xd2;" horiz-adv-x="600" 
d="M235 30h130c70 0 110 40 110 110v420c0 70 -40 110 -110 110h-130c-70 0 -110 -40 -110 -110v-420c0 -70 40 -110 110 -110zM365 -10h-130c-95 0 -155 60 -155 150v420c0 90 60 150 155 150h130c95 0 155 -60 155 -150v-420c0 -90 -60 -150 -155 -150zM215 910h50
l65 -140h-35z" />
    <glyph glyph-name="Ohungarumlaut" unicode="&#x150;" horiz-adv-x="600" 
d="M235 30h130c70 0 110 40 110 110v420c0 70 -40 110 -110 110h-130c-70 0 -110 -40 -110 -110v-420c0 -70 40 -110 110 -110zM365 -10h-130c-95 0 -155 60 -155 150v420c0 90 60 150 155 150h130c95 0 155 -60 155 -150v-420c0 -90 -60 -150 -155 -150zM275 910h50
l-80 -140h-35zM415 910h50l-80 -140h-35z" />
    <glyph glyph-name="Omacron" unicode="&#x14c;" horiz-adv-x="600" 
d="M235 30h130c70 0 110 40 110 110v420c0 70 -40 110 -110 110h-130c-70 0 -110 -40 -110 -110v-420c0 -70 40 -110 110 -110zM365 -10h-130c-95 0 -155 60 -155 150v420c0 90 60 150 155 150h130c95 0 155 -60 155 -150v-420c0 -90 -60 -150 -155 -150zM183 860h235v-40
h-235v40z" />
    <glyph glyph-name="Oslash" unicode="&#xd8;" horiz-adv-x="600" 
d="M365 -10h-130c-95 0 -155 60 -155 150v420c0 90 60 150 155 150h130c95 0 155 -60 155 -150v-420c0 -90 -60 -150 -155 -150zM125 560v-420c0 -50 25 -80 25 -80l270 600s-20 10 -55 10h-130c-70 0 -112 -40 -110 -110zM475 140v420c0 50 -25 80 -25 80l-270 -600
s20 -10 55 -10h130c70 0 112 40 110 110z" />
    <glyph glyph-name="Otilde" unicode="&#xd5;" horiz-adv-x="600" 
d="M235 30h130c70 0 110 40 110 110v420c0 70 -40 110 -110 110h-130c-70 0 -110 -40 -110 -110v-420c0 -70 40 -110 110 -110zM365 -10h-130c-95 0 -155 60 -155 150v420c0 90 60 150 155 150h130c95 0 155 -60 155 -150v-420c0 -90 -60 -150 -155 -150zM308 810l-40 40
c-10 10 -15 15 -25 15s-15 -5 -15 -15v-65h-35v65c0 30 20 50 50 50c20 0 30 -10 50 -30l40 -40c10 -10 15 -15 25 -15s15 5 15 15v65h35v-65c0 -30 -20 -50 -50 -50c-20 0 -30 10 -50 30z" />
    <glyph glyph-name="OE" unicode="&#x152;" horiz-adv-x="815" 
d="M785 700v-30l-10 -10h-315v-280h245v-40h-245v-300h325v-40h-550c-95 0 -155 60 -155 150v400c0 90 60 150 155 150h550zM125 150c0 -70 40 -110 110 -110h180v620h-180c-70 0 -110 -40 -110 -110v-400z" />
    <glyph glyph-name="Racute" unicode="&#x154;" horiz-adv-x="580" 
d="M145 0h-45v700h250c95 0 155 -60 155 -150v-120c0 -135 -125 -145 -125 -145l140 -265v-20h-45l-140 280h-190v-280zM350 660h-205v-340h205c70 0 110 40 110 110v120c0 70 -40 110 -110 110zM340 910h50l-80 -140h-35z" />
    <glyph glyph-name="Rcaron" unicode="&#x158;" horiz-adv-x="580" 
d="M145 0h-45v700h250c95 0 155 -60 155 -150v-120c0 -135 -125 -145 -125 -145l140 -265v-20h-45l-140 280h-190v-280zM350 660h-205v-340h205c70 0 110 40 110 110v120c0 70 -40 110 -110 110zM385 910h40l-105 -140h-45l-105 140h40l85 -115h5z" />
    <glyph glyph-name="Rcommaaccent" unicode="&#x156;" horiz-adv-x="580" 
d="M145 0h-45v700h250c95 0 155 -60 155 -150v-120c0 -135 -125 -145 -125 -145l140 -265v-20h-45l-140 280h-190v-280zM350 660h-205v-340h205c70 0 110 40 110 110v120c0 70 -40 110 -110 110zM325 -105l-25 -130h-20v170h45v-40z" />
    <glyph glyph-name="Sacute" unicode="&#x15a;" horiz-adv-x="500" 
d="M60 490v60c0 90 60 150 155 150h220v-30l-10 -10h-210c-70 0 -110 -40 -110 -110v-60c0 -50 30 -79 70 -90l170 -45c70 -19 105 -55 105 -130v-75c0 -90 -60 -150 -155 -150h-245v40h245c70 0 110 40 110 110v75c0 50 -30 79 -70 90l-170 45c-70 19 -105 55 -105 130z
M310 910h50l-80 -140h-35z" />
    <glyph glyph-name="Scaron" unicode="&#x160;" horiz-adv-x="500" 
d="M60 490v60c0 90 60 150 155 150h220v-30l-10 -10h-210c-70 0 -110 -40 -110 -110v-60c0 -50 30 -79 70 -90l170 -45c70 -19 105 -55 105 -130v-75c0 -90 -60 -150 -155 -150h-245v40h245c70 0 110 40 110 110v75c0 50 -30 79 -70 90l-170 45c-70 19 -105 55 -105 130z
M350 910h40l-105 -140h-45l-105 140h40l85 -115h5z" />
    <glyph glyph-name="Scommaaccent" unicode="&#x218;" horiz-adv-x="500" 
d="M60 490v60c0 90 60 150 155 150h220v-30l-10 -10h-210c-70 0 -110 -40 -110 -110v-60c0 -50 30 -79 70 -90l170 -45c70 -19 105 -55 105 -130v-75c0 -90 -60 -150 -155 -150h-245v40h245c70 0 110 40 110 110v75c0 50 -30 79 -70 90l-170 45c-70 19 -105 55 -105 130z
M271 -105l-25 -130h-20v170h45v-40z" />
    <glyph glyph-name="Tcaron" unicode="&#x164;" horiz-adv-x="455" 
d="M10 660v40h435v-30l-10 -10h-185v-660h-45v660h-195zM315 910h40l-105 -140h-45l-105 140h40l85 -115h5z" />
    <glyph glyph-name="Tcommaaccent" unicode="&#x162;" horiz-adv-x="455" 
d="M10 660v40h435v-30l-10 -10h-185v-660h-45v660h-195zM250 -105l-25 -130h-20v170h45v-40z" />
    <glyph glyph-name="Uacute" unicode="&#xda;" horiz-adv-x="610" 
d="M100 700h45v-560c0 -70 40 -110 110 -110h100c70 0 110 40 110 110v560h45v-560c0 -90 -60 -150 -155 -150h-100c-95 0 -155 60 -155 150v560zM355 910h50l-80 -140h-35z" />
    <glyph glyph-name="Ucircumflex" unicode="&#xdb;" horiz-adv-x="610" 
d="M100 700h45v-560c0 -70 40 -110 110 -110h100c70 0 110 40 110 110v560h45v-560c0 -90 -60 -150 -155 -150h-100c-95 0 -155 60 -155 150v560zM218 770h-40l105 140h45l105 -140h-40l-85 115h-5z" />
    <glyph glyph-name="Udieresis" unicode="&#xdc;" horiz-adv-x="610" 
d="M100 700h45v-560c0 -70 40 -110 110 -110h100c70 0 110 40 110 110v560h45v-560c0 -90 -60 -150 -155 -150h-100c-95 0 -155 60 -155 150v560zM253 795h-45v90h45v-90zM403 795h-45v90h45v-90z" />
    <glyph glyph-name="Ugrave" unicode="&#xd9;" horiz-adv-x="610" 
d="M100 700h45v-560c0 -70 40 -110 110 -110h100c70 0 110 40 110 110v560h45v-560c0 -90 -60 -150 -155 -150h-100c-95 0 -155 60 -155 150v560zM225 910h50l65 -140h-35z" />
    <glyph glyph-name="Uhungarumlaut" unicode="&#x170;" horiz-adv-x="610" 
d="M100 700h45v-560c0 -70 40 -110 110 -110h100c70 0 110 40 110 110v560h45v-560c0 -90 -60 -150 -155 -150h-100c-95 0 -155 60 -155 150v560zM285 910h50l-80 -140h-35zM425 910h50l-80 -140h-35z" />
    <glyph glyph-name="Umacron" unicode="&#x16a;" horiz-adv-x="610" 
d="M100 700h45v-560c0 -70 40 -110 110 -110h100c70 0 110 40 110 110v560h45v-560c0 -90 -60 -150 -155 -150h-100c-95 0 -155 60 -155 150v560zM188 860h235v-40h-235v40z" />
    <glyph glyph-name="Uring" unicode="&#x16e;" horiz-adv-x="610" 
d="M100 700h45v-560c0 -70 40 -110 110 -110h100c70 0 110 40 110 110v560h45v-560c0 -90 -60 -150 -155 -150h-100c-95 0 -155 60 -155 150v560zM393 830c0 -40 -35 -75 -80 -75h-15c-45 0 -80 35 -80 75v20c0 40 35 75 80 75h15c45 0 80 -35 80 -75v-20zM253 850v-20
c0 -25 20 -45 45 -45h15c25 0 45 20 45 45v20c0 25 -20 45 -45 45h-15c-25 0 -45 -20 -45 -45z" />
    <glyph glyph-name="Yacute" unicode="&#xdd;" horiz-adv-x="485" 
d="M15 700h45l180 -415h5l180 415h45v-20l-205 -455v-225h-45v225l-205 455v20zM305 910h50l-80 -140h-35z" />
    <glyph glyph-name="Ydieresis" unicode="&#x178;" horiz-adv-x="485" 
d="M15 700h45l180 -415h5l180 415h45v-20l-205 -455v-225h-45v225l-205 455v20zM190 795h-45v90h45v-90zM340 795h-45v90h45v-90z" />
    <glyph glyph-name="Zacute" unicode="&#x179;" horiz-adv-x="465" 
d="M75 40h365v-40h-415v40l365 615v5h-345l-10 10v30h405v-40l-365 -615v-5zM285 910h50l-80 -140h-35z" />
    <glyph glyph-name="Zcaron" unicode="&#x17d;" horiz-adv-x="465" 
d="M75 40h365v-40h-415v40l365 615v5h-345l-10 10v30h405v-40l-365 -615v-5zM320 910h40l-105 -140h-45l-105 140h40l85 -115h5z" />
    <glyph glyph-name="Zdotaccent" unicode="&#x17b;" horiz-adv-x="465" 
d="M75 40h365v-40h-415v40l365 615v5h-345l-10 10v30h405v-40l-365 -615v-5zM255 890v-100h-45v100h45z" />
    <glyph glyph-name="exclamdown" unicode="&#xa1;" horiz-adv-x="235" 
d="M130 310l10 -280v-200h-45v200l10 280h25zM95 510h45v-80h-45v80z" />
    <glyph glyph-name="questiondown" unicode="&#xbf;" horiz-adv-x="420" 
d="M245 510h45v-80h-45v80zM245 285v30h45v-30c0 -65 -25 -90 -80 -120l-55 -30c-30 -16 -55 -40 -55 -95v-65c0 -70 40 -110 110 -110h200l10 -10v-30h-210c-95 0 -155 60 -155 150v65c0 70 35 105 80 130l55 30c34 19 55 40 55 85z" />
    <glyph glyph-name="divide" unicode="&#xf7;" horiz-adv-x="430" 
d="M240 70h-50v80h50v-80zM395 305h-360v40h360v-40zM190 580h50v-80h-50v80z" />
    <glyph glyph-name="multiply" unicode="&#xd7;" horiz-adv-x="440" 
d="M190 325l-130 150l30 30l130 -150l130 150l30 -30l-130 -150l130 -150l-30 -30l-130 150l-130 -150l-30 30z" />
    <glyph glyph-name="Thorn" unicode="&#xde;" horiz-adv-x="565" 
d="M145 0h-45v715h45v-120h195c95 0 155 -60 155 -150v-205c0 -90 -60 -150 -155 -150h-195v-90zM340 555h-195v-425h195c70 0 110 40 110 110v205c0 70 -40 110 -110 110z" />
    <glyph glyph-name="yen" unicode="&#xa5;" horiz-adv-x="485" 
d="M15 700h45l180 -415h5l180 415h45v-20l-160 -360h110v-40h-130l-25 -55v-65h155v-40h-155v-120h-45v120h-155v40h155v65l-25 55h-130v40h110l-160 360v20z" />
    <glyph glyph-name="sterling" unicode="&#xa3;" horiz-adv-x="460" 
d="M115 40h325v-40h-420v40h30s90 30 90 115v200h-70v40h70v180c0 80 55 135 140 135h80v-30l-10 -10h-70c-55 0 -95 -40 -95 -95v-180h150v-40h-150v-200c0 -85 -70 -110 -70 -110v-5z" />
    <glyph glyph-name="onequarter" unicode="&#xbc;" horiz-adv-x="656" 
d="M461 700h35v-20l-365 -680h-35v20zM135 700v-340h-40v300h-65v20l80 20h25zM351 70v35l170 235h40v-235h35v-35h-35v-70h-40v70h-170zM396 110v-5h125v170h-5z" />
    <glyph glyph-name="onesuperior" unicode="&#xb9;" horiz-adv-x="185" 
d="M125 700v-340h-40v300h-65v20l80 20h25z" />
    <glyph glyph-name="twosuperior" unicode="&#xb2;" horiz-adv-x="300" 
d="M25 360v35l140 130c32 30 40 40 40 60v40c0 20 -20 40 -45 40h-125v35h125c50 0 85 -35 85 -75v-40c0 -30 -23 -55 -55 -85l-110 -100v-5h170v-35h-225z" />
    <glyph glyph-name="threesuperior" unicode="&#xb3;" horiz-adv-x="300" 
d="M150 360h-125v35h125c35 0 50 15 50 45v40c0 30 -15 45 -50 45h-60v35l95 100v5h-155v35h210v-35l-95 -100v-5h5c55 0 90 -35 90 -80v-40c0 -45 -35 -80 -90 -80z" />
    <glyph glyph-name="onehalf" unicode="&#xbd;" horiz-adv-x="676" 
d="M461 700h35v-20l-365 -680h-35v20zM135 700v-340h-40v300h-65v20l80 20h25zM391 0v35l140 130c32 30 40 40 40 60v40c0 20 -20 40 -45 40h-125v35h125c50 0 85 -35 85 -75v-40c0 -30 -23 -55 -55 -85l-110 -100v-5h170v-35h-225z" />
    <glyph glyph-name="threequarters" unicode="&#xbe;" horiz-adv-x="726" 
d="M531 700h35v-20l-365 -680h-35v20zM165 360h-125v35h125c35 0 50 15 50 45v40c0 30 -15 45 -50 45h-60v35l95 100v5h-155v35h210v-35l-95 -100v-5h5c55 0 90 -35 90 -80v-40c0 -45 -35 -80 -90 -80zM421 70v35l170 235h40v-235h35v-35h-35v-70h-40v70h-170zM466 110v-5
h125v170h-5z" />
    <glyph glyph-name="ordfeminine" unicode="&#xaa;" horiz-adv-x="350" 
d="M280 360h-32l-3 50h-5s-25 -50 -80 -50h-35c-55 0 -85 30 -85 80v35c0 50 30 80 85 80h115v60c0 30 -20 50 -55 50h-115v35h115c60 0 95 -35 95 -85v-255zM125 395h35c55 0 80 60 80 60v65h-115c-35 0 -50 -15 -50 -45v-35c0 -30 15 -45 50 -45z" />
    <glyph glyph-name="afii10055" unicode="&#x406;" horiz-adv-x="245" 
d="M145 0h-45v700h45v-700z" />
    <glyph glyph-name="afii10103" unicode="&#x456;" horiz-adv-x="205" 
d="M125 510v-510h-45v510h45zM125 725v-100h-45v100h45z" />
    <glyph glyph-name="afii10054" unicode="&#x405;" horiz-adv-x="500" 
d="M60 490v60c0 90 60 150 155 150h220v-30l-10 -10h-210c-70 0 -110 -40 -110 -110v-60c0 -50 30 -79 70 -90l170 -45c70 -19 105 -55 105 -130v-75c0 -90 -60 -150 -155 -150h-245v40h245c70 0 110 40 110 110v75c0 50 -30 79 -70 90l-170 45c-70 19 -105 55 -105 130z
" />
    <glyph glyph-name="afii10102" unicode="&#x455;" horiz-adv-x="435" 
d="M55 360v30c0 70 50 120 125 120h195v-30l-10 -10h-185c-50 0 -80 -30 -80 -80v-30c0 -35 20 -54 60 -65l130 -35c70 -19 95 -45 95 -105v-35c0 -70 -50 -120 -125 -120h-210v40h210c50 0 80 30 80 80v35c0 35 -20 54 -60 65l-130 35c-70 19 -95 45 -95 105z" />
    <glyph glyph-name="afii10105" unicode="&#x458;" horiz-adv-x="205" 
d="M125 510v-560c0 -70 -50 -120 -125 -120h-35v40h35c50 0 80 30 80 80v560h45zM125 725v-100h-45v100h45z" />
    <glyph glyph-name="afii10057" unicode="&#x408;" horiz-adv-x="420" 
d="M165 -10h-155v40h155c70 0 110 40 110 110v560h45v-560c0 -90 -60 -150 -155 -150z" />
    <glyph glyph-name="uni00AD" unicode="&#xad;" horiz-adv-x="410" 
d="M40 345h330v-40h-330v40z" />
    <glyph glyph-name="afii10052" unicode="&#x403;" horiz-adv-x="450" 
d="M450 700v-30l-10 -10h-295v-660h-45v700h350zM325 910h50l-80 -140h-35z" />
    <glyph glyph-name="afii10100" unicode="&#x453;" horiz-adv-x="375" 
d="M80 0v510h295v-30l-10 -10h-240v-470h-45zM275 750h50l-80 -150h-35z" />
    <glyph glyph-name="afii10061" unicode="&#x40c;" horiz-adv-x="540" 
d="M145 0h-45v700h45v-320h155l160 320h45v-20l-165 -320l170 -340v-20h-45l-165 340h-155v-340zM345 910h50l-80 -140h-35z" />
    <glyph glyph-name="afii10071" unicode="&#x451;" horiz-adv-x="490" 
d="M295 480h-100c-50 0 -80 -30 -80 -80v-130h260v130c0 50 -30 80 -80 80zM405 0h-210c-75 0 -125 50 -125 120v280c0 70 50 120 125 120h100c75 0 125 -50 125 -120v-170h-305v-110c0 -50 30 -80 80 -80h210v-40zM193 630h-45v90h45v-90zM343 630h-45v90h45v-90z" />
    <glyph glyph-name="afii10109" unicode="&#x45c;" horiz-adv-x="455" 
d="M125 510v-225h130l110 225h45v-20l-115 -225l130 -245v-20h-45l-125 245h-130v-245h-45v510h45zM285 750h50l-80 -150h-35z" />
    <glyph glyph-name="afii10062" unicode="&#x40e;" horiz-adv-x="475" 
d="M20 700h45l175 -485h5l165 485h45v-20l-185 -530c-38 -110 -90 -160 -155 -160h-35v40h35c35 0 75 40 100 120l-195 530v20zM280 795h-80c-50 0 -85 35 -85 85v45h40v-45c0 -35 15 -50 45 -50h80c30 0 45 15 45 50v45h40v-45c0 -50 -35 -85 -85 -85z" />
    <glyph glyph-name="afii10110" unicode="&#x45e;" horiz-adv-x="420" 
d="M400 490l-160 -495c-39 -120 -85 -165 -150 -165h-25v40h25c40 0 90 50 105 125l-175 495v20h45l150 -440h5l135 440h45v-20zM240 600h-55c-50 0 -85 35 -85 85v40h40v-40c0 -35 15 -50 45 -50h55c30 0 45 15 45 50v40h40v-40c0 -50 -35 -85 -85 -85z" />
    <glyph glyph-name="afii10056" unicode="&#x407;" horiz-adv-x="245" 
d="M145 0h-45v700h45v-700zM70 795h-45v90h45v-90zM220 795h-45v90h45v-90z" />
    <glyph glyph-name="afii10023" unicode="&#x401;" horiz-adv-x="505" 
d="M475 700v-30l-10 -10h-320v-280h250v-40h-250v-300h330v-40h-375v700h375zM235 795h-45v90h45v-90zM385 795h-45v90h45v-90z" />
    <glyph glyph-name="afii57929" unicode="&#x2bc;" horiz-adv-x="125" 
d="M85 660l-25 -130h-20v170h45v-40z" />
    <glyph glyph-name="minus" unicode="&#x2212;" horiz-adv-x="430" 
d="M35 345h360v-40h-360v40z" />
    <glyph glyph-name="Ccedilla" unicode="&#xc7;" horiz-adv-x="500" 
d="M310 -230h-80v35h80c25 0 40 15 40 40v25c0 25 -15 40 -40 40h-55v90h-20c-95 0 -155 60 -155 150v400c0 90 60 150 155 150h230v-30l-10 -10h-220c-70 0 -110 -40 -110 -110v-400c0 -70 40 -110 110 -110h230v-40h-170v-55h15c45 0 80 -35 80 -75v-25
c0 -40 -35 -75 -80 -75z" />
    <glyph glyph-name="Dcroat" unicode="&#x110;" horiz-adv-x="590" 
d="M100 0v335h-70v40h70v325h255c95 0 155 -60 155 -150v-400c0 -90 -60 -150 -155 -150h-255zM355 660h-210v-285h160v-40h-160v-295h210c70 0 110 40 110 110v400c0 70 -40 110 -110 110z" />
    <glyph glyph-name="Eth" unicode="&#xd0;" horiz-adv-x="590" 
d="M100 0v335h-70v40h70v325h255c95 0 155 -60 155 -150v-400c0 -90 -60 -150 -155 -150h-255zM355 660h-210v-285h160v-40h-160v-295h210c70 0 110 40 110 110v400c0 70 -40 110 -110 110z" />
    <glyph glyph-name="Gcommaaccent" unicode="&#x122;" horiz-adv-x="565" 
d="M455 660h-220c-70 0 -110 -40 -110 -110v-400c0 -70 40 -110 110 -110h205v335h45v-375h-250c-95 0 -155 60 -155 150v400c0 90 60 150 155 150h230v-30zM325 -105l-25 -130h-20v170h45v-40z" />
    <glyph glyph-name="Iogonek" unicode="&#x12e;" horiz-adv-x="245" 
d="M110 -175h50v-35h-50c-50 0 -80 30 -80 75c0 80 85 135 85 135h-15v700h45v-705s-75 -50 -75 -130c0 -25 15 -40 40 -40z" />
    <glyph glyph-name="Scedilla" unicode="&#x15e;" horiz-adv-x="500" 
d="M265 -230h-80v35h80c25 0 40 15 40 40v25c0 25 -15 40 -40 40h-55v90h-160v40h245c70 0 110 40 110 110v75c0 50 -30 79 -70 90l-170 45c-70 19 -105 55 -105 130v60c0 90 60 150 155 150h220v-30l-10 -10h-210c-70 0 -110 -40 -110 -110v-60c0 -50 30 -79 70 -90
l170 -45c70 -19 105 -55 105 -130v-75c0 -90 -60 -150 -155 -150h-45v-55h15c45 0 80 -35 80 -75v-25c0 -40 -35 -75 -80 -75z" />
    <glyph glyph-name="uni20BD" unicode="&#x20bd;" horiz-adv-x="565" 
d="M155 0h-45v150h-80v40h80v110h-80v40h80v360h240c95 0 155 -60 155 -150v-100c0 -90 -60 -150 -155 -150h-195v-110h270v-40h-270v-150zM350 660h-195v-320h195c70 0 110 40 110 110v100c0 70 -40 110 -110 110z" />
    <glyph glyph-name="B" unicode="B" horiz-adv-x="570" 
d="M485 550v-55c0 -100 -75 -120 -75 -120v-5s105 -10 105 -135v-85c0 -90 -60 -150 -155 -150h-260v700h230c95 0 155 -60 155 -150zM145 40h215c70 0 110 40 110 110v85c0 70 -40 110 -110 110h-215v-305zM330 660h-185v-275h185c70 0 110 40 110 110v55
c0 70 -40 110 -110 110z" />
    <glyph glyph-name="foundryicon" horiz-adv-x="1230" 
d="M100 -110v920h1030v-920h-1030zM1110 -90v880h-990v-880h990zM635 610h110c50 0 80 -30 80 -65s-30 -65 -80 -65h-55v-80h-55v210zM635 300h110c50 0 80 -30 80 -65s-30 -65 -80 -65h-55v-80h-55v210zM495 170l-75 130h60l40 -75h5l40 75h65l-80 -130v-80h-55v80z
M495 480l-75 130h60l40 -75h5l40 75h65l-80 -130v-80h-55v80zM300 255h-65v45h165l25 -45h-70v-165h-55v165zM300 565h-65v45h165l25 -45h-70v-165h-55v165zM790 400v65c25 5 55 30 60 60h80v-45h-85v-35h120v-45h-175zM790 90v65c25 5 55 30 60 60h80v-45h-85v-35h120v-45
h-175zM810 300h155v-45h-115c-5 20 -20 40 -40 45zM810 610h155v-45h-115c-5 20 -20 40 -40 45zM765 545c0 10 -10 20 -20 20h-55v-40h55c10 0 20 9 20 20zM765 235c0 10 -10 20 -20 20h-55v-40h55c10 0 20 9 20 20z" />
    <glyph glyph-name="Germandbls" horiz-adv-x="595" 
d="M330 395h50c95 0 155 -60 155 -150v-95c0 -90 -60 -150 -155 -150h-115v40h115c70 0 110 40 110 110v95c0 70 -40 110 -110 110h-100v40l165 260v5h-190c-70 0 -110 -40 -110 -110v-550h-45v550c0 90 60 150 155 150h240v-40l-165 -260v-5z" />
    <glyph glyph-name="uni1E9E" unicode="&#x1e9e;" horiz-adv-x="595" 
d="M330 395h50c95 0 155 -60 155 -150v-95c0 -90 -60 -150 -155 -150h-115v40h115c70 0 110 40 110 110v95c0 70 -40 110 -110 110h-100v40l165 260v5h-190c-70 0 -110 -40 -110 -110v-550h-45v550c0 90 60 150 155 150h240v-40l-165 -260v-5z" />
    <glyph glyph-name="cyrbreve" unicode="&#xf6d4;" horiz-adv-x="305" 
d="M180 600h-55c-50 0 -85 35 -85 85v40h40v-40c0 -35 15 -50 45 -50h55c30 0 45 15 45 50v40h40v-40c0 -50 -35 -85 -85 -85z" />
    <glyph glyph-name="cyrBreve" unicode="&#xf6d1;" horiz-adv-x="330" 
d="M205 795h-80c-50 0 -85 35 -85 85v45h40v-45c0 -35 15 -50 45 -50h80c30 0 45 15 45 50v45h40v-45c0 -50 -35 -85 -85 -85z" />
    <glyph glyph-name="uni20B4" unicode="&#x20b4;" horiz-adv-x="535" 
d="M495 405h-455v40h350s15 15 15 45v60c0 70 -40 110 -110 110h-180l-10 10v30h190c95 0 155 -60 155 -150v-60c0 -30 -10 -45 -10 -45h55v-40zM40 295h455v-40h-350s-15 -15 -15 -45v-60c0 -70 40 -110 110 -110h210v-40h-210c-95 0 -155 60 -155 150v60c0 30 10 45 10 45
h-55v40z" />
    <glyph glyph-name="fraction" unicode="&#x2044;" horiz-adv-x="440" 
d="M385 700h35v-20l-365 -680h-35v20z" />
    <glyph glyph-name="ordmasculine" unicode="&#xba;" horiz-adv-x="350" 
d="M195 360h-40c-65 0 -105 40 -105 100v140c0 60 40 100 105 100h40c65 0 105 -40 105 -100v-140c0 -60 -40 -100 -105 -100zM155 395h40c40 0 65 25 65 65v140c0 40 -25 65 -65 65h-40c-40 0 -65 -25 -65 -65v-140c0 -40 25 -65 65 -65z" />
    <glyph glyph-name="foursuperior" unicode="&#x2074;" horiz-adv-x="305" 
d="M20 430v35l170 235h40v-235h35v-35h-35v-70h-40v70h-170zM65 470v-5h125v170h-5z" />
    <glyph glyph-name="C" unicode="C" horiz-adv-x="500" 
d="M455 660h-220c-70 0 -110 -40 -110 -110v-400c0 -70 40 -110 110 -110h230v-40h-230c-95 0 -155 60 -155 150v400c0 90 60 150 155 150h230v-30z" />
    <glyph glyph-name="g" unicode="g" horiz-adv-x="465" 
d="M110 400v-65c0 -50 30 -80 80 -80h90c50 0 80 30 80 80v65c0 50 -30 80 -80 80h-90c-50 0 -80 -30 -80 -80zM80 5v-55c0 -50 30 -80 80 -80h145c50 0 80 30 80 80v55c0 50 -30 80 -80 80h-145c-50 0 -80 -30 -80 -80zM330 515v-5s75 -20 75 -110v-65
c0 -70 -50 -120 -125 -120h-130c-15 0 -30 -15 -30 -30v-30c0 -15 15 -30 30 -30h155c75 0 125 -50 125 -120v-55c0 -70 -50 -120 -125 -120h-145c-75 0 -125 50 -125 120v55c0 85 68 100 68 100v5s-23 5 -23 45v30c0 45 35 50 35 50v5s-50 15 -50 95v65
c0 70 50 120 125 120h95l60 90h40v-20z" />
    <glyph glyph-name="Eogonek" unicode="&#x118;" horiz-adv-x="505" 
d="M440 -175h50v-35h-50c-50 0 -80 30 -80 75c0 80 85 135 85 135h-345v700h375v-30l-10 -10h-320v-280h250v-40h-250v-300h330v-45s-75 -50 -75 -130c0 -25 15 -40 40 -40z" />
    <glyph glyph-name="Uogonek" unicode="&#x172;" horiz-adv-x="610" 
d="M310 -175h50v-35h-50c-50 0 -80 30 -80 75c0 70 70 125 70 125h-45c-95 0 -155 60 -155 150v560h45v-560c0 -70 40 -110 110 -110h100c70 0 110 40 110 110v560h45v-560c0 -90 -60 -150 -155 -150h-15s-70 -45 -70 -125c0 -25 15 -40 40 -40z" />
    <glyph glyph-name="Aring" unicode="&#xc5;" 
d="M125 195l-60 -195h-45v20l210 680h55l210 -680v-20h-45l-60 195h-265zM255 615l-120 -380h245l-120 380h-5zM345 830c0 -40 -35 -75 -80 -75h-15c-45 0 -80 35 -80 75v20c0 40 35 75 80 75h15c45 0 80 -35 80 -75v-20zM205 850v-20c0 -25 20 -45 45 -45h15
c25 0 45 20 45 45v20c0 25 -20 45 -45 45h-15c-25 0 -45 -20 -45 -45z" />
    <glyph glyph-name="D" unicode="D" horiz-adv-x="590" 
d="M100 0v700h255c95 0 155 -60 155 -150v-400c0 -90 -60 -150 -155 -150h-255zM355 660h-210v-620h210c70 0 110 40 110 110v400c0 70 -40 110 -110 110z" />
    <glyph glyph-name="afii10065" unicode="&#x430;" horiz-adv-x="480" 
d="M95 110c0 -50 30 -80 80 -80h75c80 0 105 100 105 100v125h-180c-50 0 -80 -30 -80 -80v-65zM400 0h-30l-10 65h-5s-25 -75 -105 -75h-75c-75 0 -125 50 -125 120v65c0 70 50 120 125 120h180v95c0 50 -30 80 -80 80h-185v40h185c75 0 125 -50 125 -120v-390z" />
    <glyph glyph-name="afii10066" unicode="&#x431;" horiz-adv-x="505" 
d="M310 400h-185v-290c0 -50 30 -80 80 -80h105c50 0 80 30 80 80v210c0 50 -30 80 -80 80zM435 320v-210c0 -70 -50 -120 -125 -120h-105c-75 0 -125 50 -125 120v405c0 85 55 141 125 155l220 45l5 -40l-215 -45c-50 -10 -90 -50 -90 -115v-75h185c75 0 125 -50 125 -120z
" />
    <glyph glyph-name="afii10067" unicode="&#x432;" horiz-adv-x="475" 
d="M300 240h-175v-200h175c50 0 80 30 80 80v40c0 50 -30 80 -80 80zM280 470h-155v-190h155c50 0 80 30 80 80v30c0 50 -30 80 -80 80zM425 160v-40c0 -70 -50 -120 -125 -120h-220v510h200c75 0 125 -50 125 -120v-30c0 -85 -70 -95 -70 -95v-5s90 -10 90 -100z" />
    <glyph glyph-name="afii10068" unicode="&#x433;" horiz-adv-x="375" 
d="M80 0v510h295v-30l-10 -10h-240v-470h-45z" />
    <glyph glyph-name="afii10069" unicode="&#x434;" horiz-adv-x="485" 
d="M0 40h20s64 20 70 95l30 375h275v-470h60v-170h-35l-10 130h-365l-10 -130h-35v170zM160 470l-25 -335c-6 -75 -60 -90 -60 -90v-5h275v430h-190z" />
    <glyph glyph-name="afii10070" unicode="&#x435;" horiz-adv-x="490" 
d="M295 480h-100c-50 0 -80 -30 -80 -80v-130h260v130c0 50 -30 80 -80 80zM405 0h-210c-75 0 -125 50 -125 120v280c0 70 50 120 125 120h100c75 0 125 -50 125 -120v-170h-305v-110c0 -50 30 -80 80 -80h210v-40z" />
    <glyph glyph-name="afii10072" unicode="&#x436;" horiz-adv-x="675" 
d="M360 510v-225h115l110 225h45v-20l-115 -225l130 -245v-20h-45l-125 245h-115v-245h-45v245h-115l-125 -245h-45v20l130 245l-115 225v20h45l110 -225h115v225h45z" />
    <glyph glyph-name="afii10073" unicode="&#x437;" horiz-adv-x="405" 
d="M345 160v-40c0 -70 -50 -120 -125 -120h-200v40h200c50 0 80 30 80 80v40c0 50 -30 80 -80 80h-105v40h100c50 0 80 30 80 80v30c0 50 -30 80 -80 80h-175l-10 10v30h185c75 0 125 -50 125 -120v-30c0 -85 -65 -95 -65 -95v-5s70 -10 70 -100z" />
    <glyph glyph-name="afii10074" unicode="&#x438;" horiz-adv-x="505" 
d="M80 0v510h45v-310l-5 -120h5l255 430h45v-510h-45v310l5 120h-5l-255 -430h-45z" />
    <glyph glyph-name="afii10075" unicode="&#x439;" horiz-adv-x="505" 
d="M80 0v510h45v-310l-5 -120h5l255 430h45v-510h-45v310l5 120h-5l-255 -430h-45zM280 600h-55c-50 0 -85 35 -85 85v40h40v-40c0 -35 15 -50 45 -50h55c30 0 45 15 45 50v40h40v-40c0 -50 -35 -85 -85 -85z" />
    <glyph glyph-name="afii10076" unicode="&#x43a;" horiz-adv-x="455" 
d="M125 510v-225h130l110 225h45v-20l-115 -225l130 -245v-20h-45l-125 245h-130v-245h-45v510h45z" />
    <glyph glyph-name="afii10077" unicode="&#x43b;" horiz-adv-x="495" 
d="M140 510h275v-510h-45v470h-190l-30 -350c-7 -85 -50 -130 -125 -130h-25v40h25c45 0 75 30 80 90z" />
    <glyph glyph-name="afii10078" unicode="&#x43c;" horiz-adv-x="625" 
d="M330 70h-35l-135 350h-5l-55 -420h-45v20l65 490h50l140 -365h5l140 365h50l65 -490v-20h-45l-55 420h-5z" />
    <glyph glyph-name="afii10079" unicode="&#x43d;" horiz-adv-x="510" 
d="M125 510v-235h260v235h45v-510h-45v235h-260v-235h-45v510h45z" />
    <glyph glyph-name="afii10080" unicode="&#x43e;" horiz-adv-x="500" 
d="M195 520h110c75 0 125 -50 125 -120v-290c0 -70 -50 -120 -125 -120h-110c-75 0 -125 50 -125 120v290c0 70 50 120 125 120zM305 480h-110c-50 0 -80 -30 -80 -80v-290c0 -50 30 -80 80 -80h110c50 0 80 30 80 80v290c0 50 -30 80 -80 80z" />
    <glyph glyph-name="afii10081" unicode="&#x43f;" horiz-adv-x="510" 
d="M80 510h350v-510h-45v470h-260v-470h-45v510z" />
    <glyph glyph-name="afii10082" unicode="&#x440;" horiz-adv-x="505" 
d="M125 380v-340h185c50 0 80 30 80 80v280c0 50 -30 80 -80 80h-80c-80 0 -105 -100 -105 -100zM230 520h80c75 0 125 -50 125 -120v-280c0 -70 -50 -120 -125 -120h-185v-170h-45v680h30l10 -65h5s25 75 105 75z" />
    <glyph glyph-name="afii10083" unicode="&#x441;" horiz-adv-x="415" 
d="M115 390v-270c0 -50 30 -80 80 -80h195v-40h-195c-75 0 -125 50 -125 120v270c0 70 50 120 125 120h195v-30l-10 -10h-185c-50 0 -80 -30 -80 -80z" />
    <glyph glyph-name="afii10084" unicode="&#x442;" horiz-adv-x="375" 
d="M10 470v40h355v-30l-10 -10h-145v-470h-45v470h-155z" />
    <glyph glyph-name="afii10085" unicode="&#x443;" horiz-adv-x="420" 
d="M400 490l-160 -495c-39 -120 -85 -165 -150 -165h-25v40h25c40 0 90 50 105 125l-175 495v20h45l150 -440h5l135 440h45v-20z" />
    <glyph glyph-name="afii10086" unicode="&#x444;" horiz-adv-x="665" 
d="M355 -170h-45v170h-115c-75 0 -125 50 -125 120v270c0 70 50 120 125 120h115v190h45v-190h115c75 0 125 -50 125 -120v-270c0 -70 -50 -120 -125 -120h-115v-170zM550 120v270c0 50 -30 80 -80 80h-115v-430h115c50 0 80 30 80 80zM115 390v-270c0 -50 30 -80 80 -80
h115v430h-115c-50 0 -80 -30 -80 -80z" />
    <glyph glyph-name="afii10087" unicode="&#x445;" horiz-adv-x="415" 
d="M210 230h-5l-135 -230h-45v19l150 246l-135 225v20h40l125 -210h5l125 210h40v-20l-135 -225l150 -246v-19h-45z" />
    <glyph glyph-name="afii10088" unicode="&#x446;" horiz-adv-x="510" 
d="M435 0h-355v510h45v-470h250v470h45v-470h60v-170h-35z" />
    <glyph glyph-name="afii10089" unicode="&#x447;" horiz-adv-x="470" 
d="M60 310v200h45v-200c0 -50 30 -80 80 -80h160v280h45v-510h-45v190h-160c-75 0 -125 50 -125 120z" />
    <glyph glyph-name="afii10090" unicode="&#x448;" horiz-adv-x="715" 
d="M635 0h-555v510h45v-470h210v470h45v-470h210v470h45v-510z" />
    <glyph glyph-name="afii10091" unicode="&#x449;" horiz-adv-x="725" 
d="M80 0v510h45v-470h210v470h45v-470h210v470h45v-470h60v-170h-35l-10 130h-570z" />
    <glyph glyph-name="afii10092" unicode="&#x44a;" horiz-adv-x="485" 
d="M160 325h150c75 0 125 -50 125 -120v-85c0 -70 -50 -120 -125 -120h-195v470h-115v40h160v-185zM310 285h-150v-245h150c50 0 80 30 80 80v85c0 50 -30 80 -80 80z" />
    <glyph glyph-name="afii10093" unicode="&#x44b;" horiz-adv-x="625" 
d="M545 0h-45v510h45v-510zM125 325h150c75 0 125 -50 125 -120v-85c0 -70 -50 -120 -125 -120h-195v510h45v-185zM275 285h-150v-245h150c50 0 80 30 80 80v85c0 50 -30 80 -80 80z" />
    <glyph glyph-name="afii10094" unicode="&#x44c;" horiz-adv-x="460" 
d="M125 325h160c75 0 125 -50 125 -120v-85c0 -70 -50 -120 -125 -120h-205v510h45v-185zM285 285h-160v-245h160c50 0 80 30 80 80v85c0 50 -30 80 -80 80z" />
    <glyph glyph-name="afii10095" unicode="&#x44d;" horiz-adv-x="415" 
d="M300 120v120h-180v40h180v110c0 50 -30 80 -80 80h-185l-10 10v30h195c75 0 125 -50 125 -120v-270c0 -70 -50 -120 -125 -120h-195v40h195c50 0 80 30 80 80z" />
    <glyph glyph-name="afii10096" unicode="&#x44e;" horiz-adv-x="660" 
d="M375 520h90c75 0 125 -50 125 -120v-290c0 -70 -50 -120 -125 -120h-90c-75 0 -125 50 -125 120v125h-125v-235h-45v510h45v-235h125v125c0 70 50 120 125 120zM465 480h-90c-50 0 -80 -30 -80 -80v-290c0 -50 30 -80 80 -80h90c50 0 80 30 80 80v290c0 50 -30 80 -80 80
z" />
    <glyph glyph-name="afii10097" unicode="&#x44f;" horiz-adv-x="470" 
d="M345 195h-155l-95 -195h-45v20l95 180s-85 20 -85 115v75c0 70 50 120 125 120h205v-510h-45v195zM185 235h160v235h-160c-50 0 -80 -30 -80 -80v-75c0 -50 30 -80 80 -80z" />
    <glyph glyph-name="agrave" unicode="&#xe0;" horiz-adv-x="480" 
d="M95 110c0 -50 30 -80 80 -80h75c80 0 105 100 105 100v125h-180c-50 0 -80 -30 -80 -80v-65zM400 0h-30l-10 65h-5s-25 -75 -105 -75h-75c-75 0 -125 50 -125 120v65c0 70 50 120 125 120h180v95c0 50 -30 80 -80 80h-185v40h185c75 0 125 -50 125 -120v-390zM150 750h50
l65 -150h-35z" />
    <glyph glyph-name="aacute" unicode="&#xe1;" horiz-adv-x="480" 
d="M95 110c0 -50 30 -80 80 -80h75c80 0 105 100 105 100v125h-180c-50 0 -80 -30 -80 -80v-65zM400 0h-30l-10 65h-5s-25 -75 -105 -75h-75c-75 0 -125 50 -125 120v65c0 70 50 120 125 120h180v95c0 50 -30 80 -80 80h-185v40h185c75 0 125 -50 125 -120v-390zM285 750h50
l-80 -150h-35z" />
    <glyph glyph-name="abreve" unicode="&#x103;" horiz-adv-x="480" 
d="M95 110c0 -50 30 -80 80 -80h75c80 0 105 100 105 100v125h-180c-50 0 -80 -30 -80 -80v-65zM400 0h-30l-10 65h-5s-25 -75 -105 -75h-75c-75 0 -125 50 -125 120v65c0 70 50 120 125 120h180v95c0 50 -30 80 -80 80h-185v40h185c75 0 125 -50 125 -120v-390zM275 615
h-65c-50 0 -85 35 -85 85v35h40v-35c0 -35 15 -50 45 -50h65c30 0 45 15 45 50v35h40v-35c0 -50 -35 -85 -85 -85z" />
    <glyph glyph-name="acircumflex" unicode="&#xe2;" horiz-adv-x="480" 
d="M95 110c0 -50 30 -80 80 -80h75c80 0 105 100 105 100v125h-180c-50 0 -80 -30 -80 -80v-65zM400 0h-30l-10 65h-5s-25 -75 -105 -75h-75c-75 0 -125 50 -125 120v65c0 70 50 120 125 120h180v95c0 50 -30 80 -80 80h-185v40h185c75 0 125 -50 125 -120v-390zM150 600
h-40l105 150h45l105 -150h-40l-85 120h-5z" />
    <glyph glyph-name="adieresis" unicode="&#xe4;" horiz-adv-x="480" 
d="M95 110c0 -50 30 -80 80 -80h75c80 0 105 100 105 100v125h-180c-50 0 -80 -30 -80 -80v-65zM400 0h-30l-10 65h-5s-25 -75 -105 -75h-75c-75 0 -125 50 -125 120v65c0 70 50 120 125 120h180v95c0 50 -30 80 -80 80h-185v40h185c75 0 125 -50 125 -120v-390zM190 630
h-45v90h45v-90zM340 630h-45v90h45v-90z" />
    <glyph glyph-name="amacron" unicode="&#x101;" horiz-adv-x="480" 
d="M95 110c0 -50 30 -80 80 -80h75c80 0 105 100 105 100v125h-180c-50 0 -80 -30 -80 -80v-65zM400 0h-30l-10 65h-5s-25 -75 -105 -75h-75c-75 0 -125 50 -125 120v65c0 70 50 120 125 120h180v95c0 50 -30 80 -80 80h-185v40h185c75 0 125 -50 125 -120v-390zM125 700
h235v-40h-235v40z" />
    <glyph glyph-name="aogonek" unicode="&#x105;" horiz-adv-x="480" 
d="M365 -175h50v-35h-50c-50 0 -80 30 -80 75c0 80 85 135 85 135l-10 65h-5s-25 -75 -105 -75h-75c-75 0 -125 50 -125 120v65c0 70 50 120 125 120h180v95c0 50 -30 80 -80 80h-185v40h185c75 0 125 -50 125 -120v-395s-75 -50 -75 -130c0 -25 15 -40 40 -40zM95 110
c0 -50 30 -80 80 -80h75c80 0 105 100 105 100v125h-180c-50 0 -80 -30 -80 -80v-65z" />
    <glyph glyph-name="aring" unicode="&#xe5;" horiz-adv-x="480" 
d="M95 110c0 -50 30 -80 80 -80h75c80 0 105 100 105 100v125h-180c-50 0 -80 -30 -80 -80v-65zM400 0h-30l-10 65h-5s-25 -75 -105 -75h-75c-75 0 -125 50 -125 120v65c0 70 50 120 125 120h180v95c0 50 -30 80 -80 80h-185v40h185c75 0 125 -50 125 -120v-390zM325 660
c0 -40 -35 -75 -80 -75h-15c-45 0 -80 35 -80 75v30c0 40 35 75 80 75h15c45 0 80 -35 80 -75v-30zM185 690v-30c0 -25 20 -45 45 -45h15c25 0 45 20 45 45v30c0 25 -20 45 -45 45h-15c-25 0 -45 -20 -45 -45z" />
    <glyph glyph-name="atilde" unicode="&#xe3;" horiz-adv-x="480" 
d="M95 110c0 -50 30 -80 80 -80h75c80 0 105 100 105 100v125h-180c-50 0 -80 -30 -80 -80v-65zM400 0h-30l-10 65h-5s-25 -75 -105 -75h-75c-75 0 -125 50 -125 120v65c0 70 50 120 125 120h180v95c0 50 -30 80 -80 80h-185v40h185c75 0 125 -50 125 -120v-390zM250 640
l-40 50c-8 10 -15 15 -25 15s-15 -5 -15 -15v-75h-35v75c0 30 20 50 50 50c25 0 34 -10 50 -30l40 -50c8 -10 15 -15 25 -15s15 5 15 15v75h35v-75c0 -30 -20 -50 -50 -50c-25 0 -34 10 -50 30z" />
    <glyph glyph-name="ae" unicode="&#xe6;" horiz-adv-x="775" 
d="M95 110c0 -50 30 -80 80 -80h75c80 0 105 100 105 100v115h-180c-50 0 -80 -30 -80 -80v-55zM580 480h-100c-50 0 -80 -30 -80 -80v-115h260v115c0 50 -30 80 -80 80zM690 0h-210c-85 0 -105 65 -105 65h-5s-30 -75 -120 -75h-75c-75 0 -125 50 -125 120v55
c0 70 50 120 125 120h180v105c0 50 -30 80 -80 80h-185v40h185c80 0 100 -50 100 -50h5s20 60 100 60h100c75 0 125 -50 125 -120v-155h-305v-125c0 -50 30 -80 80 -80h210v-40z" />
    <glyph glyph-name="cacute" unicode="&#x107;" horiz-adv-x="415" 
d="M115 390v-270c0 -50 30 -80 80 -80h195v-40h-195c-75 0 -125 50 -125 120v270c0 70 50 120 125 120h195v-30l-10 -10h-185c-50 0 -80 -30 -80 -80zM300 750h50l-80 -150h-35z" />
    <glyph glyph-name="ccaron" unicode="&#x10d;" horiz-adv-x="415" 
d="M115 390v-270c0 -50 30 -80 80 -80h195v-40h-195c-75 0 -125 50 -125 120v270c0 70 50 120 125 120h195v-30l-10 -10h-185c-50 0 -80 -30 -80 -80zM340 750h40l-105 -150h-45l-105 150h40l85 -120h5z" />
    <glyph glyph-name="ccedilla" unicode="&#xe7;" horiz-adv-x="415" 
d="M260 -230h-80v35h80c25 0 40 15 40 40v25c0 25 -15 40 -40 40h-55v90h-10c-75 0 -125 50 -125 120v270c0 70 50 120 125 120h195v-30l-10 -10h-185c-50 0 -80 -30 -80 -80v-270c0 -50 30 -80 80 -80h195v-40h-145v-55h15c45 0 80 -35 80 -75v-25c0 -40 -35 -75 -80 -75z
" />
    <glyph glyph-name="ccircumflex" unicode="&#x109;" horiz-adv-x="415" 
d="M115 390v-270c0 -50 30 -80 80 -80h195v-40h-195c-75 0 -125 50 -125 120v270c0 70 50 120 125 120h195v-30l-10 -10h-185c-50 0 -80 -30 -80 -80zM165 600h-40l105 150h45l105 -150h-40l-85 120h-5z" />
    <glyph glyph-name="dcaron" unicode="&#x10f;" 
d="M380 130v340h-185c-50 0 -80 -30 -80 -80v-280c0 -50 30 -80 80 -80h80c80 0 105 100 105 100zM275 -10h-80c-75 0 -125 50 -125 120v280c0 70 50 120 125 120h185v190h45v-700h-30l-10 65h-5s-25 -75 -105 -75zM555 660l-25 -130h-20v170h45v-40z" />
    <glyph glyph-name="dcroat" unicode="&#x111;" horiz-adv-x="500" 
d="M265 -10h-80c-75 0 -125 50 -125 120v205c0 70 50 120 125 120h185v110h-165v40h165v115h45v-115h75v-40h-75v-545h-30l-10 65h-5s-25 -75 -105 -75zM370 130v265h-185c-50 0 -80 -30 -80 -80v-205c0 -50 30 -80 80 -80h80c80 0 105 100 105 100z" />
    <glyph glyph-name="eth" unicode="&#xf0;" horiz-adv-x="505" 
d="M160 570l20 82l-85 18l10 40l85 -18l20 83l35 -10l-20 -80l75 -15c70 -14 125 -70 125 -155v-405c0 -70 -50 -120 -125 -120h-105c-75 0 -125 50 -125 120v215c0 70 50 120 125 120h185v70c0 65 -40 105 -90 115l-75 15l-20 -80zM380 405h-185c-50 0 -80 -30 -80 -80
v-215c0 -50 30 -80 80 -80h105c50 0 80 30 80 80v295z" />
    <glyph glyph-name="egrave" unicode="&#xe8;" horiz-adv-x="490" 
d="M295 480h-100c-50 0 -80 -30 -80 -80v-130h260v130c0 50 -30 80 -80 80zM405 0h-210c-75 0 -125 50 -125 120v280c0 70 50 120 125 120h100c75 0 125 -50 125 -120v-170h-305v-110c0 -50 30 -80 80 -80h210v-40zM160 750h50l65 -150h-35z" />
    <glyph glyph-name="eacute" unicode="&#xe9;" horiz-adv-x="490" 
d="M295 480h-100c-50 0 -80 -30 -80 -80v-130h260v130c0 50 -30 80 -80 80zM405 0h-210c-75 0 -125 50 -125 120v280c0 70 50 120 125 120h100c75 0 125 -50 125 -120v-170h-305v-110c0 -50 30 -80 80 -80h210v-40zM290 750h50l-80 -150h-35z" />
    <glyph glyph-name="ecaron" unicode="&#x11b;" horiz-adv-x="490" 
d="M295 480h-100c-50 0 -80 -30 -80 -80v-130h260v130c0 50 -30 80 -80 80zM405 0h-210c-75 0 -125 50 -125 120v280c0 70 50 120 125 120h100c75 0 125 -50 125 -120v-170h-305v-110c0 -50 30 -80 80 -80h210v-40zM333 750h40l-105 -150h-45l-105 150h40l85 -120h5z" />
    <glyph glyph-name="ecircumflex" unicode="&#xea;" horiz-adv-x="490" 
d="M295 480h-100c-50 0 -80 -30 -80 -80v-130h260v130c0 50 -30 80 -80 80zM405 0h-210c-75 0 -125 50 -125 120v280c0 70 50 120 125 120h100c75 0 125 -50 125 -120v-170h-305v-110c0 -50 30 -80 80 -80h210v-40zM158 600h-40l105 150h45l105 -150h-40l-85 120h-5z" />
    <glyph glyph-name="edieresis" unicode="&#xeb;" horiz-adv-x="490" 
d="M295 480h-100c-50 0 -80 -30 -80 -80v-130h260v130c0 50 -30 80 -80 80zM405 0h-210c-75 0 -125 50 -125 120v280c0 70 50 120 125 120h100c75 0 125 -50 125 -120v-170h-305v-110c0 -50 30 -80 80 -80h210v-40zM193 630h-45v90h45v-90zM343 630h-45v90h45v-90z" />
    <glyph glyph-name="edotaccent" unicode="&#x117;" horiz-adv-x="490" 
d="M295 480h-100c-50 0 -80 -30 -80 -80v-130h260v130c0 50 -30 80 -80 80zM405 0h-210c-75 0 -125 50 -125 120v280c0 70 50 120 125 120h100c75 0 125 -50 125 -120v-170h-305v-110c0 -50 30 -80 80 -80h210v-40zM268 725v-100h-45v100h45z" />
    <glyph glyph-name="emacron" unicode="&#x113;" horiz-adv-x="490" 
d="M295 480h-100c-50 0 -80 -30 -80 -80v-130h260v130c0 50 -30 80 -80 80zM405 0h-210c-75 0 -125 50 -125 120v280c0 70 50 120 125 120h100c75 0 125 -50 125 -120v-170h-305v-110c0 -50 30 -80 80 -80h210v-40zM128 700h235v-40h-235v40z" />
    <glyph glyph-name="eogonek" unicode="&#x119;" horiz-adv-x="490" 
d="M370 -175h50v-35h-50c-50 0 -80 30 -80 75c0 80 85 135 85 135h-180c-75 0 -125 50 -125 120v280c0 70 50 120 125 120h100c75 0 125 -50 125 -120v-170h-305v-110c0 -50 30 -80 80 -80h210v-45s-75 -50 -75 -130c0 -25 15 -40 40 -40zM295 480h-100
c-50 0 -80 -30 -80 -80v-130h260v130c0 50 -30 80 -80 80z" />
    <glyph glyph-name="gbreve" unicode="&#x11f;" horiz-adv-x="505" 
d="M195 520h80c80 0 105 -75 105 -75h5l10 65h30v-570c0 -70 -50 -120 -125 -120h-200v40h200c50 0 80 30 80 80v80h-185c-75 0 -125 50 -125 120v260c0 70 50 120 125 120zM380 60v320s-25 100 -105 100h-80c-50 0 -80 -30 -80 -80v-260c0 -50 30 -80 80 -80h185zM285 615
h-65c-50 0 -85 35 -85 85v35h40v-35c0 -35 15 -50 45 -50h65c30 0 45 15 45 50v35h40v-35c0 -50 -35 -85 -85 -85z" />
    <glyph glyph-name="gcommaaccent" unicode="&#x123;" horiz-adv-x="505" 
d="M195 520h80c80 0 105 -75 105 -75h5l10 65h30v-570c0 -70 -50 -120 -125 -120h-200v40h200c50 0 80 30 80 80v80h-185c-75 0 -125 50 -125 120v260c0 70 50 120 125 120zM380 60v320s-25 100 -105 100h-80c-50 0 -80 -30 -80 -80v-260c0 -50 30 -80 80 -80h185zM230 640
l25 130h20v-170h-45v40z" />
    <glyph glyph-name="kcommaaccent" unicode="&#x137;" horiz-adv-x="455" 
d="M125 700v-415h130l110 225h45v-20l-115 -225l130 -245v-20h-45l-125 245h-130v-245h-45v700h45zM275 -105l-25 -130h-20v170h45v-40z" />
    <glyph glyph-name="lacute" unicode="&#x13a;" horiz-adv-x="235" 
d="M125 700v-580c0 -50 30 -80 80 -80h10v-40h-10c-75 0 -125 50 -125 120v580h45zM150 910h50l-80 -140h-35z" />
    <glyph glyph-name="lcaron" unicode="&#x13e;" horiz-adv-x="235" 
d="M125 700v-580c0 -50 30 -80 80 -80h10v-40h-10c-75 0 -125 50 -125 120v580h45zM255 660l-25 -130h-20v170h45v-40z" />
    <glyph glyph-name="lcommaaccent" unicode="&#x13c;" horiz-adv-x="235" 
d="M125 700v-580c0 -50 30 -80 80 -80h10v-40h-10c-75 0 -125 50 -125 120v580h45zM170 -105l-25 -130h-20v170h45v-40z" />
    <glyph glyph-name="lslash" unicode="&#x142;" horiz-adv-x="250" 
d="M125 700v-300l105 55v-45l-105 -55v-235c0 -50 30 -80 80 -80h10v-40h-10c-75 0 -125 50 -125 120v210l-60 -30v45l60 30v325h45z" />
    <glyph glyph-name="igrave" unicode="&#xec;" horiz-adv-x="205" 
d="M125 510v-510h-45v510h45zM0 750h50l65 -150h-35z" />
    <glyph glyph-name="iacute" unicode="&#xed;" horiz-adv-x="205" 
d="M125 510v-510h-45v510h45zM150 750h50l-80 -150h-35z" />
    <glyph glyph-name="icircumflex" unicode="&#xee;" horiz-adv-x="205" 
d="M125 510v-510h-45v510h45zM15 600h-40l105 150h45l105 -150h-40l-85 120h-5z" />
    <glyph glyph-name="idieresis" unicode="&#xef;" horiz-adv-x="205" 
d="M125 510v-510h-45v510h45zM50 630h-45v90h45v-90zM200 630h-45v90h45v-90z" />
    <glyph glyph-name="dotlessi" unicode="&#x131;" horiz-adv-x="205" 
d="M125 510v-510h-45v510h45z" />
    <glyph glyph-name="imacron" unicode="&#x12b;" horiz-adv-x="205" 
d="M125 510v-510h-45v510h45zM-15 690h235v-40h-235v40z" />
    <glyph glyph-name="iogonek" unicode="&#x12f;" horiz-adv-x="205" 
d="M90 -175h50v-35h-50c-50 0 -80 30 -80 75c0 80 85 135 85 135h-15v510h45v-515s-75 -50 -75 -130c0 -25 15 -40 40 -40zM125 725v-100h-45v100h45z" />
    <glyph glyph-name="nacute" unicode="&#x144;" 
d="M390 0v400c0 50 -30 80 -80 80h-80c-80 0 -105 -100 -105 -100v-380h-45v510h30l10 -65h5s25 75 105 75h80c75 0 125 -50 125 -120v-400h-45zM305 750h50l-80 -150h-35z" />
    <glyph glyph-name="ncaron" unicode="&#x148;" 
d="M390 0v400c0 50 -30 80 -80 80h-80c-80 0 -105 -100 -105 -100v-380h-45v510h30l10 -65h5s25 75 105 75h80c75 0 125 -50 125 -120v-400h-45zM345 750h40l-105 -150h-45l-105 150h40l85 -120h5z" />
    <glyph glyph-name="ncommaaccent" unicode="&#x146;" 
d="M390 0v400c0 50 -30 80 -80 80h-80c-80 0 -105 -100 -105 -100v-380h-45v510h30l10 -65h5s25 75 105 75h80c75 0 125 -50 125 -120v-400h-45zM280 -105l-25 -130h-20v170h45v-40z" />
    <glyph glyph-name="ntilde" unicode="&#xf1;" 
d="M390 0v400c0 50 -30 80 -80 80h-80c-80 0 -105 -100 -105 -100v-380h-45v510h30l10 -65h5s25 75 105 75h80c75 0 125 -50 125 -120v-400h-45zM265 640l-40 50c-8 10 -15 15 -25 15s-15 -5 -15 -15v-75h-35v75c0 30 20 50 50 50c25 0 34 -10 50 -30l40 -50
c8 -10 15 -15 25 -15s15 5 15 15v75h35v-75c0 -30 -20 -50 -50 -50c-25 0 -34 10 -50 30z" />
    <glyph glyph-name="ograve" unicode="&#xf2;" horiz-adv-x="500" 
d="M195 520h110c75 0 125 -50 125 -120v-290c0 -70 -50 -120 -125 -120h-110c-75 0 -125 50 -125 120v290c0 70 50 120 125 120zM305 480h-110c-50 0 -80 -30 -80 -80v-290c0 -50 30 -80 80 -80h110c50 0 80 30 80 80v290c0 50 -30 80 -80 80zM165 750h50l65 -150h-35z" />
    <glyph glyph-name="oacute" unicode="&#xf3;" horiz-adv-x="500" 
d="M195 520h110c75 0 125 -50 125 -120v-290c0 -70 -50 -120 -125 -120h-110c-75 0 -125 50 -125 120v290c0 70 50 120 125 120zM305 480h-110c-50 0 -80 -30 -80 -80v-290c0 -50 30 -80 80 -80h110c50 0 80 30 80 80v290c0 50 -30 80 -80 80zM300 750h50l-80 -150h-35z" />
    <glyph glyph-name="ocircumflex" unicode="&#xf4;" horiz-adv-x="500" 
d="M195 520h110c75 0 125 -50 125 -120v-290c0 -70 -50 -120 -125 -120h-110c-75 0 -125 50 -125 120v290c0 70 50 120 125 120zM305 480h-110c-50 0 -80 -30 -80 -80v-290c0 -50 30 -80 80 -80h110c50 0 80 30 80 80v290c0 50 -30 80 -80 80zM163 600h-40l105 150h45
l105 -150h-40l-85 120h-5z" />
    <glyph glyph-name="odieresis" unicode="&#xf6;" horiz-adv-x="500" 
d="M195 520h110c75 0 125 -50 125 -120v-290c0 -70 -50 -120 -125 -120h-110c-75 0 -125 50 -125 120v290c0 70 50 120 125 120zM305 480h-110c-50 0 -80 -30 -80 -80v-290c0 -50 30 -80 80 -80h110c50 0 80 30 80 80v290c0 50 -30 80 -80 80zM198 630h-45v90h45v-90z
M348 630h-45v90h45v-90z" />
    <glyph glyph-name="ohungarumlaut" unicode="&#x151;" horiz-adv-x="500" 
d="M195 520h110c75 0 125 -50 125 -120v-290c0 -70 -50 -120 -125 -120h-110c-75 0 -125 50 -125 120v290c0 70 50 120 125 120zM305 480h-110c-50 0 -80 -30 -80 -80v-290c0 -50 30 -80 80 -80h110c50 0 80 30 80 80v290c0 50 -30 80 -80 80zM230 750h50l-80 -150h-35z
M370 750h50l-80 -150h-35z" />
    <glyph glyph-name="omacron" unicode="&#x14d;" horiz-adv-x="500" 
d="M195 520h110c75 0 125 -50 125 -120v-290c0 -70 -50 -120 -125 -120h-110c-75 0 -125 50 -125 120v290c0 70 50 120 125 120zM305 480h-110c-50 0 -80 -30 -80 -80v-290c0 -50 30 -80 80 -80h110c50 0 80 30 80 80v290c0 50 -30 80 -80 80zM133 700h235v-40h-235v40z" />
    <glyph glyph-name="otilde" unicode="&#xf5;" horiz-adv-x="500" 
d="M195 520h110c75 0 125 -50 125 -120v-290c0 -70 -50 -120 -125 -120h-110c-75 0 -125 50 -125 120v290c0 70 50 120 125 120zM305 480h-110c-50 0 -80 -30 -80 -80v-290c0 -50 30 -80 80 -80h110c50 0 80 30 80 80v290c0 50 -30 80 -80 80zM258 640l-40 50
c-8 10 -15 15 -25 15s-15 -5 -15 -15v-75h-35v75c0 30 20 50 50 50c25 0 34 -10 50 -30l40 -50c8 -10 15 -15 25 -15s15 5 15 15v75h35v-75c0 -30 -20 -50 -50 -50c-25 0 -34 10 -50 30z" />
    <glyph glyph-name="oslash" unicode="&#xf8;" horiz-adv-x="500" 
d="M195 520h110c75 0 125 -50 125 -120v-290c0 -70 -50 -120 -125 -120h-110c-75 0 -125 50 -125 120v290c0 70 50 120 125 120zM305 480h-110c-50 0 -80 -30 -80 -80v-290c0 -35 15 -55 15 -55l210 420s-15 5 -35 5zM385 400c0 35 -15 55 -15 55l-210 -420s15 -5 35 -5h110
c50 0 80 30 80 80v290z" />
    <glyph glyph-name="oe" unicode="&#x153;" horiz-adv-x="805" 
d="M720 0h-210c-75 0 -100 55 -100 55h-5s-20 -65 -100 -65h-110c-75 0 -125 50 -125 120v290c0 70 50 120 125 120h110c80 0 100 -55 100 -55h5s25 55 100 55h100c75 0 125 -50 125 -120v-170h-305v-110c0 -50 30 -80 80 -80h210v-40zM610 480h-100c-50 0 -80 -30 -80 -80
v-130h260v130c0 50 -30 80 -80 80zM305 480h-110c-50 0 -80 -30 -80 -80v-290c0 -50 30 -80 80 -80h110c50 0 80 30 80 80v290c0 50 -30 80 -80 80z" />
    <glyph glyph-name="racute" unicode="&#x155;" horiz-adv-x="320" 
d="M310 520v-45h-80c-80 0 -105 -95 -105 -95v-380h-45v510h30l10 -65h5s25 75 105 75h80zM240 750h50l-80 -150h-35z" />
    <glyph glyph-name="rcaron" unicode="&#x159;" horiz-adv-x="320" 
d="M310 520v-45h-80c-80 0 -105 -95 -105 -95v-380h-45v510h30l10 -65h5s25 75 105 75h80zM280 750h40l-105 -150h-45l-105 150h40l85 -120h5z" />
    <glyph glyph-name="rcommaaccent" unicode="&#x157;" horiz-adv-x="320" 
d="M310 520v-45h-80c-80 0 -105 -95 -105 -95v-380h-45v510h30l10 -65h5s25 75 105 75h80zM125 -105l-25 -130h-20v170h45v-40z" />
    <glyph glyph-name="sacute" unicode="&#x15b;" horiz-adv-x="435" 
d="M55 360v30c0 70 50 120 125 120h195v-30l-10 -10h-185c-50 0 -80 -30 -80 -80v-30c0 -35 20 -54 60 -65l130 -35c70 -19 95 -45 95 -105v-35c0 -70 -50 -120 -125 -120h-210v40h210c50 0 80 30 80 80v35c0 35 -20 54 -60 65l-130 35c-70 19 -95 45 -95 105zM270 750h50
l-80 -150h-35z" />
    <glyph glyph-name="scaron" unicode="&#x161;" horiz-adv-x="435" 
d="M55 360v30c0 70 50 120 125 120h195v-30l-10 -10h-185c-50 0 -80 -30 -80 -80v-30c0 -35 20 -54 60 -65l130 -35c70 -19 95 -45 95 -105v-35c0 -70 -50 -120 -125 -120h-210v40h210c50 0 80 30 80 80v35c0 35 -20 54 -60 65l-130 35c-70 19 -95 45 -95 105zM320 750h40
l-105 -150h-45l-105 150h40l85 -120h5z" />
    <glyph glyph-name="scedilla" unicode="&#x15f;" horiz-adv-x="435" 
d="M230 -230h-80v35h80c25 0 40 15 40 40v25c0 25 -15 40 -40 40h-55v90h-125v40h210c50 0 80 30 80 80v35c0 35 -20 54 -60 65l-130 35c-70 19 -95 45 -95 105v30c0 70 50 120 125 120h195v-30l-10 -10h-185c-50 0 -80 -30 -80 -80v-30c0 -35 20 -54 60 -65l130 -35
c70 -19 95 -45 95 -105v-35c0 -70 -50 -120 -125 -120h-45v-55h15c45 0 80 -35 80 -75v-25c0 -40 -35 -75 -80 -75z" />
    <glyph glyph-name="scommaaccent" unicode="&#x219;" horiz-adv-x="435" 
d="M55 360v30c0 70 50 120 125 120h195v-30l-10 -10h-185c-50 0 -80 -30 -80 -80v-30c0 -35 20 -54 60 -65l130 -35c70 -19 95 -45 95 -105v-35c0 -70 -50 -120 -125 -120h-210v40h210c50 0 80 30 80 80v35c0 35 -20 54 -60 65l-130 35c-70 19 -95 45 -95 105zM235 -105
l-25 -130h-20v170h45v-40z" />
    <glyph glyph-name="thorn" unicode="&#xfe;" horiz-adv-x="505" 
d="M125 700v-190h185c75 0 125 -50 125 -120v-270c0 -70 -50 -120 -125 -120h-185v-170h-45v870h45zM390 120v270c0 50 -30 80 -80 80h-185v-430h185c50 0 80 30 80 80z" />
    <glyph glyph-name="tcaron" unicode="&#x165;" horiz-adv-x="315" 
d="M275 510v-40h-140v-350c0 -50 30 -80 80 -80h80v-40h-80c-75 0 -125 50 -125 120v350h-70v40h70l20 155h25v-155h140zM355 660l-25 -130h-20v170h45v-40z" />
    <glyph glyph-name="tcommaaccent" unicode="&#x163;" horiz-adv-x="325" 
d="M275 510v-40h-140v-350c0 -50 30 -80 80 -80h80v-40h-80c-75 0 -125 50 -125 120v350h-70v40h70l20 155h25v-155h140zM205 -105l-25 -130h-20v170h45v-40z" />
    <glyph glyph-name="yacute" unicode="&#xfd;" horiz-adv-x="420" 
d="M400 490l-160 -495c-39 -120 -85 -165 -150 -165h-25v40h25c40 0 90 50 105 125l-175 495v20h45l150 -440h5l135 440h45v-20zM260 750h50l-80 -150h-35z" />
    <glyph glyph-name="ydieresis" unicode="&#xff;" horiz-adv-x="420" 
d="M400 490l-160 -495c-39 -120 -85 -165 -150 -165h-25v40h25c40 0 90 50 105 125l-175 495v20h45l150 -440h5l135 440h45v-20zM160 630h-45v90h45v-90zM310 630h-45v90h45v-90z" />
    <glyph glyph-name="ugrave" unicode="&#xf9;" 
d="M125 510v-400c0 -50 30 -80 80 -80h80c80 0 105 100 105 100v380h45v-510h-30l-10 65h-5s-25 -75 -105 -75h-80c-75 0 -125 50 -125 120v400h45zM170 750h50l65 -150h-35z" />
    <glyph glyph-name="uacute" unicode="&#xfa;" 
d="M125 510v-400c0 -50 30 -80 80 -80h80c80 0 105 100 105 100v380h45v-510h-30l-10 65h-5s-25 -75 -105 -75h-80c-75 0 -125 50 -125 120v400h45zM310 750h50l-80 -150h-35z" />
    <glyph glyph-name="ucircumflex" unicode="&#xfb;" 
d="M125 510v-400c0 -50 30 -80 80 -80h80c80 0 105 100 105 100v380h45v-510h-30l-10 65h-5s-25 -75 -105 -75h-80c-75 0 -125 50 -125 120v400h45zM170 600h-40l105 150h45l105 -150h-40l-85 120h-5z" />
    <glyph glyph-name="udieresis" unicode="&#xfc;" 
d="M125 510v-400c0 -50 30 -80 80 -80h80c80 0 105 100 105 100v380h45v-510h-30l-10 65h-5s-25 -75 -105 -75h-80c-75 0 -125 50 -125 120v400h45zM205 630h-45v90h45v-90zM355 630h-45v90h45v-90z" />
    <glyph glyph-name="uhungarumlaut" unicode="&#x171;" 
d="M125 510v-400c0 -50 30 -80 80 -80h80c80 0 105 100 105 100v380h45v-510h-30l-10 65h-5s-25 -75 -105 -75h-80c-75 0 -125 50 -125 120v400h45zM235 750h50l-80 -150h-35zM375 750h50l-80 -150h-35z" />
    <glyph glyph-name="umacron" unicode="&#x16b;" 
d="M125 510v-400c0 -50 30 -80 80 -80h80c80 0 105 100 105 100v380h45v-510h-30l-10 65h-5s-25 -75 -105 -75h-80c-75 0 -125 50 -125 120v400h45zM140 700h235v-40h-235v40z" />
    <glyph glyph-name="uring" unicode="&#x16f;" 
d="M125 510v-400c0 -50 30 -80 80 -80h80c80 0 105 100 105 100v380h45v-510h-30l-10 65h-5s-25 -75 -105 -75h-80c-75 0 -125 50 -125 120v400h45zM345 660c0 -40 -35 -75 -80 -75h-15c-45 0 -80 35 -80 75v30c0 40 35 75 80 75h15c45 0 80 -35 80 -75v-30zM205 690v-30
c0 -25 20 -45 45 -45h15c25 0 45 20 45 45v30c0 25 -20 45 -45 45h-15c-25 0 -45 -20 -45 -45z" />
    <glyph glyph-name="zacute" unicode="&#x17a;" horiz-adv-x="400" 
d="M315 465v5h-265l-10 10v30h330v-40l-285 -425v-5h285v-40h-340v40zM250 750h50l-80 -150h-35z" />
    <glyph glyph-name="zcaron" unicode="&#x17e;" horiz-adv-x="400" 
d="M315 465v5h-265l-10 10v30h330v-40l-285 -425v-5h285v-40h-340v40zM290 750h40l-105 -150h-45l-105 150h40l85 -120h5z" />
    <glyph glyph-name="zdotaccent" unicode="&#x17c;" horiz-adv-x="400" 
d="M315 465v5h-265l-10 10v30h330v-40l-285 -425v-5h285v-40h-340v40zM225 725v-100h-45v100h45z" />
    <glyph glyph-name="cent" unicode="&#xa2;" horiz-adv-x="415" 
d="M115 390v-270c0 -50 30 -80 80 -80h195v-40h-105v-105h-45v105h-45c-75 0 -125 50 -125 120v270c0 70 50 120 125 120h45v105h45v-105h105v-30l-10 -10h-185c-50 0 -80 -30 -80 -80z" />
    <glyph glyph-name="florin" unicode="&#x192;" horiz-adv-x="305" 
d="M125 590v-145h150v-40h-150v-455c0 -70 -50 -120 -125 -120h-35v40h35c50 0 80 30 80 80v640c0 70 50 120 125 120h120v-30l-10 -10h-110c-50 0 -80 -30 -80 -80z" />
    <glyph glyph-name="germandbls" unicode="&#xdf;" horiz-adv-x="525" 
d="M275 355v55c0 75 80 90 80 140v40c0 40 -30 70 -80 70h-60c-50 0 -80 -30 -80 -80v-580h-45v580c0 70 50 120 125 120h60c75 0 125 -50 125 -110v-40c0 -70 -80 -85 -80 -140v-55c0 -80 165 -55 165 -160v-75c0 -70 -50 -120 -125 -120h-120v40h120c50 0 80 30 80 80v75
c0 75 -165 50 -165 160z" />
    <glyph glyph-name="Aogonek" unicode="&#x104;" 
d="M460 -175h50v-35h-50c-50 0 -80 30 -80 75c0 80 85 135 85 135h-15l-60 195h-265l-60 -195h-45v20l210 680h55l210 -680v-25s-75 -50 -75 -130c0 -25 15 -40 40 -40zM255 615l-120 -380h245l-120 380h-5z" />
    <glyph glyph-name="uogonek" unicode="&#x173;" 
d="M400 -175h50v-35h-50c-50 0 -80 30 -80 75c0 80 85 135 85 135l-10 65h-5s-25 -75 -105 -75h-80c-75 0 -125 50 -125 120v400h45v-400c0 -50 30 -80 80 -80h80c80 0 105 100 105 100v380h45v-515s-75 -50 -75 -130c0 -25 15 -40 40 -40z" />
    <glyph glyph-name="Acute" unicode="&#xf6c9;" horiz-adv-x="195" 
d="M105 910h50l-80 -140h-35z" />
    <glyph glyph-name="Breve" unicode="&#xf406;" horiz-adv-x="315" 
d="M190 785h-65c-50 0 -85 35 -85 85v30h40v-30c0 -35 15 -50 45 -50h65c30 0 45 15 45 50v30h40v-30c0 -50 -35 -85 -85 -85z" />
    <glyph glyph-name="Caron" unicode="&#xf6ca;" horiz-adv-x="335" 
d="M255 910h40l-105 -140h-45l-105 140h40l85 -115h5z" />
    <glyph glyph-name="Circumflex" unicode="&#xf408;" horiz-adv-x="335" 
d="M80 770h-40l105 140h45l105 -140h-40l-85 115h-5z" />
    <glyph glyph-name="Dieresis" unicode="&#xf6cb;" horiz-adv-x="275" 
d="M85 795h-45v90h45v-90zM235 795h-45v90h45v-90z" />
    <glyph glyph-name="Dotaccent" unicode="&#xf40b;" horiz-adv-x="125" 
d="M85 890v-100h-45v100h45z" />
    <glyph glyph-name="Grave" unicode="&#xf6ce;" horiz-adv-x="195" 
d="M40 910h50l65 -140h-35z" />
    <glyph glyph-name="Hungarumlaut" unicode="&#xf6cf;" horiz-adv-x="335" 
d="M105 910h50l-80 -140h-35zM245 910h50l-80 -140h-35z" />
    <glyph glyph-name="Macron" unicode="&#xf6d0;" horiz-adv-x="315" 
d="M40 860h235v-40h-235v40z" />
    <glyph glyph-name="Ring" unicode="&#xf40c;" horiz-adv-x="255" 
d="M215 830c0 -40 -35 -75 -80 -75h-15c-45 0 -80 35 -80 75v20c0 40 35 75 80 75h15c45 0 80 -35 80 -75v-20zM75 850v-20c0 -25 20 -45 45 -45h15c25 0 45 20 45 45v20c0 25 -20 45 -45 45h-15c-25 0 -45 -20 -45 -45z" />
    <glyph glyph-name="Tilde" unicode="&#xf40d;" horiz-adv-x="295" 
d="M155 810l-40 40c-10 10 -15 15 -25 15s-15 -5 -15 -15v-65h-35v65c0 30 20 50 50 50c20 0 30 -10 50 -30l40 -40c10 -10 15 -15 25 -15s15 5 15 15v65h35v-65c0 -30 -20 -50 -50 -50c-20 0 -30 10 -50 30z" />
    <glyph glyph-name="E" unicode="E" horiz-adv-x="505" 
d="M475 700v-30l-10 -10h-320v-280h250v-40h-250v-300h330v-40h-375v700h375z" />
    <glyph glyph-name="nbspace" unicode="&#xa0;" horiz-adv-x="195" 
 />
    <glyph glyph-name=".null" horiz-adv-x="0" 
 />
    <glyph glyph-name=".null" horiz-adv-x="0" 
 />
    <glyph glyph-name="CR" unicode="&#xd;" horiz-adv-x="0" 
 />
    </font>
</defs>
</svg>
