<?xml version="1.0" standalone="no"?>
<!DOCTYPE svg PUBLIC "-//W3C//DTD SVG 1.1//EN" "http://www.w3.org/Graphics/SVG/1.1/DTD/svg11.dtd" >
<svg>
<metadata>
Created by FontForge 20120731 at Tue Sep 10 18:48:32 2019
 By www-data
Designed for Typetype in 2016 by Ivan Gladkikh. TT Supermolot Condensed is one of series of fontfamilies which were designed for use in web and mobile applications, print and multimedia environments. 
</metadata>
<defs>
<font id="TTSupermolotCondensed-ThinItalic" horiz-adv-x="505" >
  <font-face 
    font-family="TT Supermolot Condensed Thin"
    font-weight="100"
    font-style="italic"
    font-stretch="normal"
    units-per-em="1000"
    panose-1="2 0 5 3 0 0 0 9 0 3"
    ascent="800"
    descent="-200"
    x-height="510"
    cap-height="700"
    bbox="-119 -230 1130 920"
    underline-thickness="50"
    underline-position="-50"
    unicode-range="U+000D-F6D4"
  />
<missing-glyph horiz-adv-x="0" 
 />
    <glyph glyph-name=".notdef" horiz-adv-x="0" 
 />
    <glyph glyph-name="F" unicode="F" horiz-adv-x="485" 
d="M548 700l-3 -15l-6 -5h-335l-60 -340h255l-3 -20h-255l-56 -320h-25l123 700h365z" />
    <glyph glyph-name="G" unicode="G" horiz-adv-x="575" 
d="M193 20h220l62 350h25l-65 -370h-245c-95 0 -141 55 -124 150l70 400c17 95 82 150 177 150h225l-3 -15l-6 -5h-220c-80 0 -133 -45 -148 -130l-70 -400c-15 -85 22 -130 102 -130z" />
    <glyph glyph-name="H" unicode="H" horiz-adv-x="620" 
d="M85 0h-25l123 700h25l-58 -330h350l58 330h25l-123 -700h-25l61 350h-350z" />
    <glyph glyph-name="I" unicode="I" horiz-adv-x="245" 
d="M85 0h-25l123 700h25z" />
    <glyph glyph-name="J" unicode="J" horiz-adv-x="425" 
d="M113 -10h-155l3 20h155c80 0 133 45 148 130l99 560h25l-99 -560c-17 -95 -81 -150 -176 -150z" />
    <glyph glyph-name="L" unicode="L" horiz-adv-x="495" 
d="M88 20h340l-3 -20h-365l123 700h25z" />
    <glyph glyph-name="M" unicode="M" horiz-adv-x="805" 
d="M387 100h-35l-107 555h-4l-186 -655h-25l1 10l197 690h35l110 -565h5l310 565h35l-47 -690l-1 -10h-25l44 655h-4z" />
    <glyph glyph-name="N" unicode="N" horiz-adv-x="620" 
d="M460 0h-30l-230 655h-5l-18 -130l-92 -525h-25l123 700h30l229 -655h5l18 130l93 525h25z" />
    <glyph glyph-name="O" unicode="O" horiz-adv-x="610" 
d="M441 690h-130c-80 0 -133 -45 -148 -130l-74 -420c-15 -85 22 -130 102 -130h130c80 0 133 45 148 130l74 420c15 85 -22 130 -102 130zM64 140l74 420c17 95 82 150 177 150h130c95 0 140 -55 123 -150l-74 -420c-17 -95 -81 -150 -176 -150h-130
c-95 0 -141 55 -124 150z" />
    <glyph glyph-name="P" unicode="P" horiz-adv-x="570" 
d="M85 0h-25l123 700h245c95 0 140 -55 123 -150l-24 -140c-17 -95 -82 -150 -177 -150h-220zM424 680h-220l-70 -400h220c80 0 133 45 148 130l24 140c15 85 -22 130 -102 130z" />
    <glyph glyph-name="R" unicode="R" horiz-adv-x="585" 
d="M85 0h-25l123 700h245c95 0 140 -55 123 -150l-19 -110c-25 -145 -156 -150 -156 -150l95 -280l-1 -10h-25l-99 290h-210zM424 680h-220l-65 -370h220c80 0 133 45 148 130l19 110c15 85 -22 130 -102 130z" />
    <glyph glyph-name="Q" unicode="Q" horiz-adv-x="610" 
d="M64 140l74 420c17 95 82 150 177 150h130c95 0 140 -55 123 -150l-74 -420c-17 -95 -81 -150 -176 -150h-55l59 -140l-2 -10h-24l-58 150h-50c-95 0 -141 55 -124 150zM441 690h-130c-80 0 -133 -45 -148 -130l-74 -420c-15 -85 22 -130 102 -130h130
c80 0 133 45 148 130l74 420c15 85 -22 130 -102 130z" />
    <glyph glyph-name="S" unicode="S" 
d="M102 495l9 55c17 95 82 150 177 150h220l-3 -15l-6 -5h-215c-80 0 -133 -45 -148 -130l-9 -55c-11 -60 14 -92 66 -105l158 -40c72 -18 101 -55 87 -130l-12 -70c-17 -95 -81 -150 -176 -150h-245l3 20h245c80 0 133 45 148 130l12 70c11 60 -13 92 -66 105l-158 40
c-72 18 -100 55 -87 130z" />
    <glyph glyph-name="U" unicode="U" horiz-adv-x="600" 
d="M548 700h25l-99 -560c-17 -95 -81 -150 -176 -150h-100c-95 0 -141 55 -124 150l99 560h25l-99 -560c-15 -85 22 -130 102 -130h100c80 0 133 45 148 130z" />
    <glyph glyph-name="V" unicode="V" 
d="M128 700l79 -660h5l311 660h25l-2 -10l-326 -690h-35l-84 690l2 10h25z" />
    <glyph glyph-name="W" unicode="W" horiz-adv-x="795" 
d="M464 590l69 -540h5l270 650h25l-2 -10l-286 -690h-30l-70 540h-5l-260 -540h-30l-44 690l2 10h25l40 -650h5l261 540h25z" />
    <glyph glyph-name="X" unicode="X" 
d="M264 335h-5l-254 -335h-25l1 10l267 350l-132 330l2 10h25l124 -315h5l236 315h25l-2 -10l-248 -330l143 -350l-1 -10h-25z" />
    <glyph glyph-name="Y" unicode="Y" horiz-adv-x="485" 
d="M93 700h25l119 -430h5l271 430h25l-2 -10l-291 -460l-40 -230h-25l40 230l-129 460z" />
    <glyph glyph-name="Z" unicode="Z" horiz-adv-x="460" 
d="M8 20h380l-3 -20h-410l3 20l496 655v5h-365l-4 5l3 15h400l-4 -20l-495 -655z" />
    <glyph glyph-name="afii10018" unicode="&#x411;" horiz-adv-x="570" 
d="M183 700h360l-3 -15l-6 -5h-330l-49 -280h220c95 0 140 -55 124 -150l-18 -100c-17 -95 -81 -150 -176 -150h-245zM88 20h220c80 0 133 45 148 130l18 100c15 85 -22 130 -102 130h-220z" />
    <glyph glyph-name="afii10020" unicode="&#x413;" horiz-adv-x="445" 
d="M518 700l-3 -15l-6 -5h-305l-119 -680h-25l123 700h335z" />
    <glyph glyph-name="afii10021" unicode="&#x414;" horiz-adv-x="575" 
d="M-25 0l-33 -160h-20l31 180h20s78 35 101 120l154 560h320l-120 -680h70l-32 -180h-20l24 160h-495zM249 680l-150 -540c-24 -85 -90 -115 -90 -115l-1 -5h395l116 660h-270z" />
    <glyph glyph-name="afii10024" unicode="&#x416;" horiz-adv-x="835" 
d="M380 0h-25l61 350h-155l-246 -350h-25l1 10l247 350l-122 330l2 10h25l122 -330h155l58 330h25l-58 -330h155l238 330h25l-2 -10l-238 -330l123 -350l-1 -10h-25l-124 350h-155z" />
    <glyph glyph-name="afii10025" unicode="&#x417;" horiz-adv-x="465" 
d="M108 700h205c95 0 140 -55 123 -150l-7 -45c-22 -125 -109 -135 -109 -135l-1 -5s93 -10 70 -140l-13 -75c-17 -95 -81 -150 -176 -150h-225l3 20h225c80 0 133 45 148 130l13 75c15 85 -22 130 -102 130h-115l4 20h105c80 0 133 45 148 130l7 45c15 85 -22 130 -102 130
h-200l-4 5z" />
    <glyph glyph-name="afii10026" unicode="&#x418;" horiz-adv-x="620" 
d="M85 0h-25l123 700h25l-92 -520l-28 -130h5l465 650h25l-123 -700h-25l91 520l28 130h-5z" />
    <glyph glyph-name="afii10027" unicode="&#x419;" horiz-adv-x="620" 
d="M85 0h-25l123 700h25l-92 -520l-28 -130h5l465 650h25l-123 -700h-25l91 520l28 130h-5zM445 795h-90c-45 0 -70 30 -62 75l9 50h25l-9 -50c-6 -35 10 -55 40 -55h90c30 0 54 20 60 55l9 50h25l-9 -50c-8 -45 -43 -75 -88 -75z" />
    <glyph glyph-name="afii10029" unicode="&#x41b;" horiz-adv-x="610" 
d="M-19 10c45 0 87 35 113 130l154 560h325l-123 -700h-25l119 680h-275l-150 -540c-30 -110 -76 -150 -141 -150h-29l2 20h30z" />
    <glyph glyph-name="afii10033" unicode="&#x41f;" horiz-adv-x="620" 
d="M85 0h-25l123 700h400l-123 -700h-25l119 680h-350z" />
    <glyph glyph-name="afii10037" unicode="&#x423;" horiz-adv-x="485" 
d="M182 100l30 55l-111 535l2 10h25l102 -500h5l268 500h25l-2 -10l-314 -590c-45 -85 -74 -110 -144 -110h-26l3 20h26c50 0 74 20 111 90z" />
    <glyph glyph-name="afii10038" unicode="&#x424;" horiz-adv-x="785" 
d="M485 740l-19 -105h160c95 0 141 -55 124 -150l-48 -270c-16 -95 -81 -150 -176 -150h-160l-17 -95h-25l17 95h-160c-95 0 -140 55 -124 150l48 270c17 95 81 150 176 150h160l19 105h25zM369 85h160c80 0 133 45 148 130l48 270c15 85 -22 130 -102 130h-160zM184 85h160
l94 530h-160c-80 0 -133 -45 -148 -130l-48 -270c-15 -85 22 -130 102 -130z" />
    <glyph glyph-name="afii10040" unicode="&#x426;" horiz-adv-x="600" 
d="M495 0h-435l123 700h25l-120 -680h340l120 680h25l-120 -680h70l-32 -180h-20z" />
    <glyph glyph-name="afii10041" unicode="&#x427;" horiz-adv-x="585" 
d="M425 0h-25l49 280h-210c-95 0 -141 54 -124 150l48 270h25l-48 -270c-15 -85 22 -130 102 -130h210l71 400h25z" />
    <glyph glyph-name="afii10042" unicode="&#x428;" horiz-adv-x="885" 
d="M503 700h25l-120 -680h295l120 680h25l-123 -700h-665l123 700h25l-120 -680h295z" />
    <glyph glyph-name="afii10043" unicode="&#x429;" horiz-adv-x="875" 
d="M503 700h25l-120 -680h295l120 680h25l-120 -680h70l-32 -180h-20l24 160h-710l123 700h25l-120 -680h295z" />
    <glyph glyph-name="afii10044" unicode="&#x42a;" horiz-adv-x="605" 
d="M69 680l4 20h175l-49 -280h210c95 0 140 -55 123 -150l-21 -120c-17 -95 -81 -150 -176 -150h-235l119 680h-150zM128 20h210c80 0 133 45 148 130l21 120c15 85 -22 130 -102 130h-210z" />
    <glyph glyph-name="afii10045" unicode="&#x42b;" horiz-adv-x="780" 
d="M620 0h-25l123 700h25zM183 700h25l-49 -280h210c95 0 140 -55 123 -150l-21 -120c-17 -95 -81 -150 -176 -150h-235zM88 20h210c80 0 133 45 148 130l21 120c15 85 -22 130 -102 130h-210z" />
    <glyph glyph-name="afii10046" unicode="&#x42c;" horiz-adv-x="575" 
d="M183 700h25l-49 -280h220c95 0 140 -55 123 -150l-21 -120c-17 -95 -81 -150 -176 -150h-245zM88 20h220c80 0 133 45 148 130l21 120c15 85 -22 130 -102 130h-220z" />
    <glyph glyph-name="afii10047" unicode="&#x42d;" horiz-adv-x="495" 
d="M-17 20h225c80 0 133 45 148 130l34 195h-240l4 20h240l32 185c15 85 -22 130 -102 130h-220l-4 5l3 15h225c95 0 140 -55 123 -150l-70 -400c-17 -95 -81 -150 -176 -150h-225z" />
    <glyph glyph-name="afii10048" unicode="&#x42e;" horiz-adv-x="815" 
d="M289 140l36 205h-180l-60 -345h-25l123 700h25l-59 -335h180l34 195c17 95 82 150 177 150h110c95 0 140 -55 123 -150l-74 -420c-17 -95 -81 -150 -176 -150h-110c-95 0 -141 55 -124 150zM646 690h-110c-80 0 -133 -45 -148 -130l-74 -420c-15 -85 22 -130 102 -130
h110c80 0 133 45 148 130l74 420c15 85 -22 130 -102 130z" />
    <glyph glyph-name="afii10049" unicode="&#x42f;" horiz-adv-x="570" 
d="M410 0h-25l51 290h-210l-201 -290h-25l1 10l195 280s-129 5 -104 150l19 110c17 95 82 150 177 150h245zM504 680h-220c-80 0 -133 -45 -148 -130l-19 -110c-15 -85 22 -130 102 -130h220z" />
    <glyph glyph-name="afii10066" unicode="&#x431;" horiz-adv-x="495" 
d="M329 420h-200l-55 -310c-10 -55 27 -100 77 -100h105c50 0 103 45 113 100l37 210c10 55 -27 100 -77 100zM431 320l-37 -210c-12 -70 -71 -120 -140 -120h-106c-70 0 -111 50 -99 120l72 410c14 80 79 136 147 150l223 45l1 -20l-223 -45c-52 -10 -110 -60 -123 -130
l-14 -80h200c70 0 111 -50 99 -120z" />
    <glyph glyph-name="afii10067" unicode="&#x432;" horiz-adv-x="490" 
d="M40 0l89 510h210c65 0 102 -45 91 -110l-7 -40c-14 -80 -77 -95 -77 -95l-1 -5s78 -15 63 -100l-9 -50c-12 -65 -64 -110 -129 -110h-230zM314 250h-205l-41 -230h205c45 0 92 40 101 90l9 50c9 50 -24 90 -69 90zM112 270h185c45 0 92 40 101 90l7 40
c9 50 -24 90 -69 90h-185z" />
    <glyph glyph-name="afii10068" unicode="&#x433;" horiz-adv-x="380" 
d="M40 0l89 510h290l-2 -15l-6 -5h-260l-86 -490h-25z" />
    <glyph glyph-name="afii10069" unicode="&#x434;" horiz-adv-x="495" 
d="M-47 20h20s75 35 93 100l103 390h270l-86 -490h65l-28 -160h-20l20 140h-415l-29 -140h-20zM186 490l-95 -370c-17 -65 -82 -95 -82 -95l-1 -5h320l83 470h-225z" />
    <glyph glyph-name="afii10072" unicode="&#x436;" horiz-adv-x="675" 
d="M323 275l41 235h25l-41 -235h130l161 235h25l-1 -10l-167 -235l95 -255l-1 -10h-25l-91 255h-130l-44 -255h-25l44 255h-130l-179 -255h-25l1 10l185 255l-83 235l1 10h25l79 -235h130z" />
    <glyph glyph-name="afii10073" unicode="&#x437;" horiz-adv-x="405" 
d="M323 160l-9 -50c-12 -65 -64 -110 -129 -110h-210l3 20h210c45 0 92 40 101 90l9 50c9 50 -24 90 -69 90h-115l3 20h105c45 0 92 40 101 90l7 40c9 50 -24 90 -69 90h-185l-4 5l2 15h190c65 0 102 -45 91 -110l-7 -40c-14 -80 -77 -95 -77 -95l-1 -5s68 -15 53 -100z" />
    <glyph glyph-name="afii10074" unicode="&#x438;" horiz-adv-x="520" 
d="M40 0l89 510h25l-61 -350l-26 -115h5l372 465h25l-89 -510h-25l61 350l25 115h-5l-371 -465h-25z" />
    <glyph glyph-name="afii10075" unicode="&#x439;" horiz-adv-x="520" 
d="M40 0l89 510h25l-61 -350l-26 -115h5l372 465h25l-89 -510h-25l61 350l25 115h-5l-371 -465h-25zM345 600h-60c-50 0 -74 30 -66 80l7 40h25l-7 -40c-7 -40 10 -60 45 -60h60c35 0 58 20 65 60l7 40h25l-7 -40c-8 -50 -44 -80 -94 -80z" />
    <glyph glyph-name="afii10076" unicode="&#x43a;" horiz-adv-x="465" 
d="M154 510l-41 -235h155l161 235h25l-1 -10l-167 -235l95 -255l-1 -10h-25l-91 255h-155l-44 -255h-25l89 510h25z" />
    <glyph glyph-name="afii10077" unicode="&#x43b;" 
d="M184 510h270l-89 -510h-25l86 490h-225l-95 -370c-20 -75 -83 -130 -138 -130h-19l2 20h20c40 0 92 45 110 110z" />
    <glyph glyph-name="afii10078" unicode="&#x43c;" horiz-adv-x="635" 
d="M298 75h-35l-82 385h-5l-141 -460h-25l1 10l153 500h35l85 -400h5l225 400h35l-23 -500l-1 -10h-25l21 460h-5z" />
    <glyph glyph-name="afii10079" unicode="&#x43d;" horiz-adv-x="520" 
d="M154 510l-43 -245h290l43 245h25l-89 -510h-25l43 245h-290l-43 -245h-25l89 510h25z" />
    <glyph glyph-name="afii10081" unicode="&#x43f;" horiz-adv-x="520" 
d="M129 510h340l-89 -510h-25l86 490h-290l-86 -490h-25z" />
    <glyph glyph-name="afii10084" unicode="&#x442;" horiz-adv-x="375" 
d="M46 490l3 20h355l-2 -15l-6 -5h-160l-86 -490h-25l86 490h-165z" />
    <glyph glyph-name="afii10086" unicode="&#x444;" horiz-adv-x="665" 
d="M265 -170h-25l30 170h-130c-70 0 -112 50 -99 120l47 270c13 70 71 120 141 120h130l34 190h25l-34 -190h130c70 0 112 -50 99 -120l-47 -270c-13 -70 -71 -120 -141 -120h-130zM541 120l47 270c10 55 -27 100 -77 100h-130l-83 -470h130c50 0 103 45 113 100zM66 120
c-10 -55 27 -100 77 -100h130l83 470h-130c-50 0 -103 -45 -113 -100z" />
    <glyph glyph-name="afii10088" unicode="&#x446;" horiz-adv-x="495" 
d="M390 0h-370l89 510h25l-86 -490h280l86 490h25l-86 -490h65l-28 -160h-20z" />
    <glyph glyph-name="afii10089" unicode="&#x447;" horiz-adv-x="485" 
d="M75 315l34 195h25l-34 -195c-10 -55 27 -100 77 -100h180l52 295h25l-89 -510h-25l34 195h-180c-70 0 -111 50 -99 120z" />
    <glyph glyph-name="afii10090" unicode="&#x448;" horiz-adv-x="735" 
d="M595 0h-555l89 510h25l-86 -490h240l86 490h25l-86 -490h240l86 490h25z" />
    <glyph glyph-name="afii10091" unicode="&#x449;" horiz-adv-x="740" 
d="M635 0h-595l89 510h25l-86 -490h240l86 490h25l-86 -490h240l86 490h25l-86 -490h65l-28 -160h-20z" />
    <glyph glyph-name="afii10092" unicode="&#x44a;" horiz-adv-x="490" 
d="M155 315h180c65 0 102 -45 91 -110l-17 -95c-12 -65 -64 -110 -129 -110h-205l86 490h-125l3 20h150zM332 295h-180l-49 -275h180c45 0 92 40 101 90l17 95c8 50 -24 90 -69 90z" />
    <glyph glyph-name="afii10093" unicode="&#x44b;" horiz-adv-x="630" 
d="M490 0h-25l89 510h25zM120 315h180c65 0 102 -45 91 -110l-17 -95c-12 -65 -64 -110 -129 -110h-205l89 510h25zM297 295h-180l-49 -275h180c45 0 92 40 101 90l17 95c8 50 -24 90 -69 90z" />
    <glyph glyph-name="afii10094" unicode="&#x44c;" horiz-adv-x="465" 
d="M120 315h190c65 0 102 -45 91 -110l-17 -95c-12 -65 -64 -110 -129 -110h-215l89 510h25zM307 295h-190l-49 -275h190c45 0 92 40 101 90l17 95c8 50 -24 90 -69 90z" />
    <glyph glyph-name="afii10095" unicode="&#x44d;" horiz-adv-x="410" 
d="M256 490h-190l-4 5l2 15h195c70 0 112 -50 99 -120l-47 -270c-13 -70 -71 -120 -141 -120h-195l3 20h195c50 0 103 45 113 100l23 130h-190l3 20h190l21 120c10 55 -27 100 -77 100z" />
    <glyph glyph-name="afii10096" unicode="&#x44e;" horiz-adv-x="660" 
d="M224 110l24 135h-140l-43 -245h-25l89 510h25l-43 -245h140l24 135c12 70 71 120 141 120h95c70 0 111 -50 99 -120l-51 -290c-12 -70 -71 -120 -141 -120h-95c-70 0 -111 50 -99 120zM326 10h95c50 0 103 45 113 100l51 290c10 55 -27 100 -77 100h-95
c-50 0 -103 -45 -113 -100l-51 -290c-10 -55 27 -100 77 -100z" />
    <glyph glyph-name="afii10097" unicode="&#x44f;" horiz-adv-x="475" 
d="M346 205h-180l-146 -205h-25l1 10l140 195s-88 15 -71 110l15 85c11 65 64 110 129 110h215l-89 -510h-25zM159 225h190l47 265h-190c-45 0 -92 -40 -101 -90l-15 -85c-9 -50 24 -90 69 -90z" />
    <glyph glyph-name="a" unicode="a" horiz-adv-x="490" 
d="M47 100c-9 -50 24 -90 69 -90h95c80 0 135 110 135 110l25 145h-210c-45 0 -92 -40 -101 -90zM350 0h-15l7 70h-5s-49 -80 -129 -80h-95c-65 0 -102 45 -91 110l13 75c12 65 65 110 130 110h210l18 105c10 55 -27 100 -77 100h-185l3 20h185c70 0 112 -50 99 -120z" />
    <glyph glyph-name="b" unicode="b" 
d="M188 700l-34 -190h200c70 0 112 -50 99 -120l-47 -270c-13 -70 -71 -120 -141 -120h-225l123 700h25zM351 490h-200l-83 -470h200c50 0 103 45 113 100l47 270c10 55 -27 100 -77 100z" />
    <glyph glyph-name="c" unicode="c" horiz-adv-x="410" 
d="M416 490h-190c-50 0 -103 -45 -113 -100l-47 -270c-10 -55 27 -100 77 -100h195l-3 -20h-195c-70 0 -112 50 -99 120l47 270c13 70 71 120 141 120h195l-2 -15z" />
    <glyph glyph-name="d" unicode="d" 
d="M141 10h85c80 0 135 110 135 110l65 370h-200c-50 0 -103 -45 -113 -100l-49 -280c-10 -55 27 -100 77 -100zM223 -10h-85c-70 0 -111 50 -99 120l49 280c13 70 71 120 141 120h200l34 190h25l-123 -700h-15l7 70h-5s-49 -80 -129 -80z" />
    <glyph glyph-name="e" unicode="e" horiz-adv-x="480" 
d="M328 500h-100c-50 0 -103 -45 -113 -100l-25 -140h290l25 140c10 55 -27 100 -77 100zM345 0h-205c-70 0 -112 50 -99 120l49 280c12 70 71 120 141 120h100c70 0 111 -50 99 -120l-28 -160h-315l-21 -120c-10 -55 27 -100 77 -100h205z" />
    <glyph glyph-name="f" unicode="f" horiz-adv-x="310" 
d="M40 0l104 590c12 70 71 120 141 120h120l-3 -15l-6 -5h-115c-50 0 -103 -45 -112 -100l-27 -150h165l-3 -20h-165l-74 -420h-25z" />
    <glyph glyph-name="h" unicode="h" horiz-adv-x="525" 
d="M65 0h-25l123 700h25l-34 -190h200c70 0 112 -50 99 -120l-68 -390h-25l68 390c10 55 -27 100 -77 100h-200z" />
    <glyph glyph-name="i" unicode="i" horiz-adv-x="205" 
d="M154 510l-89 -510h-25l89 510h25zM192 725l-17 -100h-25l17 100h25z" />
    <glyph glyph-name="j" unicode="j" horiz-adv-x="205" 
d="M31 -50l98 560h25l-98 -560c-13 -70 -71 -120 -140 -120h-35l3 20h35c49 0 102 45 112 100zM192 725l-17 -100h-25l17 100h25z" />
    <glyph glyph-name="k" unicode="k" horiz-adv-x="465" 
d="M188 700l-74 -420h155l160 230h25l-1 -10l-166 -230l94 -260l-1 -10h-25l-90 260h-155l-45 -260h-25l123 700h25z" />
    <glyph glyph-name="l" unicode="l" horiz-adv-x="230" 
d="M188 700l-102 -580c-10 -55 27 -100 77 -100h10l-3 -20h-10c-70 0 -112 50 -99 120l102 580h25z" />
    <glyph glyph-name="m" unicode="m" horiz-adv-x="775" 
d="M318 500h-50c-80 0 -135 -110 -135 -110l-68 -390h-25l89 510h15l-7 -70h5s49 80 129 80h50c80 0 95 -60 95 -60h5s35 60 115 60h70c70 0 111 -50 99 -120l-70 -400h-25l70 400c10 55 -27 100 -77 100h-70c-50 0 -103 -45 -113 -100l-70 -400h-25l70 400
c10 55 -27 100 -77 100z" />
    <glyph glyph-name="n" unicode="n" horiz-adv-x="525" 
d="M271 520h85c70 0 111 -50 99 -120l-70 -400h-25l70 400c10 55 -27 100 -77 100h-85c-80 0 -135 -110 -135 -110l-68 -390h-25l89 510h15l-7 -70h5s49 80 129 80z" />
    <glyph glyph-name="o" unicode="o" horiz-adv-x="495" 
d="M39 110l51 290c12 70 71 120 141 120h115c70 0 111 -50 99 -120l-51 -290c-12 -70 -71 -120 -141 -120h-115c-70 0 -111 50 -99 120zM141 10h115c50 0 103 45 113 100l51 290c10 55 -27 100 -77 100h-115c-50 0 -103 -45 -113 -100l-51 -290c-10 -55 27 -100 77 -100z
" />
    <glyph glyph-name="p" unicode="p" 
d="M353 500h-85c-80 0 -135 -110 -135 -110l-65 -370h200c50 0 103 45 113 100l49 280c10 55 -27 100 -77 100zM271 520h85c70 0 111 -50 99 -120l-49 -280c-13 -70 -71 -120 -141 -120h-200l-30 -170h-25l119 680h15l-7 -70h5s49 80 129 80z" />
    <glyph glyph-name="q" unicode="q" 
d="M310 -170l30 170h-200c-70 0 -112 50 -99 120l47 270c13 70 71 120 141 120h225l-119 -680h-25zM143 20h200l83 470h-200c-50 0 -103 -45 -113 -100l-47 -270c-10 -55 27 -100 77 -100z" />
    <glyph glyph-name="r" unicode="r" horiz-adv-x="315" 
d="M271 520h75l-3 -20h-75c-80 0 -135 -110 -135 -110l-68 -390h-25l89 510h15l-7 -70h5s49 80 129 80z" />
    <glyph glyph-name="s" unicode="s" horiz-adv-x="440" 
d="M73 360l7 40c11 65 64 110 129 110h205l-2 -15l-6 -5h-200c-45 0 -92 -40 -101 -90l-7 -40c-5 -30 20 -58 63 -70l123 -35c58 -16 87 -50 77 -105l-7 -40c-12 -65 -70 -110 -129 -110h-220l3 20h220c40 0 92 40 101 90l7 40c7 40 -18 68 -61 80l-124 35
c-57 16 -86 50 -78 95z" />
    <glyph glyph-name="t" unicode="t" horiz-adv-x="320" 
d="M309 510l-3 -20h-150l-65 -370c-10 -55 27 -100 77 -100h75l-3 -20h-75c-70 0 -112 50 -99 120l65 370h-75l3 20h75l39 160h15l-29 -160h150z" />
    <glyph glyph-name="u" unicode="u" horiz-adv-x="525" 
d="M243 -10h-85c-70 0 -111 50 -99 120l70 400h25l-70 -400c-10 -55 27 -100 77 -100h85c80 0 135 110 135 110l68 390h25l-89 -510h-15l7 70h-5s-49 -80 -129 -80z" />
    <glyph glyph-name="v" unicode="v" horiz-adv-x="425" 
d="M180 0h-35l-82 500l1 10h25l78 -470h5l242 470h25l-1 -10z" />
    <glyph glyph-name="w" unicode="w" horiz-adv-x="625" 
d="M357 440l50 -400h5l197 470h25l-1 -10l-213 -500h-35l-50 400h-5l-190 -400h-35l-37 500l1 10h25l33 -470h5l190 400h35z" />
    <glyph glyph-name="x" unicode="x" horiz-adv-x="415" 
d="M203 245h-5l-193 -245h-25l1 10l206 260l-104 230l1 10h25l98 -215h5l172 215h25l-1 -10l-186 -230l114 -260l-1 -10h-25z" />
    <glyph glyph-name="y" unicode="y" horiz-adv-x="415" 
d="M139 -30l16 30v5l-92 495l1 10h25l84 -460h5l226 460h25l-1 -10l-264 -530c-54 -110 -89 -140 -154 -140h-23l3 20h23c50 0 77 25 126 120z" />
    <glyph glyph-name="z" unicode="z" horiz-adv-x="390" 
d="M365 485l1 5h-290l-4 5l2 15h330l-3 -20l-387 -465l-1 -5h305l-3 -20h-340l3 20z" />
    <glyph glyph-name="space" unicode=" " horiz-adv-x="190" 
 />
    <glyph glyph-name="one" unicode="1" horiz-adv-x="260" 
d="M91 690l112 10h20l-123 -700h-25l119 675h-105z" />
    <glyph glyph-name="two" unicode="2" horiz-adv-x="465" 
d="M3 20h355l-3 -20h-395l3 20l332 295c56 50 101 90 116 175l10 60c15 85 -22 130 -102 130h-215l-4 5l3 15h220c95 0 140 -55 123 -150l-10 -60c-16 -90 -67 -135 -129 -190l-303 -275z" />
    <glyph glyph-name="three" unicode="3" horiz-adv-x="485" 
d="M469 680l-291 -290l-1 -5h105c95 0 141 -55 124 -150l-15 -85c-17 -95 -81 -150 -176 -150h-235l3 20h235c80 0 133 45 148 130l15 85c15 85 -22 130 -102 130h-135l3 20l292 290v5h-325l-4 5l3 15h360z" />
    <glyph glyph-name="four" unicode="4" horiz-adv-x="495" 
d="M325 0h-25l32 185h-330l4 20l412 495h30l-87 -495h90l-4 -20h-90zM416 660h-5l-374 -450l-1 -5h300z" />
    <glyph glyph-name="five" unicode="5" horiz-adv-x="495" 
d="M134 395h180c95 0 140 -55 124 -150l-17 -95c-17 -95 -81 -150 -176 -150h-215l3 20h215c80 0 133 45 148 130l17 95c15 85 -22 130 -102 130h-205l57 325h330l-3 -15l-6 -5h-300z" />
    <glyph glyph-name="six" unicode="6" horiz-adv-x="535" 
d="M137 410h210c95 0 140 -55 123 -150l-21 -120c-17 -95 -81 -150 -176 -150h-85c-95 0 -141 55 -124 150l72 410c17 95 82 150 177 150h200l-3 -15l-6 -5h-195c-80 0 -133 -45 -148 -130zM343 390h-210l-44 -250c-15 -85 22 -130 102 -130h85c80 0 133 45 148 130l21 120
c15 85 -22 130 -102 130z" />
    <glyph glyph-name="seven" unicode="7" horiz-adv-x="425" 
d="M95 0h-25l1 10l363 665v5h-355l4 20h385l-4 -20z" />
    <glyph glyph-name="eight" unicode="8" horiz-adv-x="530" 
d="M429 225c15 85 -22 130 -102 130h-100c-80 0 -133 -45 -148 -130l-15 -85c-15 -85 22 -130 102 -130h100c80 0 133 45 148 130zM371 690h-70c-80 0 -133 -45 -148 -130l-9 -55c-15 -85 22 -130 102 -130h70c80 0 133 45 148 130l9 55c15 85 -22 130 -102 130zM263 -10
h-100c-95 0 -141 55 -124 150l15 85c23 130 125 140 125 140l1 5s-83 15 -61 135l9 55c17 95 82 150 177 150h70c95 0 140 -55 123 -150l-9 -55c-22 -120 -109 -135 -109 -135l-1 -5s98 -10 75 -140l-15 -85c-17 -95 -81 -150 -176 -150z" />
    <glyph glyph-name="nine" unicode="9" horiz-adv-x="535" 
d="M421 290h-210c-95 0 -141 55 -124 150l21 120c17 95 82 150 177 150h85c95 0 140 -55 123 -150l-72 -410c-17 -95 -81 -150 -176 -150h-200l2 15l6 5h195c80 0 133 45 148 130zM214 310h210l44 250c15 85 -22 130 -102 130h-85c-80 0 -133 -45 -148 -130l-21 -120
c-15 -85 22 -130 102 -130z" />
    <glyph glyph-name="zero" unicode="0" horiz-adv-x="575" 
d="M406 690h-95c-80 0 -133 -45 -148 -130l-74 -420c-15 -85 22 -130 102 -130h95c80 0 133 45 148 130l74 420c15 85 -22 130 -102 130zM64 140l74 420c17 95 82 150 177 150h95c95 0 140 -55 123 -150l-74 -420c-17 -95 -81 -150 -176 -150h-95c-95 0 -141 55 -124 150z
" />
    <glyph glyph-name="question" unicode="?" horiz-adv-x="430" 
d="M130 0h-30l12 70h30zM165 230l-7 -40h-20l7 40c13 75 49 105 92 125l65 30c33 15 68 45 82 125l7 40c15 85 -22 130 -102 130h-205l-4 5l3 15h210c95 0 140 -55 123 -150l-7 -40c-15 -90 -57 -125 -100 -145l-65 -30c-33 -15 -68 -45 -79 -105z" />
    <glyph glyph-name="colon" unicode=":" horiz-adv-x="170" 
d="M50 0h-30l12 70h30zM127 440h-30l12 70h30z" />
    <glyph glyph-name="semicolon" unicode=";" horiz-adv-x="170" 
d="M55 30l-43 -130h-10l30 170h30zM127 440h-30l12 70h30z" />
    <glyph glyph-name="period" unicode="." horiz-adv-x="150" 
d="M40 0h-30l12 70h30z" />
    <glyph glyph-name="comma" unicode="," horiz-adv-x="150" 
d="M45 30l-43 -130h-10l30 170h30z" />
    <glyph glyph-name="exclam" unicode="!" horiz-adv-x="230" 
d="M93 190l43 300l37 210h30l-37 -210l-63 -300h-10zM80 0h-30l12 70h30z" />
    <glyph glyph-name="numbersign" unicode="#" horiz-adv-x="585" 
d="M275 0h-25l84 195h-195l-84 -195h-25l84 195h-110l3 20h115l118 270h-135l4 20h140l84 195h25l-84 -195h195l84 195h25l-84 -195h110l-4 -20h-115l-118 -270h135l-3 -20h-140zM265 485l-118 -270h195l118 270h-195z" />
    <glyph glyph-name="ampersand" unicode="&#x26;" horiz-adv-x="520" 
d="M185 370l1 5s-55 60 -38 155l3 20c17 95 82 150 177 150h150l-3 -15l-6 -5h-145c-80 0 -133 -45 -148 -130l-3 -20c-15 -85 22 -130 54 -175l244 -345l-1 -10h-25l-61 85h-5s-51 -95 -161 -95h-80c-95 0 -141 55 -124 150l14 80c26 145 157 150 157 150zM369 110
l-168 240c-80 0 -133 -45 -148 -130l-14 -80c-15 -85 22 -130 102 -130h80c90 0 148 100 148 100z" />
    <glyph glyph-name="dollar" unicode="$" 
d="M102 495l9 55c17 95 82 150 177 150h25l19 110h25l-19 -110h170l-3 -15l-6 -5h-215c-80 0 -133 -45 -148 -130l-9 -55c-11 -60 14 -92 66 -105l158 -40c72 -18 101 -55 87 -130l-12 -70c-17 -95 -81 -150 -176 -150h-35l-20 -110h-25l20 110h-185l3 20h245
c80 0 133 45 148 130l12 70c11 60 -13 92 -66 105l-158 40c-72 18 -100 55 -87 130z" />
    <glyph glyph-name="Euro" unicode="&#x20ac;" horiz-adv-x="515" 
d="M208 20h225l-3 -20h-225c-95 0 -141 55 -124 150l18 100h-75l3 20h75l28 160h-75l4 20h75l17 100c17 95 82 150 177 150h225l-3 -15l-6 -5h-220c-80 0 -133 -45 -148 -130l-17 -100h255l-4 -20h-255l-28 -160h255l-3 -20h-255l-18 -100c-15 -85 22 -130 102 -130z" />
    <glyph glyph-name="afii61352" unicode="&#x2116;" horiz-adv-x="920" 
d="M615 260h220l-3 -20h-220zM460 0h-30l-230 655h-5l-18 -130l-92 -525h-25l123 700h30l229 -655h5l18 130l93 525h25zM692 610l-25 -140c-9 -55 11 -80 61 -80h40c50 0 80 25 89 80l25 140c10 55 -11 80 -61 80h-40c-50 0 -79 -25 -89 -80zM907 610l-25 -140
c-11 -65 -52 -100 -117 -100h-40c-65 0 -94 35 -83 100l25 140c12 65 53 100 118 100h40c65 0 94 -35 82 -100z" />
    <glyph glyph-name="currency" unicode="&#xa4;" horiz-adv-x="560" 
d="M90 0h-25l29 165h-85l3 20h85l21 120h-85l4 20h85l66 375h235c95 0 140 -55 123 -150l-16 -95c-17 -95 -82 -150 -177 -150h-210l-21 -120h280l-3 -20h-280zM419 680h-210l-62 -355h210c80 0 133 45 148 130l16 95c15 85 -22 130 -102 130z" />
    <glyph glyph-name="at" unicode="@" horiz-adv-x="760" 
d="M354 310c-9 -50 24 -90 69 -90h95c80 0 135 110 135 110l25 145h-210c-45 0 -92 -40 -101 -90zM682 495l15 85c15 85 -22 130 -102 130h-280c-80 0 -133 -45 -148 -130l-81 -460c-15 -85 22 -130 102 -130h420l-4 -20h-420c-95 0 -140 55 -123 150l81 460
c17 95 81 150 176 150h280c95 0 141 -55 124 -150l-65 -370h-15l7 70h-5s-49 -80 -129 -80h-95c-65 0 -102 45 -91 110l13 75c12 65 65 110 130 110h210z" />
    <glyph glyph-name="guillemotleft" unicode="&#xab;" horiz-adv-x="385" 
d="M87 270l55 -170l-2 -10h-25l-58 180l122 180h25l-2 -10zM227 270l55 -170l-2 -10h-25l-58 180l122 180h25l-2 -10z" />
    <glyph glyph-name="guillemotright" unicode="&#xbb;" horiz-adv-x="385" 
d="M292 270l-55 170l2 10h25l58 -180l-122 -180h-25l2 10zM152 270l-55 170l2 10h25l58 -180l-122 -180h-25l2 10z" />
    <glyph glyph-name="quotedblright" unicode="&#x201d;" horiz-adv-x="280" 
d="M166 660l-43 -130h-10l30 170h30zM276 660l-43 -130h-10l30 170h30z" />
    <glyph glyph-name="quotedblleft" unicode="&#x201c;" horiz-adv-x="280" 
d="M120 570l43 130h10l-30 -170h-30zM230 570l43 130h10l-30 -170h-30z" />
    <glyph glyph-name="quotedblbase" unicode="&#x201e;" horiz-adv-x="280" 
d="M55 30l-43 -130h-10l30 170h30zM165 30l-43 -130h-10l30 170h30z" />
    <glyph glyph-name="asterisk" unicode="*" horiz-adv-x="340" 
d="M209 510l-108 -105l-9 5l101 120l-113 40l2 10l120 -25l36 145h10l-16 -145l130 25l-2 -10l-127 -40l59 -120l-11 -5z" />
    <glyph glyph-name="degree" unicode="&#xb0;" horiz-adv-x="340" 
d="M132 610l-25 -140c-9 -55 11 -80 61 -80h40c50 0 80 25 89 80l25 140c10 55 -11 80 -61 80h-40c-50 0 -79 -25 -89 -80zM347 610l-25 -140c-11 -65 -52 -100 -117 -100h-40c-65 0 -94 35 -83 100l25 140c12 65 53 100 118 100h40c65 0 94 -35 82 -100z" />
    <glyph glyph-name="parenleft" unicode="(" horiz-adv-x="285" 
d="M191 -190h-25c-95 0 -140 55 -124 150l119 670c16 95 81 150 176 150h25l-3 -20h-25c-80 0 -133 -45 -148 -130l-119 -670c-15 -85 23 -130 103 -130h25z" />
    <glyph glyph-name="parenright" unicode=")" horiz-adv-x="285" 
d="M97 780h25c95 0 140 -55 124 -150l-119 -670c-16 -95 -81 -150 -176 -150h-24l4 20h24c80 0 132 45 147 130l119 670c15 85 -22 130 -102 130h-25z" />
    <glyph glyph-name="braceleft" unicode="{" horiz-adv-x="275" 
d="M52 300v-5s72 -15 56 -105l-46 -260c-10 -55 28 -100 78 -100h45l-4 -20h-45c-70 0 -111 50 -99 120l46 260c10 55 -23 95 -73 95l4 25c50 0 97 40 107 95l45 255c12 70 71 120 141 120h45l-3 -20h-45c-50 0 -103 -45 -113 -100l-45 -255c-16 -90 -94 -105 -94 -105z" />
    <glyph glyph-name="braceright" unicode="}" horiz-adv-x="275" 
d="M227 295v5s-72 15 -56 105l45 255c10 55 -27 100 -77 100h-45l3 20h45c70 0 111 -50 99 -120l-45 -255c-10 -55 23 -95 73 -95l-4 -25c-50 0 -97 -40 -107 -95l-46 -260c-12 -70 -71 -120 -141 -120h-44l4 20h44c50 0 102 45 112 100l46 260c16 90 94 105 94 105z" />
    <glyph glyph-name="bracketleft" unicode="[" horiz-adv-x="285" 
d="M209 760l-164 -930h150l-4 -20h-175l171 970h175l-3 -20h-150z" />
    <glyph glyph-name="bracketright" unicode="]" horiz-adv-x="285" 
d="M80 -170l164 930h-150l3 20h175l-171 -970h-174l4 20h149z" />
    <glyph glyph-name="hyphen" unicode="-" horiz-adv-x="405" 
d="M49 335h325l-4 -20h-325z" />
    <glyph glyph-name="plus" unicode="+" horiz-adv-x="455" 
d="M283 530l-34 -195h175l-4 -20h-175l-34 -195h-25l34 195h-175l4 20h175l34 195h25z" />
    <glyph glyph-name="plusminus" unicode="&#xb1;" horiz-adv-x="475" 
d="M25 145h175l34 195h-175l4 20h175l34 195h25l-34 -195h175l-4 -20h-175l-34 -195h175l-3 -20h-375z" />
    <glyph glyph-name="equal" unicode="=" horiz-adv-x="415" 
d="M42 240h315l-4 -20h-315zM75 430h315l-3 -20h-315z" />
    <glyph glyph-name="asciitilde" unicode="~" horiz-adv-x="440" 
d="M227 300l-29 60c-10 20 -28 40 -53 40h-5c-25 0 -48 -20 -54 -50l-18 -105h-25l18 105c7 40 43 70 83 70h5c40 0 61 -25 79 -60l29 -60c11 -20 28 -40 53 -40h5c25 0 49 20 54 50l19 105h25l-19 -105c-7 -40 -42 -70 -82 -70h-5c-40 0 -62 25 -80 60z" />
    <glyph glyph-name="underscore" unicode="_" horiz-adv-x="345" 
d="M-51 -120h304l-3 -20h-304z" />
    <glyph glyph-name="endash" unicode="&#x2013;" horiz-adv-x="470" 
d="M45 315h390l-3 -20h-390z" />
    <glyph glyph-name="emdash" unicode="&#x2014;" horiz-adv-x="705" 
d="M45 315h625l-3 -20h-625z" />
    <glyph glyph-name="asciicircum" unicode="^" horiz-adv-x="345" 
d="M258 700l86 -250h-25l-76 220h-5l-154 -220h-25l174 250h25z" />
    <glyph glyph-name="grave" unicode="`" horiz-adv-x="180" 
d="M113 700h30l43 -150h-20z" />
    <glyph glyph-name="copyright" unicode="&#xa9;" horiz-adv-x="820" 
d="M318 730h340c95 0 141 -55 124 -150l-81 -460c-17 -95 -82 -150 -177 -150h-340c-95 0 -140 55 -123 150l81 460c17 95 81 150 176 150zM499 170h-125c-70 0 -102 40 -90 110l25 140c12 70 59 110 129 110h125l-3 -15l-6 -5h-120c-50 0 -91 -35 -100 -90l-25 -140
c-10 -55 19 -90 69 -90h125zM655 710h-340c-80 0 -133 -45 -148 -130l-81 -460c-15 -85 22 -130 102 -130h340c80 0 133 45 148 130l81 460c15 85 -22 130 -102 130z" />
    <glyph glyph-name="registered" unicode="&#xae;" horiz-adv-x="820" 
d="M571 435l-3 -20c-16 -90 -92 -95 -92 -95l50 -140l-2 -10h-25l-48 150h-120l-27 -150h-25l64 360h155c55 0 84 -35 73 -95zM543 415l3 20c9 50 -12 75 -52 75h-130l-30 -170h130c40 0 70 25 79 75zM318 730h340c95 0 141 -55 124 -150l-81 -460
c-17 -95 -82 -150 -177 -150h-340c-95 0 -140 55 -123 150l81 460c17 95 81 150 176 150zM655 710h-340c-80 0 -133 -45 -148 -130l-81 -460c-15 -85 22 -130 102 -130h340c80 0 133 45 148 130l81 460c15 85 -22 130 -102 130z" />
    <glyph glyph-name="trademark" unicode="&#x2122;" horiz-adv-x="645" 
d="M79 680l4 20h235l-3 -15l-6 -5h-100l-51 -290h-25l51 290h-105zM466 435h-25l-48 210h-5l-75 -255h-25l2 10l88 300h30l51 -220h5l129 220h30l-18 -300l-2 -10h-25l15 255h-5z" />
    <glyph glyph-name="slash" unicode="/" horiz-adv-x="415" 
d="M475 740l-494 -790h-20l1 10l495 790h20z" />
    <glyph glyph-name="bar" unicode="|" horiz-adv-x="245" 
d="M226 800l-171 -970h-25l171 970h25z" />
    <glyph glyph-name="backslash" unicode="\" horiz-adv-x="415" 
d="M316 -50l-216 790l2 10h20l215 -790l-1 -10h-20z" />
    <glyph glyph-name="percent" unicode="%" horiz-adv-x="680" 
d="M122 610l-25 -140c-9 -55 11 -80 61 -80h40c50 0 80 25 89 80l25 140c10 55 -11 80 -61 80h-40c-50 0 -79 -25 -89 -80zM337 610l-25 -140c-11 -65 -52 -100 -117 -100h-40c-65 0 -94 35 -83 100l25 140c12 65 53 100 118 100h40c65 0 94 -35 82 -100zM415 230l-25 -140
c-9 -55 11 -80 61 -80h40c50 0 80 25 89 80l25 140c10 55 -11 80 -61 80h-40c-50 0 -79 -25 -89 -80zM630 230l-25 -140c-11 -65 -52 -100 -117 -100h-40c-65 0 -94 35 -83 100l25 140c12 65 53 100 118 100h40c65 0 94 -35 82 -100zM583 700h25l-2 -10l-486 -690h-25l1 10z
" />
    <glyph glyph-name="paragraph" unicode="&#xb6;" horiz-adv-x="410" 
d="M223 700h250l-4 -20h-85l-149 -850h-25l149 850h-95l-149 -850h-25l98 560h-20c-70 0 -103 40 -90 110l16 90c12 70 59 110 129 110z" />
    <glyph glyph-name="section" unicode="&#xa7;" horiz-adv-x="475" 
d="M319 395l-120 30s-73 -20 -85 -90l-18 -100c-7 -40 18 -69 61 -80l120 -30s73 20 85 90l18 100c7 40 -18 69 -61 80zM71 235l18 100c12 70 86 95 86 95l1 5s-65 25 -55 85l13 70c11 65 64 110 129 110h195l-3 -15l-6 -5h-190c-45 0 -92 -40 -100 -90l-13 -70
c-5 -30 20 -59 63 -70l120 -30c57 -14 86 -50 76 -105l-18 -100c-12 -70 -86 -95 -86 -95l-1 -5s65 -25 55 -85l-16 -90c-12 -65 -64 -110 -129 -110h-215l3 20h215c45 0 92 40 101 90l16 90c5 30 -20 59 -63 70l-120 30c-57 14 -86 50 -76 105z" />
    <glyph glyph-name="dagger" unicode="&#x2020;" horiz-adv-x="445" 
d="M61 465h180l50 255h15l-40 -255h180l-3 -20h-180l-108 -615h-25l108 615h-180z" />
    <glyph glyph-name="quotesingle" unicode="'" horiz-adv-x="165" 
d="M111 490l16 120l16 90h25l-16 -90l-26 -120h-15z" />
    <glyph glyph-name="quotedbl" unicode="&#x22;" horiz-adv-x="280" 
d="M111 490l16 120l16 90h25l-16 -90l-26 -120h-15zM226 490l16 120l16 90h25l-16 -90l-26 -120h-15z" />
    <glyph glyph-name="less" unicode="&#x3c;" horiz-adv-x="440" 
d="M74 255v-5l275 -195l-5 -30l-302 215l4 25l378 215l-5 -30z" />
    <glyph glyph-name="greater" unicode="&#x3e;" horiz-adv-x="440" 
d="M354 250v5l-275 195l5 30l302 -215l-4 -25l-378 -215l5 30z" />
    <glyph glyph-name="quotesinglbase" unicode="&#x201a;" horiz-adv-x="170" 
d="M55 30l-43 -130h-10l30 170h30z" />
    <glyph glyph-name="guilsinglleft" unicode="&#x2039;" horiz-adv-x="285" 
d="M148 50l-93 210l167 210h25l-1 -10l-161 -200l90 -200l-2 -10h-25z" />
    <glyph glyph-name="periodcentered" unicode="&#xb7;" horiz-adv-x="190" 
d="M115 315h-30l12 70h30z" />
    <glyph glyph-name="bullet" unicode="&#x2022;" horiz-adv-x="265" 
d="M103 305l4 20c2 15 14 25 29 25h15c15 0 23 -10 21 -25l-4 -20c-2 -15 -14 -25 -29 -25h-15c-15 0 -23 10 -21 25z" />
    <glyph glyph-name="daggerdbl" unicode="&#x2021;" horiz-adv-x="445" 
d="M146 -190h-15l38 245h-180l4 20h180l67 380h-180l3 20h180l48 245h15l-38 -245h180l-3 -20h-180l-67 -380h180l-4 -20h-180z" />
    <glyph glyph-name="logicalnot" unicode="&#xac;" horiz-adv-x="415" 
d="M62 410h325l-27 -150h-25l23 130h-300z" />
    <glyph glyph-name="ellipsis" unicode="&#x2026;" horiz-adv-x="520" 
d="M50 0h-30l12 70h30zM225 0h-30l12 70h30zM400 0h-30l12 70h30z" />
    <glyph glyph-name="brokenbar" unicode="&#xa6;" horiz-adv-x="225" 
d="M191 800h25l-69 -390h-25zM113 220l-68 -390h-25l68 390h25z" />
    <glyph glyph-name="perthousand" unicode="&#x2030;" horiz-adv-x="970" 
d="M122 610l-25 -140c-9 -55 11 -80 61 -80h40c50 0 80 25 89 80l25 140c10 55 -11 80 -61 80h-40c-50 0 -79 -25 -89 -80zM337 610l-25 -140c-11 -65 -52 -100 -117 -100h-40c-65 0 -94 35 -83 100l25 140c12 65 53 100 118 100h40c65 0 94 -35 82 -100zM415 230l-25 -140
c-9 -55 11 -80 61 -80h40c50 0 80 25 89 80l25 140c10 55 -11 80 -61 80h-40c-50 0 -79 -25 -89 -80zM630 230l-25 -140c-11 -65 -52 -100 -117 -100h-40c-65 0 -94 35 -83 100l25 140c12 65 53 100 118 100h40c65 0 94 -35 82 -100zM583 700h25l-2 -10l-486 -690h-25l1 10z
M705 230l-25 -140c-9 -55 11 -80 61 -80h40c50 0 80 25 89 80l25 140c10 55 -11 80 -61 80h-40c-50 0 -79 -25 -89 -80zM920 230l-25 -140c-11 -65 -52 -100 -117 -100h-40c-65 0 -94 35 -83 100l25 140c12 65 53 100 118 100h40c65 0 94 -35 82 -100z" />
    <glyph glyph-name="afii10053" unicode="&#x404;" horiz-adv-x="500" 
d="M193 20h225l-3 -20h-225c-95 0 -141 55 -124 150l70 400c17 95 82 150 177 150h225l-3 -15l-6 -5h-220c-80 0 -133 -45 -148 -130l-32 -185h240l-4 -20h-240l-34 -195c-15 -85 22 -130 102 -130z" />
    <glyph glyph-name="afii10101" unicode="&#x454;" horiz-adv-x="410" 
d="M416 490h-190c-50 0 -103 -45 -113 -100l-21 -120h190l-3 -20h-190l-23 -130c-10 -55 27 -100 77 -100h195l-3 -20h-195c-70 0 -112 50 -99 120l47 270c13 70 71 120 141 120h195l-2 -15z" />
    <glyph glyph-name="mu" unicode="&#xb5;" horiz-adv-x="525" 
d="M35 -170h-25l119 680h25l-70 -400c-10 -55 27 -100 77 -100h85c80 0 135 110 135 110l68 390h25l-89 -510h-15l7 70h-5s-49 -80 -129 -80h-85c-60 0 -82 45 -82 45h-5z" />
    <glyph glyph-name="afii10060" unicode="&#x40b;" horiz-adv-x="615" 
d="M485 0h-25l48 275c15 85 -22 130 -102 130h-200l-71 -405h-25l119 680h-160l4 20h370l-3 -15l-6 -5h-180l-45 -255h200c95 0 141 -55 124 -150z" />
    <glyph glyph-name="afii10108" unicode="&#x45b;" horiz-adv-x="520" 
d="M68 560h75l37 150h15l-27 -150h150l-3 -20h-150l-21 -120h200c70 0 111 -50 98 -120l-52 -300h-25l52 300c10 55 -27 100 -77 100h-200l-70 -400h-25l95 540h-75z" />
    <glyph glyph-name="afii10051" unicode="&#x402;" horiz-adv-x="605" 
d="M331 -20h-30l4 20h30c80 0 132 45 147 130l26 145c15 85 -22 130 -102 130h-200l-71 -405h-25l119 680h-160l4 20h370l-3 -15l-6 -5h-180l-45 -255h200c95 0 141 -55 124 -150l-26 -145c-16 -95 -81 -150 -176 -150z" />
    <glyph glyph-name="afii10099" unicode="&#x452;" horiz-adv-x="500" 
d="M68 560h75l37 150h15l-27 -150h150l-3 -20h-150l-21 -120h200c70 0 111 -50 98 -120l-33 -190c-12 -70 -71 -120 -141 -120h-30l3 20h30c50 0 103 45 113 100l33 190c10 55 -27 100 -77 100h-200l-70 -400h-25l95 540h-75z" />
    <glyph glyph-name="afii10050" unicode="&#x490;" horiz-adv-x="450" 
d="M542 810l-23 -130h-315l-119 -680h-25l123 700h315l29 110h15z" />
    <glyph glyph-name="afii10098" unicode="&#x491;" horiz-adv-x="380" 
d="M416 490h-265l-86 -490h-25l89 510h265l30 110h15z" />
    <glyph glyph-name="afii10193" unicode="&#x45f;" horiz-adv-x="520" 
d="M380 0h-155l-30 -140h-20l20 140h-155l89 510h25l-86 -490h290l86 490h25z" />
    <glyph glyph-name="afii10145" unicode="&#x40f;" horiz-adv-x="620" 
d="M245 0h-185l123 700h25l-120 -680h350l120 680h25l-123 -700h-185l-30 -140h-20z" />
    <glyph glyph-name="afii10106" unicode="&#x459;" horiz-adv-x="730" 
d="M400 315h175c65 0 102 -45 91 -110l-17 -95c-12 -65 -64 -110 -129 -110h-200l86 490h-205l-95 -370c-20 -75 -83 -130 -138 -130h-19l2 20h20c40 0 92 45 110 110l103 390h250zM572 295h-175l-49 -275h175c45 0 92 40 101 90l17 95c8 50 -24 90 -69 90z" />
    <glyph glyph-name="afii10058" unicode="&#x409;" horiz-adv-x="885" 
d="M-19 10c45 0 87 35 113 130l154 560h300l-49 -280h190c95 0 140 -55 123 -150l-21 -120c-17 -95 -81 -150 -176 -150h-215l119 680h-250l-150 -540c-30 -110 -76 -150 -141 -150h-29l2 20h30zM428 20h190c80 0 133 45 148 130l21 120c15 85 -22 130 -102 130h-190z" />
    <glyph glyph-name="afii10059" unicode="&#x40a;" horiz-adv-x="890" 
d="M85 0h-25l123 700h25l-53 -300h320l53 300h25l-53 -300h190c95 0 140 -55 124 -150l-18 -100c-17 -95 -81 -150 -176 -150h-215l67 380h-320zM433 20h190c80 0 133 45 148 130l18 100c15 85 -22 130 -102 130h-190z" />
    <glyph glyph-name="afii10107" unicode="&#x45a;" horiz-adv-x="745" 
d="M407 295h180c65 0 102 -45 90 -110l-13 -75c-12 -65 -64 -110 -129 -110h-205l48 275h-265l-48 -275h-25l89 510h25l-37 -215h265l37 215h25zM583 275h-180l-45 -255h180c45 0 92 40 101 90l13 75c9 50 -24 90 -69 90z" />
    <glyph glyph-name="A" unicode="A" horiz-adv-x="525" 
d="M106 205l-101 -205h-25l1 10l337 690h35l93 -690l-1 -10h-25l-29 205h-285zM326 660l-212 -435h275l-58 435h-5z" />
    <glyph glyph-name="afii10104" unicode="&#x457;" horiz-adv-x="205" 
d="M154 510l-89 -510h-25l89 510h25zM101 635h-25l15 80h25zM251 635h-25l15 80h25z" />
    <glyph glyph-name="guilsinglright" unicode="&#x203a;" horiz-adv-x="285" 
d="M127 470l93 -210l-167 -210h-25l2 10l160 200l-89 200l1 10h25z" />
    <glyph glyph-name="afii10017" unicode="&#x410;" horiz-adv-x="525" 
d="M106 205l-101 -205h-25l1 10l337 690h35l93 -690l-1 -10h-25l-29 205h-285zM326 660l-212 -435h275l-58 435h-5z" />
    <glyph glyph-name="afii10019" unicode="&#x412;" horiz-adv-x="580" 
d="M183 700h225c95 0 140 -55 123 -150l-7 -45c-21 -115 -98 -130 -98 -130l-1 -5s103 -10 79 -145l-13 -75c-17 -95 -81 -150 -176 -150h-255zM88 20h230c80 0 133 45 148 130l13 75c15 85 -22 130 -102 130h-230zM404 680h-200l-53 -305h200c80 0 133 45 148 130l7 45
c15 85 -22 130 -102 130z" />
    <glyph glyph-name="afii10022" unicode="&#x415;" 
d="M548 700l-3 -15l-6 -5h-335l-54 -310h260l-4 -20h-260l-58 -330h340l-3 -20h-365l123 700h365z" />
    <glyph glyph-name="afii10030" unicode="&#x41c;" horiz-adv-x="805" 
d="M387 100h-35l-107 555h-4l-186 -655h-25l1 10l197 690h35l110 -565h5l310 565h35l-47 -690l-1 -10h-25l44 655h-4z" />
    <glyph glyph-name="afii10031" unicode="&#x41d;" horiz-adv-x="620" 
d="M85 0h-25l123 700h25l-58 -330h350l58 330h25l-123 -700h-25l61 350h-350z" />
    <glyph glyph-name="afii10032" unicode="&#x41e;" horiz-adv-x="610" 
d="M441 690h-130c-80 0 -133 -45 -148 -130l-74 -420c-15 -85 22 -130 102 -130h130c80 0 133 45 148 130l74 420c15 85 -22 130 -102 130zM64 140l74 420c17 95 82 150 177 150h130c95 0 140 -55 123 -150l-74 -420c-17 -95 -81 -150 -176 -150h-130
c-95 0 -141 55 -124 150z" />
    <glyph glyph-name="afii10034" unicode="&#x420;" horiz-adv-x="575" 
d="M85 0h-25l123 700h245c95 0 140 -55 123 -150l-24 -140c-17 -95 -82 -150 -177 -150h-220zM424 680h-220l-70 -400h220c80 0 133 45 148 130l24 140c15 85 -22 130 -102 130z" />
    <glyph glyph-name="afii10035" unicode="&#x421;" horiz-adv-x="500" 
d="M193 20h225l-3 -20h-225c-95 0 -141 55 -124 150l70 400c17 95 82 150 177 150h225l-3 -15l-6 -5h-220c-80 0 -133 -45 -148 -130l-70 -400c-15 -85 22 -130 102 -130z" />
    <glyph glyph-name="afii10036" unicode="&#x422;" horiz-adv-x="445" 
d="M79 680l4 20h425l-3 -15l-6 -5h-195l-119 -680h-25l119 680h-200z" />
    <glyph glyph-name="afii10039" unicode="&#x425;" 
d="M264 335h-5l-254 -335h-25l1 10l267 350l-132 330l2 10h25l124 -315h5l236 315h25l-2 -10l-248 -330l143 -350l-1 -10h-25z" />
    <glyph glyph-name="afii10065" unicode="&#x430;" horiz-adv-x="490" 
d="M47 100c-9 -50 24 -90 69 -90h95c80 0 135 110 135 110l25 145h-210c-45 0 -92 -40 -101 -90zM350 0h-15l7 70h-5s-49 -80 -129 -80h-95c-65 0 -102 45 -91 110l13 75c12 65 65 110 130 110h210l18 105c10 55 -27 100 -77 100h-185l3 20h185c70 0 112 -50 99 -120z" />
    <glyph glyph-name="afii10070" unicode="&#x435;" horiz-adv-x="480" 
d="M328 500h-100c-50 0 -103 -45 -113 -100l-25 -140h290l25 140c10 55 -27 100 -77 100zM345 0h-205c-70 0 -112 50 -99 120l49 280c12 70 71 120 141 120h100c70 0 111 -50 99 -120l-28 -160h-315l-21 -120c-10 -55 27 -100 77 -100h205z" />
    <glyph glyph-name="afii10080" unicode="&#x43e;" horiz-adv-x="495" 
d="M39 110l51 290c12 70 71 120 141 120h115c70 0 111 -50 99 -120l-51 -290c-12 -70 -71 -120 -141 -120h-115c-70 0 -111 50 -99 120zM141 10h115c50 0 103 45 113 100l51 290c10 55 -27 100 -77 100h-115c-50 0 -103 -45 -113 -100l-51 -290c-10 -55 27 -100 77 -100z
" />
    <glyph glyph-name="afii10082" unicode="&#x440;" 
d="M353 500h-85c-80 0 -135 -110 -135 -110l-65 -370h200c50 0 103 45 113 100l49 280c10 55 -27 100 -77 100zM271 520h85c70 0 111 -50 99 -120l-49 -280c-13 -70 -71 -120 -141 -120h-200l-30 -170h-25l119 680h15l-7 -70h5s49 80 129 80z" />
    <glyph glyph-name="afii10083" unicode="&#x441;" horiz-adv-x="410" 
d="M416 490h-190c-50 0 -103 -45 -113 -100l-47 -270c-10 -55 27 -100 77 -100h195l-3 -20h-195c-70 0 -112 50 -99 120l47 270c13 70 71 120 141 120h195l-2 -15z" />
    <glyph glyph-name="afii10085" unicode="&#x443;" horiz-adv-x="425" 
d="M144 -30l16 30v5l-92 495l1 10h25l84 -460h5l226 460h25l-1 -10l-264 -530c-54 -110 -89 -140 -154 -140h-23l3 20h23c50 0 77 25 126 120z" />
    <glyph glyph-name="afii10087" unicode="&#x445;" horiz-adv-x="415" 
d="M203 245h-5l-193 -245h-25l1 10l206 260l-104 230l1 10h25l98 -215h5l172 215h25l-1 -10l-186 -230l114 -260l-1 -10h-25z" />
    <glyph glyph-name="quoteleft" unicode="&#x2018;" horiz-adv-x="170" 
d="M120 570l43 130h10l-30 -170h-30z" />
    <glyph glyph-name="quoteright" unicode="&#x2019;" horiz-adv-x="170" 
d="M166 660l-43 -130h-10l30 170h30z" />
    <glyph glyph-name="T" unicode="T" horiz-adv-x="445" 
d="M79 680l4 20h425l-3 -15l-6 -5h-195l-119 -680h-25l119 680h-200z" />
    <glyph glyph-name="afii10028" unicode="&#x41a;" horiz-adv-x="550" 
d="M85 0h-25l123 700h25l-58 -330h170l233 330h25l-2 -10l-238 -330l123 -350l-1 -10h-25l-119 350h-170z" />
    <glyph glyph-name="K" unicode="K" horiz-adv-x="550" 
d="M85 0h-25l123 700h25l-58 -330h170l233 330h25l-2 -10l-238 -330l123 -350l-1 -10h-25l-119 350h-170z" />
    <glyph glyph-name="acute" unicode="&#xb4;" horiz-adv-x="180" 
d="M192 750h30l-107 -150h-20z" />
    <glyph glyph-name="breve" unicode="&#x2d8;" horiz-adv-x="300" 
d="M238 615h-60c-50 0 -75 30 -66 80l7 40h25l-7 -40c-7 -40 9 -60 44 -60h60c35 0 59 20 66 60l7 40h25l-7 -40c-9 -50 -44 -80 -94 -80z" />
    <glyph glyph-name="caron" unicode="&#x2c7;" horiz-adv-x="315" 
d="M332 750h25l-132 -150h-25l-78 150h25l67 -130h5z" />
    <glyph glyph-name="circumflex" unicode="&#x2c6;" horiz-adv-x="315" 
d="M120 600h-25l132 150h25l78 -150h-25l-67 130h-5z" />
    <glyph glyph-name="dieresis" unicode="&#xa8;" horiz-adv-x="255" 
d="M126 635h-25l15 80h25zM276 635h-25l15 80h25z" />
    <glyph glyph-name="dotaccent" unicode="&#x2d9;" horiz-adv-x="105" 
d="M142 725l-17 -100h-25l17 100h25z" />
    <glyph glyph-name="hungarumlaut" unicode="&#x2dd;" horiz-adv-x="315" 
d="M192 750h30l-107 -150h-20zM327 750h30l-107 -150h-20z" />
    <glyph glyph-name="macron" unicode="&#xaf;" horiz-adv-x="305" 
d="M110 685h225l-3 -20h-225z" />
    <glyph glyph-name="commaaccent" unicode="&#xf6c3;" horiz-adv-x="110" 
d="M2 -100l-43 -130h-9l27 160h30z" />
    <glyph glyph-name="ring" unicode="&#x2da;" horiz-adv-x="250" 
d="M177 610h10c30 0 59 25 65 55l3 20c6 30 -15 55 -45 55h-10c-30 0 -59 -25 -65 -55l-3 -20c-6 -30 15 -55 45 -55zM184 590h-10c-45 0 -74 35 -67 75l3 20c7 40 49 75 94 75h10c45 0 73 -35 66 -75l-3 -20c-7 -40 -48 -75 -93 -75z" />
    <glyph glyph-name="tilde" unicode="&#x2dc;" horiz-adv-x="290" 
d="M214 650l-22 45c-7 15 -16 25 -31 25s-26 -10 -30 -30l-13 -75h-20l13 75c5 30 29 50 54 50s36 -16 48 -40l22 -45c7 -15 16 -25 31 -25s26 10 30 30l13 75h20l-13 -75c-5 -30 -29 -50 -54 -50s-36 16 -48 40z" />
    <glyph glyph-name="cedilla" unicode="&#xb8;" horiz-adv-x="230" 
d="M29 -230h-79l2 20h80c30 0 48 15 54 50l6 30c6 35 -7 50 -37 50h-55l15 80h25l-11 -60h30c45 0 66 -25 58 -70l-6 -30c-8 -45 -37 -70 -82 -70z" />
    <glyph glyph-name="ogonek" unicode="&#x2db;" horiz-adv-x="200" 
d="M27 -185h50l-4 -20h-50c-45 0 -65 25 -57 70c13 75 104 135 104 135h20l-1 -5s-85 -55 -98 -130c-6 -35 6 -50 36 -50z" />
    <glyph glyph-name="Aacute" unicode="&#xc1;" horiz-adv-x="525" 
d="M106 205l-101 -205h-25l1 10l337 690h35l93 -690l-1 -10h-25l-29 205h-285zM326 660l-212 -435h275l-58 435h-5zM440 910h30l-105 -140h-20z" />
    <glyph glyph-name="Abreve" unicode="&#x102;" horiz-adv-x="525" 
d="M106 205l-101 -205h-25l1 10l337 690h35l93 -690l-1 -10h-25l-29 205h-285zM326 660l-212 -435h275l-58 435h-5zM380 785h-60c-50 0 -75 30 -66 80l5 30h25l-5 -30c-7 -40 9 -60 44 -60h60c35 0 59 20 66 60l5 30h25l-5 -30c-9 -50 -44 -80 -94 -80z" />
    <glyph glyph-name="Acircumflex" unicode="&#xc2;" horiz-adv-x="525" 
d="M106 205l-101 -205h-25l1 10l337 690h35l93 -690l-1 -10h-25l-29 205h-285zM326 660l-212 -435h275l-58 435h-5zM465 770h-25l-69 120h-5l-111 -120h-25l130 140h25z" />
    <glyph glyph-name="Agrave" unicode="&#xc0;" horiz-adv-x="525" 
d="M106 205l-101 -205h-25l1 10l337 690h35l93 -690l-1 -10h-25l-29 205h-285zM326 660l-212 -435h275l-58 435h-5zM280 910h30l45 -140h-20z" />
    <glyph glyph-name="Adieresis" unicode="&#xc4;" horiz-adv-x="525" 
d="M106 205l-101 -205h-25l1 10l337 690h35l93 -690l-1 -10h-25l-29 205h-285zM326 660l-212 -435h275l-58 435h-5zM291 800h-25l14 80h25zM441 800h-25l14 80h25z" />
    <glyph glyph-name="Amacron" unicode="&#x100;" horiz-adv-x="525" 
d="M106 205l-101 -205h-25l1 10l337 690h35l93 -690l-1 -10h-25l-29 205h-285zM326 660l-212 -435h275l-58 435h-5zM249 850h225l-3 -20h-225z" />
    <glyph glyph-name="Atilde" unicode="&#xc3;" horiz-adv-x="525" 
d="M106 205l-101 -205h-25l1 10l337 690h35l93 -690l-1 -10h-25l-29 205h-285zM326 660l-212 -435h275l-58 435h-5zM356 820l-14 35c-6 15 -15 25 -30 25h-5c-15 0 -27 -10 -31 -30l-11 -65h-20l11 65c6 30 29 50 54 50h5c25 0 38 -14 48 -40l14 -35c6 -15 16 -25 31 -25h5
c15 0 26 10 30 30l11 65h20l-11 -65c-5 -30 -29 -50 -54 -50h-5c-25 0 -37 14 -48 40z" />
    <glyph glyph-name="AE" unicode="&#xc6;" horiz-adv-x="755" 
d="M364 225h-275l-114 -225h-25l1 10l352 690h495l-3 -15l-6 -5h-320l-54 -310h245l-4 -20h-245l-58 -330h325l-3 -20h-350zM319 680l-221 -435h270l76 435h-125z" />
    <glyph glyph-name="Cacute" unicode="&#x106;" horiz-adv-x="500" 
d="M193 20h225l-3 -20h-225c-95 0 -141 55 -124 150l70 400c17 95 82 150 177 150h225l-3 -15l-6 -5h-220c-80 0 -133 -45 -148 -130l-70 -400c-15 -85 22 -130 102 -130zM470 910h30l-105 -140h-20z" />
    <glyph glyph-name="Ccaron" unicode="&#x10c;" horiz-adv-x="500" 
d="M193 20h225l-3 -20h-225c-95 0 -141 55 -124 150l70 400c17 95 82 150 177 150h225l-3 -15l-6 -5h-220c-80 0 -133 -45 -148 -130l-70 -400c-15 -85 22 -130 102 -130zM290 910h25l69 -120h5l111 120h25l-130 -140h-25z" />
    <glyph glyph-name="Ccircumflex" unicode="&#x108;" horiz-adv-x="500" 
d="M193 20h225l-3 -20h-225c-95 0 -141 55 -124 150l70 400c17 95 82 150 177 150h225l-3 -15l-6 -5h-220c-80 0 -133 -45 -148 -130l-70 -400c-15 -85 22 -130 102 -130zM500 770h-25l-69 120h-5l-111 -120h-25l130 140h25z" />
    <glyph glyph-name="Dcaron" unicode="&#x10e;" horiz-adv-x="600" 
d="M310 0h-250l123 700h250c95 0 140 -55 123 -150l-70 -400c-17 -95 -81 -150 -176 -150zM88 20h225c80 0 133 45 148 130l70 400c15 85 -22 130 -102 130h-225zM290 910h25l69 -120h5l111 120h25l-130 -140h-25z" />
    <glyph glyph-name="Eacute" unicode="&#xc9;" 
d="M548 700l-3 -15l-6 -5h-335l-54 -310h260l-4 -20h-260l-58 -330h340l-3 -20h-365l123 700h365zM460 910h30l-105 -140h-20z" />
    <glyph glyph-name="Ecaron" unicode="&#x11a;" 
d="M548 700l-3 -15l-6 -5h-335l-54 -310h260l-4 -20h-260l-58 -330h340l-3 -20h-365l123 700h365zM285 910h25l69 -120h5l111 120h25l-130 -140h-25z" />
    <glyph glyph-name="Ecircumflex" unicode="&#xca;" 
d="M548 700l-3 -15l-6 -5h-335l-54 -310h260l-4 -20h-260l-58 -330h340l-3 -20h-365l123 700h365zM495 770h-25l-69 120h-5l-111 -120h-25l130 140h25z" />
    <glyph glyph-name="Edieresis" unicode="&#xcb;" 
d="M548 700l-3 -15l-6 -5h-335l-54 -310h260l-4 -20h-260l-58 -330h340l-3 -20h-365l123 700h365zM321 800h-25l14 80h25zM471 800h-25l14 80h25z" />
    <glyph glyph-name="Edotaccent" unicode="&#x116;" 
d="M548 700l-3 -15l-6 -5h-335l-54 -310h260l-4 -20h-260l-58 -330h340l-3 -20h-365l123 700h365zM411 890l-17 -100h-25l17 100h25z" />
    <glyph glyph-name="Egrave" unicode="&#xc8;" 
d="M548 700l-3 -15l-6 -5h-335l-54 -310h260l-4 -20h-260l-58 -330h340l-3 -20h-365l123 700h365zM340 910h30l45 -140h-20z" />
    <glyph glyph-name="Emacron" unicode="&#x112;" 
d="M548 700l-3 -15l-6 -5h-335l-54 -310h260l-4 -20h-260l-58 -330h340l-3 -20h-365l123 700h365zM279 850h225l-3 -20h-225z" />
    <glyph glyph-name="Gbreve" unicode="&#x11e;" horiz-adv-x="575" 
d="M193 20h220l62 350h25l-65 -370h-245c-95 0 -141 55 -124 150l70 400c17 95 82 150 177 150h225l-3 -15l-6 -5h-220c-80 0 -133 -45 -148 -130l-70 -400c-15 -85 22 -130 102 -130zM408 785h-60c-50 0 -75 30 -66 80l5 30h25l-5 -30c-7 -40 9 -60 44 -60h60
c35 0 59 20 66 60l5 30h25l-5 -30c-9 -50 -44 -80 -94 -80z" />
    <glyph glyph-name="Iacute" unicode="&#xcd;" horiz-adv-x="245" 
d="M85 0h-25l123 700h25zM290 910h30l-105 -140h-20z" />
    <glyph glyph-name="Icircumflex" unicode="&#xce;" horiz-adv-x="245" 
d="M85 0h-25l123 700h25zM325 770h-25l-69 120h-5l-111 -120h-25l130 140h25z" />
    <glyph glyph-name="Idieresis" unicode="&#xcf;" horiz-adv-x="245" 
d="M85 0h-25l123 700h25zM151 800h-25l14 80h25zM301 800h-25l14 80h25z" />
    <glyph glyph-name="Idotaccent" unicode="&#x130;" horiz-adv-x="245" 
d="M85 0h-25l123 700h25zM241 890l-17 -100h-25l17 100h25z" />
    <glyph glyph-name="Igrave" unicode="&#xcc;" horiz-adv-x="245" 
d="M85 0h-25l123 700h25zM145 910h30l45 -140h-20z" />
    <glyph glyph-name="Imacron" unicode="&#x12a;" horiz-adv-x="245" 
d="M85 0h-25l123 700h25zM109 850h225l-3 -20h-225z" />
    <glyph glyph-name="Kcommaaccent" unicode="&#x136;" horiz-adv-x="550" 
d="M85 0h-25l123 700h25l-58 -330h170l233 330h25l-2 -10l-238 -330l123 -350l-1 -10h-25l-119 350h-170zM247 -100l-43 -130h-9l27 160h30z" />
    <glyph glyph-name="Lacute" unicode="&#x139;" horiz-adv-x="495" 
d="M88 20h340l-3 -20h-365l123 700h25zM295 910h30l-105 -140h-20z" />
    <glyph glyph-name="Lcaron" unicode="&#x13d;" horiz-adv-x="495" 
d="M88 20h340l-3 -20h-365l123 700h25zM338 670l-43 -130h-10l28 160h30z" />
    <glyph glyph-name="Lcommaaccent" unicode="&#x13b;" horiz-adv-x="495" 
d="M88 20h340l-3 -20h-365l123 700h25zM239 -100l-43 -130h-9l27 160h30z" />
    <glyph glyph-name="Lslash" unicode="&#x141;" horiz-adv-x="495" 
d="M88 20h340l-3 -20h-365l56 320l-82 -40l4 25l82 40l63 355h25l-60 -340l165 85l-4 -25l-165 -85z" />
    <glyph glyph-name="Nacute" unicode="&#x143;" horiz-adv-x="620" 
d="M460 0h-30l-230 655h-5l-18 -130l-92 -525h-25l123 700h30l229 -655h5l18 130l93 525h25zM480 910h30l-105 -140h-20z" />
    <glyph glyph-name="Ncaron" unicode="&#x147;" horiz-adv-x="620" 
d="M460 0h-30l-230 655h-5l-18 -130l-92 -525h-25l123 700h30l229 -655h5l18 130l93 525h25zM303 910h25l69 -120h5l111 120h25l-130 -140h-25z" />
    <glyph glyph-name="Ncommaaccent" unicode="&#x145;" horiz-adv-x="620" 
d="M460 0h-30l-230 655h-5l-18 -130l-92 -525h-25l123 700h30l229 -655h5l18 130l93 525h25zM257 -100l-43 -130h-9l27 160h30z" />
    <glyph glyph-name="Ntilde" unicode="&#xd1;" horiz-adv-x="620" 
d="M460 0h-30l-230 655h-5l-18 -130l-92 -525h-25l123 700h30l229 -655h5l18 130l93 525h25zM404 820l-14 35c-6 15 -15 25 -30 25h-5c-15 0 -27 -10 -31 -30l-11 -65h-20l11 65c6 30 29 50 54 50h5c25 0 38 -14 48 -40l14 -35c6 -15 16 -25 31 -25h5c15 0 26 10 30 30
l11 65h20l-11 -65c-5 -30 -29 -50 -54 -50h-5c-25 0 -37 14 -48 40z" />
    <glyph glyph-name="Oacute" unicode="&#xd3;" horiz-adv-x="610" 
d="M441 690h-130c-80 0 -133 -45 -148 -130l-74 -420c-15 -85 22 -130 102 -130h130c80 0 133 45 148 130l74 420c15 85 -22 130 -102 130zM64 140l74 420c17 95 82 150 177 150h130c95 0 140 -55 123 -150l-74 -420c-17 -95 -81 -150 -176 -150h-130
c-95 0 -141 55 -124 150zM480 910h30l-105 -140h-20z" />
    <glyph glyph-name="Ocircumflex" unicode="&#xd4;" horiz-adv-x="610" 
d="M441 690h-130c-80 0 -133 -45 -148 -130l-74 -420c-15 -85 22 -130 102 -130h130c80 0 133 45 148 130l74 420c15 85 -22 130 -102 130zM64 140l74 420c17 95 82 150 177 150h130c95 0 140 -55 123 -150l-74 -420c-17 -95 -81 -150 -176 -150h-130
c-95 0 -141 55 -124 150zM508 770h-25l-69 120h-5l-111 -120h-25l130 140h25z" />
    <glyph glyph-name="Odieresis" unicode="&#xd6;" horiz-adv-x="610" 
d="M441 690h-130c-80 0 -133 -45 -148 -130l-74 -420c-15 -85 22 -130 102 -130h130c80 0 133 45 148 130l74 420c15 85 -22 130 -102 130zM64 140l74 420c17 95 82 150 177 150h130c95 0 140 -55 123 -150l-74 -420c-17 -95 -81 -150 -176 -150h-130
c-95 0 -141 55 -124 150zM334 800h-25l14 80h25zM484 800h-25l14 80h25z" />
    <glyph glyph-name="Ograve" unicode="&#xd2;" horiz-adv-x="610" 
d="M441 690h-130c-80 0 -133 -45 -148 -130l-74 -420c-15 -85 22 -130 102 -130h130c80 0 133 45 148 130l74 420c15 85 -22 130 -102 130zM64 140l74 420c17 95 82 150 177 150h130c95 0 140 -55 123 -150l-74 -420c-17 -95 -81 -150 -176 -150h-130
c-95 0 -141 55 -124 150zM340 910h30l45 -140h-20z" />
    <glyph glyph-name="Ohungarumlaut" unicode="&#x150;" horiz-adv-x="610" 
d="M441 690h-130c-80 0 -133 -45 -148 -130l-74 -420c-15 -85 22 -130 102 -130h130c80 0 133 45 148 130l74 420c15 85 -22 130 -102 130zM64 140l74 420c17 95 82 150 177 150h130c95 0 140 -55 123 -150l-74 -420c-17 -95 -81 -150 -176 -150h-130
c-95 0 -141 55 -124 150zM405 910h30l-105 -140h-20zM540 910h30l-105 -140h-20z" />
    <glyph glyph-name="Omacron" unicode="&#x14c;" horiz-adv-x="610" 
d="M441 690h-130c-80 0 -133 -45 -148 -130l-74 -420c-15 -85 22 -130 102 -130h130c80 0 133 45 148 130l74 420c15 85 -22 130 -102 130zM64 140l74 420c17 95 82 150 177 150h130c95 0 140 -55 123 -150l-74 -420c-17 -95 -81 -150 -176 -150h-130
c-95 0 -141 55 -124 150zM292 850h225l-3 -20h-225z" />
    <glyph glyph-name="Oslash" unicode="&#xd8;" horiz-adv-x="610" 
d="M64 140l74 420c17 95 82 150 177 150h130c95 0 140 -55 123 -150l-74 -420c-17 -95 -81 -150 -176 -150h-130c-95 0 -141 55 -124 150zM441 690h-130c-80 0 -133 -45 -148 -130l-74 -420c-12 -70 18 -100 18 -100l402 635s-23 15 -68 15zM543 560c13 70 -17 100 -17 100
l-402 -635s22 -15 67 -15h130c80 0 133 45 148 130z" />
    <glyph glyph-name="Otilde" unicode="&#xd5;" horiz-adv-x="610" 
d="M441 690h-130c-80 0 -133 -45 -148 -130l-74 -420c-15 -85 22 -130 102 -130h130c80 0 133 45 148 130l74 420c15 85 -22 130 -102 130zM64 140l74 420c17 95 82 150 177 150h130c95 0 140 -55 123 -150l-74 -420c-17 -95 -81 -150 -176 -150h-130
c-95 0 -141 55 -124 150zM399 820l-14 35c-6 15 -15 25 -30 25h-5c-15 0 -27 -10 -31 -30l-11 -65h-20l11 65c6 30 29 50 54 50h5c25 0 38 -14 48 -40l14 -35c6 -15 16 -25 31 -25h5c15 0 26 10 30 30l11 65h20l-11 -65c-5 -30 -29 -50 -54 -50h-5c-25 0 -37 14 -48 40z" />
    <glyph glyph-name="OE" unicode="&#x152;" horiz-adv-x="815" 
d="M313 700h545l-3 -15l-6 -5h-320l-54 -310h245l-4 -20h-245l-58 -330h325l-3 -20h-545c-95 0 -141 55 -124 150l70 400c17 95 82 150 177 150zM193 20h195l116 660h-195c-80 0 -133 -45 -148 -130l-70 -400c-15 -85 22 -130 102 -130z" />
    <glyph glyph-name="Racute" unicode="&#x154;" horiz-adv-x="585" 
d="M85 0h-25l123 700h245c95 0 140 -55 123 -150l-19 -110c-25 -145 -156 -150 -156 -150l95 -280l-1 -10h-25l-99 290h-210zM424 680h-220l-65 -370h220c80 0 133 45 148 130l19 110c15 85 -22 130 -102 130zM465 910h30l-105 -140h-20z" />
    <glyph glyph-name="Rcaron" unicode="&#x158;" horiz-adv-x="585" 
d="M85 0h-25l123 700h245c95 0 140 -55 123 -150l-19 -110c-25 -145 -156 -150 -156 -150l95 -280l-1 -10h-25l-99 290h-210zM424 680h-220l-65 -370h220c80 0 133 45 148 130l19 110c15 85 -22 130 -102 130zM294 910h25l69 -120h5l111 120h25l-130 -140h-25z" />
    <glyph glyph-name="Rcommaaccent" unicode="&#x156;" horiz-adv-x="585" 
d="M85 0h-25l123 700h245c95 0 140 -55 123 -150l-19 -110c-25 -145 -156 -150 -156 -150l95 -280l-1 -10h-25l-99 290h-210zM424 680h-220l-65 -370h220c80 0 133 45 148 130l19 110c15 85 -22 130 -102 130zM253 -90l-43 -130h-9l27 160h30z" />
    <glyph glyph-name="Sacute" unicode="&#x15a;" 
d="M102 495l9 55c17 95 82 150 177 150h220l-3 -15l-6 -5h-215c-80 0 -133 -45 -148 -130l-9 -55c-11 -60 14 -92 66 -105l158 -40c72 -18 101 -55 87 -130l-12 -70c-17 -95 -81 -150 -176 -150h-245l3 20h245c80 0 133 45 148 130l12 70c11 60 -13 92 -66 105l-158 40
c-72 18 -100 55 -87 130zM435 910h30l-105 -140h-20z" />
    <glyph glyph-name="Scaron" unicode="&#x160;" 
d="M102 495l9 55c17 95 82 150 177 150h220l-3 -15l-6 -5h-215c-80 0 -133 -45 -148 -130l-9 -55c-11 -60 14 -92 66 -105l158 -40c72 -18 101 -55 87 -130l-12 -70c-17 -95 -81 -150 -176 -150h-245l3 20h245c80 0 133 45 148 130l12 70c11 60 -13 92 -66 105l-158 40
c-72 18 -100 55 -87 130zM255 910h25l69 -120h5l111 120h25l-130 -140h-25z" />
    <glyph glyph-name="Scommaaccent" unicode="&#x218;" 
d="M102 495l9 55c17 95 82 150 177 150h220l-3 -15l-6 -5h-215c-80 0 -133 -45 -148 -130l-9 -55c-11 -60 14 -92 66 -105l158 -40c72 -18 101 -55 87 -130l-12 -70c-17 -95 -81 -150 -176 -150h-245l3 20h245c80 0 133 45 148 130l12 70c11 60 -13 92 -66 105l-158 40
c-72 18 -100 55 -87 130zM199 -100l-43 -130h-9l27 160h30z" />
    <glyph glyph-name="Tcaron" unicode="&#x164;" horiz-adv-x="445" 
d="M79 680l4 20h425l-3 -15l-6 -5h-195l-119 -680h-25l119 680h-200zM215 910h25l69 -120h5l111 120h25l-130 -140h-25z" />
    <glyph glyph-name="Tcommaaccent" unicode="&#x162;" horiz-adv-x="445" 
d="M79 680l4 20h425l-3 -15l-6 -5h-195l-119 -680h-25l119 680h-200zM170 -100l-43 -130h-9l27 160h30z" />
    <glyph glyph-name="Uacute" unicode="&#xda;" horiz-adv-x="600" 
d="M548 700h25l-99 -560c-17 -95 -81 -150 -176 -150h-100c-95 0 -141 55 -124 150l99 560h25l-99 -560c-15 -85 22 -130 102 -130h100c80 0 133 45 148 130zM470 910h30l-105 -140h-20z" />
    <glyph glyph-name="Ucircumflex" unicode="&#xdb;" horiz-adv-x="600" 
d="M548 700h25l-99 -560c-17 -95 -81 -150 -176 -150h-100c-95 0 -141 55 -124 150l99 560h25l-99 -560c-15 -85 22 -130 102 -130h100c80 0 133 45 148 130zM503 770h-25l-69 120h-5l-111 -120h-25l130 140h25z" />
    <glyph glyph-name="Udieresis" unicode="&#xdc;" horiz-adv-x="600" 
d="M548 700h25l-99 -560c-17 -95 -81 -150 -176 -150h-100c-95 0 -141 55 -124 150l99 560h25l-99 -560c-15 -85 22 -130 102 -130h100c80 0 133 45 148 130zM329 800h-25l14 80h25zM479 800h-25l14 80h25z" />
    <glyph glyph-name="Ugrave" unicode="&#xd9;" horiz-adv-x="600" 
d="M548 700h25l-99 -560c-17 -95 -81 -150 -176 -150h-100c-95 0 -141 55 -124 150l99 560h25l-99 -560c-15 -85 22 -130 102 -130h100c80 0 133 45 148 130zM340 910h30l45 -140h-20z" />
    <glyph glyph-name="Uhungarumlaut" unicode="&#x170;" horiz-adv-x="600" 
d="M548 700h25l-99 -560c-17 -95 -81 -150 -176 -150h-100c-95 0 -141 55 -124 150l99 560h25l-99 -560c-15 -85 22 -130 102 -130h100c80 0 133 45 148 130zM405 910h30l-105 -140h-20zM540 910h30l-105 -140h-20z" />
    <glyph glyph-name="Umacron" unicode="&#x16a;" horiz-adv-x="600" 
d="M548 700h25l-99 -560c-17 -95 -81 -150 -176 -150h-100c-95 0 -141 55 -124 150l99 560h25l-99 -560c-15 -85 22 -130 102 -130h100c80 0 133 45 148 130zM287 850h225l-3 -20h-225z" />
    <glyph glyph-name="Uring" unicode="&#x16e;" horiz-adv-x="600" 
d="M548 700h25l-99 -560c-17 -95 -81 -150 -176 -150h-100c-95 0 -141 55 -124 150l99 560h25l-99 -560c-15 -85 22 -130 102 -130h100c80 0 133 45 148 130zM382 780h10c30 0 59 25 65 55l1 10c6 30 -15 55 -45 55h-10c-30 0 -59 -25 -65 -55l-1 -10c-6 -30 15 -55 45 -55z
M389 760h-10c-45 0 -74 35 -67 75l1 10c8 40 49 75 94 75h10c45 0 74 -35 66 -75l-1 -10c-7 -40 -48 -75 -93 -75z" />
    <glyph glyph-name="Yacute" unicode="&#xdd;" horiz-adv-x="485" 
d="M93 700h25l119 -430h5l271 430h25l-2 -10l-291 -460l-40 -230h-25l40 230l-129 460zM430 910h30l-105 -140h-20z" />
    <glyph glyph-name="Ydieresis" unicode="&#x178;" horiz-adv-x="485" 
d="M93 700h25l119 -430h5l271 430h25l-2 -10l-291 -460l-40 -230h-25l40 230l-129 460zM271 800h-25l14 80h25zM421 800h-25l14 80h25z" />
    <glyph glyph-name="Zacute" unicode="&#x179;" horiz-adv-x="460" 
d="M8 20h380l-3 -20h-410l3 20l496 655v5h-365l-4 5l3 15h400l-4 -20l-495 -655zM405 910h30l-105 -140h-20z" />
    <glyph glyph-name="Zcaron" unicode="&#x17d;" horiz-adv-x="460" 
d="M8 20h380l-3 -20h-410l3 20l496 655v5h-365l-4 5l3 15h400l-4 -20l-495 -655zM223 910h25l69 -120h5l111 120h25l-130 -140h-25z" />
    <glyph glyph-name="Zdotaccent" unicode="&#x17b;" horiz-adv-x="460" 
d="M8 20h380l-3 -20h-410l3 20l496 655v5h-365l-4 5l3 15h400l-4 -20l-495 -655zM349 890l-17 -100h-25l17 100h25z" />
    <glyph glyph-name="aacute" unicode="&#xe1;" horiz-adv-x="490" 
d="M47 100c-9 -50 24 -90 69 -90h95c80 0 135 110 135 110l25 145h-210c-45 0 -92 -40 -101 -90zM350 0h-15l7 70h-5s-49 -80 -129 -80h-95c-65 0 -102 45 -91 110l13 75c12 65 65 110 130 110h210l18 105c10 55 -27 100 -77 100h-185l3 20h185c70 0 112 -50 99 -120z
M382 750h30l-107 -150h-20z" />
    <glyph glyph-name="abreve" unicode="&#x103;" horiz-adv-x="490" 
d="M47 100c-9 -50 24 -90 69 -90h95c80 0 135 110 135 110l25 145h-210c-45 0 -92 -40 -101 -90zM350 0h-15l7 70h-5s-49 -80 -129 -80h-95c-65 0 -102 45 -91 110l13 75c12 65 65 110 130 110h210l18 105c10 55 -27 100 -77 100h-185l3 20h185c70 0 112 -50 99 -120z
M330 615h-60c-50 0 -75 30 -66 80l7 40h25l-7 -40c-7 -40 9 -60 44 -60h60c35 0 59 20 66 60l7 40h25l-7 -40c-9 -50 -44 -80 -94 -80z" />
    <glyph glyph-name="acircumflex" unicode="&#xe2;" horiz-adv-x="490" 
d="M47 100c-9 -50 24 -90 69 -90h95c80 0 135 110 135 110l25 145h-210c-45 0 -92 -40 -101 -90zM350 0h-15l7 70h-5s-49 -80 -129 -80h-95c-65 0 -102 45 -91 110l13 75c12 65 65 110 130 110h210l18 105c10 55 -27 100 -77 100h-185l3 20h185c70 0 112 -50 99 -120z
M205 600h-25l132 150h25l78 -150h-25l-67 130h-5z" />
    <glyph glyph-name="adieresis" unicode="&#xe4;" horiz-adv-x="490" 
d="M47 100c-9 -50 24 -90 69 -90h95c80 0 135 110 135 110l25 145h-210c-45 0 -92 -40 -101 -90zM350 0h-15l7 70h-5s-49 -80 -129 -80h-95c-65 0 -102 45 -91 110l13 75c12 65 65 110 130 110h210l18 105c10 55 -27 100 -77 100h-185l3 20h185c70 0 112 -50 99 -120z
M241 635h-25l15 80h25zM391 635h-25l15 80h25z" />
    <glyph glyph-name="agrave" unicode="&#xe0;" horiz-adv-x="490" 
d="M47 100c-9 -50 24 -90 69 -90h95c80 0 135 110 135 110l25 145h-210c-45 0 -92 -40 -101 -90zM350 0h-15l7 70h-5s-49 -80 -129 -80h-95c-65 0 -102 45 -91 110l13 75c12 65 65 110 130 110h210l18 105c10 55 -27 100 -77 100h-185l3 20h185c70 0 112 -50 99 -120z
M241 750h30l43 -150h-20z" />
    <glyph glyph-name="amacron" unicode="&#x101;" horiz-adv-x="490" 
d="M47 100c-9 -50 24 -90 69 -90h95c80 0 135 110 135 110l25 145h-210c-45 0 -92 -40 -101 -90zM350 0h-15l7 70h-5s-49 -80 -129 -80h-95c-65 0 -102 45 -91 110l13 75c12 65 65 110 130 110h210l18 105c10 55 -27 100 -77 100h-185l3 20h185c70 0 112 -50 99 -120z
M200 685h225l-3 -20h-225z" />
    <glyph glyph-name="aring" unicode="&#xe5;" horiz-adv-x="490" 
d="M47 100c-9 -50 24 -90 69 -90h95c80 0 135 110 135 110l25 145h-210c-45 0 -92 -40 -101 -90zM350 0h-15l7 70h-5s-49 -80 -129 -80h-95c-65 0 -102 45 -91 110l13 75c12 65 65 110 130 110h210l18 105c10 55 -27 100 -77 100h-185l3 20h185c70 0 112 -50 99 -120z
M294 610h10c30 0 59 25 65 55l3 20c6 30 -15 55 -45 55h-10c-30 0 -59 -25 -65 -55l-3 -20c-6 -30 15 -55 45 -55zM301 590h-10c-45 0 -74 35 -67 75l3 20c7 40 49 75 94 75h10c45 0 73 -35 66 -75l-3 -20c-7 -40 -48 -75 -93 -75z" />
    <glyph glyph-name="atilde" unicode="&#xe3;" horiz-adv-x="490" 
d="M47 100c-9 -50 24 -90 69 -90h95c80 0 135 110 135 110l25 145h-210c-45 0 -92 -40 -101 -90zM350 0h-15l7 70h-5s-49 -80 -129 -80h-95c-65 0 -102 45 -91 110l13 75c12 65 65 110 130 110h210l18 105c10 55 -27 100 -77 100h-185l3 20h185c70 0 112 -50 99 -120z
M314 650l-22 45c-7 15 -16 25 -31 25s-26 -10 -30 -30l-13 -75h-20l13 75c5 30 29 50 54 50s36 -16 48 -40l22 -45c7 -15 16 -25 31 -25s26 10 30 30l13 75h20l-13 -75c-5 -30 -29 -50 -54 -50s-36 16 -48 40z" />
    <glyph glyph-name="cacute" unicode="&#x107;" horiz-adv-x="410" 
d="M416 490h-190c-50 0 -103 -45 -113 -100l-47 -270c-10 -55 27 -100 77 -100h195l-3 -20h-195c-70 0 -112 50 -99 120l47 270c13 70 71 120 141 120h195l-2 -15zM392 750h30l-107 -150h-20z" />
    <glyph glyph-name="ccaron" unicode="&#x10d;" horiz-adv-x="410" 
d="M416 490h-190c-50 0 -103 -45 -113 -100l-47 -270c-10 -55 27 -100 77 -100h195l-3 -20h-195c-70 0 -112 50 -99 120l47 270c13 70 71 120 141 120h195l-2 -15zM422 750h25l-132 -150h-25l-78 150h25l67 -130h5z" />
    <glyph glyph-name="ccircumflex" unicode="&#x109;" horiz-adv-x="410" 
d="M416 490h-190c-50 0 -103 -45 -113 -100l-47 -270c-10 -55 27 -100 77 -100h195l-3 -20h-195c-70 0 -112 50 -99 120l47 270c13 70 71 120 141 120h195l-2 -15zM210 600h-25l132 150h25l78 -150h-25l-67 130h-5z" />
    <glyph glyph-name="dcaron" unicode="&#x10f;" horiz-adv-x="515" 
d="M141 10h85c80 0 135 110 135 110l65 370h-200c-50 0 -103 -45 -113 -100l-49 -280c-10 -55 27 -100 77 -100zM223 -10h-85c-70 0 -111 50 -99 120l49 280c13 70 71 120 141 120h200l34 190h25l-123 -700h-15l7 70h-5s-49 -80 -129 -80zM603 670l-43 -130h-10l28 160h30z
" />
    <glyph glyph-name="dcroat" unicode="&#x111;" 
d="M223 -10h-85c-70 0 -111 50 -99 120l35 200c13 70 71 120 141 120h200l22 125h-170l4 20h170l22 125h25l-22 -125h80l-4 -20h-80l-97 -555h-15l7 70h-5s-49 -80 -129 -80zM141 10h85c80 0 135 110 135 110l51 290h-200c-50 0 -103 -45 -113 -100l-35 -200
c-10 -55 27 -100 77 -100z" />
    <glyph glyph-name="eacute" unicode="&#xe9;" horiz-adv-x="480" 
d="M328 500h-100c-50 0 -103 -45 -113 -100l-25 -140h290l25 140c10 55 -27 100 -77 100zM345 0h-205c-70 0 -112 50 -99 120l49 280c12 70 71 120 141 120h100c70 0 111 -50 99 -120l-28 -160h-315l-21 -120c-10 -55 27 -100 77 -100h205zM382 750h30l-107 -150h-20z" />
    <glyph glyph-name="ecaron" unicode="&#x11b;" horiz-adv-x="480" 
d="M328 500h-100c-50 0 -103 -45 -113 -100l-25 -140h290l25 140c10 55 -27 100 -77 100zM345 0h-205c-70 0 -112 50 -99 120l49 280c12 70 71 120 141 120h100c70 0 111 -50 99 -120l-28 -160h-315l-21 -120c-10 -55 27 -100 77 -100h205zM415 750h25l-132 -150h-25
l-78 150h25l67 -130h5z" />
    <glyph glyph-name="ecircumflex" unicode="&#xea;" horiz-adv-x="480" 
d="M328 500h-100c-50 0 -103 -45 -113 -100l-25 -140h290l25 140c10 55 -27 100 -77 100zM345 0h-205c-70 0 -112 50 -99 120l49 280c12 70 71 120 141 120h100c70 0 111 -50 99 -120l-28 -160h-315l-21 -120c-10 -55 27 -100 77 -100h205zM413 600h-25l-69 120h-5
l-111 -120h-25l130 140h25z" />
    <glyph glyph-name="edieresis" unicode="&#xeb;" horiz-adv-x="480" 
d="M328 500h-100c-50 0 -103 -45 -113 -100l-25 -140h290l25 140c10 55 -27 100 -77 100zM345 0h-205c-70 0 -112 50 -99 120l49 280c12 70 71 120 141 120h100c70 0 111 -50 99 -120l-28 -160h-315l-21 -120c-10 -55 27 -100 77 -100h205zM239 635h-25l15 80h25zM389 635
h-25l15 80h25z" />
    <glyph glyph-name="edotaccent" unicode="&#x117;" horiz-adv-x="480" 
d="M328 500h-100c-50 0 -103 -45 -113 -100l-25 -140h290l25 140c10 55 -27 100 -77 100zM345 0h-205c-70 0 -112 50 -99 120l49 280c12 70 71 120 141 120h100c70 0 111 -50 99 -120l-28 -160h-315l-21 -120c-10 -55 27 -100 77 -100h205zM330 725l-17 -100h-25l17 100h25z
" />
    <glyph glyph-name="egrave" unicode="&#xe8;" horiz-adv-x="480" 
d="M328 500h-100c-50 0 -103 -45 -113 -100l-25 -140h290l25 140c10 55 -27 100 -77 100zM345 0h-205c-70 0 -112 50 -99 120l49 280c12 70 71 120 141 120h100c70 0 111 -50 99 -120l-28 -160h-315l-21 -120c-10 -55 27 -100 77 -100h205zM251 750h30l43 -150h-20z" />
    <glyph glyph-name="emacron" unicode="&#x113;" horiz-adv-x="480" 
d="M328 500h-100c-50 0 -103 -45 -113 -100l-25 -140h290l25 140c10 55 -27 100 -77 100zM345 0h-205c-70 0 -112 50 -99 120l49 280c12 70 71 120 141 120h100c70 0 111 -50 99 -120l-28 -160h-315l-21 -120c-10 -55 27 -100 77 -100h205zM198 685h225l-3 -20h-225z" />
    <glyph glyph-name="dotlessi" unicode="&#x131;" horiz-adv-x="205" 
d="M154 510l-89 -510h-25l89 510h25z" />
    <glyph glyph-name="iacute" unicode="&#xed;" horiz-adv-x="205" 
d="M154 510l-89 -510h-25l89 510h25zM247 750h30l-107 -150h-20z" />
    <glyph glyph-name="icircumflex" unicode="&#xee;" horiz-adv-x="205" 
d="M154 510l-89 -510h-25l89 510h25zM65 600h-25l132 150h25l78 -150h-25l-67 130h-5z" />
    <glyph glyph-name="idieresis" unicode="&#xef;" horiz-adv-x="205" 
d="M154 510l-89 -510h-25l89 510h25zM101 635h-25l15 80h25zM251 635h-25l15 80h25z" />
    <glyph glyph-name="igrave" unicode="&#xec;" horiz-adv-x="205" 
d="M154 510l-89 -510h-25l89 510h25zM92 750h30l43 -150h-20z" />
    <glyph glyph-name="imacron" unicode="&#x12b;" horiz-adv-x="205" 
d="M154 510l-89 -510h-25l89 510h25zM57 665h225l-3 -20h-225z" />
    <glyph glyph-name="kcommaaccent" unicode="&#x137;" horiz-adv-x="465" 
d="M188 700l-74 -420h155l160 230h25l-1 -10l-166 -230l94 -260l-1 -10h-25l-90 260h-155l-45 -260h-25l123 700h25zM208 -90l-43 -130h-9l27 160h30z" />
    <glyph glyph-name="lacute" unicode="&#x13a;" horiz-adv-x="230" 
d="M188 700l-102 -580c-10 -55 27 -100 77 -100h10l-3 -20h-10c-70 0 -112 50 -99 120l102 580h25zM275 910h30l-105 -140h-20z" />
    <glyph glyph-name="lcaron" unicode="&#x13e;" horiz-adv-x="235" 
d="M188 700l-102 -580c-10 -55 27 -100 77 -100h10l-3 -20h-10c-70 0 -112 50 -99 120l102 580h25zM303 670l-43 -130h-10l28 160h30z" />
    <glyph glyph-name="lcommaaccent" unicode="&#x13c;" horiz-adv-x="230" 
d="M188 700l-102 -580c-10 -55 27 -100 77 -100h10l-3 -20h-10c-70 0 -112 50 -99 120l102 580h25zM97 -100l-43 -130h-9l27 160h30z" />
    <glyph glyph-name="lslash" unicode="&#x142;" horiz-adv-x="240" 
d="M188 700l-56 -320l126 65l-4 -25l-127 -65l-41 -235c-10 -55 27 -100 77 -100h10l-3 -20h-10c-70 0 -112 50 -99 120l38 220l-65 -30l5 25l65 30l59 335h25z" />
    <glyph glyph-name="nacute" unicode="&#x144;" horiz-adv-x="525" 
d="M271 520h85c70 0 111 -50 99 -120l-70 -400h-25l70 400c10 55 -27 100 -77 100h-85c-80 0 -135 -110 -135 -110l-68 -390h-25l89 510h15l-7 -70h5s49 80 129 80zM404 750h30l-107 -150h-20z" />
    <glyph glyph-name="ncaron" unicode="&#x148;" horiz-adv-x="525" 
d="M271 520h85c70 0 111 -50 99 -120l-70 -400h-25l70 400c10 55 -27 100 -77 100h-85c-80 0 -135 -110 -135 -110l-68 -390h-25l89 510h15l-7 -70h5s49 80 129 80zM437 750h25l-132 -150h-25l-78 150h25l67 -130h5z" />
    <glyph glyph-name="ncommaaccent" unicode="&#x146;" horiz-adv-x="525" 
d="M271 520h85c70 0 111 -50 99 -120l-70 -400h-25l70 400c10 55 -27 100 -77 100h-85c-80 0 -135 -110 -135 -110l-68 -390h-25l89 510h15l-7 -70h5s49 80 129 80zM209 -100l-43 -130h-9l27 160h30z" />
    <glyph glyph-name="ntilde" unicode="&#xf1;" horiz-adv-x="525" 
d="M271 520h85c70 0 111 -50 99 -120l-70 -400h-25l70 400c10 55 -27 100 -77 100h-85c-80 0 -135 -110 -135 -110l-68 -390h-25l89 510h15l-7 -70h5s49 80 129 80zM331 650l-22 45c-7 15 -16 25 -31 25s-26 -10 -30 -30l-13 -75h-20l13 75c5 30 29 50 54 50s36 -16 48 -40
l22 -45c7 -15 16 -25 31 -25s26 10 30 30l13 75h20l-13 -75c-5 -30 -29 -50 -54 -50s-36 16 -48 40z" />
    <glyph glyph-name="oacute" unicode="&#xf3;" horiz-adv-x="495" 
d="M39 110l51 290c12 70 71 120 141 120h115c70 0 111 -50 99 -120l-51 -290c-12 -70 -71 -120 -141 -120h-115c-70 0 -111 50 -99 120zM141 10h115c50 0 103 45 113 100l51 290c10 55 -27 100 -77 100h-115c-50 0 -103 -45 -113 -100l-51 -290c-10 -55 27 -100 77 -100z
M392 750h30l-107 -150h-20z" />
    <glyph glyph-name="ocircumflex" unicode="&#xf4;" horiz-adv-x="495" 
d="M39 110l51 290c12 70 71 120 141 120h115c70 0 111 -50 99 -120l-51 -290c-12 -70 -71 -120 -141 -120h-115c-70 0 -111 50 -99 120zM141 10h115c50 0 103 45 113 100l51 290c10 55 -27 100 -77 100h-115c-50 0 -103 -45 -113 -100l-51 -290c-10 -55 27 -100 77 -100z
M210 600h-25l132 150h25l78 -150h-25l-67 130h-5z" />
    <glyph glyph-name="odieresis" unicode="&#xf6;" horiz-adv-x="495" 
d="M39 110l51 290c12 70 71 120 141 120h115c70 0 111 -50 99 -120l-51 -290c-12 -70 -71 -120 -141 -120h-115c-70 0 -111 50 -99 120zM141 10h115c50 0 103 45 113 100l51 290c10 55 -27 100 -77 100h-115c-50 0 -103 -45 -113 -100l-51 -290c-10 -55 27 -100 77 -100z
M246 635h-25l15 80h25zM396 635h-25l15 80h25z" />
    <glyph glyph-name="ograve" unicode="&#xf2;" horiz-adv-x="495" 
d="M39 110l51 290c12 70 71 120 141 120h115c70 0 111 -50 99 -120l-51 -290c-12 -70 -71 -120 -141 -120h-115c-70 0 -111 50 -99 120zM141 10h115c50 0 103 45 113 100l51 290c10 55 -27 100 -77 100h-115c-50 0 -103 -45 -113 -100l-51 -290c-10 -55 27 -100 77 -100z
M251 750h30l43 -150h-20z" />
    <glyph glyph-name="ohungarumlaut" unicode="&#x151;" horiz-adv-x="495" 
d="M39 110l51 290c12 70 71 120 141 120h115c70 0 111 -50 99 -120l-51 -290c-12 -70 -71 -120 -141 -120h-115c-70 0 -111 50 -99 120zM141 10h115c50 0 103 45 113 100l51 290c10 55 -27 100 -77 100h-115c-50 0 -103 -45 -113 -100l-51 -290c-10 -55 27 -100 77 -100z
M322 750h30l-107 -150h-20zM457 750h30l-107 -150h-20z" />
    <glyph glyph-name="omacron" unicode="&#x14d;" horiz-adv-x="495" 
d="M39 110l51 290c12 70 71 120 141 120h115c70 0 111 -50 99 -120l-51 -290c-12 -70 -71 -120 -141 -120h-115c-70 0 -111 50 -99 120zM141 10h115c50 0 103 45 113 100l51 290c10 55 -27 100 -77 100h-115c-50 0 -103 -45 -113 -100l-51 -290c-10 -55 27 -100 77 -100z
M205 685h225l-3 -20h-225z" />
    <glyph glyph-name="otilde" unicode="&#xf5;" horiz-adv-x="495" 
d="M39 110l51 290c12 70 71 120 141 120h115c70 0 111 -50 99 -120l-51 -290c-12 -70 -71 -120 -141 -120h-115c-70 0 -111 50 -99 120zM141 10h115c50 0 103 45 113 100l51 290c10 55 -27 100 -77 100h-115c-50 0 -103 -45 -113 -100l-51 -290c-10 -55 27 -100 77 -100z
M316 650l-22 45c-7 15 -16 25 -31 25s-26 -10 -30 -30l-13 -75h-20l13 75c5 30 29 50 54 50s36 -16 48 -40l22 -45c7 -15 16 -25 31 -25s26 10 30 30l13 75h20l-13 -75c-5 -30 -29 -50 -54 -50s-36 16 -48 40z" />
    <glyph glyph-name="oe" unicode="&#x153;" horiz-adv-x="810" 
d="M675 0h-205c-80 0 -93 70 -93 70h-5s-37 -70 -117 -70h-115c-70 0 -112 50 -99 120l49 280c12 70 71 120 141 120h115c80 0 93 -70 93 -70h5s37 70 117 70h100c70 0 111 -50 99 -120l-28 -160h-315l-21 -120c-10 -55 27 -100 77 -100h205zM143 20h115
c50 0 103 45 113 100l49 280c10 55 -27 100 -77 100h-115c-50 0 -103 -45 -113 -100l-49 -280c-10 -55 27 -100 77 -100zM658 500h-100c-50 0 -103 -45 -113 -100l-25 -140h290l25 140c10 55 -27 100 -77 100z" />
    <glyph glyph-name="racute" unicode="&#x155;" horiz-adv-x="315" 
d="M271 520h75l-3 -20h-75c-80 0 -135 -110 -135 -110l-68 -390h-25l89 510h15l-7 -70h5s49 80 129 80zM342 750h30l-107 -150h-20z" />
    <glyph glyph-name="rcaron" unicode="&#x159;" horiz-adv-x="315" 
d="M271 520h75l-3 -20h-75c-80 0 -135 -110 -135 -110l-68 -390h-25l89 510h15l-7 -70h5s49 80 129 80zM372 750h25l-132 -150h-25l-78 150h25l67 -130h5z" />
    <glyph glyph-name="rcommaaccent" unicode="&#x157;" horiz-adv-x="315" 
d="M271 520h75l-3 -20h-75c-80 0 -135 -110 -135 -110l-68 -390h-25l89 510h15l-7 -70h5s49 80 129 80zM47 -100l-43 -130h-9l27 160h30z" />
    <glyph glyph-name="sacute" unicode="&#x15b;" horiz-adv-x="440" 
d="M73 360l7 40c11 65 64 110 129 110h205l-2 -15l-6 -5h-200c-45 0 -92 -40 -101 -90l-7 -40c-5 -30 20 -58 63 -70l123 -35c58 -16 87 -50 77 -105l-7 -40c-12 -65 -70 -110 -129 -110h-220l3 20h220c40 0 92 40 101 90l7 40c7 40 -18 68 -61 80l-124 35
c-57 16 -86 50 -78 95zM367 750h30l-107 -150h-20z" />
    <glyph glyph-name="scaron" unicode="&#x161;" horiz-adv-x="440" 
d="M73 360l7 40c11 65 64 110 129 110h205l-2 -15l-6 -5h-200c-45 0 -92 -40 -101 -90l-7 -40c-5 -30 20 -58 63 -70l123 -35c58 -16 87 -50 77 -105l-7 -40c-12 -65 -70 -110 -129 -110h-220l3 20h220c40 0 92 40 101 90l7 40c7 40 -18 68 -61 80l-124 35
c-57 16 -86 50 -78 95zM407 750h25l-132 -150h-25l-78 150h25l67 -130h5z" />
    <glyph glyph-name="scommaaccent" unicode="&#x219;" horiz-adv-x="440" 
d="M73 360l7 40c11 65 64 110 129 110h205l-2 -15l-6 -5h-200c-45 0 -92 -40 -101 -90l-7 -40c-5 -30 20 -58 63 -70l123 -35c58 -16 87 -50 77 -105l-7 -40c-12 -65 -70 -110 -129 -110h-220l3 20h220c40 0 92 40 101 90l7 40c7 40 -18 68 -61 80l-124 35
c-57 16 -86 50 -78 95zM157 -100l-43 -130h-9l27 160h30z" />
    <glyph glyph-name="tcaron" unicode="&#x165;" horiz-adv-x="320" 
d="M309 510l-3 -20h-150l-65 -370c-10 -55 27 -100 77 -100h75l-3 -20h-75c-70 0 -112 50 -99 120l65 370h-75l3 20h75l39 160h15l-29 -160h150zM408 670l-43 -130h-10l28 160h30z" />
    <glyph glyph-name="tcommaaccent" unicode="&#x163;" horiz-adv-x="320" 
d="M309 510l-3 -20h-150l-65 -370c-10 -55 27 -100 77 -100h75l-3 -20h-75c-70 0 -112 50 -99 120l65 370h-75l3 20h75l39 160h15l-29 -160h150zM127 -100l-43 -130h-9l27 160h30z" />
    <glyph glyph-name="uacute" unicode="&#xfa;" horiz-adv-x="525" 
d="M243 -10h-85c-70 0 -111 50 -99 120l70 400h25l-70 -400c-10 -55 27 -100 77 -100h85c80 0 135 110 135 110l68 390h25l-89 -510h-15l7 70h-5s-49 -80 -129 -80zM407 750h30l-107 -150h-20z" />
    <glyph glyph-name="udieresis" unicode="&#xfc;" horiz-adv-x="525" 
d="M243 -10h-85c-70 0 -111 50 -99 120l70 400h25l-70 -400c-10 -55 27 -100 77 -100h85c80 0 135 110 135 110l68 390h25l-89 -510h-15l7 70h-5s-49 -80 -129 -80zM261 635h-25l15 80h25zM411 635h-25l15 80h25z" />
    <glyph glyph-name="ucircumflex" unicode="&#xfb;" horiz-adv-x="525" 
d="M243 -10h-85c-70 0 -111 50 -99 120l70 400h25l-70 -400c-10 -55 27 -100 77 -100h85c80 0 135 110 135 110l68 390h25l-89 -510h-15l7 70h-5s-49 -80 -129 -80zM225 600h-25l132 150h25l78 -150h-25l-67 130h-5z" />
    <glyph glyph-name="uhungarumlaut" unicode="&#x171;" horiz-adv-x="525" 
d="M243 -10h-85c-70 0 -111 50 -99 120l70 400h25l-70 -400c-10 -55 27 -100 77 -100h85c80 0 135 110 135 110l68 390h25l-89 -510h-15l7 70h-5s-49 -80 -129 -80zM337 750h30l-107 -150h-20zM472 750h30l-107 -150h-20z" />
    <glyph glyph-name="ugrave" unicode="&#xf9;" horiz-adv-x="525" 
d="M243 -10h-85c-70 0 -111 50 -99 120l70 400h25l-70 -400c-10 -55 27 -100 77 -100h85c80 0 135 110 135 110l68 390h25l-89 -510h-15l7 70h-5s-49 -80 -129 -80zM266 750h30l43 -150h-20z" />
    <glyph glyph-name="umacron" unicode="&#x16b;" horiz-adv-x="525" 
d="M243 -10h-85c-70 0 -111 50 -99 120l70 400h25l-70 -400c-10 -55 27 -100 77 -100h85c80 0 135 110 135 110l68 390h25l-89 -510h-15l7 70h-5s-49 -80 -129 -80zM220 685h225l-3 -20h-225z" />
    <glyph glyph-name="uring" unicode="&#x16f;" horiz-adv-x="525" 
d="M243 -10h-85c-70 0 -111 50 -99 120l70 400h25l-70 -400c-10 -55 27 -100 77 -100h85c80 0 135 110 135 110l68 390h25l-89 -510h-15l7 70h-5s-49 -80 -129 -80zM314 610h10c30 0 59 25 65 55l3 20c6 30 -15 55 -45 55h-10c-30 0 -59 -25 -65 -55l-3 -20
c-6 -30 15 -55 45 -55zM321 590h-10c-45 0 -74 35 -67 75l3 20c7 40 49 75 94 75h10c45 0 73 -35 66 -75l-3 -20c-7 -40 -48 -75 -93 -75z" />
    <glyph glyph-name="yacute" unicode="&#xfd;" horiz-adv-x="415" 
d="M139 -30l16 30v5l-92 495l1 10h25l84 -460h5l226 460h25l-1 -10l-264 -530c-54 -110 -89 -140 -154 -140h-23l3 20h23c50 0 77 25 126 120zM352 750h30l-107 -150h-20z" />
    <glyph glyph-name="ydieresis" unicode="&#xff;" horiz-adv-x="415" 
d="M139 -30l16 30v5l-92 495l1 10h25l84 -460h5l226 460h25l-1 -10l-264 -530c-54 -110 -89 -140 -154 -140h-23l3 20h23c50 0 77 25 126 120zM206 635h-25l15 80h25zM356 635h-25l15 80h25z" />
    <glyph glyph-name="zacute" unicode="&#x17a;" horiz-adv-x="390" 
d="M365 485l1 5h-290l-4 5l2 15h330l-3 -20l-387 -465l-1 -5h305l-3 -20h-340l3 20zM337 750h30l-107 -150h-20z" />
    <glyph glyph-name="zcaron" unicode="&#x17e;" horiz-adv-x="390" 
d="M365 485l1 5h-290l-4 5l2 15h330l-3 -20l-387 -465l-1 -5h305l-3 -20h-340l3 20zM370 750h25l-132 -150h-25l-78 150h25l67 -130h5z" />
    <glyph glyph-name="zdotaccent" unicode="&#x17c;" horiz-adv-x="390" 
d="M365 485l1 5h-290l-4 5l2 15h330l-3 -20l-387 -465l-1 -5h305l-3 -20h-340l3 20zM285 725l-17 -100h-25l17 100h25z" />
    <glyph glyph-name="exclamdown" unicode="&#xa1;" horiz-adv-x="230" 
d="M126 320l-39 -280l-37 -210h-30l37 210l59 280h10zM139 510h30l-12 -70h-30z" />
    <glyph glyph-name="questiondown" unicode="&#xbf;" horiz-adv-x="420" 
d="M289 510h30l-12 -70h-30zM254 280l7 40h20l-7 -40c-13 -75 -49 -105 -92 -125l-65 -30c-33 -15 -68 -45 -82 -125l-6 -30c-15 -85 22 -130 102 -130h205l4 -5l-2 -15h-210c-95 0 -141 55 -124 150l6 30c15 90 57 125 100 145l65 30c33 15 68 45 79 105z" />
    <glyph glyph-name="divide" unicode="&#xf7;" horiz-adv-x="440" 
d="M405 315h-360l4 20h360zM274 510h-30l13 70h30zM179 140h30l-12 -70h-30z" />
    <glyph glyph-name="multiply" unicode="&#xd7;" horiz-adv-x="430" 
d="M242 325l107 -155l-23 -20l-108 155l-162 -155l-17 20l163 155l-108 155l24 20l107 -155l163 155l16 -20z" />
    <glyph glyph-name="germandbls" unicode="&#xdf;" horiz-adv-x="525" 
d="M429 110l14 80c15 85 -164 65 -145 170l9 50c11 65 102 95 111 150l7 40c7 40 -26 80 -76 80h-65c-50 0 -103 -45 -112 -100l-102 -580h-25l102 580c12 70 71 120 141 120h65c70 0 107 -45 97 -100l-7 -40c-11 -65 -102 -95 -111 -150l-9 -50c-15 -85 164 -65 145 -170
l-14 -80c-12 -65 -70 -110 -129 -110h-140l3 20h140c40 0 92 40 101 90z" />
    <glyph glyph-name="Thorn" unicode="&#xde;" horiz-adv-x="565" 
d="M85 0h-25l126 720h25l-22 -125h210c95 0 141 -55 124 -150l-35 -200c-17 -95 -82 -150 -177 -150h-210zM396 575h-210l-81 -460h210c80 0 133 45 148 130l35 200c15 85 -22 130 -102 130z" />
    <glyph glyph-name="thorn" unicode="&#xfe;" 
d="M351 490h-200l-83 -470h200c50 0 103 45 113 100l47 270c10 55 -27 100 -77 100zM188 700l-34 -190h200c70 0 112 -50 99 -120l-47 -270c-13 -70 -71 -120 -141 -120h-200l-30 -170h-25l153 870h25z" />
    <glyph glyph-name="eth" unicode="&#xf0;" horiz-adv-x="485" 
d="M29 110l37 210c12 70 71 120 141 120h200l14 80c13 70 -29 120 -77 130l-71 15l-37 -90l-19 5l36 90l-92 20l9 20l91 -20l35 85l19 -5l-35 -85l73 -15c62 -14 107 -70 93 -150l-72 -410c-12 -70 -71 -120 -141 -120h-106c-69 0 -110 50 -98 120zM404 420h-200
c-50 0 -103 -45 -113 -100l-37 -210c-10 -55 27 -100 77 -100h105c50 0 103 45 113 100z" />
    <glyph glyph-name="florin" unicode="&#x192;" horiz-adv-x="310" 
d="M31 -50l113 640c12 70 71 120 141 120h120l-3 -15l-6 -5h-115c-50 0 -103 -45 -112 -100l-27 -150h165l-3 -20h-165l-83 -470c-13 -70 -71 -120 -140 -120h-35l3 20h35c49 0 102 45 112 100z" />
    <glyph glyph-name="cent" unicode="&#xa2;" horiz-adv-x="410" 
d="M416 490h-190c-50 0 -103 -45 -113 -100l-47 -270c-10 -55 27 -100 77 -100h195l-3 -20h-115l-20 -110h-25l20 110h-55c-70 0 -112 50 -99 120l47 270c13 70 71 120 141 120h55l20 110h25l-20 -110h115l-2 -15z" />
    <glyph glyph-name="yen" unicode="&#xa5;" horiz-adv-x="485" 
d="M93 700h25l119 -430h5l271 430h25l-2 -10l-242 -380h130l-3 -20h-140l-36 -60l-14 -80h165l-4 -20h-165l-22 -130h-25l22 130h-165l4 20h165l14 80l-14 60h-140l3 20h130l-108 380z" />
    <glyph glyph-name="sterling" unicode="&#xa3;" horiz-adv-x="430" 
d="M33 20h340l-3 -20h-420l3 20h35s100 30 116 120l40 225h-75l3 20h75l35 195c14 80 73 130 153 130h80l-3 -15l-6 -5h-75c-60 0 -113 -45 -124 -110l-35 -195h155l-3 -20h-155l-40 -225c-16 -90 -95 -115 -95 -115z" />
    <glyph glyph-name="onequarter" unicode="&#xbc;" horiz-adv-x="655" 
d="M533 700h25l-2 -10l-486 -690h-25l1 10zM193 700l-60 -340h-25l55 310h-65l2 15l73 15h20zM302 75l4 20l228 245h20l-43 -245h40l-4 -20h-40l-13 -75h-25l13 75h-180zM337 100l-1 -5h150l34 195h-5z" />
    <glyph glyph-name="onesuperior" unicode="&#xb9;" horiz-adv-x="180" 
d="M183 700l-60 -340h-25l55 310h-65l2 15l73 15h20z" />
    <glyph glyph-name="twosuperior" unicode="&#xb2;" horiz-adv-x="325" 
d="M43 360l4 20l145 115c58 46 81 65 87 95l6 35c6 35 -11 55 -51 55h-125l4 20h125c55 0 80 -30 72 -75l-6 -35c-8 -40 -31 -60 -77 -95l-145 -110v-5h190l-4 -20h-225z" />
    <glyph glyph-name="threesuperior" unicode="&#xb3;" horiz-adv-x="315" 
d="M168 360h-125l4 20h125c45 0 68 20 75 60l6 35c7 40 -9 60 -54 60h-60l2 15l138 125v5h-175l4 20h210l-4 -20l-136 -120l-1 -5h25c60 0 85 -30 76 -80l-6 -35c-9 -50 -44 -80 -104 -80z" />
    <glyph glyph-name="onehalf" unicode="&#xbd;" horiz-adv-x="675" 
d="M533 700h25l-2 -10l-486 -690h-25l1 10zM193 700l-60 -340h-25l55 310h-65l2 15l73 15h20zM329 0l4 20l145 115c58 46 81 65 87 95l6 35c6 35 -11 55 -51 55h-125l4 20h125c55 0 80 -30 72 -75l-6 -35c-8 -40 -31 -60 -77 -95l-145 -110v-5h190l-4 -20h-225z" />
    <glyph glyph-name="threequarters" unicode="&#xbe;" horiz-adv-x="720" 
d="M603 700h25l-2 -10l-486 -690h-25l1 10zM367 75l4 20l228 245h20l-43 -245h40l-4 -20h-40l-13 -75h-25l13 75h-180zM402 100l-1 -5h150l34 195h-5zM178 360h-125l4 20h125c45 0 68 20 75 60l6 35c7 40 -9 60 -54 60h-60l2 15l138 125v5h-175l4 20h210l-4 -20l-136 -120
l-1 -5h25c60 0 85 -30 76 -80l-6 -35c-9 -50 -44 -80 -104 -80z" />
    <glyph glyph-name="ordfeminine" unicode="&#xaa;" horiz-adv-x="340" 
d="M283 360h-15l3 45h-5s-28 -45 -88 -45h-40c-55 0 -80 30 -72 75l7 40c8 45 43 75 98 75h120l14 75c6 35 -11 55 -51 55h-110l4 20h110c55 0 80 -30 72 -75zM142 380h40c40 0 87 40 92 70l14 80h-120c-40 0 -64 -20 -70 -55l-7 -40c-6 -35 11 -55 51 -55z" />
    <glyph glyph-name="afii10055" unicode="&#x406;" horiz-adv-x="245" 
d="M85 0h-25l123 700h25z" />
    <glyph glyph-name="afii10103" unicode="&#x456;" horiz-adv-x="205" 
d="M154 510l-89 -510h-25l89 510h25zM192 725l-17 -100h-25l17 100h25z" />
    <glyph glyph-name="afii10054" unicode="&#x405;" 
d="M102 495l9 55c17 95 82 150 177 150h220l-3 -15l-6 -5h-215c-80 0 -133 -45 -148 -130l-9 -55c-11 -60 14 -92 66 -105l158 -40c72 -18 101 -55 87 -130l-12 -70c-17 -95 -81 -150 -176 -150h-245l3 20h245c80 0 133 45 148 130l12 70c11 60 -13 92 -66 105l-158 40
c-72 18 -100 55 -87 130z" />
    <glyph glyph-name="afii10102" unicode="&#x455;" horiz-adv-x="440" 
d="M73 360l7 40c11 65 64 110 129 110h205l-2 -15l-6 -5h-200c-45 0 -92 -40 -101 -90l-7 -40c-5 -30 20 -58 63 -70l123 -35c58 -16 87 -50 77 -105l-7 -40c-12 -65 -70 -110 -129 -110h-220l3 20h220c40 0 92 40 101 90l7 40c7 40 -18 68 -61 80l-124 35
c-57 16 -86 50 -78 95z" />
    <glyph glyph-name="afii10105" unicode="&#x458;" horiz-adv-x="205" 
d="M31 -50l98 560h25l-98 -560c-13 -70 -71 -120 -140 -120h-35l3 20h35c49 0 102 45 112 100zM192 725l-17 -100h-25l17 100h25z" />
    <glyph glyph-name="afii10057" unicode="&#x408;" horiz-adv-x="425" 
d="M113 -10h-155l3 20h155c80 0 133 45 148 130l99 560h25l-99 -560c-17 -95 -81 -150 -176 -150z" />
    <glyph glyph-name="uni00AD" unicode="&#xad;" horiz-adv-x="405" 
d="M49 335h325l-4 -20h-325z" />
    <glyph glyph-name="afii10052" unicode="&#x403;" horiz-adv-x="445" 
d="M518 700l-3 -15l-6 -5h-305l-119 -680h-25l123 700h335zM450 910h30l-105 -140h-20z" />
    <glyph glyph-name="afii10100" unicode="&#x453;" horiz-adv-x="380" 
d="M40 0l89 510h290l-2 -15l-6 -5h-260l-86 -490h-25zM372 750h30l-107 -150h-20z" />
    <glyph glyph-name="afii10061" unicode="&#x40c;" horiz-adv-x="550" 
d="M85 0h-25l123 700h25l-58 -330h170l233 330h25l-2 -10l-238 -330l123 -350l-1 -10h-25l-119 350h-170zM470 910h30l-105 -140h-20z" />
    <glyph glyph-name="afii10071" unicode="&#x451;" horiz-adv-x="480" 
d="M328 500h-100c-50 0 -103 -45 -113 -100l-25 -140h290l25 140c10 55 -27 100 -77 100zM345 0h-205c-70 0 -112 50 -99 120l49 280c12 70 71 120 141 120h100c70 0 111 -50 99 -120l-28 -160h-315l-21 -120c-10 -55 27 -100 77 -100h205zM239 635h-25l15 80h25zM389 635
h-25l15 80h25z" />
    <glyph glyph-name="afii10109" unicode="&#x45c;" horiz-adv-x="465" 
d="M387 750h30l-107 -150h-20zM154 510l-41 -235h155l161 235h25l-1 -10l-167 -235l95 -255l-1 -10h-25l-91 255h-155l-44 -255h-25l89 510h25z" />
    <glyph glyph-name="afii10062" unicode="&#x40e;" horiz-adv-x="485" 
d="M182 100l30 55l-111 535l2 10h25l102 -500h5l268 500h25l-2 -10l-314 -590c-45 -85 -74 -110 -144 -110h-26l3 20h26c50 0 74 20 111 90zM380 795h-90c-45 0 -70 30 -62 75l9 50h25l-9 -50c-6 -35 10 -55 40 -55h90c30 0 54 20 60 55l9 50h25l-9 -50
c-8 -45 -43 -75 -88 -75z" />
    <glyph glyph-name="afii10110" unicode="&#x45e;" horiz-adv-x="415" 
d="M139 -30l16 30v5l-92 495l1 10h25l84 -460h5l226 460h25l-1 -10l-264 -530c-54 -110 -89 -140 -154 -140h-23l3 20h23c50 0 77 25 126 120zM295 600h-60c-50 0 -74 30 -66 80l7 40h25l-7 -40c-7 -40 10 -60 45 -60h60c35 0 58 20 65 60l7 40h25l-7 -40
c-8 -50 -44 -80 -94 -80z" />
    <glyph glyph-name="afii10056" unicode="&#x407;" horiz-adv-x="245" 
d="M85 0h-25l123 700h25zM151 800h-25l14 80h25zM301 800h-25l14 80h25z" />
    <glyph glyph-name="afii10023" unicode="&#x401;" 
d="M548 700l-3 -15l-6 -5h-335l-54 -310h260l-4 -20h-260l-58 -330h340l-3 -20h-365l123 700h365zM321 800h-25l14 80h25zM471 800h-25l14 80h25z" />
    <glyph glyph-name="afii57929" unicode="&#x2bc;" horiz-adv-x="110" 
d="M138 670l-43 -130h-10l28 160h30z" />
    <glyph glyph-name="minus" unicode="&#x2212;" horiz-adv-x="440" 
d="M49 335h360l-4 -20h-360z" />
    <glyph glyph-name="Aogonek" unicode="&#x104;" horiz-adv-x="525" 
d="M382 -185h50l-4 -20h-50c-45 0 -65 25 -57 70c13 75 104 135 104 135h-5l-29 205h-285l-101 -205h-25l1 10l337 690h35l93 -690l-2 -15s-85 -55 -98 -130c-6 -35 6 -50 36 -50zM326 660l-212 -435h275l-58 435h-5z" />
    <glyph glyph-name="Ccedilla" unicode="&#xc7;" horiz-adv-x="500" 
d="M229 -230h-80l3 20h80c30 0 48 15 54 50l6 30c6 35 -7 50 -37 50h-55l15 80h-25c-95 0 -141 55 -124 150l70 400c17 95 82 150 177 150h225l-3 -15l-6 -5h-220c-80 0 -133 -45 -148 -130l-70 -400c-15 -85 22 -130 102 -130h225l-3 -20h-175l-11 -60h30
c45 0 66 -25 58 -70l-6 -30c-8 -45 -37 -70 -82 -70z" />
    <glyph glyph-name="Dcroat" unicode="&#x110;" horiz-adv-x="590" 
d="M300 0h-250l60 345h-70l4 20h70l59 335h250c95 0 140 -55 123 -150l-70 -400c-17 -95 -81 -150 -176 -150zM78 20h225c80 0 133 45 148 130l70 400c15 85 -22 130 -102 130h-225l-55 -315h165l-4 -20h-165z" />
    <glyph glyph-name="Eth" unicode="&#xd0;" horiz-adv-x="590" 
d="M300 0h-250l60 345h-70l4 20h70l59 335h250c95 0 140 -55 123 -150l-70 -400c-17 -95 -81 -150 -176 -150zM78 20h225c80 0 133 45 148 130l70 400c15 85 -22 130 -102 130h-225l-55 -315h165l-4 -20h-165z" />
    <glyph glyph-name="Gcommaaccent" unicode="&#x122;" horiz-adv-x="575" 
d="M193 20h220l62 350h25l-65 -370h-245c-95 0 -141 55 -124 150l70 400c17 95 82 150 177 150h225l-3 -15l-6 -5h-220c-80 0 -133 -45 -148 -130l-70 -400c-15 -85 22 -130 102 -130zM257 -100l-43 -130h-9l27 160h30z" />
    <glyph glyph-name="ccedilla" unicode="&#xe7;" horiz-adv-x="410" 
d="M169 -230h-80l3 20h80c30 0 48 15 54 50l6 30c6 35 -7 50 -37 50h-55l15 80h-15c-70 0 -112 50 -99 120l47 270c13 70 71 120 141 120h195l-2 -15l-6 -5h-190c-50 0 -103 -45 -113 -100l-47 -270c-10 -55 27 -100 77 -100h195l-3 -20h-155l-11 -60h30c45 0 66 -25 58 -70
l-6 -30c-8 -45 -37 -70 -82 -70z" />
    <glyph glyph-name="ae" unicode="&#xe6;" horiz-adv-x="785" 
d="M414 450h5s37 70 117 70h100c70 0 111 -50 99 -120l-26 -145h-315l-23 -135c-10 -55 27 -100 77 -100h205l-3 -20h-205c-90 0 -97 75 -97 75h-5s-55 -85 -135 -85h-95c-65 0 -102 45 -91 110l12 65c11 65 64 110 129 110h210l20 115c10 55 -27 100 -77 100h-185l3 20h185
c80 0 95 -60 95 -60zM47 100c-9 -50 24 -90 69 -90h95c80 0 135 110 135 110l23 135h-210c-45 0 -92 -40 -100 -90zM633 500h-100c-50 0 -103 -45 -113 -100l-22 -125h290l22 125c10 55 -27 100 -77 100z" />
    <glyph glyph-name="eogonek" unicode="&#x119;" horiz-adv-x="480" 
d="M282 -185h50l-4 -20h-50c-45 0 -65 25 -57 70c13 75 104 135 104 135h-185c-70 0 -112 50 -99 120l49 280c12 70 71 120 141 120h100c70 0 111 -50 99 -120l-28 -160h-315l-21 -120c-10 -55 27 -100 77 -100h205l-4 -25s-85 -55 -98 -130c-6 -35 6 -50 36 -50zM328 500
h-100c-50 0 -103 -45 -113 -100l-25 -140h290l25 140c10 55 -27 100 -77 100z" />
    <glyph glyph-name="Iogonek" unicode="&#x12e;" horiz-adv-x="245" 
d="M22 -185h50l-4 -20h-50c-45 0 -65 25 -57 70c13 75 104 135 104 135h-5l123 700h25l-124 -705s-85 -55 -98 -130c-6 -35 6 -50 36 -50z" />
    <glyph glyph-name="Scedilla" unicode="&#x15e;" 
d="M184 -230h-80l3 20h80c30 0 48 15 54 50l6 30c6 35 -7 50 -37 50h-55l15 80h-165l3 20h245c80 0 133 45 148 130l12 70c11 60 -13 92 -66 105l-158 40c-72 18 -100 55 -87 130l9 55c17 95 82 150 177 150h220l-3 -15l-6 -5h-215c-80 0 -133 -45 -148 -130l-9 -55
c-11 -60 14 -92 66 -105l158 -40c72 -18 101 -55 87 -130l-12 -70c-17 -95 -81 -150 -176 -150h-55l-11 -60h30c45 0 66 -25 58 -70l-6 -30c-8 -45 -37 -70 -82 -70z" />
    <glyph glyph-name="iogonek" unicode="&#x12f;" horiz-adv-x="205" 
d="M2 -185h50l-4 -20h-50c-45 0 -64 25 -56 70c12 75 103 135 103 135h-5l89 510h25l-90 -515s-85 -55 -98 -130c-6 -35 6 -50 36 -50zM192 725l-17 -100h-25l17 100h25z" />
    <glyph glyph-name="scedilla" unicode="&#x15f;" horiz-adv-x="440" 
d="M144 -230h-80l3 20h80c30 0 48 15 54 50l6 30c6 35 -7 50 -37 50h-55l15 80h-125l3 20h220c40 0 92 40 101 90l7 40c7 40 -18 68 -61 80l-124 35c-57 16 -86 50 -78 95l7 40c11 65 64 110 129 110h205l-2 -15l-6 -5h-200c-45 0 -92 -40 -101 -90l-7 -40
c-5 -30 20 -58 63 -70l123 -35c58 -16 87 -50 77 -105l-7 -40c-12 -65 -70 -110 -129 -110h-70l-11 -60h30c45 0 66 -25 58 -70l-6 -30c-8 -45 -37 -70 -82 -70z" />
    <glyph glyph-name="oslash" unicode="&#xf8;" horiz-adv-x="495" 
d="M39 110l51 290c12 70 71 120 141 120h115c70 0 111 -50 99 -120l-51 -290c-12 -70 -71 -120 -141 -120h-115c-70 0 -111 50 -99 120zM141 10h115c50 0 103 45 113 100l51 290c7 40 -14 65 -14 65l-312 -440s17 -15 47 -15zM64 110c-7 -40 13 -65 13 -65l313 440
s-17 15 -47 15h-115c-50 0 -103 -45 -113 -100z" />
    <glyph glyph-name="uni20BD" unicode="&#x20bd;" horiz-adv-x="560" 
d="M90 0h-25l29 165h-85l3 20h85l21 120h-85l4 20h85l66 375h235c95 0 140 -55 123 -150l-16 -95c-17 -95 -82 -150 -177 -150h-210l-21 -120h280l-3 -20h-280zM419 680h-210l-62 -355h210c80 0 133 45 148 130l16 95c15 85 -22 130 -102 130z" />
    <glyph glyph-name="B" unicode="B" horiz-adv-x="580" 
d="M183 700h225c95 0 140 -55 123 -150l-7 -45c-21 -115 -98 -130 -98 -130l-1 -5s103 -10 79 -145l-13 -75c-17 -95 -81 -150 -176 -150h-255zM88 20h230c80 0 133 45 148 130l13 75c15 85 -22 130 -102 130h-230zM404 680h-200l-53 -305h200c80 0 133 45 148 130l7 45
c15 85 -22 130 -102 130z" />
    <glyph glyph-name="foundryicon" horiz-adv-x="1230" 
d="M100 -110v920h1030v-920h-1030zM1110 -90v880h-990v-880h990zM635 610h110c50 0 80 -30 80 -65s-30 -65 -80 -65h-55v-80h-55v210zM635 300h110c50 0 80 -30 80 -65s-30 -65 -80 -65h-55v-80h-55v210zM495 170l-75 130h60l40 -75h5l40 75h65l-80 -130v-80h-55v80z
M495 480l-75 130h60l40 -75h5l40 75h65l-80 -130v-80h-55v80zM300 255h-65v45h165l25 -45h-70v-165h-55v165zM300 565h-65v45h165l25 -45h-70v-165h-55v165zM790 400v65c25 5 55 30 60 60h80v-45h-85v-35h120v-45h-175zM790 90v65c25 5 55 30 60 60h80v-45h-85v-35h120v-45
h-175zM810 300h155v-45h-115c-5 20 -20 40 -40 45zM810 610h155v-45h-115c-5 20 -20 40 -40 45zM765 545c0 10 -10 20 -20 20h-55v-40h55c10 0 20 9 20 20zM765 235c0 10 -10 20 -20 20h-55v-40h55c10 0 20 9 20 20z" />
    <glyph glyph-name="Germandbls" horiz-adv-x="565" 
d="M281 375l2 15l231 285v5h-205c-80 0 -133 -45 -148 -130l-96 -550h-25l96 550c17 95 82 150 177 150h235l-4 -20l-224 -280l-1 -5h65c95 0 140 -55 124 -150l-17 -95c-17 -95 -81 -150 -176 -150h-120l3 20h120c80 0 133 45 148 130l17 95c15 85 -22 130 -102 130h-100z
" />
    <glyph glyph-name="uni1E9E" unicode="&#x1e9e;" horiz-adv-x="565" 
d="M281 375l2 15l231 285v5h-205c-80 0 -133 -45 -148 -130l-96 -550h-25l96 550c17 95 82 150 177 150h235l-4 -20l-224 -280l-1 -5h65c95 0 140 -55 124 -150l-17 -95c-17 -95 -81 -150 -176 -150h-120l3 20h120c80 0 133 45 148 130l17 95c15 85 -22 130 -102 130h-100z
" />
    <glyph glyph-name="cyrbreve" unicode="&#xf6d4;" horiz-adv-x="300" 
d="M235 600h-60c-50 0 -74 30 -66 80l7 40h25l-7 -40c-7 -40 10 -60 45 -60h60c35 0 58 20 65 60l7 40h25l-7 -40c-8 -50 -44 -80 -94 -80z" />
    <glyph glyph-name="cyrBreve" unicode="&#xf6d1;" horiz-adv-x="320" 
d="M295 795h-90c-45 0 -70 30 -62 75l9 50h25l-9 -50c-6 -35 10 -55 40 -55h90c30 0 54 20 60 55l9 50h25l-9 -50c-8 -45 -43 -75 -88 -75z" />
    <glyph glyph-name="uni20B4" unicode="&#x20b4;" horiz-adv-x="530" 
d="M513 415h-450l3 20h360s24 20 31 60l9 55c15 85 -22 130 -102 130h-185l-4 5l3 15h190c95 0 140 -55 123 -150l-9 -55c-7 -40 -31 -60 -31 -60h65zM40 285h450l-4 -20h-360s-23 -20 -30 -60l-10 -55c-15 -85 22 -130 102 -130h210l-3 -20h-210c-95 0 -141 55 -124 150
l10 55c7 40 30 60 30 60h-65z" />
    <glyph glyph-name="fraction" unicode="&#x2044;" horiz-adv-x="430" 
d="M458 700h25l-2 -10l-486 -690h-25l1 10z" />
    <glyph glyph-name="ordmasculine" unicode="&#xba;" horiz-adv-x="340" 
d="M130 600l-24 -140c-10 -55 11 -80 61 -80h40c50 0 79 25 89 80l24 140c10 55 -11 80 -61 80h-40c-50 0 -79 -25 -89 -80zM345 600l-24 -140c-12 -65 -53 -100 -118 -100h-40c-65 0 -94 35 -82 100l24 140c12 65 53 100 118 100h40c65 0 94 -35 82 -100z" />
    <glyph glyph-name="foursuperior" unicode="&#x2074;" horiz-adv-x="305" 
d="M46 435l4 20l228 245h20l-43 -245h40l-4 -20h-40l-13 -75h-25l13 75h-180zM81 460l-1 -5h150l34 195h-5z" />
    <glyph glyph-name="C" unicode="C" horiz-adv-x="500" 
d="M193 20h225l-3 -20h-225c-95 0 -141 55 -124 150l70 400c17 95 82 150 177 150h225l-3 -15l-6 -5h-220c-80 0 -133 -45 -148 -130l-70 -400c-15 -85 22 -130 102 -130z" />
    <glyph glyph-name="g" unicode="g" horiz-adv-x="455" 
d="M326 520l86 90h25l-2 -10l-79 -80l-1 -5s76 -25 60 -115l-11 -60c-12 -70 -71 -120 -141 -120h-140c-20 0 -37 -15 -41 -35l-6 -35c-4 -20 9 -35 29 -35h180c65 0 102 -45 90 -110l-11 -65c-12 -65 -64 -110 -129 -110h-175c-65 0 -103 45 -91 110l11 65
c14 80 88 100 88 100l1 5s-24 5 -18 40l6 35c8 45 49 50 49 50l1 5s-51 25 -38 100l11 60c12 70 71 120 141 120h105zM5 5l-11 -65c-9 -50 24 -90 69 -90h175c45 0 92 40 101 90l11 65c9 50 -24 90 -69 90h-175c-45 0 -92 -40 -101 -90zM105 400l-11 -60
c-9 -55 28 -100 78 -100h95c50 0 103 45 112 100l11 60c10 55 -27 100 -77 100h-95c-50 0 -103 -45 -113 -100z" />
    <glyph glyph-name="gcommaaccent" unicode="&#x123;" 
d="M329 -60l14 80h-200c-70 0 -111 50 -99 120l46 260c12 70 71 120 141 120h85c80 0 101 -80 101 -80h5l17 70h15l-100 -570c-12 -70 -71 -120 -141 -120h-200l3 20h200c50 0 103 45 113 100zM313 500h-85c-50 0 -103 -45 -113 -100l-46 -260c-10 -55 28 -100 78 -100h200
l61 350s-15 110 -95 110zM291 630l43 130h10l-29 -160h-30z" />
    <glyph glyph-name="gbreve" unicode="&#x11f;" 
d="M329 -60l14 80h-200c-70 0 -111 50 -99 120l46 260c12 70 71 120 141 120h85c80 0 101 -80 101 -80h5l17 70h15l-100 -570c-12 -70 -71 -120 -141 -120h-200l3 20h200c50 0 103 45 113 100zM313 500h-85c-50 0 -103 -45 -113 -100l-46 -260c-10 -55 28 -100 78 -100h200
l61 350s-15 110 -95 110zM333 615h-60c-50 0 -75 30 -66 80l7 40h25l-7 -40c-7 -40 9 -60 44 -60h60c35 0 59 20 66 60l7 40h25l-7 -40c-9 -50 -44 -80 -94 -80z" />
    <glyph glyph-name="Eogonek" unicode="&#x118;" 
d="M362 -185h50l-4 -20h-50c-45 0 -65 25 -57 70c13 75 104 135 104 135h-345l123 700h365l-3 -15l-6 -5h-335l-54 -310h260l-4 -20h-260l-58 -330h340l-4 -25s-85 -55 -98 -130c-6 -35 6 -50 36 -50z" />
    <glyph glyph-name="aogonek" unicode="&#x105;" horiz-adv-x="490" 
d="M287 -185h50l-4 -20h-50c-45 0 -65 25 -57 70c13 75 109 140 109 140l7 65h-5s-49 -80 -129 -80h-95c-65 0 -102 45 -91 110l13 75c12 65 65 110 130 110h210l18 105c10 55 -27 100 -77 100h-185l3 20h185c70 0 112 -50 99 -120l-69 -395s-85 -55 -98 -130
c-6 -35 6 -50 36 -50zM47 100c-9 -50 24 -90 69 -90h95c80 0 135 110 135 110l25 145h-210c-45 0 -92 -40 -101 -90z" />
    <glyph glyph-name="Uogonek" unicode="&#x172;" horiz-adv-x="600" 
d="M222 -185h50l-4 -20h-50c-45 0 -65 25 -57 70c12 70 92 125 92 125h-55c-95 0 -141 55 -124 150l99 560h25l-99 -560c-15 -85 22 -130 102 -130h100c80 0 133 45 148 130l99 560h25l-99 -560c-17 -95 -81 -150 -176 -150h-20s-80 -54 -92 -125c-6 -35 6 -50 36 -50z" />
    <glyph glyph-name="uogonek" unicode="&#x173;" horiz-adv-x="525" 
d="M474 510l-90 -515s-85 -55 -98 -130c-6 -35 6 -50 36 -50h50l-4 -20h-50c-45 0 -65 25 -57 70c13 75 109 140 109 140l7 65h-5s-49 -80 -129 -80h-85c-70 0 -111 50 -99 120l70 400h25l-70 -400c-10 -55 27 -100 77 -100h85c80 0 135 110 135 110l68 390h25z" />
    <glyph glyph-name="Aring" unicode="&#xc5;" horiz-adv-x="525" 
d="M106 205l-101 -205h-25l1 10l337 690h35l93 -690l-1 -10h-25l-29 205h-285zM326 660l-212 -435h275l-58 435h-5zM344 780h10c30 0 59 25 65 55l1 10c6 30 -15 55 -45 55h-10c-30 0 -59 -25 -65 -55l-1 -10c-6 -30 15 -55 45 -55zM351 760h-10c-45 0 -74 35 -67 75l1 10
c8 40 49 75 94 75h10c45 0 74 -35 66 -75l-1 -10c-7 -40 -48 -75 -93 -75z" />
    <glyph glyph-name="D" unicode="D" horiz-adv-x="600" 
d="M310 0h-250l123 700h250c95 0 140 -55 123 -150l-70 -400c-17 -95 -81 -150 -176 -150zM88 20h225c80 0 133 45 148 130l70 400c15 85 -22 130 -102 130h-225z" />
    <glyph glyph-name="Acute" unicode="&#xf6c9;" horiz-adv-x="180" 
d="M220 910h30l-105 -140h-20z" />
    <glyph glyph-name="Breve" unicode="&#xf406;" horiz-adv-x="300" 
d="M268 785h-60c-50 0 -75 30 -66 80l5 30h25l-5 -30c-7 -40 9 -60 44 -60h60c35 0 59 20 66 60l5 30h25l-5 -30c-9 -50 -44 -80 -94 -80z" />
    <glyph glyph-name="Caron" unicode="&#xf6ca;" horiz-adv-x="315" 
d="M150 910h25l69 -120h5l111 120h25l-130 -140h-25z" />
    <glyph glyph-name="Circumflex" unicode="&#xf408;" horiz-adv-x="315" 
d="M360 770h-25l-69 120h-5l-111 -120h-25l130 140h25z" />
    <glyph glyph-name="Dieresis" unicode="&#xf6cb;" horiz-adv-x="255" 
d="M156 800h-25l14 80h25zM306 800h-25l14 80h25z" />
    <glyph glyph-name="Dotaccent" unicode="&#xf40b;" horiz-adv-x="105" 
d="M171 890l-17 -100h-25l17 100h25z" />
    <glyph glyph-name="Grave" unicode="&#xf6ce;" horiz-adv-x="180" 
d="M150 910h30l45 -140h-20z" />
    <glyph glyph-name="Hungarumlaut" unicode="&#xf6cf;" horiz-adv-x="315" 
d="M220 910h30l-105 -140h-20zM355 910h30l-105 -140h-20z" />
    <glyph glyph-name="Macron" unicode="&#xf6d0;" horiz-adv-x="305" 
d="M139 850h225l-3 -20h-225z" />
    <glyph glyph-name="Ring" unicode="&#xf40c;" horiz-adv-x="250" 
d="M207 780h10c30 0 59 25 65 55l1 10c6 30 -15 55 -45 55h-10c-30 0 -59 -25 -65 -55l-1 -10c-6 -30 15 -55 45 -55zM214 760h-10c-45 0 -74 35 -67 75l1 10c8 40 49 75 94 75h10c45 0 74 -35 66 -75l-1 -10c-7 -40 -48 -75 -93 -75z" />
    <glyph glyph-name="Tilde" unicode="&#xf40d;" horiz-adv-x="290" 
d="M239 820l-14 35c-6 15 -15 25 -30 25h-5c-15 0 -27 -10 -31 -30l-11 -65h-20l11 65c6 30 29 50 54 50h5c25 0 38 -14 48 -40l14 -35c6 -15 16 -25 31 -25h5c15 0 26 10 30 30l11 65h20l-11 -65c-5 -30 -29 -50 -54 -50h-5c-25 0 -37 14 -48 40z" />
    <glyph glyph-name="E" unicode="E" 
d="M548 700l-3 -15l-6 -5h-335l-54 -310h260l-4 -20h-260l-58 -330h340l-3 -20h-365l123 700h365z" />
    <glyph glyph-name="nbspace" unicode="&#xa0;" horiz-adv-x="0" 
 />
    <glyph glyph-name="CR" unicode="&#xd;" horiz-adv-x="0" 
 />
    <glyph glyph-name=".null" horiz-adv-x="0" 
 />
    <glyph glyph-name=".null" horiz-adv-x="0" 
 />
    </font>
</defs>
</svg>
