<?xml version="1.0" standalone="no"?>
<!DOCTYPE svg PUBLIC "-//W3C//DTD SVG 1.1//EN" "http://www.w3.org/Graphics/SVG/1.1/DTD/svg11.dtd" >
<svg>
<metadata>
Created by FontForge 20120731 at Tue Sep 10 18:48:53 2019
 By www-data
Designed for Typetype in 2016 by Ivan Gladkikh. TT Supermolot Condensed is one of series of fontfamilies which were designed for use in web and mobile applications, print and multimedia environments. 
</metadata>
<defs>
<font id="TTSupermolotCondensed-Black" horiz-adv-x="550" >
  <font-face 
    font-family="TT Supermolot Condensed Black"
    font-weight="900"
    font-stretch="normal"
    units-per-em="1000"
    panose-1="2 0 5 3 4 0 0 2 0 3"
    ascent="800"
    descent="-200"
    x-height="520"
    cap-height="700"
    bbox="-40 -300 1130 950"
    underline-thickness="50"
    underline-position="-50"
    stemh="180"
    stemv="220"
    unicode-range="U+000D-F6D4"
  />
<missing-glyph horiz-adv-x="0" 
 />
    <glyph glyph-name=".notdef" horiz-adv-x="0" 
 />
    <glyph glyph-name="F" unicode="F" horiz-adv-x="530" 
d="M520 700v-130l-60 -60h-180v-105h155v-190h-155v-215h-220v700h460z" />
    <glyph glyph-name="G" unicode="G" horiz-adv-x="590" 
d="M540 0h-350c-85 0 -140 55 -140 140v420c0 85 55 140 140 140h325v-120l-60 -60h-185v-340h60v220h210v-400z" />
    <glyph glyph-name="H" unicode="H" horiz-adv-x="630" 
d="M280 0h-220v700h220v-255h70v255h220v-700h-220v255h-70v-255z" />
    <glyph glyph-name="I" unicode="I" horiz-adv-x="340" 
d="M280 0h-220v700h220v-700z" />
    <glyph glyph-name="J" unicode="J" horiz-adv-x="460" 
d="M190 700h220v-570c0 -85 -55 -140 -140 -140h-260v180h180v530z" />
    <glyph glyph-name="L" unicode="L" horiz-adv-x="505" 
d="M280 190h215v-190h-435v700h220v-510z" />
    <glyph glyph-name="M" unicode="M" horiz-adv-x="810" 
d="M490 90h-170l-50 190h-10v-280h-240v100l55 600h270l55 -200h10l55 200h270l55 -600v-100h-240v280h-10z" />
    <glyph glyph-name="N" unicode="N" horiz-adv-x="630" 
d="M570 0h-230l-70 240h-10l20 -140v-100h-220v700h230l70 -240h10l-20 140v100h220v-700z" />
    <glyph glyph-name="O" unicode="O" horiz-adv-x="620" 
d="M350 170v360h-80v-360h80zM50 130v440c0 85 55 140 140 140h240c85 0 140 -55 140 -140v-440c0 -85 -55 -140 -140 -140h-240c-85 0 -140 55 -140 140z" />
    <glyph glyph-name="P" unicode="P" horiz-adv-x="595" 
d="M280 0h-220v700h365c85 0 140 -55 140 -140v-230c0 -85 -55 -140 -140 -140h-145v-190zM345 520h-65v-150h65v150z" />
    <glyph glyph-name="R" unicode="R" horiz-adv-x="610" 
d="M280 0h-220v700h365c85 0 140 -55 140 -140v-190c0 -85 -55 -110 -55 -110l70 -160v-100h-220l-56 235h-24v-235zM345 520h-65v-105h65v105z" />
    <glyph glyph-name="Q" unicode="Q" horiz-adv-x="620" 
d="M50 130v440c0 85 55 140 140 140h240c85 0 140 -55 140 -140v-440c0 -85 -55 -140 -140 -140h-20l40 -70v-80h-200l-40 150h-20c-85 0 -140 55 -140 140zM350 170v360h-80v-360h80z" />
    <glyph glyph-name="S" unicode="S" horiz-adv-x="545" 
d="M30 425v135c0 85 55 140 140 140h325v-120l-60 -60h-185v-60l135 -25c75 -14 130 -70 130 -150v-145c0 -85 -55 -140 -140 -140h-345v180h265v70l-135 25c-75 14 -130 70 -130 150z" />
    <glyph glyph-name="U" unicode="U" horiz-adv-x="610" 
d="M270 700v-530h70v530h220v-570c0 -85 -55 -140 -140 -140h-230c-85 0 -140 55 -140 140v570h220z" />
    <glyph glyph-name="V" unicode="V" horiz-adv-x="570" 
d="M435 0h-300l-125 600v100h220l50 -410h10l50 410h220v-100z" />
    <glyph glyph-name="W" unicode="W" horiz-adv-x="840" 
d="M510 590l50 -220h10v330h260v-100l-90 -600h-265l-50 220h-10l-50 -220h-265l-90 600v100h260v-330h10l50 220h180z" />
    <glyph glyph-name="X" unicode="X" horiz-adv-x="570" 
d="M290 235h-10l-50 -235h-220v100l100 250l-85 250v100h220l35 -235h10l35 235h220v-100l-85 -250l100 -250v-100h-220z" />
    <glyph glyph-name="Y" unicode="Y" 
d="M385 180v-180h-220v180l-155 420v100h220l40 -270h10l40 270h220v-100z" />
    <glyph glyph-name="Z" unicode="Z" horiz-adv-x="520" 
d="M275 190h225v-190h-480v180l225 320v10h-155l-60 60v130h470v-180l-225 -320v-10z" />
    <glyph glyph-name="afii10018" unicode="&#x411;" horiz-adv-x="585" 
d="M60 700h460v-120l-60 -60h-180v-70h135c85 0 140 -55 140 -140v-170c0 -85 -55 -140 -140 -140h-355v700zM280 170h55v110h-55v-110z" />
    <glyph glyph-name="afii10020" unicode="&#x413;" horiz-adv-x="515" 
d="M505 700v-130l-60 -60h-165v-510h-220v700h445z" />
    <glyph glyph-name="afii10021" unicode="&#x414;" horiz-adv-x="630" 
d="M220 0l-20 -120h-200v310h25s40 25 45 70l50 440h440v-510h70v-310h-200l-20 120h-190zM315 510l-25 -250c-4 -45 -35 -59 -35 -60v-10h85v320h-25z" />
    <glyph glyph-name="afii10024" unicode="&#x416;" horiz-adv-x="850" 
d="M535 0h-220v250h-25l-60 -250h-220v100l100 250l-85 250v100h220l45 -250h25v250h220v-250h25l45 250h220v-100l-85 -250l100 -250v-100h-220l-60 250h-25v-250z" />
    <glyph glyph-name="afii10025" unicode="&#x417;" horiz-adv-x="525" 
d="M20 700h330c85 0 140 -55 140 -140v-70c0 -115 -95 -120 -95 -120v-10s100 -5 100 -130v-90c0 -85 -55 -140 -140 -140h-335v180h255v80h-145v180h140v80h-190l-60 60v120z" />
    <glyph glyph-name="afii10026" unicode="&#x418;" horiz-adv-x="630" 
d="M280 0h-220v700h220v-100l-20 -140h10l80 240h220v-700h-220v100l20 140h-10z" />
    <glyph glyph-name="afii10027" unicode="&#x419;" horiz-adv-x="630" 
d="M280 0h-220v700h220v-100l-20 -140h10l80 240h220v-700h-220v100l20 140h-10zM340 890v60h140v-100c0 -45 -35 -80 -80 -80h-170c-45 0 -80 35 -80 80v100h140v-60h50z" />
    <glyph glyph-name="afii10029" unicode="&#x41b;" horiz-adv-x="625" 
d="M60 180l60 520h445v-700h-220v510h-30l-40 -370c-10 -95 -65 -150 -180 -150h-95v190h60z" />
    <glyph glyph-name="afii10033" unicode="&#x41f;" horiz-adv-x="630" 
d="M280 0h-220v700h510v-700h-220v510h-70v-510z" />
    <glyph glyph-name="afii10037" unicode="&#x423;" 
d="M10 700h220l45 -320h9l36 320h220v-100l-130 -460c-27 -95 -80 -150 -170 -150h-160v180h65v10l-135 420v100z" />
    <glyph glyph-name="afii10038" unicode="&#x424;" horiz-adv-x="840" 
d="M530 730v-70h130c85 0 140 -55 140 -140v-330c0 -85 -55 -140 -140 -140h-130v-70h-220v70h-130c-85 0 -140 55 -140 140v330c0 85 55 140 140 140h130v70h220zM260 480v-250h50v250h-50zM580 230v250h-50v-250h50z" />
    <glyph glyph-name="afii10040" unicode="&#x426;" horiz-adv-x="630" 
d="M410 0h-350v700h220v-510h60v510h220v-510h70v-310h-200z" />
    <glyph glyph-name="afii10041" unicode="&#x427;" horiz-adv-x="605" 
d="M545 0h-220v210h-135c-85 0 -140 55 -140 140v350h220v-310h55v310h220v-700z" />
    <glyph glyph-name="afii10042" unicode="&#x428;" horiz-adv-x="910" 
d="M345 700h220v-510h65v510h220v-700h-790v700h220v-510h65v510z" />
    <glyph glyph-name="afii10043" unicode="&#x429;" horiz-adv-x="920" 
d="M345 700h220v-510h65v510h220v-510h70v-310h-200l-20 120h-640v700h220v-510h65v510z" />
    <glyph glyph-name="afii10044" unicode="&#x42a;" horiz-adv-x="615" 
d="M0 520v180h310v-210h135c85 0 140 -55 140 -140v-210c0 -85 -55 -140 -140 -140h-355v520h-90zM310 180h55v130h-55v-130z" />
    <glyph glyph-name="afii10045" unicode="&#x42b;" horiz-adv-x="895" 
d="M835 0h-220v700h220v-700zM60 700h220v-210h135c85 0 140 -55 140 -140v-210c0 -85 -55 -140 -140 -140h-355v700zM280 180h55v130h-55v-130z" />
    <glyph glyph-name="afii10046" unicode="&#x42c;" horiz-adv-x="595" 
d="M60 700h220v-210h145c85 0 140 -55 140 -140v-210c0 -85 -55 -140 -140 -140h-365v700zM280 180h65v130h-65v-130z" />
    <glyph glyph-name="afii10047" unicode="&#x42d;" horiz-adv-x="535" 
d="M345 0h-325v180h245v80h-135v180h135v80h-185l-60 60v120h325c85 0 140 -55 140 -140v-420c0 -85 -55 -140 -140 -140z" />
    <glyph glyph-name="afii10048" unicode="&#x42e;" horiz-adv-x="885" 
d="M345 130v125h-65v-255h-220v700h220v-255h65v125c0 85 55 140 140 140h210c85 0 140 -55 140 -140v-440c0 -85 -55 -140 -140 -140h-210c-85 0 -140 55 -140 140zM615 170v360h-50v-360h50z" />
    <glyph glyph-name="afii10049" unicode="&#x42f;" horiz-adv-x="590" 
d="M540 0h-220v235h-24l-56 -235h-220v100l70 160s-55 25 -55 110v190c0 85 55 140 140 140h365v-700zM320 520h-65v-105h65v105z" />
    <glyph glyph-name="afii10066" unicode="&#x431;" horiz-adv-x="555" 
d="M305 280h-45v-120h45v120zM515 330v-220c0 -65 -55 -120 -120 -120h-225c-65 0 -120 55 -120 120v380c0 105 65 170 185 190l240 40l25 -180l-240 -40v-50h135c65 0 120 -55 120 -120z" />
    <glyph glyph-name="afii10067" unicode="&#x432;" horiz-adv-x="530" 
d="M285 374h-25v-54h25v54zM260 146h35v54h-35v-54zM485 400v-40c0 -80 -60 -90 -60 -90v-10s80 -10 80 -90v-50c0 -65 -55 -120 -120 -120h-335v520h315c65 0 120 -55 120 -120z" />
    <glyph glyph-name="afii10068" unicode="&#x433;" horiz-adv-x="450" 
d="M50 0v520h400v-125l-50 -55h-140v-340h-210z" />
    <glyph glyph-name="afii10069" unicode="&#x434;" horiz-adv-x="565" 
d="M0 170h30s31 30 35 70l30 280h415v-350h55v-270h-190l-15 100h-155l-15 -100h-190v270zM305 340h-25l-10 -100c-4 -40 -25 -60 -25 -60v-10h60v170z" />
    <glyph glyph-name="afii10072" unicode="&#x436;" horiz-adv-x="760" 
d="M275 345v175h210v-175h15l30 175h210v-90l-70 -170l75 -170v-90h-210l-35 175h-15v-175h-210v175h-15l-35 -175h-210v90l75 170l-70 170v90h210l30 -175h15z" />
    <glyph glyph-name="afii10073" unicode="&#x437;" horiz-adv-x="460" 
d="M435 170v-50c0 -65 -55 -120 -120 -120h-295v150h205v45h-105v130h95v45h-135l-50 55v95h275c65 0 120 -55 120 -120v-40c0 -80 -70 -90 -70 -90v-10s80 -10 80 -90z" />
    <glyph glyph-name="afii10074" unicode="&#x438;" horiz-adv-x="560" 
d="M50 0v520h210v-90l-15 -80h10l55 170h200v-520h-210v90l15 80h-10l-55 -170h-200z" />
    <glyph glyph-name="afii10075" unicode="&#x439;" horiz-adv-x="560" 
d="M50 0v520h210v-90l-15 -80h10l55 170h200v-520h-210v90l15 80h-10l-55 -170h-200zM300 700v60h145v-90c0 -45 -35 -80 -80 -80h-170c-45 0 -80 35 -80 80v90h145v-60h40z" />
    <glyph glyph-name="afii10076" unicode="&#x43a;" horiz-adv-x="540" 
d="M260 520v-175h20l30 175h210v-90l-70 -170l75 -170v-90h-210l-35 175h-20v-175h-210v520h210z" />
    <glyph glyph-name="afii10077" unicode="&#x43b;" horiz-adv-x="570" 
d="M100 520h420v-520h-210v340h-25l-25 -210c-8 -85 -65 -140 -140 -140h-110v170h50z" />
    <glyph glyph-name="afii10078" unicode="&#x43c;" horiz-adv-x="680" 
d="M400 60h-120l-30 115h-10v-175h-220v90l45 430h220l50 -200h10l50 200h220l45 -430v-90h-220v175h-10z" />
    <glyph glyph-name="afii10079" unicode="&#x43d;" horiz-adv-x="570" 
d="M260 520v-180h50v180h210v-520h-210v180h-50v-180h-210v520h210z" />
    <glyph glyph-name="afii10081" unicode="&#x43f;" horiz-adv-x="570" 
d="M50 520h470v-520h-210v350h-50v-350h-210v520z" />
    <glyph glyph-name="afii10084" unicode="&#x442;" horiz-adv-x="450" 
d="M10 340v180h430v-125l-50 -55h-60v-340h-210v340h-110z" />
    <glyph glyph-name="afii10086" unicode="&#x444;" horiz-adv-x="770" 
d="M490 -170h-210v170h-120c-65 0 -120 55 -120 120v280c0 65 55 120 120 120h120v180h210v-180h120c65 0 120 -55 120 -120v-280c0 -65 -55 -120 -120 -120h-120v-170zM240 350v-180h40v180h-40zM530 170v180h-40v-180h40z" />
    <glyph glyph-name="afii10088" unicode="&#x446;" horiz-adv-x="565" 
d="M360 0h-310v520h210v-350h40v350h210v-350h55v-270h-190z" />
    <glyph glyph-name="afii10089" unicode="&#x447;" horiz-adv-x="540" 
d="M280 140h-120c-65 0 -120 55 -120 120v260h210v-210h30v210h210v-520h-210v140z" />
    <glyph glyph-name="afii10090" unicode="&#x448;" horiz-adv-x="790" 
d="M740 0h-690v520h210v-350h30v350h210v-350h30v350h210v-520z" />
    <glyph glyph-name="afii10091" unicode="&#x449;" horiz-adv-x="795" 
d="M590 0h-540v520h210v-350h30v350h210v-350h30v350h210v-350h55v-270h-190z" />
    <glyph glyph-name="afii10092" unicode="&#x44a;" 
d="M405 0h-315v350h-90v170h300v-150h105c65 0 120 -55 120 -120v-130c0 -65 -55 -120 -120 -120zM325 230h-25v-90h25v90z" />
    <glyph glyph-name="afii10093" unicode="&#x44b;" horiz-adv-x="785" 
d="M735 0h-210v520h210v-520zM365 0h-315v520h210v-150h105c65 0 120 -55 120 -120v-130c0 -65 -55 -120 -120 -120zM285 230h-25v-90h25v90z" />
    <glyph glyph-name="afii10094" unicode="&#x44c;" horiz-adv-x="520" 
d="M375 0h-325v520h210v-150h115c65 0 120 -55 120 -120v-130c0 -65 -55 -120 -120 -120zM285 230h-25v-90h25v90z" />
    <glyph glyph-name="afii10095" unicode="&#x44d;" horiz-adv-x="465" 
d="M305 0h-285v150h195v45h-105v130h105v45h-145l-50 55v95h285c65 0 120 -55 120 -120v-280c0 -65 -55 -120 -120 -120z" />
    <glyph glyph-name="afii10096" unicode="&#x44e;" horiz-adv-x="780" 
d="M300 110v70h-40v-180h-210v520h210v-180h40v70c0 65 55 120 120 120h200c65 0 120 -55 120 -120v-300c0 -65 -55 -120 -120 -120h-200c-65 0 -120 55 -120 120zM540 160v200h-40v-200h40z" />
    <glyph glyph-name="afii10097" unicode="&#x44f;" horiz-adv-x="535" 
d="M160 520h325v-520h-210v100l5 60h-10l-50 -160h-200v90l70 110s-50 30 -50 100v100c0 65 55 120 120 120zM250 290h25v90h-25v-90z" />
    <glyph glyph-name="a" unicode="a" horiz-adv-x="540" 
d="M240 135h40v70h-40v-70zM490 0h-150l-25 45h-5s-20 -55 -75 -55h-85c-65 0 -120 55 -120 120v90c0 65 55 120 120 120h130v50h-205v150h295c65 0 120 -55 120 -120v-400z" />
    <glyph glyph-name="b" unicode="b" horiz-adv-x="565" 
d="M315 350h-45v-180h45v180zM405 0h-345v700h210v-180h135c65 0 120 -55 120 -120v-280c0 -65 -55 -120 -120 -120z" />
    <glyph glyph-name="c" unicode="c" horiz-adv-x="470" 
d="M445 0h-285c-65 0 -120 55 -120 120v280c0 65 55 120 120 120h285v-115l-50 -55h-145v-180h195v-170z" />
    <glyph glyph-name="d" unicode="d" horiz-adv-x="565" 
d="M295 350h-45v-190h45v190zM250 -10h-90c-65 0 -120 55 -120 120v290c0 65 55 120 120 120h135v180h210v-700h-150l-25 45h-5s-20 -55 -75 -55z" />
    <glyph glyph-name="e" unicode="e" horiz-adv-x="530" 
d="M280 390h-30v-70h30v70zM160 530h210c65 0 120 -55 120 -120v-220h-240v-40h220v-150h-310c-65 0 -120 55 -120 120v290c0 65 55 120 120 120z" />
    <glyph glyph-name="f" unicode="f" horiz-adv-x="410" 
d="M180 710h240v-115l-50 -55h-100v-80h105v-180h-105v-280h-210v590c0 65 55 120 120 120z" />
    <glyph glyph-name="h" unicode="h" horiz-adv-x="565" 
d="M270 0h-210v700h210v-180h135c65 0 120 -55 120 -120v-400h-210v350h-45v-350z" />
    <glyph glyph-name="i" unicode="i" horiz-adv-x="310" 
d="M260 520v-520h-210v520h210zM260 760v-170h-210v170h210z" />
    <glyph glyph-name="j" unicode="j" horiz-adv-x="310" 
d="M260 760v-170h-210v170h210zM140 -170h-170v170h80v520h210v-570c0 -65 -55 -120 -120 -120z" />
    <glyph glyph-name="k" unicode="k" 
d="M270 700v-355h20l30 175h210v-90l-70 -170l75 -170v-90h-210l-35 175h-20v-175h-210v700h210z" />
    <glyph glyph-name="l" unicode="l" horiz-adv-x="335" 
d="M315 0h-135c-65 0 -120 55 -120 120v580h210v-530h45v-170z" />
    <glyph glyph-name="m" unicode="m" horiz-adv-x="810" 
d="M300 0v360h-40v-360h-210v520h150l25 -45h5s20 55 75 55h90c55 0 75 -55 75 -55h5s20 55 75 55h90c65 0 120 -55 120 -120v-410h-210v360h-40v-360h-210z" />
    <glyph glyph-name="n" unicode="n" horiz-adv-x="565" 
d="M260 0h-210v520h150l25 -45h5s20 55 75 55h90c65 0 120 -55 120 -120v-410h-210v360h-45v-360z" />
    <glyph glyph-name="o" unicode="o" 
d="M40 110v300c0 65 55 120 120 120h230c65 0 120 -55 120 -120v-300c0 -65 -55 -120 -120 -120h-230c-65 0 -120 55 -120 120zM300 160v200h-50v-200h50z" />
    <glyph glyph-name="p" unicode="p" horiz-adv-x="555" 
d="M260 170h45v190h-45v-190zM305 530h90c65 0 120 -55 120 -120v-290c0 -65 -55 -120 -120 -120h-135v-170h-210v690h150l25 -45h5s20 55 75 55z" />
    <glyph glyph-name="q" unicode="q" horiz-adv-x="555" 
d="M250 170h45v180h-45v-180zM160 520h345v-690h-210v170h-135c-65 0 -120 55 -120 120v280c0 65 55 120 120 120z" />
    <glyph glyph-name="r" unicode="r" horiz-adv-x="405" 
d="M395 350h-135v-350h-210v520h150l25 -45h5s20 55 75 55h90v-180z" />
    <glyph glyph-name="s" unicode="s" horiz-adv-x="455" 
d="M20 330v70c0 65 55 120 120 120h275v-95l-50 -55h-135v-35l100 -25c65 -16 105 -55 105 -120v-70c0 -65 -55 -120 -120 -120h-295v150h205v35l-100 25c-65 16 -105 55 -105 120z" />
    <glyph glyph-name="t" unicode="t" horiz-adv-x="385" 
d="M365 0h-190c-65 0 -120 55 -120 120v220h-45v180h55l70 130h130v-130h85v-180h-85v-170h100v-170z" />
    <glyph glyph-name="u" unicode="u" horiz-adv-x="565" 
d="M305 520h210v-520h-150l-25 45h-5s-20 -55 -75 -55h-90c-65 0 -120 55 -120 120v410h210v-360h45v360z" />
    <glyph glyph-name="v" unicode="v" horiz-adv-x="500" 
d="M380 0h-260l-110 430v90h210l25 -290h10l25 290h210v-90z" />
    <glyph glyph-name="w" unicode="w" horiz-adv-x="700" 
d="M415 440l25 -140h10v220h240v-90l-80 -430h-230l-25 140h-10l-25 -140h-230l-80 430v90h240v-220h10l25 140h130z" />
    <glyph glyph-name="x" unicode="x" horiz-adv-x="510" 
d="M250 360h10l20 160h210v-90l-65 -170l70 -170v-90h-210l-25 150h-10l-25 -150h-210v90l70 170l-65 170v90h210z" />
    <glyph glyph-name="y" unicode="y" horiz-adv-x="500" 
d="M490 430l-105 -460c-17 -75 -80 -140 -170 -140h-155v170h75v10l-125 420v90h215l25 -280h10l20 280h210v-90z" />
    <glyph glyph-name="z" unicode="z" horiz-adv-x="475" 
d="M195 340v10h-120l-50 55v115h425v-160l-170 -180v-10h170v-170h-425v160z" />
    <glyph glyph-name="space" unicode=" " horiz-adv-x="230" 
 />
    <glyph glyph-name="one" unicode="1" horiz-adv-x="400" 
d="M10 630l160 70h170v-700h-220v510h-110v120z" />
    <glyph glyph-name="two" unicode="2" horiz-adv-x="520" 
d="M289 190h201v-190h-470v190l250 255v75h-185l-60 60v120h325c85 0 140 -55 140 -140v-100c0 -60 -55 -115 -80 -140l-121 -120v-10z" />
    <glyph glyph-name="three" unicode="3" horiz-adv-x="520" 
d="M470 530l-120 -100v-10c85 0 140 -55 140 -140v-140c0 -85 -55 -140 -140 -140h-330v180h250v90h-155v140l110 100v10h-145l-60 60v120h450v-170z" />
    <glyph glyph-name="four" unicode="4" horiz-adv-x="555" 
d="M490 0h-220v120h-260v170l190 410h290v-400h45v-180h-45v-120zM280 440h-10l-60 -140h70v140z" />
    <glyph glyph-name="five" unicode="5" 
d="M280 450h100c85 0 140 -55 140 -140v-170c0 -85 -55 -140 -140 -140h-330v180h250v100h-240v420h440v-120l-60 -60h-160v-70z" />
    <glyph glyph-name="six" unicode="6" horiz-adv-x="560" 
d="M310 280h-40v-110h40v110zM50 130v430c0 85 55 140 140 140h315v-120l-60 -60h-175v-80h120c85 0 140 -55 140 -140v-170c0 -85 -55 -140 -140 -140h-200c-85 0 -140 55 -140 140z" />
    <glyph glyph-name="seven" unicode="7" horiz-adv-x="485" 
d="M280 0h-200v100l160 410v10h-230v180h465v-170z" />
    <glyph glyph-name="eight" unicode="8" horiz-adv-x="560" 
d="M310 170v95h-60v-95h60zM305 530h-50v-85h50v85zM390 -10h-220c-85 0 -140 55 -140 140v100c0 115 90 125 90 125v10s-85 10 -85 115v90c0 85 55 140 140 140h210c85 0 140 -55 140 -140v-90c0 -105 -85 -115 -85 -115v-10s90 -10 90 -125v-100c0 -85 -55 -140 -140 -140
z" />
    <glyph glyph-name="nine" unicode="9" horiz-adv-x="560" 
d="M250 420h40v110h-40v-110zM510 570v-430c0 -85 -55 -140 -140 -140h-315v180h235v80h-120c-85 0 -140 55 -140 140v170c0 85 55 140 140 140h200c85 0 140 -55 140 -140z" />
    <glyph glyph-name="zero" unicode="0" horiz-adv-x="590" 
d="M320 170v360h-50v-360h50zM50 130v440c0 85 55 140 140 140h210c85 0 140 -55 140 -140v-440c0 -85 -55 -140 -140 -140h-210c-85 0 -140 55 -140 140z" />
    <glyph glyph-name="question" unicode="?" horiz-adv-x="480" 
d="M310 288v-48h-190v90c0 95 120 124 120 124v66h-170l-60 60v120h310c85 0 140 -55 140 -140v-140c0 -105 -150 -132 -150 -132zM305 0h-180v180h180v-180z" />
    <glyph glyph-name="colon" unicode=":" horiz-adv-x="260" 
d="M220 0h-180v180h180v-180zM220 340h-180v180h180v-180z" />
    <glyph glyph-name="semicolon" unicode=";" horiz-adv-x="260" 
d="M220 40l-100 -130h-80v270h180v-140zM220 340h-180v180h180v-180z" />
    <glyph glyph-name="period" unicode="." horiz-adv-x="260" 
d="M220 0h-180v180h180v-180z" />
    <glyph glyph-name="comma" unicode="," horiz-adv-x="260" 
d="M220 40l-100 -130h-80v270h180v-140z" />
    <glyph glyph-name="exclam" unicode="!" horiz-adv-x="320" 
d="M80 240l-40 260v200h240v-200l-40 -260h-160zM250 0h-180v180h180v-180z" />
    <glyph glyph-name="numbersign" unicode="#" horiz-adv-x="635" 
d="M415 700h190l-25 -120h45v-170h-85l-25 -120h60v-170h-100l-25 -120h-190l25 120h-40l-25 -120h-190l25 120h-45v170h85l25 120h-60v170h100l25 120h190l-25 -120h40zM310 410l-25 -120h40l25 120h-40z" />
    <glyph glyph-name="ampersand" unicode="&#x26;" horiz-adv-x="595" 
d="M240 160h65l-55 85h-10v-85zM310 465l285 -365v-100h-205l-25 40h-10s-25 -50 -85 -50h-110c-85 0 -140 55 -140 140v90c0 85 55 140 130 140v10s-60 35 -60 105v85c0 85 55 140 140 140h280v-120l-60 -60h-140v-55z" />
    <glyph glyph-name="dollar" unicode="$" horiz-adv-x="545" 
d="M30 425v135c0 85 55 140 140 140h10v90h190v-90h125v-120l-60 -60h-185v-60l135 -25c75 -14 130 -70 130 -150v-145c0 -85 -55 -140 -140 -140h-5v-90h-190v90h-150v180h265v70l-135 25c-75 14 -130 70 -130 150z" />
    <glyph glyph-name="Euro" unicode="&#x20ac;" horiz-adv-x="555" 
d="M530 0h-325c-85 0 -140 55 -140 140v80h-45v110h45v40h-45v110h45v80c0 85 55 140 140 140h325v-120l-60 -60h-185v-40h135v-110h-135v-40h135v-110h-135v-40h245v-180z" />
    <glyph glyph-name="afii61352" unicode="&#x2116;" horiz-adv-x="950" 
d="M610 310h300v-150h-300v150zM570 0h-230l-70 240h-10l20 -140v-100h-220v700h230l70 -240h10l-20 140v100h220v-700zM825 370h-130c-45 0 -85 40 -85 85v170c0 45 40 85 85 85h130c45 0 85 -40 85 -85v-170c0 -45 -40 -85 -85 -85zM745 490h30v100h-30v-100z" />
    <glyph glyph-name="currency" unicode="&#xa4;" horiz-adv-x="600" 
d="M285 0h-220v100h-45v130h45v40h-45v140h45v290h365c85 0 140 -55 140 -140v-150c0 -85 -55 -140 -140 -140h-145v-40h185v-130h-185v-100zM350 520h-65v-110h65v110z" />
    <glyph glyph-name="at" unicode="@" horiz-adv-x="785" 
d="M725 120v-150h-555c-65 0 -120 55 -120 120v520c0 65 55 120 120 120h445c65 0 120 -55 120 -120v-415h-110l-25 45h-5s-20 -55 -75 -55h-125c-65 0 -120 55 -120 120v90c0 65 55 120 120 120h170v65h-345v-460h505zM445 315h120v70h-120v-70z" />
    <glyph glyph-name="guillemotleft" unicode="&#xab;" horiz-adv-x="525" 
d="M200 270l70 -160v-20h-165l-75 180l75 180h165v-20zM415 270l70 -160v-20h-165l-75 180l75 180h165v-20z" />
    <glyph glyph-name="guillemotright" unicode="&#xbb;" horiz-adv-x="525" 
d="M325 270l-70 160v20h165l75 -180l-75 -180h-165v20zM110 270l-70 160v20h165l75 -180l-75 -180h-165v20z" />
    <glyph glyph-name="quotedblright" unicode="&#x201d;" horiz-adv-x="480" 
d="M220 560l-100 -130h-80v270h180v-140zM440 560l-100 -130h-80v270h180v-140z" />
    <glyph glyph-name="quotedblleft" unicode="&#x201c;" horiz-adv-x="480" 
d="M40 570l100 130h80v-270h-180v140zM260 570l100 130h80v-270h-180v140z" />
    <glyph glyph-name="quotedblbase" unicode="&#x201e;" horiz-adv-x="480" 
d="M220 40l-100 -130h-80v270h180v-140zM440 40l-100 -130h-80v270h180v-140z" />
    <glyph glyph-name="asterisk" unicode="*" horiz-adv-x="390" 
d="M255 330l-60 80l-60 -80l-90 65l55 85l-80 20l20 105l95 -10l10 105h100l10 -105l95 10l20 -105l-80 -20l55 -85z" />
    <glyph glyph-name="degree" unicode="&#xb0;" horiz-adv-x="340" 
d="M235 370h-130c-45 0 -85 40 -85 85v170c0 45 40 85 85 85h130c45 0 85 -40 85 -85v-170c0 -45 -40 -85 -85 -85zM155 490h30v100h-30v-100z" />
    <glyph glyph-name="parenleft" unicode="(" horiz-adv-x="360" 
d="M60 -50v690c0 85 55 140 140 140h150v-180h-70v-610h70v-180h-150c-85 0 -140 55 -140 140z" />
    <glyph glyph-name="parenright" unicode=")" horiz-adv-x="360" 
d="M300 640v-690c0 -85 -55 -140 -140 -140h-150v180h70v610h-70v180h150c85 0 140 -55 140 -140z" />
    <glyph glyph-name="braceleft" unicode="{" horiz-adv-x="350" 
d="M190 300v-10s90 -5 90 -110v-190h60v-180h-140c-85 0 -140 55 -140 140v230c0 15 -10 25 -25 25h-25v180h25c15 0 25 10 25 25v230c0 85 55 140 140 140h140v-180h-60v-190c0 -105 -90 -110 -90 -110z" />
    <glyph glyph-name="braceright" unicode="}" horiz-adv-x="350" 
d="M160 290v10s-90 5 -90 110v190h-60v180h140c85 0 140 -55 140 -140v-230c0 -15 10 -25 25 -25h25v-180h-25c-15 0 -25 -10 -25 -25v-230c0 -85 -55 -140 -140 -140h-140v180h60v190c0 105 90 110 90 110z" />
    <glyph glyph-name="bracketleft" unicode="[" horiz-adv-x="360" 
d="M280 600v-610h70v-180h-290v970h290v-180h-70z" />
    <glyph glyph-name="bracketright" unicode="]" horiz-adv-x="360" 
d="M80 -10v610h-70v180h290v-970h-290v180h70z" />
    <glyph glyph-name="hyphen" unicode="-" horiz-adv-x="425" 
d="M30 405h365v-170h-365v170z" />
    <glyph glyph-name="plus" unicode="+" horiz-adv-x="480" 
d="M325 550v-145h125v-170h-125v-145h-170v145h-125v170h125v145h170z" />
    <glyph glyph-name="plusminus" unicode="&#xb1;" horiz-adv-x="480" 
d="M325 590v-145h125v-170h-125v-85h114v-170h-399v170h115v85h-125v170h125v145h170z" />
    <glyph glyph-name="equal" unicode="=" horiz-adv-x="445" 
d="M40 505h365v-150h-365v150zM40 285h365v-150h-365v150z" />
    <glyph glyph-name="asciitilde" unicode="~" horiz-adv-x="460" 
d="M430 450v-165c0 -45 -30 -75 -70 -75h-45c-35 0 -55 20 -75 40l-35 35h-10v-65h-165v165c0 45 30 75 70 75h45c35 0 55 -20 75 -40l35 -35h10v65h165z" />
    <glyph glyph-name="underscore" unicode="_" horiz-adv-x="405" 
d="M20 -30h365v-170h-365v170z" />
    <glyph glyph-name="endash" unicode="&#x2013;" horiz-adv-x="500" 
d="M30 400h440v-170h-440v170z" />
    <glyph glyph-name="emdash" unicode="&#x2014;" horiz-adv-x="735" 
d="M30 400h675v-170h-675v170z" />
    <glyph glyph-name="asciicircum" unicode="^" horiz-adv-x="450" 
d="M315 700l115 -250h-180l-20 70h-10l-20 -70h-180l115 250h180z" />
    <glyph glyph-name="grave" unicode="`" horiz-adv-x="295" 
d="M0 700h210l65 -170h-160z" />
    <glyph glyph-name="copyright" unicode="&#xa9;" horiz-adv-x="865" 
d="M220 120h425v460h-425v-460zM535 400h-105v-100h140v-130h-200c-45 0 -85 40 -85 85v190c0 45 40 85 85 85h200v-90zM695 -30h-525c-65 0 -120 55 -120 120v520c0 65 55 120 120 120h525c65 0 120 -55 120 -120v-520c0 -65 -55 -120 -120 -120z" />
    <glyph glyph-name="registered" unicode="&#xae;" horiz-adv-x="865" 
d="M590 445v-70c0 -45 -40 -65 -40 -65l50 -80v-60h-150l-20 120h-10v-120h-145v360h230c45 0 85 -40 85 -85zM420 430v-50h25v50h-25zM220 120h425v460h-425v-460zM695 -30h-525c-65 0 -120 55 -120 120v520c0 65 55 120 120 120h525c65 0 120 -55 120 -120v-520
c0 -65 -55 -120 -120 -120z" />
    <glyph glyph-name="trademark" unicode="&#x2122;" horiz-adv-x="725" 
d="M0 580v120h280v-85l-30 -35h-40v-190h-140v190h-70zM550 500l-15 -70h-90l-15 70h-5v-110h-140v60l30 250h145l27 -110h6l27 110h145l30 -250v-60h-140v110h-5z" />
    <glyph glyph-name="slash" unicode="/" horiz-adv-x="525" 
d="M505 650l-300 -700h-185v100l300 700h185v-100z" />
    <glyph glyph-name="bar" unicode="|" horiz-adv-x="360" 
d="M290 800v-970h-220v970h220z" />
    <glyph glyph-name="backslash" unicode="\" horiz-adv-x="525" 
d="M320 -50l-300 700v100h185l300 -700v-100h-185z" />
    <glyph glyph-name="percent" unicode="%" horiz-adv-x="775" 
d="M235 370h-130c-45 0 -85 40 -85 85v170c0 45 40 85 85 85h130c45 0 85 -40 85 -85v-170c0 -45 -40 -85 -85 -85zM155 490h30v100h-30v-100zM670 -10h-130c-45 0 -85 40 -85 85v170c0 45 40 85 85 85h130c45 0 85 -40 85 -85v-170c0 -45 -40 -85 -85 -85zM590 110h30v100
h-30v-100zM495 700h125v-100l-340 -600h-125v100z" />
    <glyph glyph-name="paragraph" unicode="&#xb6;" horiz-adv-x="625" 
d="M20 450v110c0 85 55 140 140 140h455v-190h-60v-680h-180v680h-25v-680h-180v480h-10c-85 0 -140 55 -140 140z" />
    <glyph glyph-name="section" unicode="&#xa7;" horiz-adv-x="510" 
d="M275 315l-40 10v-100l40 -10v100zM40 195v85c0 80 60 90 60 90v10s-60 10 -60 90v110c0 65 55 120 120 120h290v-115l-50 -55h-150v-40l115 -25c65 -14 105 -55 105 -120v-85c0 -80 -60 -90 -60 -90v-10s60 -10 60 -90v-120c0 -65 -55 -120 -120 -120h-310v170h220v50
l-115 25c-65 14 -105 55 -105 120z" />
    <glyph glyph-name="dagger" unicode="&#x2020;" horiz-adv-x="520" 
d="M20 560h130l30 160h160l30 -160h130v-190h-130v-540h-220v540h-130v190z" />
    <glyph glyph-name="quotesingle" unicode="'" horiz-adv-x="220" 
d="M60 470l-30 120v110h160v-110l-30 -120h-100z" />
    <glyph glyph-name="quotedbl" unicode="&#x22;" horiz-adv-x="415" 
d="M60 470l-30 120v110h160v-110l-30 -120h-100zM255 470l-30 120v110h160v-110l-30 -120h-100z" />
    <glyph glyph-name="less" unicode="&#x3c;" horiz-adv-x="440" 
d="M265 265v-10l145 -65v-190l-380 170v180l380 170v-190z" />
    <glyph glyph-name="greater" unicode="&#x3e;" horiz-adv-x="440" 
d="M175 255v10l-145 65v190l380 -170v-180l-380 -170v190z" />
    <glyph glyph-name="quotesinglbase" unicode="&#x201a;" horiz-adv-x="260" 
d="M220 40l-100 -130h-80v270h180v-140z" />
    <glyph glyph-name="guilsinglleft" unicode="&#x2039;" horiz-adv-x="360" 
d="M145 40l-115 220l115 220h165v-80l-75 -140l75 -140v-80h-165z" />
    <glyph glyph-name="periodcentered" unicode="&#xb7;" horiz-adv-x="230" 
d="M205 260h-180v180h180v-180z" />
    <glyph glyph-name="bullet" unicode="&#x2022;" horiz-adv-x="380" 
d="M80 260v100c0 35 25 60 60 60h100c35 0 60 -25 60 -60v-100c0 -35 -25 -60 -60 -60h-100c-35 0 -60 25 -60 60z" />
    <glyph glyph-name="daggerdbl" unicode="&#x2021;" horiz-adv-x="540" 
d="M350 -190h-160l-30 160h-130v190h130v210h-130v190h130l30 160h160l30 -160h130v-190h-130v-210h130v-190h-130z" />
    <glyph glyph-name="logicalnot" unicode="&#xac;" horiz-adv-x="475" 
d="M40 470h395v-260h-200v90h-195v170z" />
    <glyph glyph-name="ellipsis" unicode="&#x2026;" horiz-adv-x="760" 
d="M220 0h-180v180h180v-180zM470 0h-180v180h180v-180zM720 0h-180v180h180v-180z" />
    <glyph glyph-name="brokenbar" unicode="&#xa6;" horiz-adv-x="340" 
d="M60 800h220v-410h-220v410zM280 240v-410h-220v410h220z" />
    <glyph glyph-name="perthousand" unicode="&#x2030;" horiz-adv-x="1100" 
d="M235 370h-130c-45 0 -85 40 -85 85v170c0 45 40 85 85 85h130c45 0 85 -40 85 -85v-170c0 -45 -40 -85 -85 -85zM155 490h30v100h-30v-100zM670 -10h-130c-45 0 -85 40 -85 85v170c0 45 40 85 85 85h130c45 0 85 -40 85 -85v-170c0 -45 -40 -85 -85 -85zM590 110h30v100
h-30v-100zM995 -10h-130c-45 0 -85 40 -85 85v170c0 45 40 85 85 85h130c45 0 85 -40 85 -85v-170c0 -45 -40 -85 -85 -85zM915 110h30v100h-30v-100zM495 700h125v-100l-340 -600h-125v100z" />
    <glyph glyph-name="afii10053" unicode="&#x404;" horiz-adv-x="540" 
d="M515 0h-325c-85 0 -140 55 -140 140v420c0 85 55 140 140 140h325v-120l-60 -60h-185v-80h135v-180h-135v-80h245v-180z" />
    <glyph glyph-name="afii10101" unicode="&#x454;" horiz-adv-x="470" 
d="M445 0h-285c-65 0 -120 55 -120 120v280c0 65 55 120 120 120h285v-95l-50 -55h-145v-45h105v-130h-105v-45h195v-150z" />
    <glyph glyph-name="mu" unicode="&#xb5;" horiz-adv-x="565" 
d="M260 -170h-210v690h210v-360h45v360h210v-520h-150l-25 45h-5s-20 -55 -75 -55v-160z" />
    <glyph glyph-name="afii10060" unicode="&#x40b;" horiz-adv-x="635" 
d="M375 270h-55v-270h-220v510h-100v190h450v-130l-60 -60h-70v-60h125c90 0 150 -60 150 -150v-300h-220v270z" />
    <glyph glyph-name="afii10108" unicode="&#x45b;" horiz-adv-x="565" 
d="M520 0h-210v285h-45v-285h-210v470h-45v160h55l45 80h155v-80h70v-160h-70v-40h135c65 0 120 -55 120 -120v-310z" />
    <glyph glyph-name="afii10051" unicode="&#x402;" horiz-adv-x="625" 
d="M375 270h-55v-270h-220v510h-100v190h450v-130l-60 -60h-70v-60h125c90 0 150 -60 150 -150v-170c0 -90 -60 -150 -150 -150h-95v180h25v110z" />
    <glyph glyph-name="afii10099" unicode="&#x452;" 
d="M400 -10h-105v170h25v125h-55v-285h-210v470h-45v160h55l45 80h155v-80h70v-160h-70v-40h135c65 0 120 -55 120 -120v-200c0 -65 -55 -120 -120 -120z" />
    <glyph glyph-name="afii10050" unicode="&#x490;" horiz-adv-x="515" 
d="M505 770v-260h-225v-510h-220v700h255l20 70h170z" />
    <glyph glyph-name="afii10098" unicode="&#x491;" horiz-adv-x="450" 
d="M450 340h-190v-340h-210v520h220l15 60h165v-240z" />
    <glyph glyph-name="afii10193" unicode="&#x45f;" horiz-adv-x="570" 
d="M520 0h-130l-20 -100h-170l-20 100h-130v520h210v-350h50v350h210v-520z" />
    <glyph glyph-name="afii10145" unicode="&#x40f;" horiz-adv-x="630" 
d="M205 0h-145v700h220v-510h70v510h220v-700h-145l-25 -110h-170z" />
    <glyph glyph-name="afii10106" unicode="&#x459;" horiz-adv-x="760" 
d="M100 520h415v-150h105c65 0 120 -55 120 -120v-130c0 -65 -55 -120 -120 -120h-315v340h-20l-25 -210c-8 -85 -65 -140 -140 -140h-110v170h50zM540 230h-25v-90h25v90z" />
    <glyph glyph-name="afii10058" unicode="&#x409;" horiz-adv-x="860" 
d="M70 180l60 520h440v-210h120c85 0 140 -55 140 -140v-210c0 -85 -55 -140 -140 -140h-340v510h-25l-40 -370c-10 -95 -65 -150 -180 -150h-95v190h60zM570 180h40v130h-40v-130z" />
    <glyph glyph-name="afii10059" unicode="&#x40a;" horiz-adv-x="855" 
d="M280 0h-220v700h220v-235h65v235h220v-235h120c85 0 140 -55 140 -140v-185c0 -85 -55 -140 -140 -140h-340v275h-65v-275zM565 180h40v105h-40v-105z" />
    <glyph glyph-name="afii10107" unicode="&#x45a;" horiz-adv-x="755" 
d="M615 0h-315v195h-40v-195h-210v520h210v-165h40v165h210v-165h105c65 0 120 -55 120 -120v-115c0 -65 -55 -120 -120 -120zM535 215h-25v-75h25v75z" />
    <glyph glyph-name="A" unicode="A" horiz-adv-x="570" 
d="M440 700l130 -600v-100h-220l-15 110h-100l-15 -110h-220v100l130 600h310zM280 440l-25 -170h60l-25 170h-10z" />
    <glyph glyph-name="afii10104" unicode="&#x457;" horiz-adv-x="310" 
d="M260 520v-520h-210v520h210zM135 590h-170v170h170v-170zM345 590h-170v170h170v-170z" />
    <glyph glyph-name="guilsinglright" unicode="&#x203a;" horiz-adv-x="360" 
d="M330 260l-115 -220h-165v80l75 140l-75 140v80h165z" />
    <glyph glyph-name="afii10017" unicode="&#x410;" horiz-adv-x="570" 
d="M440 700l130 -600v-100h-220l-15 110h-100l-15 -110h-220v100l130 600h310zM280 440l-25 -170h60l-25 170h-10z" />
    <glyph glyph-name="afii10019" unicode="&#x412;" horiz-adv-x="600" 
d="M60 700h345c85 0 140 -55 140 -140v-70c0 -115 -85 -120 -85 -120v-10s110 -5 110 -130v-90c0 -85 -55 -140 -140 -140h-370v700zM280 170h70v105h-70v-105zM325 530h-45v-95h45v95z" />
    <glyph glyph-name="afii10022" unicode="&#x415;" 
d="M525 700v-120l-60 -60h-185v-85h160v-170h-160v-85h245v-180h-465v700h465z" />
    <glyph glyph-name="afii10030" unicode="&#x41c;" horiz-adv-x="810" 
d="M490 90h-170l-50 190h-10v-280h-240v100l55 600h270l55 -200h10l55 200h270l55 -600v-100h-240v280h-10z" />
    <glyph glyph-name="afii10031" unicode="&#x41d;" horiz-adv-x="630" 
d="M280 0h-220v700h220v-255h70v255h220v-700h-220v255h-70v-255z" />
    <glyph glyph-name="afii10032" unicode="&#x41e;" horiz-adv-x="620" 
d="M350 170v360h-80v-360h80zM50 130v440c0 85 55 140 140 140h240c85 0 140 -55 140 -140v-440c0 -85 -55 -140 -140 -140h-240c-85 0 -140 55 -140 140z" />
    <glyph glyph-name="afii10034" unicode="&#x420;" horiz-adv-x="595" 
d="M280 0h-220v700h365c85 0 140 -55 140 -140v-230c0 -85 -55 -140 -140 -140h-145v-190zM345 520h-65v-150h65v150z" />
    <glyph glyph-name="afii10035" unicode="&#x421;" horiz-adv-x="540" 
d="M515 0h-325c-85 0 -140 55 -140 140v420c0 85 55 140 140 140h325v-120l-60 -60h-185v-340h245v-180z" />
    <glyph glyph-name="afii10036" unicode="&#x422;" horiz-adv-x="520" 
d="M10 510v190h500v-130l-60 -60h-80v-510h-220v510h-140z" />
    <glyph glyph-name="afii10039" unicode="&#x425;" horiz-adv-x="570" 
d="M290 235h-10l-50 -235h-220v100l100 250l-85 250v100h220l35 -235h10l35 235h220v-100l-85 -250l100 -250v-100h-220z" />
    <glyph glyph-name="afii10065" unicode="&#x430;" horiz-adv-x="540" 
d="M240 135h40v70h-40v-70zM490 0h-150l-25 45h-5s-20 -55 -75 -55h-85c-65 0 -120 55 -120 120v90c0 65 55 120 120 120h130v50h-205v150h295c65 0 120 -55 120 -120v-400z" />
    <glyph glyph-name="afii10070" unicode="&#x435;" horiz-adv-x="530" 
d="M280 390h-30v-70h30v70zM160 530h210c65 0 120 -55 120 -120v-220h-240v-40h220v-150h-310c-65 0 -120 55 -120 120v290c0 65 55 120 120 120z" />
    <glyph glyph-name="afii10080" unicode="&#x43e;" 
d="M40 110v300c0 65 55 120 120 120h230c65 0 120 -55 120 -120v-300c0 -65 -55 -120 -120 -120h-230c-65 0 -120 55 -120 120zM300 160v200h-50v-200h50z" />
    <glyph glyph-name="afii10082" unicode="&#x440;" horiz-adv-x="555" 
d="M260 170h45v190h-45v-190zM305 530h90c65 0 120 -55 120 -120v-290c0 -65 -55 -120 -120 -120h-135v-170h-210v690h150l25 -45h5s20 55 75 55z" />
    <glyph glyph-name="afii10083" unicode="&#x441;" horiz-adv-x="470" 
d="M445 0h-285c-65 0 -120 55 -120 120v280c0 65 55 120 120 120h285v-115l-50 -55h-145v-180h195v-170z" />
    <glyph glyph-name="afii10085" unicode="&#x443;" horiz-adv-x="500" 
d="M490 430l-105 -460c-17 -75 -80 -140 -170 -140h-155v170h75v10l-125 420v90h215l25 -280h10l20 280h210v-90z" />
    <glyph glyph-name="afii10087" unicode="&#x445;" horiz-adv-x="510" 
d="M250 360h10l20 160h210v-90l-65 -170l70 -170v-90h-210l-25 150h-10l-25 -150h-210v90l70 170l-65 170v90h210z" />
    <glyph glyph-name="quoteleft" unicode="&#x2018;" horiz-adv-x="260" 
d="M40 570l100 130h80v-270h-180v140z" />
    <glyph glyph-name="quoteright" unicode="&#x2019;" horiz-adv-x="260" 
d="M220 560l-100 -130h-80v270h180v-140z" />
    <glyph glyph-name="T" unicode="T" horiz-adv-x="520" 
d="M10 510v190h500v-130l-60 -60h-80v-510h-220v510h-140z" />
    <glyph glyph-name="afii10028" unicode="&#x41a;" horiz-adv-x="610" 
d="M280 0h-220v700h220v-250h35l45 250h220v-100l-85 -250l100 -250v-100h-220l-60 250h-35v-250z" />
    <glyph glyph-name="K" unicode="K" horiz-adv-x="610" 
d="M280 0h-220v700h220v-250h35l45 250h220v-100l-85 -250l100 -250v-100h-220l-60 250h-35v-250z" />
    <glyph glyph-name="acute" unicode="&#xb4;" horiz-adv-x="355" 
d="M105 760h210l-115 -170h-160z" />
    <glyph glyph-name="breve" unicode="&#x2d8;" horiz-adv-x="420" 
d="M235 700v60h145v-90c0 -45 -35 -80 -80 -80h-180c-45 0 -80 35 -80 80v90h145v-60h50z" />
    <glyph glyph-name="caron" unicode="&#x2c7;" horiz-adv-x="450" 
d="M320 590h-190l-90 170h160l20 -45h10l20 45h160z" />
    <glyph glyph-name="circumflex" unicode="&#x2c6;" horiz-adv-x="450" 
d="M130 760h190l90 -170h-160l-20 45h-10l-20 -45h-160z" />
    <glyph glyph-name="dieresis" unicode="&#xa8;" horiz-adv-x="460" 
d="M210 590h-170v170h170v-170zM420 590h-170v170h170v-170z" />
    <glyph glyph-name="dotaccent" unicode="&#x2d9;" horiz-adv-x="290" 
d="M250 760v-170h-210v170h210z" />
    <glyph glyph-name="hungarumlaut" unicode="&#x2dd;" horiz-adv-x="545" 
d="M105 760h190l-105 -170h-150zM315 760h190l-105 -170h-150z" />
    <glyph glyph-name="macron" unicode="&#xaf;" horiz-adv-x="400" 
d="M40 750h320v-150h-320v150z" />
    <glyph glyph-name="commaaccent" unicode="&#xf6c3;" horiz-adv-x="250" 
d="M210 -170l-100 -130h-70v240h170v-110z" />
    <glyph glyph-name="ring" unicode="&#x2da;" horiz-adv-x="330" 
d="M130 790h70c50 0 90 -40 90 -90v-50c0 -50 -40 -90 -90 -90h-70c-50 0 -90 40 -90 90v50c0 50 40 90 90 90zM185 695h-40v-40h40v40z" />
    <glyph glyph-name="tilde" unicode="&#x2dc;" horiz-adv-x="400" 
d="M360 760v-115c0 -35 -25 -60 -60 -60h-35c-40 0 -50 10 -70 30l-15 15h-10v-40h-130v115c0 35 25 60 60 60h35c40 0 50 -10 70 -30l15 -15h10v40h130z" />
    <glyph glyph-name="cedilla" unicode="&#xb8;" horiz-adv-x="325" 
d="M190 -250h-150v100h120v20h-55l-40 35v95h110v-30h15c50 0 95 -45 95 -95v-30c0 -50 -45 -95 -95 -95z" />
    <glyph glyph-name="ogonek" unicode="&#x2db;" horiz-adv-x="320" 
d="M210 -130h60v-110c3 0 -58 0 -105 0c-80 0 -125 45 -125 100c0 100 110 140 110 140h130v-10s-90 -45 -90 -100c0 -10 10 -20 20 -20z" />
    <glyph glyph-name="Aacute" unicode="&#xc1;" horiz-adv-x="570" 
d="M440 700l130 -600v-100h-220l-15 110h-100l-15 -110h-220v100l130 600h310zM280 440l-25 -170h60l-25 170h-10zM270 920h210l-115 -160h-160z" />
    <glyph glyph-name="Abreve" unicode="&#x102;" horiz-adv-x="570" 
d="M440 700l130 -600v-100h-220l-15 110h-100l-15 -110h-220v100l130 600h310zM280 440l-25 -170h60l-25 170h-10zM310 870v50h145v-80c0 -45 -35 -80 -80 -80h-180c-45 0 -80 35 -80 80v80h145v-50h50z" />
    <glyph glyph-name="Acircumflex" unicode="&#xc2;" horiz-adv-x="570" 
d="M440 700l130 -600v-100h-220l-15 110h-100l-15 -110h-220v100l130 600h310zM280 440l-25 -170h60l-25 170h-10zM190 920h190l90 -160h-160l-20 45h-10l-20 -45h-160z" />
    <glyph glyph-name="Agrave" unicode="&#xc0;" horiz-adv-x="570" 
d="M440 700l130 -600v-100h-220l-15 110h-100l-15 -110h-220v100l130 600h310zM280 440l-25 -170h60l-25 170h-10zM100 920h210l65 -160h-160z" />
    <glyph glyph-name="Adieresis" unicode="&#xc4;" horiz-adv-x="570" 
d="M440 700l130 -600v-100h-220l-15 110h-100l-15 -110h-220v100l130 600h310zM280 440l-25 -170h60l-25 170h-10zM265 760h-170v160h170v-160zM475 760h-170v160h170v-160z" />
    <glyph glyph-name="Amacron" unicode="&#x100;" horiz-adv-x="570" 
d="M440 700l130 -600v-100h-220l-15 110h-100l-15 -110h-220v100l130 600h310zM280 440l-25 -170h60l-25 170h-10zM125 910h320v-140h-320v140z" />
    <glyph glyph-name="Atilde" unicode="&#xc3;" horiz-adv-x="570" 
d="M440 700l130 -600v-100h-220l-15 110h-100l-15 -110h-220v100l130 600h310zM280 440l-25 -170h60l-25 170h-10zM445 920v-105c0 -35 -25 -60 -60 -60h-35c-40 0 -50 10 -70 30l-15 15h-10v-40h-130v105c0 35 25 60 60 60h35c40 0 50 -10 70 -30l15 -15h10v40h130z" />
    <glyph glyph-name="AE" unicode="&#xc6;" horiz-adv-x="840" 
d="M820 700v-120l-60 -60h-180v-85h155v-170h-155v-85h240v-180h-460v175h-100l-40 -175h-220v100l179 600h641zM335 510l-35 -155h60v155h-25z" />
    <glyph glyph-name="Cacute" unicode="&#x106;" horiz-adv-x="540" 
d="M515 0h-325c-85 0 -140 55 -140 140v420c0 85 55 140 140 140h325v-120l-60 -60h-185v-340h245v-180zM295 920h210l-115 -160h-160z" />
    <glyph glyph-name="Ccaron" unicode="&#x10c;" horiz-adv-x="540" 
d="M515 0h-325c-85 0 -140 55 -140 140v420c0 85 55 140 140 140h325v-120l-60 -60h-185v-340h245v-180zM400 760h-190l-90 160h160l20 -45h10l20 45h160z" />
    <glyph glyph-name="Ccircumflex" unicode="&#x108;" horiz-adv-x="540" 
d="M515 0h-325c-85 0 -140 55 -140 140v420c0 85 55 140 140 140h325v-120l-60 -60h-185v-340h245v-180zM210 920h190l90 -160h-160l-20 45h-10l-20 -45h-160z" />
    <glyph glyph-name="Dcaron" unicode="&#x10e;" horiz-adv-x="600" 
d="M330 520h-50v-340h50v340zM410 0h-350v700h350c85 0 140 -55 140 -140v-420c0 -85 -55 -140 -140 -140zM390 760h-190l-90 160h160l20 -45h10l20 45h160z" />
    <glyph glyph-name="Eacute" unicode="&#xc9;" 
d="M525 700v-120l-60 -60h-185v-85h160v-170h-160v-85h245v-180h-465v700h465zM280 920h210l-115 -160h-160z" />
    <glyph glyph-name="Ecaron" unicode="&#x11a;" 
d="M525 700v-120l-60 -60h-185v-85h160v-170h-160v-85h245v-180h-465v700h465zM387 760h-190l-90 160h160l20 -45h10l20 45h160z" />
    <glyph glyph-name="Ecircumflex" unicode="&#xca;" 
d="M525 700v-120l-60 -60h-185v-85h160v-170h-160v-85h245v-180h-465v700h465zM197 920h190l90 -160h-160l-20 45h-10l-20 -45h-160z" />
    <glyph glyph-name="Edieresis" unicode="&#xcb;" 
d="M525 700v-120l-60 -60h-185v-85h160v-170h-160v-85h245v-180h-465v700h465zM272 760h-170v160h170v-160zM482 760h-170v160h170v-160z" />
    <glyph glyph-name="Edotaccent" unicode="&#x116;" 
d="M525 700v-120l-60 -60h-185v-85h160v-170h-160v-85h245v-180h-465v700h465zM397 920v-160h-210v160h210z" />
    <glyph glyph-name="Egrave" unicode="&#xc8;" 
d="M525 700v-120l-60 -60h-185v-85h160v-170h-160v-85h245v-180h-465v700h465zM130 920h210l65 -160h-160z" />
    <glyph glyph-name="Emacron" unicode="&#x112;" 
d="M525 700v-120l-60 -60h-185v-85h160v-170h-160v-85h245v-180h-465v700h465zM132 910h320v-140h-320v140z" />
    <glyph glyph-name="Gbreve" unicode="&#x11e;" horiz-adv-x="590" 
d="M540 0h-350c-85 0 -140 55 -140 140v420c0 85 55 140 140 140h325v-120l-60 -60h-185v-340h60v220h210v-400zM325 870v50h145v-80c0 -45 -35 -80 -80 -80h-180c-45 0 -80 35 -80 80v80h145v-50h50z" />
    <glyph glyph-name="Iacute" unicode="&#xcd;" horiz-adv-x="340" 
d="M280 0h-220v700h220v-700zM150 920h210l-115 -160h-160z" />
    <glyph glyph-name="Icircumflex" unicode="&#xce;" horiz-adv-x="340" 
d="M280 0h-220v700h220v-700zM75 920h190l90 -160h-160l-20 45h-10l-20 -45h-160z" />
    <glyph glyph-name="Idieresis" unicode="&#xcf;" horiz-adv-x="340" 
d="M280 0h-220v700h220v-700zM150 760h-170v160h170v-160zM360 760h-170v160h170v-160z" />
    <glyph glyph-name="Idotaccent" unicode="&#x130;" horiz-adv-x="340" 
d="M280 0h-220v700h220v-700zM275 920v-160h-210v160h210z" />
    <glyph glyph-name="Igrave" unicode="&#xcc;" horiz-adv-x="340" 
d="M280 0h-220v700h220v-700zM-10 920h210l65 -160h-160z" />
    <glyph glyph-name="Imacron" unicode="&#x12a;" horiz-adv-x="340" 
d="M280 0h-220v700h220v-700zM10 910h320v-140h-320v140z" />
    <glyph glyph-name="Kcommaaccent" unicode="&#x136;" horiz-adv-x="610" 
d="M280 0h-220v700h220v-250h35l45 250h220v-100l-85 -250l100 -250v-100h-220l-60 250h-35v-250zM405 -170l-100 -130h-70v240h170v-110z" />
    <glyph glyph-name="Lacute" unicode="&#x139;" horiz-adv-x="505" 
d="M280 190h215v-190h-435v700h220v-510zM150 920h210l-115 -160h-160z" />
    <glyph glyph-name="Lcaron" unicode="&#x13d;" horiz-adv-x="520" 
d="M280 190h215v-190h-435v700h220v-510zM510 590l-100 -130h-70v240h170v-110z" />
    <glyph glyph-name="Lcommaaccent" unicode="&#x13b;" horiz-adv-x="505" 
d="M280 190h215v-190h-435v700h220v-510zM362 -170l-100 -130h-70v240h170v-110z" />
    <glyph glyph-name="Lslash" unicode="&#x141;" horiz-adv-x="510" 
d="M10 400l55 20v280h220v-190l70 30v-180l-70 -30v-140h215v-190h-435v240l-55 -20v180z" />
    <glyph glyph-name="Nacute" unicode="&#x143;" horiz-adv-x="630" 
d="M570 0h-230l-70 240h-10l20 -140v-100h-220v700h230l70 -240h10l-20 140v100h220v-700zM285 920h210l-115 -160h-160z" />
    <glyph glyph-name="Ncaron" unicode="&#x147;" horiz-adv-x="630" 
d="M570 0h-230l-70 240h-10l20 -140v-100h-220v700h230l70 -240h10l-20 140v100h220v-700zM410 760h-190l-90 160h160l20 -45h10l20 45h160z" />
    <glyph glyph-name="Ncommaaccent" unicode="&#x145;" horiz-adv-x="630" 
d="M570 0h-230l-70 240h-10l20 -140v-100h-220v700h230l70 -240h10l-20 140v100h220v-700zM400 -170l-100 -130h-70v240h170v-110z" />
    <glyph glyph-name="Ntilde" unicode="&#xd1;" horiz-adv-x="630" 
d="M570 0h-230l-70 240h-10l20 -140v-100h-220v700h230l70 -240h10l-20 140v100h220v-700zM475 920v-105c0 -35 -25 -60 -60 -60h-35c-40 0 -50 10 -70 30l-15 15h-10v-40h-130v105c0 35 25 60 60 60h35c40 0 50 -10 70 -30l15 -15h10v40h130z" />
    <glyph glyph-name="Oacute" unicode="&#xd3;" horiz-adv-x="620" 
d="M350 170v360h-80v-360h80zM50 130v440c0 85 55 140 140 140h240c85 0 140 -55 140 -140v-440c0 -85 -55 -140 -140 -140h-240c-85 0 -140 55 -140 140zM290 920h210l-115 -160h-160z" />
    <glyph glyph-name="Ocircumflex" unicode="&#xd4;" horiz-adv-x="620" 
d="M350 170v360h-80v-360h80zM50 130v440c0 85 55 140 140 140h240c85 0 140 -55 140 -140v-440c0 -85 -55 -140 -140 -140h-240c-85 0 -140 55 -140 140zM215 920h190l90 -160h-160l-20 45h-10l-20 -45h-160z" />
    <glyph glyph-name="Odieresis" unicode="&#xd6;" horiz-adv-x="620" 
d="M350 170v360h-80v-360h80zM50 130v440c0 85 55 140 140 140h240c85 0 140 -55 140 -140v-440c0 -85 -55 -140 -140 -140h-240c-85 0 -140 55 -140 140zM290 760h-170v160h170v-160zM500 760h-170v160h170v-160z" />
    <glyph glyph-name="Ograve" unicode="&#xd2;" horiz-adv-x="620" 
d="M350 170v360h-80v-360h80zM50 130v440c0 85 55 140 140 140h240c85 0 140 -55 140 -140v-440c0 -85 -55 -140 -140 -140h-240c-85 0 -140 55 -140 140zM130 920h210l65 -160h-160z" />
    <glyph glyph-name="Ohungarumlaut" unicode="&#x150;" horiz-adv-x="620" 
d="M350 170v360h-80v-360h80zM50 130v440c0 85 55 140 140 140h240c85 0 140 -55 140 -140v-440c0 -85 -55 -140 -140 -140h-240c-85 0 -140 55 -140 140zM195 920h190l-105 -160h-150zM405 920h190l-105 -160h-150z" />
    <glyph glyph-name="Omacron" unicode="&#x14c;" horiz-adv-x="620" 
d="M350 170v360h-80v-360h80zM50 130v440c0 85 55 140 140 140h240c85 0 140 -55 140 -140v-440c0 -85 -55 -140 -140 -140h-240c-85 0 -140 55 -140 140zM150 910h320v-140h-320v140z" />
    <glyph glyph-name="Oslash" unicode="&#xd8;" horiz-adv-x="620" 
d="M265 410l85 130h-90v-130h5zM50 130v440c0 85 55 140 140 140h240c85 0 140 -55 140 -140v-440c0 -85 -55 -140 -140 -140h-240c-85 0 -140 55 -140 140zM355 290l-85 -130h90v130h-5z" />
    <glyph glyph-name="Otilde" unicode="&#xd5;" horiz-adv-x="620" 
d="M350 170v360h-80v-360h80zM50 130v440c0 85 55 140 140 140h240c85 0 140 -55 140 -140v-440c0 -85 -55 -140 -140 -140h-240c-85 0 -140 55 -140 140zM470 920v-105c0 -35 -25 -60 -60 -60h-35c-40 0 -50 10 -70 30l-15 15h-10v-40h-130v105c0 35 25 60 60 60h35
c40 0 50 -10 70 -30l15 -15h10v40h130z" />
    <glyph glyph-name="OE" unicode="&#x152;" horiz-adv-x="805" 
d="M780 0h-590c-85 0 -140 55 -140 140v420c0 85 55 140 140 140h590v-120l-60 -60h-180v-85h155v-170h-155v-85h240v-180zM330 520h-60v-340h60v340z" />
    <glyph glyph-name="Racute" unicode="&#x154;" horiz-adv-x="610" 
d="M280 0h-220v700h365c85 0 140 -55 140 -140v-190c0 -85 -55 -110 -55 -110l70 -160v-100h-220l-56 235h-24v-235zM345 520h-65v-105h65v105zM280 920h210l-115 -160h-160z" />
    <glyph glyph-name="Rcaron" unicode="&#x158;" horiz-adv-x="610" 
d="M280 0h-220v700h365c85 0 140 -55 140 -140v-190c0 -85 -55 -110 -55 -110l70 -160v-100h-220l-56 235h-24v-235zM345 520h-65v-105h65v105zM401 760h-190l-90 160h160l20 -45h10l20 45h160z" />
    <glyph glyph-name="Rcommaaccent" unicode="&#x156;" horiz-adv-x="610" 
d="M280 0h-220v700h365c85 0 140 -55 140 -140v-190c0 -85 -55 -110 -55 -110l70 -160v-100h-220l-56 235h-24v-235zM345 520h-65v-105h65v105zM400 -170l-100 -130h-70v240h170v-110z" />
    <glyph glyph-name="Sacute" unicode="&#x15a;" horiz-adv-x="545" 
d="M30 425v135c0 85 55 140 140 140h325v-120l-60 -60h-185v-60l135 -25c75 -14 130 -70 130 -150v-145c0 -85 -55 -140 -140 -140h-345v180h265v70l-135 25c-75 14 -130 70 -130 150zM260 920h210l-115 -160h-160z" />
    <glyph glyph-name="Scaron" unicode="&#x160;" horiz-adv-x="545" 
d="M30 425v135c0 85 55 140 140 140h325v-120l-60 -60h-185v-60l135 -25c75 -14 130 -70 130 -150v-145c0 -85 -55 -140 -140 -140h-345v180h265v70l-135 25c-75 14 -130 70 -130 150zM380 760h-190l-90 160h160l20 -45h10l20 45h160z" />
    <glyph glyph-name="Scommaaccent" unicode="&#x218;" horiz-adv-x="545" 
d="M30 425v135c0 85 55 140 140 140h325v-120l-60 -60h-185v-60l135 -25c75 -14 130 -70 130 -150v-145c0 -85 -55 -140 -140 -140h-345v180h265v70l-135 25c-75 14 -130 70 -130 150zM355 -170l-100 -130h-70v240h170v-110z" />
    <glyph glyph-name="Tcaron" unicode="&#x164;" horiz-adv-x="520" 
d="M10 510v190h500v-130l-60 -60h-80v-510h-220v510h-140zM355 760h-190l-90 160h160l20 -45h10l20 45h160z" />
    <glyph glyph-name="Tcommaaccent" unicode="&#x162;" horiz-adv-x="520" 
d="M10 510v190h500v-130l-60 -60h-80v-510h-220v510h-140zM345 -170l-100 -130h-70v240h170v-110z" />
    <glyph glyph-name="Uacute" unicode="&#xda;" horiz-adv-x="610" 
d="M270 700v-530h70v530h220v-570c0 -85 -55 -140 -140 -140h-230c-85 0 -140 55 -140 140v570h220zM290 920h210l-115 -160h-160z" />
    <glyph glyph-name="Ucircumflex" unicode="&#xdb;" horiz-adv-x="610" 
d="M270 700v-530h70v530h220v-570c0 -85 -55 -140 -140 -140h-230c-85 0 -140 55 -140 140v570h220zM210 920h190l90 -160h-160l-20 45h-10l-20 -45h-160z" />
    <glyph glyph-name="Udieresis" unicode="&#xdc;" horiz-adv-x="610" 
d="M270 700v-530h70v530h220v-570c0 -85 -55 -140 -140 -140h-230c-85 0 -140 55 -140 140v570h220zM285 760h-170v160h170v-160zM495 760h-170v160h170v-160z" />
    <glyph glyph-name="Ugrave" unicode="&#xd9;" horiz-adv-x="610" 
d="M270 700v-530h70v530h220v-570c0 -85 -55 -140 -140 -140h-230c-85 0 -140 55 -140 140v570h220zM125 920h210l65 -160h-160z" />
    <glyph glyph-name="Uhungarumlaut" unicode="&#x170;" horiz-adv-x="610" 
d="M270 700v-530h70v530h220v-570c0 -85 -55 -140 -140 -140h-230c-85 0 -140 55 -140 140v570h220zM190 920h190l-105 -160h-150zM400 920h190l-105 -160h-150z" />
    <glyph glyph-name="Umacron" unicode="&#x16a;" horiz-adv-x="610" 
d="M270 700v-530h70v530h220v-570c0 -85 -55 -140 -140 -140h-230c-85 0 -140 55 -140 140v570h220zM145 910h320v-140h-320v140z" />
    <glyph glyph-name="Uring" unicode="&#x16e;" horiz-adv-x="610" 
d="M270 700v-530h70v530h220v-570c0 -85 -55 -140 -140 -140h-230c-85 0 -140 55 -140 140v570h220zM270 945h70c50 0 90 -40 90 -90v-30c0 -50 -40 -90 -90 -90h-70c-50 0 -90 40 -90 90v30c0 50 40 90 90 90zM325 855h-40v-30h40v30z" />
    <glyph glyph-name="Yacute" unicode="&#xdd;" 
d="M385 180v-180h-220v180l-155 420v100h220l40 -270h10l40 270h220v-100zM260 920h210l-115 -160h-160z" />
    <glyph glyph-name="Ydieresis" unicode="&#x178;" 
d="M385 180v-180h-220v180l-155 420v100h220l40 -270h10l40 270h220v-100zM255 760h-170v160h170v-160zM465 760h-170v160h170v-160z" />
    <glyph glyph-name="Zacute" unicode="&#x179;" horiz-adv-x="520" 
d="M275 190h225v-190h-480v180l225 320v10h-155l-60 60v130h470v-180l-225 -320v-10zM245 920h210l-115 -160h-160z" />
    <glyph glyph-name="Zcaron" unicode="&#x17d;" horiz-adv-x="520" 
d="M275 190h225v-190h-480v180l225 320v10h-155l-60 60v130h470v-180l-225 -320v-10zM360 760h-190l-90 160h160l20 -45h10l20 45h160z" />
    <glyph glyph-name="Zdotaccent" unicode="&#x17b;" horiz-adv-x="520" 
d="M275 190h225v-190h-480v180l225 320v10h-155l-60 60v130h470v-180l-225 -320v-10zM375 920v-160h-210v160h210z" />
    <glyph glyph-name="aacute" unicode="&#xe1;" horiz-adv-x="540" 
d="M240 135h40v70h-40v-70zM490 0h-150l-25 45h-5s-20 -55 -75 -55h-85c-65 0 -120 55 -120 120v90c0 65 55 120 120 120h130v50h-205v150h295c65 0 120 -55 120 -120v-400zM250 760h210l-115 -170h-160z" />
    <glyph glyph-name="abreve" unicode="&#x103;" horiz-adv-x="540" 
d="M240 135h40v70h-40v-70zM490 0h-150l-25 45h-5s-20 -55 -75 -55h-85c-65 0 -120 55 -120 120v90c0 65 55 120 120 120h130v50h-205v150h295c65 0 120 -55 120 -120v-400zM300 700v60h145v-90c0 -45 -35 -80 -80 -80h-180c-45 0 -80 35 -80 80v90h145v-60h50z" />
    <glyph glyph-name="acircumflex" unicode="&#xe2;" horiz-adv-x="540" 
d="M240 135h40v70h-40v-70zM490 0h-150l-25 45h-5s-20 -55 -75 -55h-85c-65 0 -120 55 -120 120v90c0 65 55 120 120 120h130v50h-205v150h295c65 0 120 -55 120 -120v-400zM180 760h190l90 -170h-160l-20 45h-10l-20 -45h-160z" />
    <glyph glyph-name="adieresis" unicode="&#xe4;" horiz-adv-x="540" 
d="M240 135h40v70h-40v-70zM490 0h-150l-25 45h-5s-20 -55 -75 -55h-85c-65 0 -120 55 -120 120v90c0 65 55 120 120 120h130v50h-205v150h295c65 0 120 -55 120 -120v-400zM255 590h-170v170h170v-170zM465 590h-170v170h170v-170z" />
    <glyph glyph-name="agrave" unicode="&#xe0;" horiz-adv-x="540" 
d="M240 135h40v70h-40v-70zM490 0h-150l-25 45h-5s-20 -55 -75 -55h-85c-65 0 -120 55 -120 120v90c0 65 55 120 120 120h130v50h-205v150h295c65 0 120 -55 120 -120v-400zM100 760h210l65 -170h-160z" />
    <glyph glyph-name="amacron" unicode="&#x101;" horiz-adv-x="540" 
d="M240 135h40v70h-40v-70zM490 0h-150l-25 45h-5s-20 -55 -75 -55h-85c-65 0 -120 55 -120 120v90c0 65 55 120 120 120h130v50h-205v150h295c65 0 120 -55 120 -120v-400zM115 750h320v-150h-320v150z" />
    <glyph glyph-name="aring" unicode="&#xe5;" horiz-adv-x="540" 
d="M240 135h40v70h-40v-70zM490 0h-150l-25 45h-5s-20 -55 -75 -55h-85c-65 0 -120 55 -120 120v90c0 65 55 120 120 120h130v50h-205v150h295c65 0 120 -55 120 -120v-400zM240 790h70c50 0 90 -40 90 -90v-50c0 -50 -40 -90 -90 -90h-70c-50 0 -90 40 -90 90v50
c0 50 40 90 90 90zM295 695h-40v-40h40v40z" />
    <glyph glyph-name="atilde" unicode="&#xe3;" horiz-adv-x="540" 
d="M240 135h40v70h-40v-70zM490 0h-150l-25 45h-5s-20 -55 -75 -55h-85c-65 0 -120 55 -120 120v90c0 65 55 120 120 120h130v50h-205v150h295c65 0 120 -55 120 -120v-400zM435 760v-115c0 -35 -25 -60 -60 -60h-35c-40 0 -50 10 -70 30l-15 15h-10v-40h-130v115
c0 35 25 60 60 60h35c40 0 50 -10 70 -30l15 -15h10v40h130z" />
    <glyph glyph-name="cacute" unicode="&#x107;" horiz-adv-x="470" 
d="M445 0h-285c-65 0 -120 55 -120 120v280c0 65 55 120 120 120h285v-115l-50 -55h-145v-180h195v-170zM255 760h210l-115 -170h-160z" />
    <glyph glyph-name="ccaron" unicode="&#x10d;" horiz-adv-x="470" 
d="M445 0h-285c-65 0 -120 55 -120 120v280c0 65 55 120 120 120h285v-115l-50 -55h-145v-180h195v-170zM355 590h-190l-90 170h160l20 -45h10l20 45h160z" />
    <glyph glyph-name="ccircumflex" unicode="&#x109;" horiz-adv-x="470" 
d="M445 0h-285c-65 0 -120 55 -120 120v280c0 65 55 120 120 120h285v-115l-50 -55h-145v-180h195v-170zM165 760h190l90 -170h-160l-20 45h-10l-20 -45h-160z" />
    <glyph glyph-name="dcaron" unicode="&#x10f;" horiz-adv-x="640" 
d="M295 350h-45v-190h45v190zM250 -10h-90c-65 0 -120 55 -120 120v290c0 65 55 120 120 120h135v180h210v-700h-150l-25 45h-5s-20 -55 -75 -55zM720 590l-100 -130h-70v240h170v-110z" />
    <glyph glyph-name="dcroat" unicode="&#x111;" horiz-adv-x="565" 
d="M250 -10h-90c-65 0 -120 55 -120 120v200c0 65 55 120 120 120h135v40h-110v160h110v70h210v-70h40v-160h-40v-470h-150l-25 45h-5s-20 -55 -75 -55zM295 260h-45v-100h45v100z" />
    <glyph glyph-name="eacute" unicode="&#xe9;" horiz-adv-x="530" 
d="M280 390h-30v-70h30v70zM160 530h210c65 0 120 -55 120 -120v-220h-240v-40h220v-150h-310c-65 0 -120 55 -120 120v290c0 65 55 120 120 120zM245 760h210l-115 -170h-160z" />
    <glyph glyph-name="ecaron" unicode="&#x11b;" horiz-adv-x="530" 
d="M280 390h-30v-70h30v70zM160 530h210c65 0 120 -55 120 -120v-220h-240v-40h220v-150h-310c-65 0 -120 55 -120 120v290c0 65 55 120 120 120zM360 590h-190l-90 170h160l20 -45h10l20 45h160z" />
    <glyph glyph-name="ecircumflex" unicode="&#xea;" horiz-adv-x="530" 
d="M280 390h-30v-70h30v70zM160 530h210c65 0 120 -55 120 -120v-220h-240v-40h220v-150h-310c-65 0 -120 55 -120 120v290c0 65 55 120 120 120zM170 760h190l90 -170h-160l-20 45h-10l-20 -45h-160z" />
    <glyph glyph-name="edieresis" unicode="&#xeb;" horiz-adv-x="530" 
d="M280 390h-30v-70h30v70zM160 530h210c65 0 120 -55 120 -120v-220h-240v-40h220v-150h-310c-65 0 -120 55 -120 120v290c0 65 55 120 120 120zM245 590h-170v170h170v-170zM455 590h-170v170h170v-170z" />
    <glyph glyph-name="edotaccent" unicode="&#x117;" horiz-adv-x="530" 
d="M280 390h-30v-70h30v70zM160 530h210c65 0 120 -55 120 -120v-220h-240v-40h220v-150h-310c-65 0 -120 55 -120 120v290c0 65 55 120 120 120zM370 760v-170h-210v170h210z" />
    <glyph glyph-name="egrave" unicode="&#xe8;" horiz-adv-x="530" 
d="M280 390h-30v-70h30v70zM160 530h210c65 0 120 -55 120 -120v-220h-240v-40h220v-150h-310c-65 0 -120 55 -120 120v290c0 65 55 120 120 120zM86 760h210l65 -170h-160z" />
    <glyph glyph-name="emacron" unicode="&#x113;" horiz-adv-x="530" 
d="M280 390h-30v-70h30v70zM160 530h210c65 0 120 -55 120 -120v-220h-240v-40h220v-150h-310c-65 0 -120 55 -120 120v290c0 65 55 120 120 120zM105 750h320v-150h-320v150z" />
    <glyph glyph-name="dotlessi" unicode="&#x131;" horiz-adv-x="310" 
d="M260 520v-520h-210v520h210z" />
    <glyph glyph-name="iacute" unicode="&#xed;" horiz-adv-x="310" 
d="M260 520v-520h-210v520h210zM140 760h210l-115 -170h-160z" />
    <glyph glyph-name="icircumflex" unicode="&#xee;" horiz-adv-x="310" 
d="M260 520v-520h-210v520h210zM60 760h190l90 -170h-160l-20 45h-10l-20 -45h-160z" />
    <glyph glyph-name="idieresis" unicode="&#xef;" horiz-adv-x="310" 
d="M260 520v-520h-210v520h210zM135 590h-170v170h170v-170zM345 590h-170v170h170v-170z" />
    <glyph glyph-name="igrave" unicode="&#xec;" horiz-adv-x="310" 
d="M260 520v-520h-210v520h210zM-40 760h210l65 -170h-160z" />
    <glyph glyph-name="imacron" unicode="&#x12b;" horiz-adv-x="310" 
d="M260 520v-520h-210v520h210zM-5 750h320v-150h-320v150z" />
    <glyph glyph-name="kcommaaccent" unicode="&#x137;" 
d="M270 700v-355h20l30 175h210v-90l-70 -170l75 -170v-90h-210l-35 175h-20v-175h-210v700h210zM385 -170l-100 -130h-70v240h170v-110z" />
    <glyph glyph-name="lacute" unicode="&#x13a;" horiz-adv-x="335" 
d="M315 0h-135c-65 0 -120 55 -120 120v580h210v-530h45v-170zM150 920h210l-115 -160h-160z" />
    <glyph glyph-name="lcaron" unicode="&#x13e;" horiz-adv-x="405" 
d="M315 0h-135c-65 0 -120 55 -120 120v580h210v-530h45v-170zM485 590l-100 -130h-70v240h170v-110z" />
    <glyph glyph-name="lcommaaccent" unicode="&#x13c;" horiz-adv-x="335" 
d="M315 0h-135c-65 0 -120 55 -120 120v580h210v-530h45v-170zM280 -170l-100 -130h-70v240h170v-110z" />
    <glyph glyph-name="lslash" unicode="&#x142;" horiz-adv-x="350" 
d="M315 0h-135c-65 0 -120 55 -120 120v145l-50 -25v170l50 25v265h210v-170l60 30v-170l-60 -30v-190h45v-170z" />
    <glyph glyph-name="nacute" unicode="&#x144;" horiz-adv-x="565" 
d="M260 0h-210v520h150l25 -45h5s20 55 75 55h90c65 0 120 -55 120 -120v-410h-210v360h-45v-360zM254 760h210l-115 -170h-160z" />
    <glyph glyph-name="ncaron" unicode="&#x148;" horiz-adv-x="565" 
d="M260 0h-210v520h150l25 -45h5s20 55 75 55h90c65 0 120 -55 120 -120v-410h-210v360h-45v-360zM377 590h-190l-90 170h160l20 -45h10l20 45h160z" />
    <glyph glyph-name="ncommaaccent" unicode="&#x146;" horiz-adv-x="565" 
d="M260 0h-210v520h150l25 -45h5s20 55 75 55h90c65 0 120 -55 120 -120v-410h-210v360h-45v-360zM367 -170l-100 -130h-70v240h170v-110z" />
    <glyph glyph-name="ntilde" unicode="&#xf1;" horiz-adv-x="565" 
d="M260 0h-210v520h150l25 -45h5s20 55 75 55h90c65 0 120 -55 120 -120v-410h-210v360h-45v-360zM442 770v-115c0 -35 -25 -60 -60 -60h-35c-40 0 -50 10 -70 30l-15 15h-10v-40h-130v115c0 35 25 60 60 60h35c40 0 50 -10 70 -30l15 -15h10v40h130z" />
    <glyph glyph-name="oacute" unicode="&#xf3;" 
d="M40 110v300c0 65 55 120 120 120h230c65 0 120 -55 120 -120v-300c0 -65 -55 -120 -120 -120h-230c-65 0 -120 55 -120 120zM300 160v200h-50v-200h50zM265 760h210l-115 -170h-160z" />
    <glyph glyph-name="ocircumflex" unicode="&#xf4;" 
d="M40 110v300c0 65 55 120 120 120h230c65 0 120 -55 120 -120v-300c0 -65 -55 -120 -120 -120h-230c-65 0 -120 55 -120 120zM300 160v200h-50v-200h50zM180 760h190l90 -170h-160l-20 45h-10l-20 -45h-160z" />
    <glyph glyph-name="odieresis" unicode="&#xf6;" 
d="M40 110v300c0 65 55 120 120 120h230c65 0 120 -55 120 -120v-300c0 -65 -55 -120 -120 -120h-230c-65 0 -120 55 -120 120zM300 160v200h-50v-200h50zM255 590h-170v170h170v-170zM465 590h-170v170h170v-170z" />
    <glyph glyph-name="ograve" unicode="&#xf2;" 
d="M40 110v300c0 65 55 120 120 120h230c65 0 120 -55 120 -120v-300c0 -65 -55 -120 -120 -120h-230c-65 0 -120 55 -120 120zM300 160v200h-50v-200h50zM105 760h210l65 -170h-160z" />
    <glyph glyph-name="ohungarumlaut" unicode="&#x151;" 
d="M40 110v300c0 65 55 120 120 120h230c65 0 120 -55 120 -120v-300c0 -65 -55 -120 -120 -120h-230c-65 0 -120 55 -120 120zM300 160v200h-50v-200h50zM160 760h190l-105 -170h-150zM370 760h190l-105 -170h-150z" />
    <glyph glyph-name="omacron" unicode="&#x14d;" 
d="M40 110v300c0 65 55 120 120 120h230c65 0 120 -55 120 -120v-300c0 -65 -55 -120 -120 -120h-230c-65 0 -120 55 -120 120zM300 160v200h-50v-200h50zM115 750h320v-150h-320v150z" />
    <glyph glyph-name="otilde" unicode="&#xf5;" 
d="M40 110v300c0 65 55 120 120 120h230c65 0 120 -55 120 -120v-300c0 -65 -55 -120 -120 -120h-230c-65 0 -120 55 -120 120zM300 160v200h-50v-200h50zM435 760v-115c0 -35 -25 -60 -60 -60h-35c-40 0 -50 10 -70 30l-15 15h-10v-40h-130v115c0 35 25 60 60 60h35
c40 0 50 -10 70 -30l15 -15h10v40h130z" />
    <glyph glyph-name="oe" unicode="&#x153;" horiz-adv-x="775" 
d="M290 160v200h-50v-200h50zM540 390h-40v-70h40v70zM320 -10h-160c-65 0 -120 55 -120 120v300c0 65 55 120 120 120h160c55 0 75 -55 75 -55h5s20 55 75 55h140c65 0 120 -55 120 -120v-220h-235v-40h215v-150h-245c-55 0 -70 45 -70 45h-5s-20 -55 -75 -55z" />
    <glyph glyph-name="racute" unicode="&#x155;" horiz-adv-x="405" 
d="M395 350h-135v-350h-210v520h150l25 -45h5s20 55 75 55h90v-180zM215 760h210l-115 -170h-160z" />
    <glyph glyph-name="rcaron" unicode="&#x159;" horiz-adv-x="405" 
d="M395 350h-135v-350h-210v520h150l25 -45h5s20 55 75 55h90v-180zM325 590h-190l-90 170h160l20 -45h10l20 45h160z" />
    <glyph glyph-name="rcommaaccent" unicode="&#x157;" horiz-adv-x="405" 
d="M395 350h-135v-350h-210v520h150l25 -45h5s20 55 75 55h90v-180zM240 -170l-100 -130h-70v240h170v-110z" />
    <glyph glyph-name="sacute" unicode="&#x15b;" horiz-adv-x="455" 
d="M20 330v70c0 65 55 120 120 120h275v-95l-50 -55h-135v-35l100 -25c65 -16 105 -55 105 -120v-70c0 -65 -55 -120 -120 -120h-295v150h205v35l-100 25c-65 16 -105 55 -105 120zM225 760h210l-115 -170h-160z" />
    <glyph glyph-name="scaron" unicode="&#x161;" horiz-adv-x="455" 
d="M20 330v70c0 65 55 120 120 120h275v-95l-50 -55h-135v-35l100 -25c65 -16 105 -55 105 -120v-70c0 -65 -55 -120 -120 -120h-295v150h205v35l-100 25c-65 16 -105 55 -105 120zM335 590h-190l-90 170h160l20 -45h10l20 45h160z" />
    <glyph glyph-name="scommaaccent" unicode="&#x219;" horiz-adv-x="455" 
d="M20 330v70c0 65 55 120 120 120h275v-95l-50 -55h-135v-35l100 -25c65 -16 105 -55 105 -120v-70c0 -65 -55 -120 -120 -120h-295v150h205v35l-100 25c-65 16 -105 55 -105 120zM320 -170l-100 -130h-70v240h170v-110z" />
    <glyph glyph-name="tcaron" unicode="&#x165;" horiz-adv-x="470" 
d="M365 0h-190c-65 0 -120 55 -120 120v220h-45v180h55l70 130h130v-130h85v-180h-85v-170h100v-170zM550 590l-100 -130h-70v240h170v-110z" />
    <glyph glyph-name="tcommaaccent" unicode="&#x163;" horiz-adv-x="385" 
d="M365 0h-190c-65 0 -120 55 -120 120v220h-45v180h55l70 130h130v-130h85v-180h-85v-170h100v-170zM295 -170l-100 -130h-70v240h170v-110z" />
    <glyph glyph-name="uacute" unicode="&#xfa;" horiz-adv-x="565" 
d="M305 520h210v-520h-150l-25 45h-5s-20 -55 -75 -55h-90c-65 0 -120 55 -120 120v410h210v-360h45v360zM265 760h210l-115 -170h-160z" />
    <glyph glyph-name="udieresis" unicode="&#xfc;" horiz-adv-x="565" 
d="M305 520h210v-520h-150l-25 45h-5s-20 -55 -75 -55h-90c-65 0 -120 55 -120 120v410h210v-360h45v360zM262 590h-170v170h170v-170zM472 590h-170v170h170v-170z" />
    <glyph glyph-name="ucircumflex" unicode="&#xfb;" horiz-adv-x="565" 
d="M305 520h210v-520h-150l-25 45h-5s-20 -55 -75 -55h-90c-65 0 -120 55 -120 120v410h210v-360h45v360zM187 760h190l90 -170h-160l-20 45h-10l-20 -45h-160z" />
    <glyph glyph-name="uhungarumlaut" unicode="&#x171;" horiz-adv-x="565" 
d="M305 520h210v-520h-150l-25 45h-5s-20 -55 -75 -55h-90c-65 0 -120 55 -120 120v410h210v-360h45v360zM165 760h190l-105 -170h-150zM375 760h190l-105 -170h-150z" />
    <glyph glyph-name="ugrave" unicode="&#xf9;" horiz-adv-x="565" 
d="M305 520h210v-520h-150l-25 45h-5s-20 -55 -75 -55h-90c-65 0 -120 55 -120 120v410h210v-360h45v360zM90 760h210l65 -170h-160z" />
    <glyph glyph-name="umacron" unicode="&#x16b;" horiz-adv-x="565" 
d="M305 520h210v-520h-150l-25 45h-5s-20 -55 -75 -55h-90c-65 0 -120 55 -120 120v410h210v-360h45v360zM122 750h320v-150h-320v150z" />
    <glyph glyph-name="uring" unicode="&#x16f;" horiz-adv-x="565" 
d="M305 520h210v-520h-150l-25 45h-5s-20 -55 -75 -55h-90c-65 0 -120 55 -120 120v410h210v-360h45v360zM247 790h70c50 0 90 -40 90 -90v-50c0 -50 -40 -90 -90 -90h-70c-50 0 -90 40 -90 90v50c0 50 40 90 90 90zM302 695h-40v-40h40v40z" />
    <glyph glyph-name="yacute" unicode="&#xfd;" horiz-adv-x="500" 
d="M490 430l-105 -460c-17 -75 -80 -140 -170 -140h-155v170h75v10l-125 420v90h215l25 -280h10l20 280h210v-90zM230 760h210l-115 -170h-160z" />
    <glyph glyph-name="ydieresis" unicode="&#xff;" horiz-adv-x="500" 
d="M490 430l-105 -460c-17 -75 -80 -140 -170 -140h-155v170h75v10l-125 420v90h215l25 -280h10l20 280h210v-90zM232 590h-170v170h170v-170zM442 590h-170v170h170v-170z" />
    <glyph glyph-name="zacute" unicode="&#x17a;" horiz-adv-x="475" 
d="M195 340v10h-120l-50 55v115h425v-160l-170 -180v-10h170v-170h-425v160zM225 760h210l-115 -170h-160z" />
    <glyph glyph-name="zcaron" unicode="&#x17e;" horiz-adv-x="475" 
d="M195 340v10h-120l-50 55v115h425v-160l-170 -180v-10h170v-170h-425v160zM332 590h-190l-90 170h160l20 -45h10l20 45h160z" />
    <glyph glyph-name="zdotaccent" unicode="&#x17c;" horiz-adv-x="475" 
d="M195 340v10h-120l-50 55v115h425v-160l-170 -180v-10h170v-170h-425v160zM342 760v-170h-210v170h210z" />
    <glyph glyph-name="exclamdown" unicode="&#xa1;" horiz-adv-x="320" 
d="M240 280l40 -250v-200h-240v200l40 250h160zM70 520h180v-180h-180v180z" />
    <glyph glyph-name="questiondown" unicode="&#xbf;" horiz-adv-x="470" 
d="M170 242v38h190v-80c0 -95 -120 -124 -120 -124v-66h170l60 -60v-120h-310c-85 0 -140 55 -140 140v140c0 105 150 132 150 132zM175 520h180v-180h-180v180z" />
    <glyph glyph-name="divide" unicode="&#xf7;" horiz-adv-x="500" 
d="M40 405h420v-170h-420v170zM340 40h-180v160h180v-160zM340 440h-180v160h180v-160z" />
    <glyph glyph-name="multiply" unicode="&#xd7;" horiz-adv-x="530" 
d="M265 200l-105 -105l-120 120l105 105l-105 105l120 120l105 -105l105 105l120 -120l-105 -105l105 -105l-120 -120z" />
    <glyph glyph-name="germandbls" unicode="&#xdf;" horiz-adv-x="605" 
d="M480 375v-10s105 -15 105 -120v-125c0 -65 -55 -120 -120 -120h-145v160h55v60s-75 25 -75 110v65c0 60 40 88 40 88v57h-70v-540h-210v590c0 65 55 120 120 120h230c65 0 120 -55 120 -120v-125c0 -80 -50 -90 -50 -90z" />
    <glyph glyph-name="Thorn" unicode="&#xde;" horiz-adv-x="595" 
d="M280 0h-220v700h220v-100h145c85 0 140 -55 140 -140v-230c0 -85 -55 -140 -140 -140h-145v-90zM345 420h-65v-150h65v150z" />
    <glyph glyph-name="thorn" unicode="&#xfe;" horiz-adv-x="565" 
d="M270 170h45v180h-45v-180zM270 520h135c65 0 120 -55 120 -120v-280c0 -65 -55 -120 -120 -120h-135v-170h-210v870h210v-180z" />
    <glyph glyph-name="eth" unicode="&#xf0;" 
d="M40 110v220c0 65 55 120 120 120h135v60l-35 5l-10 -45l-165 25l10 50l-40 5l25 180l45 -10l10 50l165 -30l-10 -45l30 -5c120 -20 185 -85 185 -190v-390c0 -65 -55 -120 -120 -120h-225c-65 0 -120 55 -120 120zM295 280h-45v-120h45v120z" />
    <glyph glyph-name="florin" unicode="&#x192;" horiz-adv-x="390" 
d="M170 710h240v-115l-50 -55h-100v-80h105v-180h-105v-330c0 -65 -55 -120 -120 -120h-170v170h80v590c0 65 55 120 120 120z" />
    <glyph glyph-name="cent" unicode="&#xa2;" horiz-adv-x="470" 
d="M165 0h-5c-65 0 -120 55 -120 120v280c0 65 55 120 120 120h5v80h200v-80h80v-115l-50 -55h-145v-180h195v-170h-80v-80h-200v80z" />
    <glyph glyph-name="yen" unicode="&#xa5;" 
d="M495 225h-95l-10 -30h105v-135h-110v-60h-220v60h-110v135h105l-10 30h-95v135h45l-90 240v100h220l40 -270h10l40 270h220v-100l-90 -240h45v-135z" />
    <glyph glyph-name="sterling" unicode="&#xa3;" horiz-adv-x="505" 
d="M220 710h240v-115l-50 -55h-100v-80h95v-180h-85v-20c0 -45 -35 -60 -35 -60v-10h210v-190h-485v190h43c2 0 47 15 47 70v20h-35v180h35v130c0 65 55 120 120 120z" />
    <glyph glyph-name="onequarter" unicode="&#xbc;" horiz-adv-x="735" 
d="M450 700h125v-100l-340 -600h-125v100zM220 700v-340h-145v220h-55v80l100 40h100zM400 50v100l100 190h160v-190h25v-100h-25v-50h-140v50h-120zM515 150h25v40h-10l-15 -30v-10z" />
    <glyph glyph-name="onesuperior" unicode="&#xb9;" horiz-adv-x="260" 
d="M220 700v-340h-145v220h-55v80l100 40h100z" />
    <glyph glyph-name="twosuperior" unicode="&#xb2;" horiz-adv-x="310" 
d="M30 360v110l115 90v20h-110v120h160c45 0 85 -40 85 -85v-20c0 -50 -30 -75 -30 -75l-45 -40v-10h75v-110h-250z" />
    <glyph glyph-name="threesuperior" unicode="&#xb3;" horiz-adv-x="330" 
d="M205 360h-175v95h125v35h-65v65l50 40v10h-105v95h240v-95l-45 -36v-9s60 -10 60 -80v-35c0 -45 -40 -85 -85 -85z" />
    <glyph glyph-name="onehalf" unicode="&#xbd;" horiz-adv-x="750" 
d="M450 700h125v-100l-340 -600h-125v100zM220 700v-340h-145v220h-55v80l100 40h100zM450 0v110l115 90v20h-110v120h160c45 0 85 -40 85 -85v-20c0 -50 -30 -75 -30 -75l-45 -40v-10h75v-110h-250z" />
    <glyph glyph-name="threequarters" unicode="&#xbe;" horiz-adv-x="775" 
d="M490 700h125v-100l-340 -600h-125v100zM440 50v100l100 190h160v-190h25v-100h-25v-50h-140v50h-120zM555 150h25v40h-10l-15 -30v-10zM195 360h-175v95h125v35h-65v65l50 40v10h-105v95h240v-95l-45 -36v-9s60 -10 60 -80v-35c0 -45 -40 -85 -85 -85z" />
    <glyph glyph-name="ordfeminine" unicode="&#xaa;" horiz-adv-x="360" 
d="M320 360h-100l-10 35h-5s-15 -35 -60 -35h-40c-45 0 -85 40 -85 85v35c0 45 40 85 85 85h80v35h-125v100h175c45 0 85 -40 85 -85v-255zM155 450h30v45h-30v-45z" />
    <glyph glyph-name="afii10055" unicode="&#x406;" horiz-adv-x="340" 
d="M280 0h-220v700h220v-700z" />
    <glyph glyph-name="afii10103" unicode="&#x456;" horiz-adv-x="310" 
d="M260 520v-520h-210v520h210zM260 760v-170h-210v170h210z" />
    <glyph glyph-name="afii10054" unicode="&#x405;" horiz-adv-x="545" 
d="M30 425v135c0 85 55 140 140 140h325v-120l-60 -60h-185v-60l135 -25c75 -14 130 -70 130 -150v-145c0 -85 -55 -140 -140 -140h-345v180h265v70l-135 25c-75 14 -130 70 -130 150z" />
    <glyph glyph-name="afii10102" unicode="&#x455;" horiz-adv-x="455" 
d="M20 330v70c0 65 55 120 120 120h275v-95l-50 -55h-135v-35l100 -25c65 -16 105 -55 105 -120v-70c0 -65 -55 -120 -120 -120h-295v150h205v35l-100 25c-65 16 -105 55 -105 120z" />
    <glyph glyph-name="afii10105" unicode="&#x458;" horiz-adv-x="310" 
d="M260 760v-170h-210v170h210zM140 -170h-170v170h80v520h210v-570c0 -65 -55 -120 -120 -120z" />
    <glyph glyph-name="afii10057" unicode="&#x408;" horiz-adv-x="460" 
d="M190 700h220v-570c0 -85 -55 -140 -140 -140h-260v180h180v530z" />
    <glyph glyph-name="uni00AD" unicode="&#xad;" horiz-adv-x="445" 
d="M40 410h365v-180h-365v180z" />
    <glyph glyph-name="afii10052" unicode="&#x403;" horiz-adv-x="515" 
d="M505 700v-130l-60 -60h-165v-510h-220v700h445zM265 920h210l-115 -160h-160z" />
    <glyph glyph-name="afii10100" unicode="&#x453;" horiz-adv-x="450" 
d="M50 0v520h400v-125l-50 -55h-140v-340h-210zM240 760h210l-115 -170h-160z" />
    <glyph glyph-name="afii10061" unicode="&#x40c;" horiz-adv-x="610" 
d="M280 0h-220v700h220v-250h35l45 250h220v-100l-85 -250l100 -250v-100h-220l-60 250h-35v-250zM295 920h210l-115 -160h-160z" />
    <glyph glyph-name="afii10071" unicode="&#x451;" horiz-adv-x="530" 
d="M280 390h-30v-70h30v70zM160 530h210c65 0 120 -55 120 -120v-220h-240v-40h220v-150h-310c-65 0 -120 55 -120 120v290c0 65 55 120 120 120zM245 590h-170v170h170v-170zM455 590h-170v170h170v-170z" />
    <glyph glyph-name="afii10109" unicode="&#x45c;" horiz-adv-x="540" 
d="M260 520v-175h20l30 175h210v-90l-70 -170l75 -170v-90h-210l-35 175h-20v-175h-210v520h210zM255 760h210l-115 -170h-160z" />
    <glyph glyph-name="afii10062" unicode="&#x40e;" 
d="M10 700h220l45 -320h9l36 320h220v-100l-130 -460c-27 -95 -80 -150 -170 -150h-160v180h65v10l-135 420v100zM305 890v60h140v-100c0 -45 -35 -80 -80 -80h-170c-45 0 -80 35 -80 80v100h140v-60h50z" />
    <glyph glyph-name="afii10110" unicode="&#x45e;" horiz-adv-x="500" 
d="M490 430l-105 -460c-17 -75 -80 -140 -170 -140h-155v170h75v10l-125 420v90h215l25 -280h10l20 280h210v-90zM275 700v60h145v-90c0 -45 -35 -80 -80 -80h-170c-45 0 -80 35 -80 80v90h145v-60h40z" />
    <glyph glyph-name="afii10056" unicode="&#x407;" horiz-adv-x="340" 
d="M280 0h-220v700h220v-700zM150 760h-170v160h170v-160zM360 760h-170v160h170v-160z" />
    <glyph glyph-name="afii10023" unicode="&#x401;" 
d="M525 700v-120l-60 -60h-185v-85h160v-170h-160v-85h245v-180h-465v700h465zM272 760h-170v160h170v-160zM482 760h-170v160h170v-160z" />
    <glyph glyph-name="afii57929" unicode="&#x2bc;" horiz-adv-x="250" 
d="M210 590l-100 -130h-70v240h170v-110z" />
    <glyph glyph-name="minus" unicode="&#x2212;" horiz-adv-x="480" 
d="M40 405h400v-170h-400v170z" />
    <glyph glyph-name="Aogonek" unicode="&#x104;" horiz-adv-x="570" 
d="M500 -130h60v-110h-105c-80 0 -125 45 -125 100c0 100 110 140 110 140h-90l-15 110h-100l-15 -110h-220v100l130 600h310l130 -600v-110s-90 -45 -90 -100c0 -10 10 -20 20 -20zM280 440l-25 -170h60l-25 170h-10z" />
    <glyph glyph-name="Ccedilla" unicode="&#xc7;" horiz-adv-x="540" 
d="M350 -250h-150v100h120v20h-55l-40 35v95h-35c-85 0 -140 55 -140 140v420c0 85 55 140 140 140h325v-120l-60 -60h-185v-340h245v-180h-180v-30h15c50 0 95 -45 95 -95v-30c0 -50 -45 -95 -95 -95z" />
    <glyph glyph-name="Dcroat" unicode="&#x110;" horiz-adv-x="600" 
d="M410 0h-350v270h-50v160h50v270h350c85 0 140 -55 140 -140v-420c0 -85 -55 -140 -140 -140zM330 520h-60v-90h40v-160h-40v-90h60v340z" />
    <glyph glyph-name="Eth" unicode="&#xd0;" horiz-adv-x="600" 
d="M410 0h-350v270h-50v160h50v270h350c85 0 140 -55 140 -140v-420c0 -85 -55 -140 -140 -140zM330 520h-60v-90h40v-160h-40v-90h60v340z" />
    <glyph glyph-name="Gcommaaccent" unicode="&#x122;" horiz-adv-x="590" 
d="M540 0h-350c-85 0 -140 55 -140 140v420c0 85 55 140 140 140h325v-120l-60 -60h-185v-340h60v220h210v-400zM400 -170l-100 -130h-70v240h170v-110z" />
    <glyph glyph-name="ccedilla" unicode="&#xe7;" horiz-adv-x="470" 
d="M305 -250h-150v100h120v20h-55l-40 35v95h-20c-65 0 -120 55 -120 120v280c0 65 55 120 120 120h285v-115l-50 -55h-145v-180h195v-170h-155v-30h15c50 0 95 -45 95 -95v-30c0 -50 -45 -95 -95 -95z" />
    <glyph glyph-name="ae" unicode="&#xe6;" horiz-adv-x="755" 
d="M520 390h-40v-70h40v70zM300 -10h-150c-65 0 -120 55 -120 120v90c0 65 55 120 120 120h120v60h-195v150h225c55 0 75 -55 75 -55h5s20 55 75 55h140c65 0 120 -55 120 -120v-220h-235v-40h215v-150h-245c-55 0 -70 45 -70 45h-5s-20 -55 -75 -55zM230 135h40v70h-40v-70
z" />
    <glyph glyph-name="eogonek" unicode="&#x119;" horiz-adv-x="530" 
d="M400 -130h60v-110h-105c-80 0 -125 45 -125 100c0 100 110 140 110 140h-180c-65 0 -120 55 -120 120v290c0 65 55 120 120 120h210c65 0 120 -55 120 -120v-220h-240v-40h220v-160s-90 -45 -90 -100c0 -10 10 -20 20 -20zM280 390h-30v-70h30v70z" />
    <glyph glyph-name="Iogonek" unicode="&#x12e;" horiz-adv-x="340" 
d="M280 0h-220v700h220v-700zM210 -130h60v-110c3 0 -58 0 -105 0c-80 0 -125 45 -125 100c0 100 110 140 110 140h130v-10s-90 -45 -90 -100c0 -10 10 -20 20 -20z" />
    <glyph glyph-name="Scedilla" unicode="&#x15e;" horiz-adv-x="545" 
d="M320 -250h-150v100h120v20h-55l-40 35v95h-165v180h265v70l-135 25c-75 14 -130 70 -130 150v135c0 85 55 140 140 140h325v-120l-60 -60h-185v-60l135 -25c75 -14 130 -70 130 -150v-145c0 -85 -55 -140 -140 -140h-70v-30h15c50 0 95 -45 95 -95v-30
c0 -50 -45 -95 -95 -95z" />
    <glyph glyph-name="iogonek" unicode="&#x12f;" horiz-adv-x="310" 
d="M190 -130h60v-110h-105c-80 0 -125 45 -125 100c0 100 110 140 110 140h-80v520h210v-530s-90 -45 -90 -100c0 -10 10 -20 20 -20zM260 760v-170h-210v170h210z" />
    <glyph glyph-name="scedilla" unicode="&#x15f;" horiz-adv-x="455" 
d="M265 -250h-150v100h120v20h-55l-40 35v95h-120v150h205v35l-100 25c-65 16 -105 55 -105 120v70c0 65 55 120 120 120h275v-95l-50 -55h-135v-35l100 -25c65 -16 105 -55 105 -120v-70c0 -65 -55 -120 -120 -120h-65v-30h15c50 0 95 -45 95 -95v-30
c0 -50 -45 -95 -95 -95z" />
    <glyph glyph-name="oslash" unicode="&#xf8;" 
d="M40 110v300c0 65 55 120 120 120h230c65 0 120 -55 120 -120v-300c0 -65 -55 -120 -120 -120h-230c-65 0 -120 55 -120 120zM245 310l55 60h-60v-60h5zM305 210l-55 -60h60v60h-5z" />
    <glyph glyph-name="uni20BD" unicode="&#x20bd;" horiz-adv-x="600" 
d="M285 0h-220v100h-45v130h45v40h-45v140h45v290h365c85 0 140 -55 140 -140v-150c0 -85 -55 -140 -140 -140h-145v-40h185v-130h-185v-100zM350 520h-65v-110h65v110z" />
    <glyph glyph-name="B" unicode="B" horiz-adv-x="600" 
d="M60 700h345c85 0 140 -55 140 -140v-70c0 -115 -85 -120 -85 -120v-10s110 -5 110 -130v-90c0 -85 -55 -140 -140 -140h-370v700zM280 170h70v105h-70v-105zM325 530h-45v-95h45v95z" />
    <glyph glyph-name="foundryicon" horiz-adv-x="1230" 
d="M100 -110v920h1030v-920h-1030zM1110 -90v880h-990v-880h990zM635 610h110c50 0 80 -30 80 -65s-30 -65 -80 -65h-55v-80h-55v210zM635 300h110c50 0 80 -30 80 -65s-30 -65 -80 -65h-55v-80h-55v210zM495 170l-75 130h60l40 -75h5l40 75h65l-80 -130v-80h-55v80z
M495 480l-75 130h60l40 -75h5l40 75h65l-80 -130v-80h-55v80zM300 255h-65v45h165l25 -45h-70v-165h-55v165zM300 565h-65v45h165l25 -45h-70v-165h-55v165zM790 400v65c25 5 55 30 60 60h80v-45h-85v-35h120v-45h-175zM790 90v65c25 5 55 30 60 60h80v-45h-85v-35h120v-45
h-175zM810 300h155v-45h-115c-5 20 -20 40 -40 45zM810 610h155v-45h-115c-5 20 -20 40 -40 45zM765 545c0 10 -10 20 -20 20h-55v-40h55c10 0 20 9 20 20zM765 235c0 10 -10 20 -20 20h-55v-40h55c10 0 20 9 20 20z" />
    <glyph glyph-name="Germandbls" horiz-adv-x="620" 
d="M270 520v-520h-220v560c0 85 55 140 140 140h365v-180l-55 -95v-10s80 -15 80 -125v-150c0 -85 -55 -140 -140 -140h-115v180h48v85h-73v150l55 95v10h-85z" />
    <glyph glyph-name="uni1E9E" unicode="&#x1e9e;" horiz-adv-x="620" 
d="M270 520v-520h-220v560c0 85 55 140 140 140h365v-180l-55 -95v-10s80 -15 80 -125v-150c0 -85 -55 -140 -140 -140h-115v180h48v85h-73v150l55 95v10h-85z" />
    <glyph glyph-name="cyrbreve" unicode="&#xf6d4;" horiz-adv-x="410" 
d="M225 700v60h145v-90c0 -45 -35 -80 -80 -80h-170c-45 0 -80 35 -80 80v90h145v-60h40z" />
    <glyph glyph-name="cyrBreve" unicode="&#xf6d1;" horiz-adv-x="410" 
d="M230 890v60h140v-100c0 -45 -35 -80 -80 -80h-170c-45 0 -80 35 -80 80v100h140v-60h50z" />
    <glyph glyph-name="uni20B4" unicode="&#x20b4;" horiz-adv-x="575" 
d="M550 365h-525v105h265v50h-170l-60 60v120h310c85 0 140 -55 140 -140v-90h40v-105zM25 335h525v-105h-265v-50h230v-180h-310c-85 0 -140 55 -140 140v90h-40v105z" />
    <glyph glyph-name="fraction" unicode="&#x2044;" horiz-adv-x="505" 
d="M360 700h125v-100l-340 -600h-125v100z" />
    <glyph glyph-name="ordmasculine" unicode="&#xba;" horiz-adv-x="380" 
d="M255 360h-130c-45 0 -85 40 -85 85v170c0 45 40 85 85 85h130c45 0 85 -40 85 -85v-170c0 -45 -40 -85 -85 -85zM175 480h30v100h-30v-100z" />
    <glyph glyph-name="foursuperior" unicode="&#x2074;" horiz-adv-x="345" 
d="M30 410v100l100 190h160v-190h25v-100h-25v-50h-140v50h-120zM145 510h25v40h-10l-15 -30v-10z" />
    <glyph glyph-name="C" unicode="C" horiz-adv-x="540" 
d="M515 0h-325c-85 0 -140 55 -140 140v420c0 85 55 140 140 140h325v-120l-60 -60h-185v-340h245v-180z" />
    <glyph glyph-name="g" unicode="g" horiz-adv-x="505" 
d="M225 390v-70h40v70h-40zM210 20v-60h75v60h-75zM245 160h130c65 0 120 -55 120 -120v-100c0 -65 -55 -120 -120 -120h-255c-65 0 -120 55 -120 120v80c0 75 80 90 80 90v10s-25 5 -25 30v50c0 25 20 30 20 30v10s-50 15 -50 80v90c0 65 55 120 120 120h110l25 80h160v-90
l-25 -20v-10s50 -15 50 -80v-110c0 -65 -55 -120 -120 -120h-100c-5 0 -10 -5 -10 -10s5 -10 10 -10z" />
    <glyph glyph-name="gcommaaccent" unicode="&#x123;" horiz-adv-x="555" 
d="M385 -170h-315v170h225v50h-135c-65 0 -120 55 -120 120v240c0 65 55 120 120 120h90c55 0 75 -55 75 -55h5l25 45h150v-570c0 -65 -55 -120 -120 -120zM250 220h45v140h-45v-140zM205 700l100 130h70v-240h-170v110z" />
    <glyph glyph-name="gbreve" unicode="&#x11f;" horiz-adv-x="555" 
d="M385 -170h-315v170h225v50h-135c-65 0 -120 55 -120 120v240c0 65 55 120 120 120h90c55 0 75 -55 75 -55h5l25 45h150v-570c0 -65 -55 -120 -120 -120zM305 700v60h145v-90c0 -45 -35 -80 -80 -80h-180c-45 0 -80 35 -80 80v90h145v-60h50zM250 220h45v140h-45v-140z
" />
    <glyph glyph-name="Eogonek" unicode="&#x118;" 
d="M455 -130h60v-110h-105c-80 0 -125 45 -125 100c0 100 110 140 110 140h-335v700h465v-120l-60 -60h-185v-85h160v-170h-160v-85h245v-190s-90 -45 -90 -100c0 -10 10 -20 20 -20z" />
    <glyph glyph-name="aogonek" unicode="&#x105;" horiz-adv-x="540" 
d="M420 -130h60v-110h-105c-80 0 -125 45 -125 100c0 100 110 140 110 140h-20l-25 45h-5s-20 -55 -75 -55h-85c-65 0 -120 55 -120 120v90c0 65 55 120 120 120h130v50h-205v150h295c65 0 120 -55 120 -120v-410s-90 -45 -90 -100c0 -10 10 -20 20 -20zM240 135h40v70h-40
v-70z" />
    <glyph glyph-name="Uogonek" unicode="&#x172;" horiz-adv-x="610" 
d="M350 -130h60v-110h-105c-80 0 -125 45 -125 100c0 90 90 130 90 130h-80c-85 0 -140 55 -140 140v570h220v-530h70v530h220v-570c0 -85 -55 -140 -140 -140c0 0 -90 -45 -90 -100c0 -10 10 -20 20 -20z" />
    <glyph glyph-name="uogonek" unicode="&#x173;" horiz-adv-x="565" 
d="M445 -130h60v-110h-105c-80 0 -125 45 -125 100c0 100 110 140 110 140h-20l-25 45h-5s-20 -55 -75 -55h-90c-65 0 -120 55 -120 120v410h210v-360h45v360h210v-530s-90 -45 -90 -100c0 -10 10 -20 20 -20z" />
    <glyph glyph-name="Aring" unicode="&#xc5;" horiz-adv-x="570" 
d="M250 930h70c50 0 90 -40 90 -90v-70c0 -50 -35 -70 -35 -70h65l130 -600v-100h-220l-15 110h-100l-15 -110h-220v100l130 600h65s-35 20 -35 70v70c0 50 40 90 90 90zM280 440l-25 -170h60l-25 170h-10zM305 830h-40v-60h40v60z" />
    <glyph glyph-name="D" unicode="D" horiz-adv-x="600" 
d="M330 520h-50v-340h50v340zM410 0h-350v700h350c85 0 140 -55 140 -140v-420c0 -85 -55 -140 -140 -140z" />
    <glyph glyph-name="Acute" unicode="&#xf6c9;" horiz-adv-x="355" 
d="M105 920h210l-115 -160h-160z" />
    <glyph glyph-name="Breve" unicode="&#xf406;" horiz-adv-x="420" 
d="M235 870v50h145v-80c0 -45 -35 -80 -80 -80h-180c-45 0 -80 35 -80 80v80h145v-50h50z" />
    <glyph glyph-name="Caron" unicode="&#xf6ca;" horiz-adv-x="450" 
d="M320 760h-190l-90 160h160l20 -45h10l20 45h160z" />
    <glyph glyph-name="Circumflex" unicode="&#xf408;" horiz-adv-x="450" 
d="M130 920h190l90 -160h-160l-20 45h-10l-20 -45h-160z" />
    <glyph glyph-name="Dieresis" unicode="&#xf6cb;" horiz-adv-x="460" 
d="M210 760h-170v160h170v-160zM420 760h-170v160h170v-160z" />
    <glyph glyph-name="Dotaccent" unicode="&#xf40b;" horiz-adv-x="290" 
d="M250 920v-160h-210v160h210z" />
    <glyph glyph-name="Hungarumlaut" unicode="&#xf6cf;" horiz-adv-x="545" 
d="M105 920h190l-105 -160h-150zM315 920h190l-105 -160h-150z" />
    <glyph glyph-name="Macron" unicode="&#xf6d0;" horiz-adv-x="400" 
d="M40 910h320v-140h-320v140z" />
    <glyph glyph-name="Ring" unicode="&#xf40c;" horiz-adv-x="330" 
d="M130 945h70c50 0 90 -40 90 -90v-30c0 -50 -40 -90 -90 -90h-70c-50 0 -90 40 -90 90v30c0 50 40 90 90 90zM185 855h-40v-30h40v30z" />
    <glyph glyph-name="Tilde" unicode="&#xf40d;" horiz-adv-x="400" 
d="M360 920v-105c0 -35 -25 -60 -60 -60h-35c-40 0 -50 10 -70 30l-15 15h-10v-40h-130v105c0 35 25 60 60 60h35c40 0 50 -10 70 -30l15 -15h10v40h130z" />
    <glyph glyph-name="Grave" unicode="&#xf6ce;" horiz-adv-x="355" 
d="M40 920h210l65 -160h-160z" />
    <glyph glyph-name="E" unicode="E" 
d="M525 700v-120l-60 -60h-185v-85h160v-170h-160v-85h245v-180h-465v700h465z" />
    <glyph glyph-name="nbspace" unicode="&#xa0;" horiz-adv-x="0" 
 />
    <glyph glyph-name="CR" unicode="&#xd;" horiz-adv-x="0" 
 />
    <glyph glyph-name=".null" horiz-adv-x="0" 
 />
    <glyph glyph-name=".null" horiz-adv-x="0" 
 />
    </font>
</defs>
</svg>
